<svg xmlns="http://www.w3.org/2000/svg" xmlns:xlink="http://www.w3.org/1999/xlink" width="24" height="24" viewBox="0 0 24 24" fill="none"><path d="M8.51 11.8501L5.59 10.1001L5.57 10.0901L5.55 10.0801L5.52 10.0701L5.5 10.0601L5.48 10.0501L5.45 10.0501L5.43 10.0401L5.41 10.0401L5.38 10.0301L5.36 10.0301L5.33 10.0301L5.31 10.0301L5.29 10.0301L5.26 10.0401L5.24 10.0401L5.21 10.0501L5.19 10.0501L5.17 10.0601L5.15 10.0701L5.12 10.0801L5.1 10.0901L5.08 10.1001L5.06 10.1101L5.04 10.1301L5.02 10.1401L5 10.1601L4.99 10.1801L4.97 10.1901L4.95 10.2101L4.94 10.2301L4.92 10.2501L4.91 10.2701L4.9 10.2901L4.89 10.3101L4.88 10.3401L4.87 10.3601L4.86 10.3801L4.86 10.4101L4.85 10.4301L4.85 10.4501L4.84 10.4801L4.84 10.5001L4.84 10.5301L4.84 10.5501L4.84 10.5801L4.84 10.6001L4.85 10.6201L4.85 10.6501L4.86 10.6701L4.87 10.6901L4.88 10.7201L4.89 10.7401L4.9 10.7601L4.91 10.7801L4.92 10.8001L4.94 10.8201L4.95 10.8401L4.97 10.8601L4.98 10.8801L5 10.9001L5.02 10.9101L5.04 10.9301L5.06 10.9401L5.08 10.9501L8 12.7001C8.23455 12.8429 8.54267 12.7694 8.68 12.5301L8.69 12.5101L8.7 12.4901L8.71 12.4701L8.72 12.4401L8.73 12.4201L8.73 12.4001L8.74 12.3701L8.74 12.3501L8.75 12.3301L8.75 12.3001L8.75 12.2801L8.75 12.2501L8.75 12.2301L8.74 12.2001L8.74 12.1801L8.73 12.1601L8.73 12.1301L8.72 12.1101L8.71 12.0901L8.7 12.0701L8.69 12.0401L8.68 12.0201L8.67 12.0001L8.65 11.9801L8.64 11.9601L8.62 11.9501L8.6 11.9301L8.59 11.9101L8.57 11.9001L8.55 11.8801L8.53 11.8701L8.51 11.8501ZM8.51 11.8501L5.59 10.1001L5.57 10.0901L5.55 10.0801L5.52 10.0701L5.5 10.0601L5.48 10.0501L5.45 10.0501L5.43 10.0401L5.41 10.0401L5.38 10.0301L5.36 10.0301L5.33 10.0301L5.31 10.0301L5.29 10.0301L5.26 10.0401L5.24 10.0401L5.21 10.0501L5.19 10.0501L5.17 10.0601L5.15 10.0701L5.12 10.0801L5.1 10.0901L5.08 10.1001L5.06 10.1101L5.04 10.1301L5.02 10.1401L5 10.1601L4.99 10.1801L4.97 10.1901L4.95 10.2101L4.94 10.2301L4.92 10.2501L4.91 10.2701L4.9 10.2901L4.89 10.3101L4.88 10.3401L4.87 10.3601L4.86 10.3801L4.86 10.4101L4.85 10.4301L4.85 10.4501L4.84 10.4801L4.84 10.5001L4.84 10.5301L4.84 10.5501L4.84 10.5801L4.84 10.6001L4.85 10.6201L4.85 10.6501L4.86 10.6701L4.87 10.6901L4.88 10.7201L4.89 10.7401L4.9 10.7601L4.91 10.7801L4.92 10.8001L4.94 10.8201L4.95 10.8401L4.97 10.8601L4.98 10.8801L5 10.9001L5.02 10.9101L5.04 10.9301L5.06 10.9401L5.08 10.9501L8 12.7001C8.23455 12.8429 8.54267 12.7694 8.68 12.5301L8.69 12.5101L8.7 12.4901L8.71 12.4701L8.72 12.4401L8.73 12.4201L8.73 12.4001L8.74 12.3701L8.74 12.3501L8.75 12.3301L8.75 12.3001L8.75 12.2801L8.75 12.2501L8.75 12.2301L8.74 12.2001L8.74 12.1801L8.73 12.1601L8.73 12.1301L8.72 12.1101L8.71 12.0901L8.7 12.0701L8.69 12.0401L8.68 12.0201L8.67 12.0001L8.65 11.9801L8.64 11.9601L8.62 11.9501L8.6 11.9301L8.59 11.9101L8.57 11.9001L8.55 11.8801L8.53 11.8701L8.51 11.8501ZM8.51 11.8501L5.59 10.1001L5.57 10.0901L5.55 10.0801L5.52 10.0701L5.5 10.0601L5.48 10.0501L5.45 10.0501L5.43 10.0401L5.41 10.0401L5.38 10.0301L5.36 10.0301L5.33 10.0301L5.31 10.0301L5.29 10.0301L5.26 10.0401L5.24 10.0401L5.21 10.0501L5.19 10.0501L5.17 10.0601L5.15 10.0701L5.12 10.0801L5.1 10.0901L5.08 10.1001L5.06 10.1101L5.04 10.1301L5.02 10.1401L5 10.1601L4.99 10.1801L4.97 10.1901L4.95 10.2101L4.94 10.2301L4.92 10.2501L4.91 10.2701L4.9 10.2901L4.89 10.3101L4.88 10.3401L4.87 10.3601L4.86 10.3801L4.86 10.4101L4.85 10.4301L4.85 10.4501L4.84 10.4801L4.84 10.5001L4.84 10.5301L4.84 10.5501L4.84 10.5801L4.84 10.6001L4.85 10.6201L4.85 10.6501L4.86 10.6701L4.87 10.6901L4.88 10.7201L4.89 10.7401L4.9 10.7601L4.91 10.7801L4.92 10.8001L4.94 10.8201L4.95 10.8401L4.97 10.8601L4.98 10.8801L5 10.9001L5.02 10.9101L5.04 10.9301L5.06 10.9401L5.08 10.9501L8 12.7001C8.23455 12.8429 8.54267 12.7694 8.68 12.5301L8.69 12.5101L8.7 12.4901L8.71 12.4701L8.72 12.4401L8.73 12.4201L8.73 12.4001L8.74 12.3701L8.74 12.3501L8.75 12.3301L8.75 12.3001L8.75 12.2801L8.75 12.2501L8.75 12.2301L8.74 12.2001L8.74 12.1801L8.73 12.1601L8.73 12.1301L8.72 12.1101L8.71 12.0901L8.7 12.0701L8.69 12.0401L8.68 12.0201L8.67 12.0001L8.65 11.9801L8.64 11.9601L8.62 11.9501L8.6 11.9301L8.59 11.9101L8.57 11.9001L8.55 11.8801L8.53 11.8701L8.51 11.8501ZM8.51 11.8501L5.59 10.1001L5.57 10.0901L5.55 10.0801L5.52 10.0701L5.5 10.0601L5.48 10.0501L5.45 10.0501L5.43 10.0401L5.41 10.0401L5.38 10.0301L5.36 10.0301L5.33 10.0301L5.31 10.0301L5.29 10.0301L5.26 10.0401L5.24 10.0401L5.21 10.0501L5.19 10.0501L5.17 10.0601L5.15 10.0701L5.12 10.0801L5.1 10.0901L5.08 10.1001L5.06 10.1101L5.04 10.1301L5.02 10.1401L5 10.1601L4.99 10.1801L4.97 10.1901L4.95 10.2101L4.94 10.2301L4.92 10.2501L4.91 10.2701L4.9 10.2901L4.89 10.3101L4.88 10.3401L4.87 10.3601L4.86 10.3801L4.86 10.4101L4.85 10.4301L4.85 10.4501L4.84 10.4801L4.84 10.5001L4.84 10.5301L4.84 10.5501L4.84 10.5801L4.84 10.6001L4.85 10.6201L4.85 10.6501L4.86 10.6701L4.87 10.6901L4.88 10.7201L4.89 10.7401L4.9 10.7601L4.91 10.7801L4.92 10.8001L4.94 10.8201L4.95 10.8401L4.97 10.8601L4.98 10.8801L5 10.9001L5.02 10.9101L5.04 10.9301L5.06 10.9401L5.08 10.9501L8 12.7001C8.23455 12.8429 8.54267 12.7694 8.68 12.5301L8.69 12.5101L8.7 12.4901L8.71 12.4701L8.72 12.4401L8.73 12.4201L8.73 12.4001L8.74 12.3701L8.74 12.3501L8.75 12.3301L8.75 12.3001L8.75 12.2801L8.75 12.2501L8.75 12.2301L8.74 12.2001L8.74 12.1801L8.73 12.1601L8.73 12.1301L8.72 12.1101L8.71 12.0901L8.7 12.0701L8.69 12.0401L8.68 12.0201L8.67 12.0001L8.65 11.9801L8.64 11.9601L8.62 11.9501L8.6 11.9301L8.59 11.9101L8.57 11.9001L8.55 11.8801L8.53 11.8701L8.51 11.8501ZM8.51 11.8501L5.59 10.1001L5.57 10.0901L5.55 10.0801L5.52 10.0701L5.5 10.0601L5.48 10.0501L5.45 10.0501L5.43 10.0401L5.41 10.0401L5.38 10.0301L5.36 10.0301L5.33 10.0301L5.31 10.0301L5.29 10.0301L5.26 10.0401L5.24 10.0401L5.21 10.0501L5.19 10.0501L5.17 10.0601L5.15 10.0701L5.12 10.0801L5.1 10.0901L5.08 10.1001L5.06 10.1101L5.04 10.1301L5.02 10.1401L5 10.1601L4.99 10.1801L4.97 10.1901L4.95 10.2101L4.94 10.2301L4.92 10.2501L4.91 10.2701L4.9 10.2901L4.89 10.3101L4.88 10.3401L4.87 10.3601L4.86 10.3801L4.86 10.4101L4.85 10.4301L4.85 10.4501L4.84 10.4801L4.84 10.5001L4.84 10.5301L4.84 10.5501L4.84 10.5801L4.84 10.6001L4.85 10.6201L4.85 10.6501L4.86 10.6701L4.87 10.6901L4.88 10.7201L4.89 10.7401L4.9 10.7601L4.91 10.7801L4.92 10.8001L4.94 10.8201L4.95 10.8401L4.97 10.8601L4.98 10.8801L5 10.9001L5.02 10.9101L5.04 10.9301L5.06 10.9401L5.08 10.9501L8 12.7001C8.23455 12.8429 8.54267 12.7694 8.68 12.5301L8.69 12.5101L8.7 12.4901L8.71 12.4701L8.72 12.4401L8.73 12.4201L8.73 12.4001L8.74 12.3701L8.74 12.3501L8.75 12.3301L8.75 12.3001L8.75 12.2801L8.75 12.2501L8.75 12.2301L8.74 12.2001L8.74 12.1801L8.73 12.1601L8.73 12.1301L8.72 12.1101L8.71 12.0901L8.7 12.0701L8.69 12.0401L8.68 12.0201L8.67 12.0001L8.65 11.9801L8.64 11.9601L8.62 11.9501L8.6 11.9301L8.59 11.9101L8.57 11.9001L8.55 11.8801L8.53 11.8701L8.51 11.8501ZM8.51 11.8501L5.59 10.1001L5.57 10.0901L5.55 10.0801L5.52 10.0701L5.5 10.0601L5.48 10.0501L5.45 10.0501L5.43 10.0401L5.41 10.0401L5.38 10.0301L5.36 10.0301L5.33 10.0301L5.31 10.0301L5.29 10.0301L5.26 10.0401L5.24 10.0401L5.21 10.0501L5.19 10.0501L5.17 10.0601L5.15 10.0701L5.12 10.0801L5.1 10.0901L5.08 10.1001L5.06 10.1101L5.04 10.1301L5.02 10.1401L5 10.1601L4.99 10.1801L4.97 10.1901L4.95 10.2101L4.94 10.2301L4.92 10.2501L4.91 10.2701L4.9 10.2901L4.89 10.3101L4.88 10.3401L4.87 10.3601L4.86 10.3801L4.86 10.4101L4.85 10.4301L4.85 10.4501L4.84 10.4801L4.84 10.5001L4.84 10.5301L4.84 10.5501L4.84 10.5801L4.84 10.6001L4.85 10.6201L4.85 10.6501L4.86 10.6701L4.87 10.6901L4.88 10.7201L4.89 10.7401L4.9 10.7601L4.91 10.7801L4.92 10.8001L4.94 10.8201L4.95 10.8401L4.97 10.8601L4.98 10.8801L5 10.9001L5.02 10.9101L5.04 10.9301L5.06 10.9401L5.08 10.9501L8 12.7001C8.23455 12.8429 8.54267 12.7694 8.68 12.5301L8.69 12.5101L8.7 12.4901L8.71 12.4701L8.72 12.4401L8.73 12.4201L8.73 12.4001L8.74 12.3701L8.74 12.3501L8.75 12.3301L8.75 12.3001L8.75 12.2801L8.75 12.2501L8.75 12.2301L8.74 12.2001L8.74 12.1801L8.73 12.1601L8.73 12.1301L8.72 12.1101L8.71 12.0901L8.7 12.0701L8.69 12.0401L8.68 12.0201L8.67 12.0001L8.65 11.9801L8.64 11.9601L8.62 11.9501L8.6 11.9301L8.59 11.9101L8.57 11.9001L8.55 11.8801L8.53 11.8701L8.51 11.8501ZM12.25 20.7801L12.25 11.9901L19.99 7.60011L20.79 7.12011C20.9484 7.01745 20.9789 6.88393 21 6.79011L21 6.77011L21 6.75011L21 6.73011L21 6.71011L21 6.69011L21 6.67011L20.99 6.66011L20.99 6.64011L20.99 6.62011L20.98 6.60011L20.98 6.58011L20.97 6.56011L20.96 6.55011L20.96 6.53011L20.95 6.51011L20.94 6.50011L20.93 6.48011L20.92 6.46011L20.91 6.45011L20.9 6.43011L20.89 6.42011L20.88 6.40011L20.86 6.39011L20.85 6.38011L20.84 6.36011L20.82 6.35011L20.81 6.34011L20.79 6.33011L20.78 6.32011L20.76 6.31011L20.74 6.30011L20.73 6.29011L11.98 1.91011L11.95 1.90011L11.92 1.89011L11.9 1.88011L11.87 1.87011L11.84 1.87011L11.81 1.86011L11.78 1.86011L11.75 1.86011L11.72 1.86011L11.7 1.86011L11.67 1.87011L11.64 1.87011L11.61 1.88011L11.58 1.89011L11.56 1.90011L11.53 1.91011L2.78 6.29011C2.45435 6.50358 2.5 6.97912 2.5 7.03011L2.5 16.3601C2.5 16.5335 2.59247 16.6983 2.74 16.7901C2.74 16.7901 11.3025 21.9635 11.45 22.0301C11.7498 22.1776 11.9372 22.1415 12.08 22.0701L14.93 20.4201L14.95 20.4001L14.97 20.3901L14.99 20.3701L15.01 20.3601L15.03 20.3401L15.05 20.3201L15.07 20.3101L15.08 20.2901L15.1 20.2701L15.11 20.2401L15.12 20.2201L15.13 20.2001L15.14 20.1801L15.15 20.1501L15.16 20.1301L15.17 20.1101L15.17 20.0801L15.18 20.0601L15.18 20.0301L15.18 20.0101L15.19 19.9801L15.19 19.9601L15.18 19.9301L15.18 19.9101L15.18 19.8801L15.17 19.8601L15.17 19.8301L15.16 19.8101L15.15 19.7901L15.14 19.7601L15.13 19.7401L15.12 19.7201L15.1 19.7001L15.09 19.6801L15.07 19.6601L15.06 19.6401L15.04 19.6201L15.02 19.6001L15 19.5901L14.99 19.5701L14.97 19.5601L14.94 19.5401L14.92 19.5301L14.9 19.5201L14.88 19.5101L14.86 19.5001L14.83 19.4901L14.81 19.4801L14.78 19.4801L14.76 19.4701L14.74 19.4701L14.71 19.4701L14.69 19.4701L14.66 19.4701L14.64 19.4701L14.61 19.4701L14.59 19.4701L14.56 19.4801L14.54 19.4801L14.51 19.4901L14.49 19.5001L14.47 19.5101L14.45 19.5201L14.42 19.5301L12.45 20.6801L12.45 20.6701L12.25 20.7801ZM11.25 11.9901L11.25 20.7601L3.5 16.0801L3.5 7.59011L11.25 11.9901ZM11.75 11.1301L4.06 6.76011L11.75 2.92011L19.45 6.76011L11.75 11.1301Z"   fill="#000000" ></path><path    stroke="rgba(0, 99, 177, 1)" stroke-width="1"  stroke-linecap="round"  d="M18.5024 13.0542L18.5024 19.0542"></path><path    stroke="rgba(0, 0, 0, 1)" stroke-width="1"  stroke-linecap="round"  d="M20.5024 6.75415L20.5024 11.2081"></path><path    stroke="rgba(0, 99, 177, 1)" stroke-width="1"  stroke-linecap="round"  d="M15.5024 16.0542L21.5024 16.0542"></path></svg>