<svg xmlns="http://www.w3.org/2000/svg" xmlns:xlink="http://www.w3.org/1999/xlink" width="24" height="24" viewBox="0 0 24 24" fill="none"><path d="M20.5 21L3.5 21L3.48 21L3.45 21L3.43 20.99L3.4 20.99L3.38 20.99L3.35 20.98L3.33 20.97L3.31 20.96L3.29 20.95L3.26 20.94L3.24 20.93L3.22 20.92L3.2 20.9L3.18 20.89L3.16 20.87L3.15 20.85L3.13 20.84L3.11 20.82L3.1 20.8L3.08 20.78L3.07 20.76L3.06 20.74L3.05 20.71L3.04 20.69L3.03 20.67L3.02 20.65L3.01 20.62L3.01 20.6L3.01 20.57L3 20.55L3 20.52L3 20.5L3 3.5L3 3.48L3 3.45L3.01 3.43L3.01 3.4L3.01 3.38L3.02 3.35L3.03 3.33L3.04 3.31L3.05 3.29L3.06 3.26L3.07 3.24L3.08 3.22L3.1 3.2L3.11 3.18L3.13 3.16L3.15 3.15L3.16 3.13L3.18 3.11L3.2 3.1L3.22 3.08L3.24 3.07L3.26 3.06L3.29 3.05L3.31 3.04L3.33 3.03L3.35 3.02L3.38 3.01L3.4 3.01L3.43 3.01L3.45 3L3.48 3L3.5 3L11.86 3L11.88 3L11.91 3L11.93 3.01L11.96 3.01L11.98 3.01L12.01 3.02L12.03 3.03L12.05 3.04L12.07 3.05L12.1 3.06L12.12 3.07L12.14 3.08L12.16 3.1L12.18 3.11L12.2 3.13L12.21 3.15L12.23 3.16L12.25 3.18L12.26 3.2L12.28 3.22L12.29 3.24L12.3 3.26L12.31 3.29L12.32 3.31L12.33 3.33L12.34 3.35L12.35 3.38L12.35 3.4L12.35 3.43L12.36 3.45L12.36 3.48L12.36 3.5L12.36 3.52L12.36 3.55L12.35 3.57L12.35 3.6L12.35 3.62L12.34 3.65L12.33 3.67L12.32 3.69L12.31 3.71L12.3 3.74L12.29 3.76L12.28 3.78L12.26 3.8L12.25 3.82L12.23 3.84L12.21 3.85L12.2 3.87L12.18 3.89L12.16 3.9L12.14 3.92L12.12 3.93L12.1 3.94L12.07 3.95L12.05 3.96L12.03 3.97L12.01 3.98L11.98 3.99L11.96 3.99L11.93 3.99L11.91 4L11.88 4L11.86 4L4 4L4 20L20 20L20 12.41L20 12.39L20 12.36L20.01 12.34L20.01 12.31L20.01 12.29L20.02 12.26L20.03 12.24L20.04 12.22L20.05 12.2L20.06 12.17L20.07 12.15L20.08 12.13L20.1 12.11L20.11 12.09L20.13 12.07L20.15 12.06L20.16 12.04L20.18 12.02L20.2 12.01L20.22 11.99L20.24 11.98L20.26 11.97L20.29 11.96L20.31 11.95L20.33 11.94L20.35 11.93L20.38 11.92L20.4 11.92L20.43 11.92L20.45 11.91L20.48 11.91L20.5 11.91L20.52 11.91L20.55 11.91L20.57 11.92L20.6 11.92L20.62 11.92L20.65 11.93L20.67 11.94L20.69 11.95L20.71 11.96L20.74 11.97L20.76 11.98L20.78 11.99L20.8 12.01L20.82 12.02L20.84 12.04L20.85 12.06L20.87 12.07L20.89 12.09L20.9 12.11L20.92 12.13L20.93 12.15L20.94 12.17L20.95 12.2L20.96 12.22L20.97 12.24L20.98 12.26L20.99 12.29L20.99 12.31L20.99 12.34L21 12.36L21 12.39L21 12.41L21 20.5L21 20.52L21 20.55L20.99 20.57L20.99 20.6L20.99 20.62L20.98 20.65L20.97 20.67L20.96 20.69L20.95 20.71L20.94 20.74L20.93 20.76L20.92 20.78L20.9 20.8L20.89 20.82L20.87 20.84L20.85 20.85L20.84 20.87L20.82 20.89L20.8 20.9L20.78 20.92L20.76 20.93L20.74 20.94L20.71 20.95L20.69 20.96L20.67 20.97L20.65 20.98L20.62 20.99L20.6 20.99L20.57 20.99L20.55 21L20.52 21L20.5 21ZM15.5 18.3L6.9 18.3L6.88 18.3L6.85 18.3L6.83 18.29L6.8 18.29L6.78 18.29L6.75 18.28L6.73 18.27L6.71 18.26L6.69 18.25L6.66 18.24L6.64 18.23L6.62 18.22L6.6 18.2L6.58 18.19L6.56 18.17L6.55 18.15L6.53 18.14L6.51 18.12L6.5 18.1L6.48 18.08L6.47 18.06L6.46 18.04L6.45 18.01L6.44 17.99L6.43 17.97L6.42 17.95L6.41 17.92L6.41 17.9L6.41 17.87L6.4 17.85L6.4 17.82L6.4 17.8L6.4 17.78L6.4 17.75L6.41 17.73L6.41 17.7L6.41 17.68L6.42 17.65L6.43 17.63L6.44 17.61L6.45 17.59L6.46 17.56L6.47 17.54L6.48 17.52L6.5 17.5L6.51 17.48L6.53 17.46L6.55 17.45L6.56 17.43L6.58 17.41L6.6 17.4L6.62 17.38L6.64 17.37L6.66 17.36L6.69 17.35L6.71 17.34L6.73 17.33L6.75 17.32L6.78 17.31L6.8 17.31L6.83 17.31L6.85 17.3L6.88 17.3L6.9 17.3L15.5 17.3L15.52 17.3L15.55 17.3L15.57 17.31L15.6 17.31L15.62 17.31L15.65 17.32L15.67 17.33L15.69 17.34L15.71 17.35L15.74 17.36L15.76 17.37L15.78 17.38L15.8 17.4L15.82 17.41L15.84 17.43L15.85 17.45L15.87 17.46L15.89 17.48L15.9 17.5L15.92 17.52L15.93 17.54L15.94 17.56L15.95 17.59L15.96 17.61L15.97 17.63L15.98 17.65L15.99 17.68L15.99 17.7L15.99 17.73L16 17.75L16 17.78L16 17.8L16 17.82L16 17.85L15.99 17.87L15.99 17.9L15.99 17.92L15.98 17.95L15.97 17.97L15.96 17.99L15.95 18.01L15.94 18.04L15.93 18.06L15.92 18.08L15.9 18.1L15.89 18.12L15.87 18.14L15.85 18.15L15.84 18.17L15.82 18.19L15.8 18.2L15.78 18.22L15.76 18.23L15.74 18.24L15.71 18.25L15.69 18.26L15.67 18.27L15.65 18.28L15.62 18.29L15.6 18.29L15.57 18.29L15.55 18.3L15.52 18.3L15.5 18.3ZM12.11 14.6L6.9 14.6L6.88 14.6L6.85 14.6L6.83 14.59L6.8 14.59L6.78 14.59L6.75 14.58L6.73 14.57L6.71 14.56L6.69 14.55L6.66 14.54L6.64 14.53L6.62 14.52L6.6 14.5L6.58 14.49L6.56 14.47L6.55 14.45L6.53 14.44L6.51 14.42L6.5 14.4L6.48 14.38L6.47 14.36L6.46 14.34L6.45 14.31L6.44 14.29L6.43 14.27L6.42 14.25L6.41 14.22L6.41 14.2L6.41 14.17L6.4 14.15L6.4 14.12L6.4 14.1L6.4 14.08L6.4 14.05L6.41 14.03L6.41 14L6.41 13.98L6.42 13.95L6.43 13.93L6.44 13.91L6.45 13.89L6.46 13.86L6.47 13.84L6.48 13.82L6.5 13.8L6.51 13.78L6.53 13.76L6.55 13.75L6.56 13.73L6.58 13.71L6.6 13.7L6.62 13.68L6.64 13.67L6.66 13.66L6.69 13.65L6.71 13.64L6.73 13.63L6.75 13.62L6.78 13.61L6.8 13.61L6.83 13.61L6.85 13.6L6.88 13.6L6.9 13.6L12.11 13.6L12.13 13.6L12.15 13.6L12.18 13.61L12.2 13.61L12.23 13.61L12.25 13.62L12.27 13.63L12.3 13.64L12.32 13.65L12.34 13.66L12.36 13.67L12.38 13.68L12.4 13.7L12.42 13.71L12.44 13.73L12.46 13.75L12.48 13.76L12.49 13.78L12.51 13.8L12.52 13.82L12.53 13.84L12.55 13.86L12.56 13.89L12.57 13.91L12.58 13.93L12.58 13.95L12.59 13.98L12.6 14L12.6 14.03L12.6 14.05L12.6 14.08L12.61 14.1L12.6 14.12L12.6 14.15L12.6 14.17L12.6 14.2L12.59 14.22L12.58 14.25L12.58 14.27L12.57 14.29L12.56 14.31L12.55 14.34L12.53 14.36L12.52 14.38L12.51 14.4L12.49 14.42L12.48 14.44L12.46 14.45L12.44 14.47L12.42 14.49L12.4 14.5L12.38 14.52L12.36 14.53L12.34 14.54L12.32 14.55L12.3 14.56L12.27 14.57L12.25 14.58L12.23 14.59L12.2 14.59L12.18 14.59L12.15 14.6L12.13 14.6L12.11 14.6Z"   fill="#000000" ></path><path d="M20.49 8.4L11.7 8.4L11.67 8.4L11.65 8.4L11.62 8.39L11.6 8.39L11.57 8.39L11.55 8.38L11.53 8.37L11.5 8.36L11.48 8.35L11.46 8.34L11.44 8.33L11.42 8.32L11.4 8.3L11.38 8.29L11.36 8.27L11.34 8.25L11.32 8.24L11.31 8.22L11.29 8.2L11.28 8.18L11.27 8.16L11.25 8.14L11.24 8.11L11.23 8.09L11.22 8.07L11.22 8.05L11.21 8.02L11.2 8L11.2 7.97L11.2 7.95L11.2 7.92L11.2 7.9L11.2 7.88L11.2 7.85L11.2 7.83L11.2 7.8L11.21 7.78L11.22 7.75L11.22 7.73L11.23 7.71L11.24 7.69L11.25 7.66L11.27 7.64L11.28 7.62L11.29 7.6L11.31 7.58L11.32 7.56L11.34 7.55L11.36 7.53L11.38 7.51L11.4 7.5L11.42 7.48L11.44 7.47L11.46 7.46L11.48 7.45L11.5 7.44L11.53 7.43L11.55 7.42L11.57 7.41L11.6 7.41L11.62 7.41L11.65 7.4L11.67 7.4L11.7 7.4L20.49 7.4L20.51 7.4L20.54 7.4L20.56 7.41L20.59 7.41L20.61 7.41L20.6399 7.42L20.66 7.43L20.68 7.44L20.7 7.45L20.7299 7.46L20.75 7.47L20.77 7.48L20.79 7.5L20.81 7.51L20.83 7.53L20.84 7.55L20.86 7.56L20.88 7.58L20.8899 7.6L20.91 7.62L20.92 7.64L20.93 7.66L20.94 7.69L20.95 7.71L20.96 7.73L20.97 7.75L20.9799 7.78L20.9799 7.8L20.9799 7.83L20.99 7.85L20.99 7.88L20.99 7.9L20.99 7.92L20.99 7.95L20.9799 7.97L20.9799 8L20.9799 8.02L20.97 8.05L20.96 8.07L20.95 8.09L20.94 8.11L20.93 8.14L20.92 8.16L20.91 8.18L20.8899 8.2L20.88 8.22L20.86 8.24L20.84 8.25L20.83 8.27L20.81 8.29L20.79 8.3L20.77 8.32L20.75 8.33L20.7299 8.34L20.7 8.35L20.68 8.36L20.66 8.37L20.6399 8.38L20.61 8.39L20.59 8.39L20.56 8.39L20.54 8.4L20.51 8.4L20.49 8.4ZM16.08 12.8L16.05 12.8L16.03 12.8L16 12.79L15.98 12.79L15.95 12.79L15.93 12.78L15.91 12.77L15.88 12.76L15.86 12.75L15.84 12.74L15.82 12.73L15.8 12.72L15.78 12.7L15.76 12.69L15.74 12.67L15.72 12.65L15.7 12.64L15.69 12.62L15.67 12.6L15.66 12.58L15.65 12.56L15.63 12.54L15.62 12.51L15.61 12.49L15.6 12.47L15.6 12.45L15.59 12.42L15.58 12.4L15.58 12.37L15.58 12.35L15.58 12.32L15.58 12.3L15.58 7.5L15.58 3.48L15.58 3.45L15.58 3.43L15.58 3.4L15.59 3.38L15.6 3.35L15.6 3.33L15.61 3.31L15.62 3.29L15.63 3.26L15.65 3.24L15.66 3.22L15.67 3.2L15.69 3.18L15.7 3.16L15.72 3.15L15.74 3.13L15.76 3.11L15.78 3.1L15.8 3.08L15.82 3.07L15.84 3.06L15.86 3.05L15.88 3.04L15.91 3.03L15.93 3.02L15.95 3.01L15.98 3.01L16 3.01L16.03 3L16.05 3L16.08 3L16.1 3L16.12 3L16.15 3.01L16.17 3.01L16.2 3.01L16.22 3.02L16.24 3.03L16.27 3.04L16.29 3.05L16.31 3.06L16.33 3.07L16.35 3.08L16.37 3.1L16.39 3.11L16.41 3.13L16.43 3.15L16.45 3.16L16.46 3.18L16.48 3.2L16.49 3.22L16.5 3.24L16.52 3.26L16.53 3.29L16.54 3.31L16.55 3.33L16.55 3.35L16.56 3.38L16.57 3.4L16.57 3.43L16.57 3.45L16.57 3.48L16.58 7.5L16.58 12.3L16.57 12.32L16.57 12.35L16.57 12.37L16.57 12.4L16.56 12.42L16.55 12.45L16.55 12.47L16.54 12.49L16.53 12.51L16.52 12.54L16.5 12.56L16.49 12.58L16.48 12.6L16.46 12.62L16.45 12.64L16.43 12.65L16.41 12.67L16.39 12.69L16.37 12.7L16.35 12.72L16.33 12.73L16.31 12.74L16.29 12.75L16.27 12.76L16.24 12.77L16.22 12.78L16.2 12.79L16.17 12.79L16.15 12.79L16.12 12.8L16.1 12.8L16.08 12.8Z"   fill="#0063B1" ></path></svg>