<svg xmlns="http://www.w3.org/2000/svg" xmlns:xlink="http://www.w3.org/1999/xlink" width="24" height="24" viewBox="0 0 24 24" fill="none"><path d="M14.7891 21.1669C14.5095 21.1669 14.2836 20.9409 14.2836 20.6613L14.2836 12.0297C14.2836 11.7501 14.5095 11.5242 14.7891 11.5242C15.0688 11.5242 15.2947 11.7501 15.2947 12.0297L15.2947 20.6613C15.2947 20.9409 15.0688 21.1669 14.7891 21.1669ZM9.18539 21.1669C8.90577 21.1669 8.67981 20.9409 8.67981 20.6613L8.67981 12.0297C8.67981 11.7501 8.90577 11.5242 9.18539 11.5242C9.46501 11.5242 9.69097 11.7501 9.69097 12.0297L9.69097 20.6613C9.69097 20.9409 9.46501 21.1669 9.18539 21.1669Z"   fill="#0063B1" ></path><path d="M11.9989 21.9979C10.6488 21.9979 9.33619 21.7325 8.10472 21.2128C6.9128 20.7101 5.85152 19.9926 4.93357 19.0746C4.01562 18.1567 3.2878 17.0851 2.78504 15.8931C2.26251 14.6617 2 13.349 2 11.9989C2 10.6488 2.26534 9.33619 2.78504 8.10472C3.2878 6.9128 4.01562 5.85152 4.93357 4.93357C5.85152 4.01562 6.91562 3.2878 8.10472 2.78504C9.33619 2.26251 10.6488 2 11.9989 2C13.349 2 14.6617 2.26534 15.8931 2.78504C17.0851 3.2878 18.1539 4.01562 19.0746 4.93357C19.9926 5.85152 20.7101 6.91562 21.2128 8.10472C21.7354 9.33619 21.9979 10.6488 21.9979 11.9989C21.9979 13.349 21.7325 14.6617 21.2128 15.8931C20.7101 17.0851 19.9926 18.1539 19.0746 19.0746C18.1567 19.9926 17.0851 20.7101 15.8931 21.2128C14.6617 21.7325 13.349 21.9979 11.9989 21.9979ZM11.9989 3.01229C7.04482 3.01229 3.01229 7.042 3.01229 11.9989C3.01229 16.953 7.042 20.9856 11.9989 20.9856C16.953 20.9856 20.9856 16.9559 20.9856 11.9989C20.9856 7.04482 16.953 3.01229 11.9989 3.01229Z"   fill="#000000" ></path><path d="M9.18542 12.5381C9.08939 12.5381 8.99336 12.5098 8.91145 12.4562C8.67702 12.3036 8.60923 11.9901 8.75893 11.7557L11.5664 7.38908C11.6597 7.24503 11.8206 7.15747 11.9929 7.15747C12.089 7.15747 12.185 7.18572 12.2669 7.23938C12.5013 7.38908 12.5691 7.70542 12.4166 7.93985L9.60627 12.3065C9.51589 12.4505 9.35772 12.5381 9.18542 12.5381Z"   fill="#0063B1" ></path><path d="M14.792 12.5381C14.6197 12.5381 14.4587 12.4505 14.3655 12.3037L11.558 7.93704C11.4845 7.82406 11.4591 7.68849 11.4902 7.55574C11.5212 7.42299 11.5975 7.31001 11.7105 7.23657C11.7924 7.18291 11.8856 7.15466 11.9845 7.15466C12.1567 7.15466 12.3177 7.24222 12.4109 7.38627L15.2185 11.7529C15.2919 11.8659 15.3173 12.0014 15.2862 12.1342C15.258 12.2669 15.1789 12.3799 15.0659 12.4534C14.984 12.5099 14.888 12.5381 14.792 12.5381Z"   fill="#0063B1" ></path><path d="M9.18539 12.538C8.90577 12.538 8.67981 12.3121 8.67981 12.0324C8.67981 11.7528 8.90577 11.5269 9.18539 11.5269L14.792 11.5269C15.0716 11.5269 15.2975 11.7528 15.2975 12.0324C15.2975 12.3121 15.0688 12.538 14.7891 12.538L9.18539 12.538Z"   fill="#0063B1" ></path></svg>