<svg xmlns="http://www.w3.org/2000/svg" xmlns:xlink="http://www.w3.org/1999/xlink" width="24" height="24" viewBox="0 0 24 24" fill="none"><path d="M15.6841 20.574L20.4741 16.09L8.33706 16.068L3.48206 20.574L15.6841 20.574Z"   fill="#0082E6" fill-opacity="0.3"></path><path d="M15.79 7.80896C15.8015 7.80896 15.8161 7.80896 15.8275 7.80896C15.8389 7.80896 15.8536 7.81646 15.865 7.81646C15.8764 7.81646 15.8837 7.81646 15.895 7.81646C15.9063 7.81646 15.9213 7.82396 15.9325 7.82396C15.9437 7.82396 15.9514 7.83146 15.9625 7.83146C15.9736 7.83146 15.9816 7.83896 15.9925 7.83896C16.0035 7.83896 16.0192 7.85396 16.03 7.85396C16.0408 7.85396 16.0494 7.86146 16.06 7.86146C16.0706 7.86146 16.0796 7.87646 16.09 7.87646C16.1004 7.87646 16.1099 7.89146 16.12 7.89146C16.1301 7.89146 16.1402 7.90646 16.15 7.90646C16.1598 7.90646 16.1705 7.92896 16.18 7.92896C16.1895 7.92896 16.2008 7.95146 16.21 7.95146C16.2192 7.95146 16.2311 7.96646 16.24 7.96646C16.2489 7.96646 16.254 7.98126 16.2625 7.98896C16.271 7.99665 16.2769 8.00337 16.285 8.01146C16.2931 8.01957 16.3073 8.03298 16.315 8.04146C16.3227 8.04994 16.3375 8.0551 16.3375 8.06396C16.3375 8.07282 16.3525 8.08476 16.3525 8.09396C16.3525 8.10316 16.375 8.11444 16.375 8.12396C16.375 8.13349 16.39 8.13663 16.39 8.14646C16.39 8.15629 16.4125 8.16637 16.4125 8.17646C16.4125 8.18657 16.4275 8.2036 16.4275 8.21396C16.4275 8.2243 16.4425 8.23337 16.4425 8.24396C16.4425 8.25454 16.45 8.26318 16.45 8.27396C16.45 8.28476 16.465 8.29301 16.465 8.30396C16.465 8.31493 16.4725 8.33035 16.4725 8.34146C16.4725 8.35257 16.48 8.36021 16.48 8.37146C16.48 8.38269 16.4875 8.39763 16.4875 8.40896C16.4875 8.42029 16.4875 8.42755 16.4875 8.43896C16.4875 8.45037 16.495 8.46502 16.495 8.47646C16.495 8.4879 16.495 8.49501 16.495 8.50646L16.495 20.874C16.495 20.8854 16.495 20.9 16.495 20.9115C16.495 20.9229 16.4875 20.9301 16.4875 20.9415C16.4875 20.9529 16.4875 20.9676 16.4875 20.979C16.4875 20.9903 16.48 20.9977 16.48 21.009C16.48 21.0202 16.4725 21.0354 16.4725 21.0465C16.4725 21.0576 16.465 21.0655 16.465 21.0765C16.465 21.0874 16.45 21.0957 16.45 21.1065C16.45 21.1172 16.4425 21.1334 16.4425 21.144C16.4425 21.1546 16.4275 21.1636 16.4275 21.174C16.4275 21.1843 16.4125 21.1939 16.4125 21.204C16.4125 21.2141 16.39 21.2241 16.39 21.234C16.39 21.2438 16.375 21.2544 16.375 21.264C16.375 21.2735 16.3525 21.2848 16.3525 21.294C16.3525 21.3032 16.3375 21.3076 16.3375 21.3165C16.3375 21.3253 16.3227 21.338 16.315 21.3465C16.3073 21.3549 16.2931 21.3608 16.285 21.369C16.2769 21.377 16.271 21.3837 16.2625 21.3915C16.254 21.3991 16.2489 21.414 16.24 21.414C16.2311 21.414 16.2192 21.4365 16.21 21.4365C16.2008 21.4365 16.1895 21.459 16.18 21.459C16.1705 21.459 16.1598 21.474 16.15 21.474C16.1402 21.474 16.1301 21.489 16.12 21.489C16.1099 21.489 16.1004 21.504 16.09 21.504C16.0797 21.504 16.0706 21.519 16.06 21.519C16.0494 21.519 16.0408 21.534 16.03 21.534C16.0192 21.534 16.0035 21.5415 15.9925 21.5415C15.9815 21.5415 15.9736 21.5565 15.9625 21.5565C15.9514 21.5565 15.9437 21.564 15.9325 21.564C15.9213 21.564 15.9063 21.564 15.895 21.564C15.8837 21.564 15.8764 21.5715 15.865 21.5715C15.8536 21.5715 15.8389 21.5715 15.8275 21.5715C15.8161 21.5715 15.8015 21.5715 15.79 21.5715L2.4475 21.5715C2.43605 21.5715 2.42894 21.5715 2.4175 21.5715C2.40606 21.5715 2.39141 21.5715 2.38 21.5715C2.36859 21.5715 2.36133 21.564 2.35 21.564C2.33867 21.564 2.32374 21.564 2.3125 21.564C2.30126 21.564 2.29361 21.5565 2.2825 21.5565C2.27139 21.5565 2.25596 21.5415 2.245 21.5415C2.23404 21.5415 2.22579 21.534 2.215 21.534C2.20421 21.534 2.19558 21.519 2.185 21.519C2.17442 21.519 2.15786 21.504 2.1475 21.504C2.13714 21.504 2.1276 21.489 2.1175 21.489C2.1074 21.489 2.09733 21.474 2.0875 21.474C2.07767 21.474 2.06702 21.459 2.0575 21.459C2.04798 21.459 2.0442 21.4365 2.035 21.4365C2.0258 21.4365 2.01386 21.414 2.005 21.414C1.99615 21.414 1.99099 21.3991 1.9825 21.3915C1.97401 21.3837 1.9606 21.377 1.9525 21.369C1.9444 21.3608 1.93769 21.3549 1.93 21.3465C1.92231 21.338 1.9075 21.3253 1.9075 21.3165C1.9075 21.3076 1.885 21.3032 1.885 21.294C1.885 21.2848 1.87 21.2735 1.87 21.264C1.87 21.2544 1.8475 21.2438 1.8475 21.234C1.8475 21.2241 1.8325 21.2141 1.8325 21.204C1.8325 21.1939 1.8175 21.1843 1.8175 21.174C1.8175 21.1636 1.8025 21.1546 1.8025 21.144C1.8025 21.1334 1.7875 21.1172 1.7875 21.1065C1.7875 21.0957 1.78 21.0874 1.78 21.0765C1.78 21.0655 1.7725 21.0576 1.7725 21.0465C1.7725 21.0354 1.765 21.0202 1.765 21.009C1.765 20.9977 1.7575 20.9903 1.7575 20.979C1.7575 20.9676 1.75 20.9529 1.75 20.9415C1.75 20.9301 1.75 20.9229 1.75 20.9115C1.75 20.9 1.75 20.8854 1.75 20.874L1.75 8.50646C1.75 8.49499 1.75 8.4879 1.75 8.47646C1.75 8.46502 1.75 8.45037 1.75 8.43896C1.75 8.42757 1.7575 8.4203 1.7575 8.40896C1.7575 8.39763 1.765 8.38269 1.765 8.37146C1.765 8.36023 1.7725 8.35257 1.7725 8.34146C1.7725 8.33033 1.78 8.31491 1.78 8.30396C1.78 8.29299 1.7875 8.28474 1.7875 8.27396C1.7875 8.26318 1.8025 8.25455 1.8025 8.24396C1.8025 8.23338 1.8175 8.21682 1.8175 8.20646C1.8175 8.1961 1.8325 8.18655 1.8325 8.17646C1.8325 8.16635 1.8475 8.15629 1.8475 8.14646C1.8475 8.13663 1.87 8.12598 1.87 8.11646C1.87 8.10693 1.885 8.10316 1.885 8.09396C1.885 8.08476 1.9075 8.07282 1.9075 8.06396C1.9075 8.05512 1.92231 8.04996 1.93 8.04146C1.93769 8.03298 1.9444 8.01955 1.9525 8.01146C1.9606 8.00335 1.97401 7.99665 1.9825 7.98896C1.99099 7.98127 1.99615 7.96646 2.005 7.96646C2.01386 7.96646 2.0258 7.94396 2.035 7.94396C2.0442 7.94396 2.04798 7.92896 2.0575 7.92896C2.06702 7.92896 2.07767 7.90646 2.0875 7.90646C2.09733 7.90646 2.1074 7.89146 2.1175 7.89146C2.1276 7.89146 2.13714 7.87646 2.1475 7.87646C2.15786 7.87646 2.17442 7.86146 2.185 7.86146C2.19558 7.86146 2.20421 7.84646 2.215 7.84646C2.22579 7.84646 2.23404 7.83896 2.245 7.83896C2.25596 7.83896 2.27139 7.83146 2.2825 7.83146C2.29361 7.83146 2.30126 7.82396 2.3125 7.82396C2.32374 7.82396 2.33867 7.81646 2.35 7.81646C2.36133 7.81646 2.36859 7.80896 2.38 7.80896C2.39141 7.80896 2.40606 7.80896 2.4175 7.80896C2.42894 7.80896 2.43605 7.80896 2.4475 7.80896L15.79 7.80896ZM15.49 8.80646L2.7475 8.80646L2.7475 20.574L15.49 20.574L15.49 8.80646Z"   fill="#000000" ></path><path d="M21.408 15.21L22.092 15.94L16.334 21.325L15.651 20.595L21.408 15.21Z"   fill="#000000" ></path><path d="M21.55 2.43005C21.5614 2.43005 21.5729 2.43034 21.5843 2.4309C21.5958 2.43146 21.6072 2.4323 21.6186 2.43343C21.63 2.43455 21.6414 2.43595 21.6527 2.43762C21.664 2.43931 21.6753 2.44127 21.6865 2.44351C21.6978 2.44574 21.7089 2.44825 21.7201 2.45103C21.7312 2.45381 21.7422 2.45687 21.7532 2.46019C21.7641 2.46352 21.775 2.46712 21.7858 2.47098C21.7966 2.47483 21.8073 2.47895 21.8179 2.48333C21.8284 2.48772 21.8389 2.49237 21.8493 2.49727C21.8596 2.50216 21.8699 2.50731 21.88 2.51272C21.8901 2.51811 21.9 2.52375 21.9098 2.52964C21.9197 2.53553 21.9293 2.54166 21.9389 2.54801C21.9484 2.55439 21.9578 2.56099 21.967 2.56782C21.9762 2.57463 21.9852 2.58167 21.9941 2.58894C22.0029 2.59622 22.0116 2.6037 22.0201 2.61139C22.0286 2.61908 22.0369 2.62698 22.045 2.63508C22.0531 2.64318 22.0609 2.65147 22.0686 2.65995C22.0763 2.66845 22.0838 2.67712 22.0911 2.68597C22.0984 2.69483 22.1054 2.70386 22.1122 2.71306C22.119 2.72227 22.1256 2.73163 22.132 2.74116C22.1384 2.75068 22.1445 2.76035 22.1504 2.77018C22.1563 2.78001 22.1619 2.78998 22.1673 2.80009C22.1727 2.81018 22.1779 2.82041 22.1828 2.83076C22.1877 2.84112 22.1923 2.85159 22.1967 2.86217C22.2011 2.87276 22.2052 2.88345 22.209 2.89423C22.2129 2.90501 22.2165 2.91589 22.2198 2.92686C22.2232 2.93781 22.2262 2.94885 22.229 2.95998C22.2318 2.97109 22.2343 2.98226 22.2365 2.99349C22.2387 3.00472 22.2407 3.01601 22.2424 3.02733C22.2441 3.03868 22.2455 3.05005 22.2466 3.06144C22.2477 3.07284 22.2486 3.08426 22.2491 3.0957C22.2497 3.10714 22.25 3.11859 22.25 3.13006L22.25 15.4931C22.25 15.5045 22.2497 15.516 22.2491 15.5274C22.2486 15.5388 22.2477 15.5502 22.2466 15.5617C22.2455 15.5731 22.2441 15.5844 22.2424 15.5958C22.2407 15.6071 22.2387 15.6184 22.2365 15.6296C22.2343 15.6408 22.2318 15.652 22.229 15.6631C22.2262 15.6743 22.2232 15.6853 22.2198 15.6962C22.2165 15.7072 22.2129 15.7181 22.209 15.7289C22.2052 15.7397 22.2011 15.7504 22.1967 15.7609C22.1923 15.7715 22.1877 15.782 22.1828 15.7923C22.1779 15.8027 22.1727 15.8129 22.1673 15.823C22.1619 15.8331 22.1563 15.8431 22.1504 15.8529C22.1445 15.8627 22.1384 15.8724 22.132 15.882C22.1256 15.8915 22.119 15.9008 22.1122 15.91C22.1054 15.9192 22.0984 15.9283 22.0911 15.9371C22.0838 15.946 22.0763 15.9547 22.0686 15.9631C22.0609 15.9716 22.0531 15.9799 22.045 15.988C22.0369 15.9961 22.0286 16.004 22.0201 16.0117C22.0116 16.0194 22.0029 16.0269 21.9941 16.0342C21.9852 16.0414 21.9762 16.0485 21.967 16.0553C21.9578 16.0621 21.9484 16.0687 21.9389 16.0751C21.9293 16.0814 21.9197 16.0876 21.9098 16.0935C21.9 16.0993 21.8901 16.105 21.88 16.1104C21.8699 16.1158 21.8596 16.121 21.8493 16.1259C21.8389 16.1307 21.8284 16.1354 21.8179 16.1398C21.8073 16.1442 21.7966 16.1483 21.7858 16.1521C21.775 16.156 21.7641 16.1596 21.7532 16.1629C21.7422 16.1662 21.7312 16.1693 21.7201 16.1721C21.7089 16.1749 21.6978 16.1774 21.6865 16.1796C21.6753 16.1818 21.664 16.1838 21.6527 16.1855C21.6414 16.1872 21.63 16.1886 21.6186 16.1897C21.6072 16.1908 21.5958 16.1916 21.5843 16.1922C21.5729 16.1928 21.5614 16.193 21.55 16.193L21.39 16.1911L21.398 15.2351L21.362 15.2591C21.3555 15.2642 21.3493 15.2697 21.3433 15.2754C21.3373 15.2811 21.3315 15.287 21.326 15.2932C21.3205 15.2994 21.3153 15.3058 21.3103 15.3124C21.3053 15.3191 21.3006 15.3259 21.2962 15.3329C21.2918 15.3399 21.2877 15.347 21.2838 15.3544C21.28 15.3617 21.2765 15.3692 21.2733 15.3769C21.2701 15.3845 21.2672 15.3923 21.2647 15.4002C21.2621 15.408 21.2599 15.416 21.258 15.4241L21.25 15.4931L21.25 3.43006L8.50599 3.43006L7.50598 3.43205L7.50598 3.13006C7.50598 3.11859 7.50626 3.10714 7.50682 3.0957C7.50739 3.08426 7.50823 3.07284 7.50936 3.06144C7.51048 3.05005 7.51188 3.03868 7.51355 3.02733C7.51524 3.01601 7.5172 3.00472 7.51943 2.99349C7.52167 2.98226 7.52418 2.97109 7.52696 2.95998C7.52974 2.94885 7.53279 2.93781 7.53612 2.92686C7.53945 2.91589 7.54304 2.90501 7.5469 2.89423C7.55076 2.88345 7.55488 2.87276 7.55925 2.86217C7.56365 2.85159 7.56829 2.84112 7.5732 2.83076C7.57809 2.82041 7.58324 2.81018 7.58864 2.80009C7.59404 2.78998 7.59968 2.78001 7.60557 2.77018C7.61146 2.76035 7.61758 2.75068 7.62394 2.74116C7.63032 2.73163 7.63692 2.72227 7.64375 2.71306C7.65056 2.70386 7.6576 2.69483 7.66486 2.68597C7.67215 2.67712 7.67963 2.66845 7.68732 2.65995C7.695 2.65147 7.7029 2.64318 7.71101 2.63508C7.71911 2.62698 7.7274 2.61908 7.73588 2.61139C7.74438 2.6037 7.75305 2.59622 7.7619 2.58894C7.77075 2.58167 7.77979 2.57463 7.78899 2.56782C7.79819 2.56099 7.80756 2.55439 7.81709 2.54801C7.82661 2.54166 7.83628 2.53553 7.84611 2.52964C7.85593 2.52375 7.8659 2.51811 7.87601 2.51272C7.88611 2.50731 7.89633 2.50216 7.90669 2.49727C7.91705 2.49237 7.92752 2.48772 7.9381 2.48333C7.94869 2.47895 7.95938 2.47483 7.97016 2.47098C7.98094 2.46712 7.99182 2.46352 8.00279 2.46019C8.01374 2.45687 8.02478 2.45381 8.0359 2.45103C8.04701 2.44825 8.05819 2.44574 8.06942 2.44351C8.08065 2.44127 8.09193 2.43931 8.10326 2.43762C8.11461 2.43595 8.12597 2.43455 8.13736 2.43343C8.14877 2.4323 8.16019 2.43146 8.17163 2.4309C8.18308 2.43034 8.19454 2.43005 8.20599 2.43005L21.55 2.43005Z"   fill="#000000" ></path><path d="M21.409 2.56494L22.091 3.29495L16.334 8.67493L15.651 7.94495L21.409 2.56494ZM7.771 2.58995L8.45399 3.31993L2.66799 8.72694L1.98499 7.99693L7.771 2.58995Z"   fill="#000000" ></path><path d="M10.543 15.075L10.543 16.075L8.54295 16.075L8.54295 15.075L10.543 15.075ZM13.743 15.075L13.743 16.075L11.743 16.075L11.743 15.075L13.743 15.075ZM16.943 15.075L16.943 16.075L14.943 16.075L14.943 15.075L16.943 15.075ZM20.143 15.075L20.143 16.075L18.143 16.075L18.143 15.075L20.143 15.075ZM21.54 15.075L21.54 16.075L21.343 16.075L21.343 15.075L21.54 15.075ZM8.58896 12.802L8.60595 14.802L7.60597 14.81L7.58895 12.81L8.58896 12.802ZM8.56196 9.60201L8.57895 11.602L7.57897 11.61L7.56195 9.61003L8.56196 9.60201ZM8.53395 6.40202L8.55097 8.40201L7.55096 8.41003L7.53495 6.41001L8.53496 6.40202L8.53395 6.40202ZM8.50695 3.20203L8.52397 5.20202L7.52396 5.21001L7.50697 3.21002L8.50695 3.20203ZM3.44996 19.231L4.13096 19.963L2.66696 21.326L1.98596 20.594L3.44996 19.23L3.44996 19.231ZM5.79195 17.051L6.47396 17.783L5.00996 19.146L4.32795 18.414L5.79195 17.051ZM7.77195 15.209L8.45295 15.942L7.35296 16.966L6.67095 16.234L7.77097 15.209L7.77195 15.209Z"   fill="#000000" ></path></svg>