<svg xmlns="http://www.w3.org/2000/svg" xmlns:xlink="http://www.w3.org/1999/xlink" width="24" height="24" viewBox="0 0 24 24" fill="none"><path d="M12.5056 8.07664L18.257 8.07664C18.2651 8.07664 18.2732 8.07644 18.2813 8.07606C18.2894 8.07565 18.2975 8.07504 18.3056 8.07425C18.3136 8.07347 18.3217 8.07247 18.3297 8.07128C18.3377 8.07008 18.3457 8.06871 18.3537 8.06713C18.3616 8.06555 18.3695 8.06376 18.3774 8.0618C18.3853 8.05983 18.3931 8.05767 18.4008 8.05532C18.4086 8.05296 18.4163 8.05043 18.4239 8.04769C18.4316 8.04495 18.4391 8.04203 18.4466 8.03893C18.4541 8.03582 18.4615 8.03255 18.4688 8.02908C18.4762 8.02561 18.4834 8.02197 18.4906 8.01815C18.4977 8.01433 18.5048 8.01032 18.5117 8.00615C18.5187 8.00198 18.5255 7.99765 18.5323 7.99315C18.539 7.98865 18.5456 7.98398 18.5521 7.97915C18.5587 7.97432 18.5651 7.96932 18.5713 7.96418C18.5776 7.95903 18.5837 7.95374 18.5897 7.9483C18.5957 7.94285 18.6016 7.93726 18.6073 7.93153C18.6131 7.9258 18.6187 7.91992 18.6241 7.91391C18.6296 7.90791 18.6349 7.90177 18.64 7.8955C18.6452 7.88924 18.6501 7.88285 18.655 7.87633C18.6598 7.8698 18.6645 7.86319 18.669 7.85645C18.6735 7.84971 18.6778 7.84285 18.682 7.83591C18.6861 7.82895 18.6901 7.8219 18.694 7.81475C18.6978 7.80759 18.7014 7.80035 18.7049 7.79301C18.7083 7.78569 18.7117 7.77828 18.7148 7.77078C18.7179 7.7633 18.7208 7.75574 18.7235 7.7481C18.7262 7.74046 18.7288 7.73277 18.7311 7.725C18.7335 7.71725 18.7356 7.70944 18.7376 7.70156C18.7396 7.6937 18.7414 7.68579 18.7429 7.67784C18.7445 7.66988 18.7459 7.6619 18.7471 7.65389C18.7483 7.64587 18.7493 7.63782 18.7501 7.62975C18.7509 7.62168 18.7515 7.6136 18.7519 7.6055C18.7523 7.59739 18.7525 7.58928 18.7525 7.58118C18.7525 7.57307 18.7523 7.56497 18.7519 7.55687C18.7515 7.54877 18.7509 7.54069 18.7501 7.53262C18.7493 7.52455 18.7483 7.5165 18.7471 7.50848C18.7459 7.50046 18.7445 7.49247 18.7429 7.48453C18.7414 7.47656 18.7396 7.46865 18.7376 7.46079C18.7356 7.45293 18.7335 7.44511 18.7311 7.43735C18.7288 7.4296 18.7262 7.4219 18.7235 7.41426C18.7208 7.40663 18.7178 7.39906 18.7147 7.39157C18.7116 7.38408 18.7083 7.37667 18.7049 7.36934C18.7014 7.362 18.6978 7.35476 18.694 7.34762C18.6901 7.34047 18.6861 7.33342 18.682 7.32646C18.6778 7.3195 18.6735 7.31265 18.669 7.3059C18.6645 7.29917 18.6598 7.29254 18.655 7.28603C18.6501 7.27951 18.6452 7.27312 18.64 7.26687C18.6349 7.26059 18.6296 7.25445 18.6241 7.24844C18.6187 7.24244 18.6131 7.23656 18.6073 7.23082C18.6016 7.22509 18.5957 7.2195 18.5897 7.21407C18.5837 7.20862 18.5776 7.20332 18.5713 7.19818C18.5651 7.19303 18.5587 7.18805 18.5521 7.18322C18.5456 7.17838 18.539 7.17371 18.5323 7.1692C18.5255 7.16471 18.5187 7.16037 18.5117 7.1562C18.5048 7.15203 18.4977 7.14804 18.4906 7.14422C18.4834 7.1404 18.4762 7.13675 18.4688 7.13329C18.4615 7.12981 18.4541 7.12652 18.4466 7.12342C18.4391 7.12033 18.4316 7.11741 18.4239 7.11468C18.4163 7.11195 18.4086 7.1094 18.4008 7.10704C18.3931 7.10469 18.3853 7.10252 18.3774 7.10055C18.3695 7.09859 18.3616 7.09682 18.3537 7.09522C18.3457 7.09365 18.3377 7.09226 18.3297 7.09107C18.3217 7.08988 18.3136 7.08889 18.3056 7.0881C18.2975 7.0873 18.2894 7.08671 18.2813 7.08631C18.2732 7.08591 18.2651 7.08571 18.257 7.08571L12.5056 7.08571C12.4975 7.08571 12.4894 7.08591 12.4813 7.08631C12.4732 7.08671 12.4651 7.0873 12.457 7.0881C12.449 7.08889 12.4409 7.08988 12.4329 7.09107C12.4249 7.09226 12.4169 7.09365 12.4089 7.09522C12.401 7.09682 12.3931 7.09859 12.3852 7.10055C12.3773 7.10252 12.3695 7.10469 12.3618 7.10704C12.354 7.1094 12.3463 7.11195 12.3387 7.11468C12.331 7.11741 12.3235 7.12033 12.316 7.12342C12.3085 7.12652 12.3011 7.12981 12.2937 7.13329C12.2864 7.13675 12.2792 7.1404 12.272 7.14422C12.2649 7.14804 12.2578 7.15203 12.2509 7.1562C12.2439 7.16037 12.2371 7.16471 12.2303 7.1692C12.2236 7.17371 12.217 7.17838 12.2105 7.18322C12.2039 7.18805 12.1975 7.19303 12.1913 7.19818C12.185 7.20332 12.1789 7.20862 12.1729 7.21407C12.1669 7.2195 12.161 7.22509 12.1552 7.23082C12.1495 7.23656 12.1439 7.24244 12.1385 7.24844C12.133 7.25445 12.1277 7.26059 12.1226 7.26687C12.1174 7.27312 12.1125 7.27951 12.1076 7.28603C12.1028 7.29254 12.0981 7.29917 12.0936 7.3059C12.0891 7.31265 12.0848 7.3195 12.0806 7.32646C12.0765 7.33342 12.0724 7.34047 12.0686 7.34762C12.0648 7.35476 12.0612 7.362 12.0577 7.36934C12.0542 7.37666 12.051 7.38407 12.0479 7.39157C12.0447 7.39906 12.0418 7.40663 12.0391 7.41426C12.0364 7.4219 12.0338 7.4296 12.0315 7.43735C12.0291 7.44511 12.0269 7.45293 12.025 7.46079C12.023 7.46865 12.0212 7.47656 12.0197 7.48453C12.0181 7.49247 12.0167 7.50046 12.0155 7.50848C12.0143 7.5165 12.0133 7.52455 12.0125 7.53262C12.0117 7.54069 12.0111 7.54877 12.0107 7.55687C12.0103 7.56497 12.0101 7.57307 12.0101 7.58118C12.0101 7.58928 12.0103 7.59739 12.0107 7.6055C12.0111 7.6136 12.0117 7.62168 12.0125 7.62975C12.0133 7.63782 12.0143 7.64587 12.0155 7.65389C12.0167 7.6619 12.0181 7.66988 12.0197 7.67784C12.0212 7.68579 12.023 7.6937 12.025 7.70156C12.0269 7.70944 12.0291 7.71725 12.0315 7.725C12.0338 7.73277 12.0364 7.74046 12.0391 7.7481C12.0418 7.75574 12.0447 7.7633 12.0479 7.77078C12.051 7.77828 12.0542 7.78569 12.0577 7.79301C12.0612 7.80035 12.0648 7.80759 12.0686 7.81475C12.0724 7.8219 12.0765 7.82895 12.0806 7.83591C12.0848 7.84285 12.0891 7.84971 12.0936 7.85645C12.0981 7.86319 12.1028 7.8698 12.1076 7.87633C12.1125 7.88285 12.1174 7.88924 12.1226 7.8955C12.1277 7.90177 12.133 7.90791 12.1385 7.91391C12.1439 7.91992 12.1495 7.9258 12.1552 7.93153C12.161 7.93726 12.1669 7.94285 12.1729 7.9483C12.1789 7.95374 12.185 7.95903 12.1913 7.96418C12.1975 7.96932 12.2039 7.97432 12.2105 7.97915C12.217 7.98398 12.2236 7.98865 12.2303 7.99315C12.2371 7.99765 12.2439 8.00198 12.2509 8.00615C12.2578 8.01032 12.2649 8.01433 12.272 8.01815C12.2792 8.02197 12.2864 8.02561 12.2937 8.02908C12.3011 8.03255 12.3085 8.03582 12.316 8.03893C12.3235 8.04203 12.331 8.04495 12.3387 8.04769C12.3463 8.05043 12.354 8.05296 12.3618 8.05532C12.3695 8.05767 12.3773 8.05983 12.3852 8.0618C12.3931 8.06376 12.401 8.06555 12.4089 8.06713C12.4169 8.06871 12.4249 8.07008 12.4329 8.07128C12.4409 8.07247 12.449 8.07347 12.457 8.07425C12.4651 8.07504 12.4732 8.07565 12.4813 8.07606C12.4894 8.07644 12.4975 8.07664 12.5056 8.07664ZM12.5056 12.0127L18.257 12.0127C18.2651 12.0127 18.2732 12.0125 18.2813 12.0121C18.2894 12.0117 18.2975 12.0111 18.3056 12.0103C18.3136 12.0095 18.3217 12.0085 18.3297 12.0073C18.3377 12.0061 18.3457 12.0047 18.3537 12.0031C18.3616 12.0015 18.3695 11.9998 18.3774 11.9978C18.3853 11.9958 18.3931 11.9937 18.4008 11.9913C18.4086 11.989 18.4163 11.9864 18.4239 11.9837C18.4316 11.981 18.4391 11.978 18.4466 11.9749C18.4541 11.9718 18.4615 11.9686 18.4688 11.9651C18.4762 11.9616 18.4834 11.958 18.4906 11.9541C18.4977 11.9503 18.5048 11.9463 18.5117 11.9422C18.5187 11.938 18.5255 11.9336 18.5323 11.9291C18.539 11.9246 18.5456 11.92 18.5521 11.9151C18.5587 11.9103 18.5651 11.9053 18.5713 11.9002C18.5776 11.895 18.5837 11.8898 18.5897 11.8843C18.5957 11.8788 18.6016 11.8733 18.6073 11.8675C18.6131 11.8618 18.6187 11.8559 18.6241 11.8499C18.6296 11.8439 18.6349 11.8378 18.64 11.8315C18.6452 11.8252 18.6501 11.8188 18.655 11.8123C18.6598 11.8058 18.6645 11.7992 18.669 11.7924C18.6735 11.7857 18.6778 11.7789 18.682 11.7719C18.6861 11.7649 18.6901 11.7579 18.694 11.7507C18.6978 11.7436 18.7014 11.7364 18.7049 11.729C18.7083 11.7217 18.7117 11.7143 18.7148 11.7068C18.7179 11.6993 18.7208 11.6917 18.7235 11.6841C18.7262 11.6765 18.7288 11.6688 18.7311 11.661C18.7335 11.6532 18.7356 11.6454 18.7376 11.6376C18.7396 11.6297 18.7414 11.6218 18.7429 11.6138C18.7445 11.6059 18.7459 11.5979 18.7471 11.5899C18.7483 11.5819 18.7493 11.5738 18.7501 11.5657C18.7509 11.5577 18.7515 11.5496 18.7519 11.5415C18.7523 11.5334 18.7525 11.5253 18.7525 11.5172C18.7525 11.5091 18.7523 11.501 18.7519 11.4929C18.7515 11.4848 18.7509 11.4767 18.7501 11.4686C18.7493 11.4606 18.7483 11.4525 18.7471 11.4445C18.7459 11.4365 18.7445 11.4285 18.7429 11.4205C18.7414 11.4126 18.7396 11.4047 18.7376 11.3968C18.7356 11.3889 18.7335 11.3811 18.7311 11.3734C18.7288 11.3656 18.7262 11.3579 18.7235 11.3503C18.7208 11.3426 18.7178 11.3351 18.7147 11.3276C18.7116 11.3201 18.7083 11.3127 18.7049 11.3053C18.7014 11.298 18.6978 11.2908 18.694 11.2836C18.6901 11.2765 18.6861 11.2694 18.682 11.2625C18.6778 11.2555 18.6735 11.2487 18.669 11.2419C18.6645 11.2352 18.6598 11.2285 18.655 11.222C18.6501 11.2155 18.6452 11.2091 18.64 11.2029C18.6349 11.1966 18.6296 11.1905 18.6241 11.1845C18.6187 11.1784 18.6131 11.1726 18.6073 11.1668C18.6016 11.1611 18.5957 11.1555 18.5897 11.1501C18.5837 11.1446 18.5776 11.1393 18.5713 11.1342C18.5651 11.129 18.5587 11.1241 18.5521 11.1192C18.5456 11.1144 18.539 11.1097 18.5323 11.1052C18.5255 11.1007 18.5187 11.0964 18.5117 11.0922C18.5048 11.088 18.4977 11.084 18.4906 11.0802C18.4834 11.0764 18.4762 11.0728 18.4688 11.0693C18.4615 11.0658 18.4541 11.0625 18.4466 11.0594C18.4391 11.0563 18.4316 11.0534 18.4239 11.0507C18.4163 11.0479 18.4086 11.0454 18.4008 11.0431C18.3931 11.0407 18.3853 11.0385 18.3774 11.0366C18.3695 11.0346 18.3616 11.0328 18.3537 11.0312C18.3457 11.0297 18.3377 11.0283 18.3297 11.0271C18.3217 11.0259 18.3136 11.0249 18.3056 11.0241C18.2975 11.0233 18.2894 11.0227 18.2813 11.0223C18.2732 11.0219 18.2651 11.0217 18.257 11.0217L12.5056 11.0217C12.4975 11.0217 12.4894 11.0219 12.4813 11.0223C12.4732 11.0227 12.4651 11.0233 12.457 11.0241C12.449 11.0249 12.4409 11.0259 12.4329 11.0271C12.4249 11.0283 12.4169 11.0297 12.4089 11.0312C12.401 11.0328 12.3931 11.0346 12.3852 11.0366C12.3773 11.0385 12.3695 11.0407 12.3618 11.0431C12.354 11.0454 12.3463 11.0479 12.3387 11.0507C12.331 11.0534 12.3235 11.0563 12.316 11.0594C12.3085 11.0625 12.3011 11.0658 12.2937 11.0693C12.2864 11.0728 12.2792 11.0764 12.272 11.0802C12.2649 11.084 12.2578 11.088 12.2509 11.0922C12.2439 11.0964 12.2371 11.1007 12.2303 11.1052C12.2236 11.1097 12.217 11.1144 12.2105 11.1192C12.2039 11.1241 12.1975 11.129 12.1913 11.1342C12.185 11.1393 12.1789 11.1446 12.1729 11.1501C12.1669 11.1555 12.161 11.1611 12.1552 11.1668C12.1495 11.1726 12.1439 11.1784 12.1385 11.1845C12.133 11.1905 12.1277 11.1966 12.1226 11.2029C12.1174 11.2091 12.1125 11.2155 12.1076 11.222C12.1028 11.2285 12.0981 11.2352 12.0936 11.2419C12.0891 11.2487 12.0848 11.2555 12.0806 11.2625C12.0765 11.2694 12.0724 11.2765 12.0686 11.2836C12.0648 11.2908 12.0612 11.298 12.0577 11.3053C12.0542 11.3127 12.051 11.3201 12.0479 11.3276C12.0447 11.3351 12.0418 11.3426 12.0391 11.3503C12.0364 11.3579 12.0338 11.3656 12.0315 11.3734C12.0291 11.3811 12.0269 11.3889 12.025 11.3968C12.023 11.4047 12.0212 11.4126 12.0197 11.4205C12.0181 11.4285 12.0167 11.4365 12.0155 11.4445C12.0143 11.4525 12.0133 11.4606 12.0125 11.4686C12.0117 11.4767 12.0111 11.4848 12.0107 11.4929C12.0103 11.501 12.0101 11.5091 12.0101 11.5172C12.0101 11.5253 12.0103 11.5334 12.0107 11.5415C12.0111 11.5496 12.0117 11.5577 12.0125 11.5657C12.0133 11.5738 12.0143 11.5819 12.0155 11.5899C12.0167 11.5979 12.0181 11.6059 12.0197 11.6138C12.0212 11.6218 12.023 11.6297 12.025 11.6376C12.0269 11.6454 12.0291 11.6532 12.0315 11.661C12.0338 11.6688 12.0364 11.6765 12.0391 11.6841C12.0418 11.6917 12.0447 11.6993 12.0479 11.7068C12.051 11.7143 12.0542 11.7217 12.0577 11.729C12.0612 11.7364 12.0648 11.7436 12.0686 11.7507C12.0724 11.7579 12.0765 11.7649 12.0806 11.7719C12.0848 11.7789 12.0891 11.7857 12.0936 11.7924C12.0981 11.7992 12.1028 11.8058 12.1076 11.8123C12.1125 11.8188 12.1174 11.8252 12.1226 11.8315C12.1277 11.8378 12.133 11.8439 12.1385 11.8499C12.1439 11.8559 12.1495 11.8618 12.1552 11.8675C12.161 11.8733 12.1669 11.8788 12.1729 11.8843C12.1789 11.8898 12.185 11.895 12.1913 11.9002C12.1975 11.9053 12.2039 11.9103 12.2105 11.9151C12.217 11.92 12.2236 11.9246 12.2303 11.9291C12.2371 11.9336 12.2439 11.938 12.2509 11.9422C12.2578 11.9463 12.2649 11.9503 12.272 11.9541C12.2792 11.958 12.2864 11.9616 12.2937 11.9651C12.3011 11.9686 12.3085 11.9718 12.316 11.9749C12.3235 11.978 12.331 11.981 12.3387 11.9837C12.3463 11.9864 12.354 11.989 12.3618 11.9913C12.3695 11.9937 12.3773 11.9958 12.3852 11.9978C12.3931 11.9998 12.401 12.0015 12.4089 12.0031C12.4169 12.0047 12.4249 12.0061 12.4329 12.0073C12.4409 12.0085 12.449 12.0095 12.457 12.0103C12.4651 12.0111 12.4732 12.0117 12.4813 12.0121C12.4894 12.0125 12.4975 12.0127 12.5056 12.0127ZM12.5056 15.9328L15.3635 15.9328C15.3716 15.9328 15.3797 15.9326 15.3878 15.9322C15.3959 15.9318 15.404 15.9312 15.412 15.9304C15.4201 15.9296 15.4281 15.9286 15.4362 15.9274C15.4442 15.9262 15.4522 15.9249 15.4601 15.9233C15.4681 15.9217 15.476 15.9199 15.4838 15.918C15.4917 15.916 15.4995 15.9138 15.5073 15.9115C15.515 15.9091 15.5228 15.9066 15.5304 15.9038C15.538 15.9011 15.5456 15.8982 15.5531 15.8951C15.5606 15.892 15.568 15.8887 15.5753 15.8852C15.5826 15.8818 15.5899 15.8781 15.597 15.8743C15.6042 15.8705 15.6112 15.8665 15.6182 15.8623C15.6251 15.8581 15.632 15.8538 15.6387 15.8493C15.6455 15.8448 15.6521 15.8401 15.6586 15.8353C15.6651 15.8305 15.6715 15.8255 15.6778 15.8203C15.6841 15.8152 15.6902 15.8099 15.6962 15.8044C15.7022 15.799 15.7081 15.7934 15.7138 15.7877C15.7195 15.7819 15.7251 15.7761 15.7306 15.7701C15.736 15.7641 15.7413 15.7579 15.7465 15.7516C15.7516 15.7454 15.7566 15.739 15.7614 15.7325C15.7663 15.726 15.7709 15.7194 15.7754 15.7126C15.7799 15.7059 15.7843 15.699 15.7884 15.6921C15.7926 15.6851 15.7966 15.678 15.8004 15.6709C15.8043 15.6637 15.8079 15.6565 15.8114 15.6492C15.8148 15.6418 15.8181 15.6344 15.8212 15.6269C15.8243 15.6194 15.8272 15.6119 15.83 15.6043C15.8327 15.5966 15.8352 15.5889 15.8376 15.5812C15.8399 15.5734 15.8421 15.5656 15.8441 15.5577C15.846 15.5499 15.8478 15.5419 15.8494 15.534C15.851 15.526 15.8524 15.5181 15.8536 15.51C15.8548 15.502 15.8557 15.494 15.8565 15.4859C15.8573 15.4778 15.8579 15.4697 15.8583 15.4616C15.8587 15.4535 15.8589 15.4454 15.8589 15.4373C15.8589 15.4292 15.8587 15.4211 15.8583 15.413C15.8579 15.4049 15.8573 15.3968 15.8565 15.3888C15.8557 15.3807 15.8548 15.3727 15.8536 15.3646C15.8524 15.3566 15.851 15.3486 15.8494 15.3407C15.8478 15.3327 15.846 15.3248 15.8441 15.317C15.8421 15.3091 15.8399 15.3013 15.8376 15.2935C15.8352 15.2857 15.8327 15.278 15.83 15.2704C15.8272 15.2628 15.8243 15.2552 15.8212 15.2477C15.8181 15.2402 15.8148 15.2328 15.8114 15.2255C15.8079 15.2182 15.8043 15.2109 15.8004 15.2038C15.7966 15.1966 15.7926 15.1896 15.7884 15.1826C15.7843 15.1756 15.7799 15.1688 15.7754 15.1621C15.7709 15.1553 15.7663 15.1487 15.7614 15.1422C15.7566 15.1357 15.7516 15.1293 15.7465 15.123C15.7413 15.1167 15.736 15.1106 15.7306 15.1046C15.7251 15.0986 15.7195 15.0927 15.7138 15.087C15.7081 15.0813 15.7022 15.0757 15.6962 15.0702C15.6902 15.0648 15.6841 15.0595 15.6778 15.0543C15.6715 15.0492 15.6651 15.0442 15.6586 15.0394C15.6521 15.0345 15.6455 15.0299 15.6387 15.0254C15.632 15.0209 15.6251 15.0165 15.6182 15.0124C15.6112 15.0082 15.6042 15.0042 15.597 15.0004C15.5899 14.9965 15.5826 14.9929 15.5753 14.9894C15.568 14.986 15.5606 14.9827 15.5531 14.9796C15.5456 14.9765 15.538 14.9736 15.5304 14.9708C15.5228 14.9681 15.515 14.9656 15.5073 14.9632C15.4995 14.9608 15.4917 14.9587 15.4838 14.9567C15.476 14.9547 15.4681 14.953 15.4601 14.9514C15.4522 14.9498 15.4442 14.9484 15.4362 14.9472C15.4281 14.946 15.4201 14.945 15.412 14.9443C15.404 14.9435 15.3959 14.9429 15.3878 14.9425C15.3797 14.9421 15.3716 14.9419 15.3635 14.9419L12.5056 14.9419C12.4975 14.9419 12.4894 14.9421 12.4813 14.9425C12.4732 14.9429 12.4651 14.9435 12.457 14.9443C12.449 14.945 12.4409 14.946 12.4329 14.9472C12.4249 14.9484 12.4169 14.9498 12.4089 14.9514C12.401 14.953 12.3931 14.9547 12.3852 14.9567C12.3773 14.9587 12.3695 14.9608 12.3618 14.9632C12.354 14.9656 12.3463 14.9681 12.3387 14.9708C12.331 14.9736 12.3235 14.9765 12.316 14.9796C12.3085 14.9827 12.3011 14.986 12.2938 14.9894C12.2864 14.9929 12.2792 14.9965 12.272 15.0004C12.2649 15.0042 12.2578 15.0082 12.2509 15.0124C12.2439 15.0165 12.2371 15.0209 12.2303 15.0254C12.2236 15.0299 12.217 15.0345 12.2105 15.0394C12.2039 15.0442 12.1975 15.0492 12.1913 15.0543C12.185 15.0595 12.1789 15.0648 12.1729 15.0702C12.1669 15.0757 12.161 15.0813 12.1552 15.087C12.1495 15.0927 12.1439 15.0986 12.1385 15.1046C12.133 15.1106 12.1277 15.1167 12.1226 15.123C12.1175 15.1293 12.1125 15.1357 12.1076 15.1422C12.1028 15.1487 12.0981 15.1553 12.0936 15.1621C12.0891 15.1688 12.0848 15.1756 12.0806 15.1826C12.0765 15.1896 12.0724 15.1966 12.0686 15.2038C12.0648 15.2109 12.0612 15.2182 12.0577 15.2255C12.0542 15.2328 12.051 15.2402 12.0479 15.2477C12.0447 15.2552 12.0418 15.2628 12.0391 15.2704C12.0364 15.278 12.0338 15.2857 12.0315 15.2935C12.0291 15.3013 12.0269 15.3091 12.025 15.317C12.023 15.3248 12.0212 15.3327 12.0197 15.3407C12.0181 15.3486 12.0167 15.3566 12.0155 15.3646C12.0143 15.3727 12.0133 15.3807 12.0125 15.3888C12.0117 15.3968 12.0111 15.4049 12.0107 15.413C12.0103 15.4211 12.0101 15.4292 12.0101 15.4373C12.0101 15.4454 12.0103 15.4535 12.0107 15.4616C12.0111 15.4697 12.0117 15.4778 12.0125 15.4859C12.0133 15.494 12.0143 15.502 12.0155 15.51C12.0167 15.5181 12.0181 15.526 12.0197 15.534C12.0212 15.5419 12.023 15.5499 12.025 15.5577C12.0269 15.5656 12.0291 15.5734 12.0315 15.5812C12.0338 15.5889 12.0364 15.5966 12.0391 15.6043C12.0418 15.6119 12.0447 15.6194 12.0479 15.6269C12.051 15.6344 12.0542 15.6418 12.0577 15.6492C12.0612 15.6565 12.0648 15.6637 12.0686 15.6709C12.0724 15.678 12.0765 15.6851 12.0806 15.6921C12.0848 15.699 12.0891 15.7058 12.0936 15.7126C12.0981 15.7193 12.1028 15.726 12.1076 15.7325C12.1125 15.739 12.1175 15.7454 12.1226 15.7516C12.1277 15.7579 12.133 15.7641 12.1385 15.7701C12.1439 15.7761 12.1495 15.7819 12.1552 15.7877C12.161 15.7934 12.1669 15.799 12.1729 15.8044C12.1789 15.8099 12.185 15.8152 12.1913 15.8203C12.1975 15.8255 12.2039 15.8305 12.2105 15.8353C12.217 15.8401 12.2236 15.8448 12.2303 15.8493C12.2371 15.8538 12.2439 15.8581 12.2509 15.8623C12.2578 15.8665 12.2649 15.8705 12.272 15.8743C12.2792 15.8781 12.2864 15.8818 12.2938 15.8852C12.3011 15.8887 12.3085 15.892 12.316 15.8951C12.3235 15.8982 12.331 15.9011 12.3387 15.9038C12.3463 15.9066 12.354 15.9091 12.3618 15.9115C12.3695 15.9138 12.3773 15.916 12.3852 15.918C12.3931 15.9199 12.401 15.9217 12.4089 15.9233C12.4169 15.9249 12.4249 15.9262 12.4329 15.9274C12.4409 15.9286 12.449 15.9296 12.457 15.9304C12.4651 15.9312 12.4732 15.9318 12.4813 15.9322C12.4894 15.9326 12.4975 15.9328 12.5056 15.9328ZM5.01411 11.3983C5.0198 11.4038 5.02563 11.4093 5.03158 11.4146C5.03753 11.4199 5.04361 11.425 5.0498 11.4301C5.05599 11.4351 5.06231 11.4399 5.06876 11.4446C5.07519 11.4493 5.08173 11.4539 5.08838 11.4583C5.09503 11.4627 5.10178 11.4669 5.10863 11.471C5.11548 11.475 5.12242 11.4789 5.12946 11.4827C5.1365 11.4864 5.14362 11.49 5.15084 11.4934C5.15806 11.4968 5.16534 11.5 5.17271 11.503C5.18007 11.5061 5.18749 11.5089 5.19501 11.5116C5.2025 11.5143 5.21007 11.5168 5.2177 11.5192C5.22532 11.5215 5.23298 11.5237 5.24072 11.5256C5.24843 11.5276 5.2562 11.5294 5.26401 11.531C5.27182 11.5325 5.27966 11.5339 5.28754 11.5352C5.29542 11.5364 5.30332 11.5374 5.31124 11.5382C5.31916 11.5391 5.32711 11.5397 5.33507 11.5402C5.34302 11.5406 5.351 11.5409 5.35895 11.541L5.39463 11.541C5.40324 11.5405 5.41186 11.5397 5.42044 11.5387C5.42902 11.5378 5.43758 11.5366 5.4461 11.5352C5.45463 11.5337 5.46312 11.5321 5.47155 11.5302C5.47998 11.5284 5.48838 11.5263 5.4967 11.524C5.50502 11.5217 5.51329 11.5191 5.52148 11.5164C5.52967 11.5137 5.53779 11.5107 5.54582 11.5075C5.55385 11.5044 5.5618 11.501 5.56967 11.4974C5.57753 11.4938 5.58528 11.49 5.59294 11.486C5.6006 11.482 5.60814 11.4778 5.61558 11.4734C5.62302 11.469 5.63035 11.4644 5.63753 11.4596C5.64473 11.4548 5.6518 11.4499 5.65873 11.4447C5.66566 11.4396 5.67245 11.4342 5.6791 11.4287C5.68575 11.4232 5.69226 11.4175 5.69861 11.4117C5.70495 11.4058 5.71114 11.3998 5.71719 11.3936C5.72323 11.3874 5.72909 11.3811 5.73479 11.3746C5.7405 11.3681 5.74603 11.3614 5.75138 11.3547L9.31874 6.81617C9.32372 6.80976 9.32855 6.80324 9.33322 6.7966C9.3379 6.78996 9.3424 6.78321 9.34674 6.77634C9.35107 6.76948 9.35524 6.76252 9.35925 6.75545C9.36323 6.74838 9.36706 6.74123 9.37071 6.73398C9.37437 6.72673 9.37784 6.71939 9.38113 6.71197C9.38442 6.70455 9.38754 6.69705 9.39046 6.68948C9.39338 6.68191 9.39614 6.67427 9.39869 6.66655C9.40124 6.65885 9.4036 6.65109 9.40578 6.64326C9.40795 6.63545 9.40993 6.62758 9.41173 6.61965C9.41352 6.61174 9.41511 6.60379 9.41653 6.59579C9.41792 6.58779 9.41914 6.57976 9.42015 6.5717C9.42116 6.56365 9.42199 6.55557 9.42259 6.54749C9.42322 6.5394 9.42364 6.53129 9.42386 6.52317C9.42408 6.51505 9.4241 6.50693 9.42393 6.49883C9.42377 6.49071 9.4234 6.4826 9.42283 6.4745C9.42226 6.46639 9.42149 6.45831 9.42053 6.45025C9.41956 6.44219 9.4184 6.43416 9.41706 6.42615C9.4157 6.41815 9.41416 6.41019 9.41241 6.40225C9.41067 6.39432 9.40874 6.38644 9.40661 6.37861C9.40448 6.37077 9.40216 6.36299 9.39966 6.35528C9.39715 6.34755 9.39447 6.33989 9.39158 6.33229C9.3887 6.32471 9.38565 6.3172 9.3824 6.30975C9.37914 6.3023 9.37573 6.29494 9.37211 6.28767C9.36851 6.2804 9.36472 6.27321 9.36077 6.26612C9.35682 6.25904 9.35269 6.25205 9.34841 6.24516C9.34411 6.23828 9.33965 6.2315 9.33502 6.22482C9.33039 6.21815 9.32559 6.21159 9.32065 6.20515C9.31571 6.19872 9.31062 6.1924 9.30537 6.18621C9.30011 6.18002 9.29471 6.17396 9.28914 6.16804C9.2836 6.16211 9.2779 6.15632 9.27208 6.15068C9.26625 6.14503 9.26028 6.13953 9.25418 6.13418C9.24809 6.12881 9.24186 6.12361 9.2355 6.11856C9.22914 6.11344 9.22266 6.10849 9.21606 6.1037C9.20947 6.09891 9.20275 6.09429 9.19593 6.08983C9.1891 6.08539 9.18215 6.08111 9.17512 6.07699C9.16808 6.07289 9.16093 6.06896 9.15369 6.0652C9.14646 6.06144 9.13913 6.05787 9.1317 6.05449C9.1243 6.05109 9.11681 6.04789 9.10922 6.04488C9.10163 6.04185 9.09399 6.03902 9.08627 6.03639C9.07856 6.03376 9.07079 6.03132 9.06294 6.02908C9.0551 6.02682 9.04722 6.02477 9.03928 6.02291C9.03132 6.02106 9.02335 6.0194 9.01532 6.01795C9.0073 6.01649 8.99925 6.01523 8.99117 6.01416C8.98308 6.01311 8.97498 6.01226 8.96684 6.01161C8.9587 6.01095 8.95057 6.01049 8.94243 6.01025C8.93427 6.00999 8.92611 6.00994 8.91798 6.0101C8.90982 6.01026 8.90168 6.01062 8.89354 6.01118C8.8854 6.01175 8.87728 6.01251 8.86918 6.01348C8.86108 6.01445 8.85302 6.01561 8.84499 6.01697C8.83694 6.01834 8.82893 6.01991 8.82098 6.02168C8.81302 6.02344 8.8051 6.0254 8.79724 6.02757C8.78938 6.02973 8.78157 6.03208 8.77384 6.03463C8.76608 6.03717 8.7584 6.03991 8.7508 6.04284C8.74319 6.04578 8.73566 6.0489 8.7282 6.05221C8.72074 6.0555 8.71338 6.05899 8.7061 6.06266C8.69881 6.06634 8.69163 6.07019 8.68453 6.07422C8.67746 6.07825 8.67048 6.08245 8.66359 6.08684C8.6567 6.09121 8.64994 6.09575 8.64329 6.10047C8.63662 6.10518 8.6301 6.11006 8.62369 6.11509C8.61728 6.12014 8.611 6.12534 8.60484 6.13069C8.59869 6.13604 8.59268 6.14154 8.5868 6.14719C8.58092 6.15284 8.57519 6.15864 8.56959 6.16457C8.564 6.1705 8.55856 6.17658 8.55327 6.18279C8.54798 6.189 8.54286 6.19533 8.53788 6.20179L5.31139 10.3043L3.12736 8.1797C3.12172 8.17318 3.11592 8.16681 3.10995 8.16058C3.10398 8.15435 3.09785 8.14827 3.09157 8.14237C3.08528 8.13646 3.07885 8.13071 3.07227 8.12514C3.06569 8.11958 3.05897 8.11418 3.0521 8.10894C3.04524 8.1037 3.03825 8.09867 3.03113 8.0938C3.024 8.08893 3.01676 8.08425 3.00939 8.07977C3.00203 8.07527 2.99455 8.07097 2.98696 8.06687C2.97937 8.06277 2.97168 8.05886 2.9639 8.05517C2.9561 8.05146 2.94822 8.04795 2.94025 8.04466C2.93228 8.04137 2.92423 8.03828 2.9161 8.0354C2.90796 8.03252 2.89976 8.02985 2.89149 8.02741C2.88322 8.02495 2.87489 8.02271 2.86651 8.02069C2.85812 8.01866 2.84969 8.01686 2.84121 8.01528C2.83273 8.01369 2.82422 8.01233 2.81567 8.01119C2.80712 8.01005 2.79854 8.00913 2.78995 8.00841C2.78135 8.00772 2.77274 8.00724 2.76411 8.007C2.75549 8.00674 2.74687 8.0067 2.73824 8.00691C2.72962 8.00709 2.72101 8.00751 2.7124 8.00816C2.7038 8.0088 2.69522 8.00964 2.68666 8.01073C2.67811 8.01181 2.66958 8.01312 2.66109 8.01464C2.6526 8.01617 2.64416 8.01791 2.63576 8.01988C2.62736 8.02184 2.61901 8.02403 2.61073 8.02642C2.60244 8.02882 2.59422 8.03143 2.58607 8.03424C2.57792 8.03707 2.56984 8.0401 2.56185 8.04334C2.55385 8.04659 2.54595 8.05002 2.53813 8.05368C2.53032 8.05733 2.5226 8.06117 2.51498 8.06522C2.50737 8.06928 2.49986 8.07352 2.49246 8.07795C2.48506 8.08239 2.47779 8.08702 2.47063 8.09184C2.46348 8.09665 2.45645 8.10165 2.44955 8.10683C2.44265 8.11201 2.43589 8.11737 2.42927 8.1229C2.42265 8.12843 2.41618 8.13413 2.40985 8.13999C2.40353 8.14585 2.39736 8.15187 2.39134 8.15806C2.38533 8.16426 2.37948 8.17059 2.3738 8.17708C2.36811 8.18356 2.3626 8.1902 2.35726 8.19697C2.35192 8.20375 2.34675 8.21066 2.34177 8.2177C2.33679 8.22473 2.33199 8.2319 2.32738 8.23919C2.32277 8.24648 2.31835 8.25389 2.31412 8.2614C2.30989 8.26892 2.30586 8.27654 2.30202 8.28427C2.29819 8.29201 2.29456 8.29982 2.29113 8.30773C2.2877 8.31565 2.28448 8.32364 2.28147 8.33173C2.27846 8.33981 2.27565 8.34797 2.27306 8.3562C2.27047 8.36443 2.2681 8.37271 2.26593 8.38107C2.26377 8.38943 2.26183 8.39782 2.2601 8.40627C2.25838 8.41473 2.25687 8.42321 2.25558 8.43174C2.2543 8.44028 2.25323 8.44884 2.25239 8.45742C2.25155 8.466 2.25093 8.4746 2.25053 8.48321C2.25013 8.49183 2.24996 8.50046 2.25001 8.50908C2.25006 8.51771 2.25033 8.52633 2.25083 8.53495C2.25133 8.54356 2.25204 8.55214 2.25299 8.56072C2.25393 8.5693 2.25509 8.57784 2.25647 8.58635C2.25786 8.59487 2.25946 8.60334 2.26129 8.61177C2.26311 8.62021 2.26515 8.62858 2.26741 8.63691C2.26967 8.64523 2.27214 8.65349 2.27482 8.66169C2.27751 8.6699 2.2804 8.67802 2.28351 8.68607C2.28662 8.69411 2.28993 8.70207 2.29345 8.70995C2.29697 8.71783 2.30069 8.7256 2.30461 8.73328C2.30853 8.74098 2.31265 8.74855 2.31697 8.756C2.32128 8.76348 2.32579 8.77083 2.33048 8.77807C2.33518 8.78531 2.34006 8.79242 2.34512 8.7994C2.35019 8.80638 2.35543 8.81323 2.36084 8.81994C2.36626 8.82664 2.37185 8.83322 2.37761 8.83965C2.38337 8.84606 2.38929 8.85234 2.39538 8.85846C2.40146 8.86458 2.4077 8.87053 2.41409 8.87632C2.42048 8.8821 2.42702 8.88773 2.43371 8.89318L5.01411 11.3983ZM5.35895 17.0109L5.39463 17.0109C5.40324 17.0103 5.41182 17.0095 5.42038 17.0085C5.42895 17.0074 5.43747 17.0062 5.44598 17.0047C5.45448 17.0032 5.46293 17.0015 5.47135 16.9996C5.47976 16.9976 5.48812 16.9955 5.49642 16.9932C5.50471 16.9908 5.51296 16.9883 5.52113 16.9855C5.52931 16.9827 5.53739 16.9797 5.5454 16.9766C5.55343 16.9734 5.56135 16.97 5.56919 16.9664C5.57703 16.9628 5.58477 16.959 5.59243 16.955C5.60007 16.951 5.6076 16.9468 5.61504 16.9424C5.62248 16.938 5.6298 16.9335 5.637 16.9287C5.64418 16.924 5.65125 16.919 5.6582 16.9139C5.66514 16.9088 5.67196 16.9035 5.67863 16.898C5.6853 16.8925 5.69182 16.8869 5.69819 16.8811C5.70457 16.8753 5.71079 16.8693 5.71687 16.8632C5.72296 16.8571 5.72887 16.8508 5.73462 16.8444C5.74037 16.8379 5.74596 16.8314 5.75138 16.8246L9.31874 12.2822C9.32372 12.2757 9.32855 12.2691 9.33322 12.2624C9.33788 12.2557 9.34238 12.2488 9.3467 12.2419C9.35102 12.2349 9.35517 12.2279 9.35916 12.2207C9.36314 12.2136 9.36696 12.2063 9.37058 12.199C9.3742 12.1917 9.37766 12.1842 9.38091 12.1767C9.38416 12.1692 9.38725 12.1617 9.39013 12.154C9.39301 12.1463 9.39571 12.1386 9.39823 12.1308C9.40075 12.1231 9.40306 12.1152 9.40519 12.1073C9.40733 12.0994 9.40925 12.0914 9.41098 12.0834C9.41273 12.0755 9.41427 12.0674 9.41561 12.0593C9.41695 12.0513 9.41809 12.0432 9.41903 12.0351C9.41996 12.0269 9.42072 12.0188 9.42127 12.0106C9.4218 12.0024 9.42215 11.9943 9.4223 11.9861C9.42244 11.9779 9.42239 11.9697 9.42213 11.9616C9.42188 11.9534 9.42142 11.9452 9.42075 11.937C9.42009 11.9289 9.41923 11.9207 9.41818 11.9126C9.41712 11.9045 9.41587 11.8964 9.41442 11.8884C9.41296 11.8803 9.41131 11.8723 9.40946 11.8644C9.4076 11.8564 9.40556 11.8485 9.40334 11.8406C9.4011 11.8327 9.39867 11.8249 9.39605 11.8172C9.39342 11.8094 9.39061 11.8017 9.38761 11.7941C9.38462 11.7865 9.38144 11.779 9.37808 11.7715C9.37472 11.764 9.37117 11.7567 9.36744 11.7494C9.36371 11.7421 9.3598 11.7349 9.35572 11.7278C9.35164 11.7207 9.3474 11.7137 9.34297 11.7069C9.33854 11.7 9.33395 11.6932 9.32919 11.6865C9.32443 11.6799 9.31953 11.6733 9.31444 11.6669C9.30937 11.6605 9.30413 11.6542 9.29875 11.6481C9.29337 11.6419 9.28782 11.6359 9.28214 11.63C9.27647 11.6241 9.27065 11.6183 9.26467 11.6127C9.25872 11.6071 9.25262 11.6017 9.2464 11.5964C9.24017 11.5911 9.23381 11.5859 9.22733 11.5809C9.22084 11.5759 9.21423 11.5711 9.20752 11.5664C9.2008 11.5618 9.19396 11.5573 9.18702 11.5529C9.18007 11.5486 9.17304 11.5445 9.16589 11.5405C9.15875 11.5365 9.15151 11.5327 9.14418 11.529C9.13685 11.5254 9.12943 11.522 9.12193 11.5187C9.11442 11.5154 9.10685 11.5123 9.09919 11.5094C9.09153 11.5065 9.08381 11.5038 9.07604 11.5013C9.06825 11.4988 9.06041 11.4965 9.05251 11.4943C9.04461 11.4922 9.03665 11.4903 9.02866 11.4885C9.02067 11.4868 9.01262 11.4852 9.00456 11.4839C8.99649 11.4825 8.98839 11.4814 8.98027 11.4805C8.97213 11.4795 8.96399 11.4787 8.95582 11.4782C8.94766 11.4776 8.93949 11.4773 8.93131 11.4771C8.92314 11.477 8.91494 11.477 8.90677 11.4773C8.89859 11.4775 8.89042 11.478 8.88226 11.4786C8.87411 11.4793 8.86597 11.4801 8.85785 11.4812C8.84974 11.4822 8.84166 11.4835 8.8336 11.4849C8.82555 11.4864 8.81754 11.488 8.80957 11.4899C8.80159 11.4917 8.79368 11.4938 8.7858 11.496C8.77791 11.4982 8.77011 11.5006 8.76235 11.5032C8.7546 11.5059 8.74692 11.5086 8.7393 11.5116C8.73167 11.5146 8.72414 11.5178 8.71668 11.5212C8.70921 11.5245 8.70184 11.5281 8.69456 11.5318C8.68727 11.5355 8.68007 11.5394 8.67298 11.5435C8.66589 11.5476 8.65889 11.5518 8.652 11.5562C8.64511 11.5607 8.63835 11.5652 8.63168 11.57C8.62501 11.5747 8.61847 11.5797 8.61206 11.5847C8.60563 11.5898 8.59933 11.595 8.59317 11.6004C8.58702 11.6058 8.58098 11.6113 8.57508 11.617C8.56918 11.6227 8.56343 11.6285 8.55783 11.6344C8.55223 11.6404 8.54677 11.6465 8.54146 11.6527C8.53615 11.6589 8.53099 11.6653 8.52599 11.6718L5.31139 15.7742L3.12736 13.6537C3.12172 13.6471 3.11592 13.6407 3.10995 13.6345C3.10398 13.6283 3.09785 13.6222 3.09157 13.6163C3.08528 13.6104 3.07885 13.6047 3.07227 13.5991C3.06569 13.5935 3.05897 13.5881 3.0521 13.5829C3.04524 13.5776 3.03825 13.5726 3.03113 13.5677C3.024 13.5629 3.01676 13.5582 3.00939 13.5537C3.00203 13.5492 2.99455 13.5449 2.98696 13.5408C2.97937 13.5367 2.97168 13.5328 2.9639 13.5291C2.9561 13.5254 2.94822 13.5219 2.94025 13.5186C2.93228 13.5153 2.92423 13.5122 2.9161 13.5093C2.90796 13.5064 2.89976 13.5038 2.89149 13.5013C2.88322 13.4989 2.87489 13.4967 2.86651 13.4946C2.85812 13.4926 2.84969 13.4908 2.84121 13.4892C2.83273 13.4876 2.82422 13.4863 2.81567 13.4851C2.80712 13.484 2.79854 13.4831 2.78995 13.4824C2.78135 13.4817 2.77274 13.4812 2.76411 13.4809C2.75549 13.4807 2.74687 13.4806 2.73824 13.4808C2.72962 13.481 2.72101 13.4814 2.7124 13.4821C2.7038 13.4827 2.69522 13.4836 2.68666 13.4847C2.6781 13.4858 2.66958 13.4871 2.66109 13.4886C2.6526 13.4901 2.64415 13.4919 2.63576 13.4938C2.62736 13.4958 2.61901 13.498 2.61072 13.5004C2.60244 13.5028 2.59422 13.5054 2.58607 13.5082C2.57791 13.511 2.56984 13.514 2.56185 13.5173C2.55385 13.5205 2.54595 13.524 2.53813 13.5276C2.53031 13.5313 2.5226 13.5351 2.51498 13.5392C2.50737 13.5432 2.49986 13.5475 2.49246 13.5519C2.48506 13.5563 2.47779 13.561 2.47063 13.5658C2.46347 13.5706 2.45644 13.5756 2.44955 13.5808C2.44265 13.5859 2.43589 13.5913 2.42927 13.5968C2.42265 13.6024 2.41618 13.6081 2.40985 13.6139C2.40352 13.6198 2.39736 13.6258 2.39134 13.632C2.38533 13.6382 2.37948 13.6445 2.37379 13.651C2.36811 13.6575 2.3626 13.6641 2.35725 13.6709C2.35191 13.6777 2.34675 13.6846 2.34177 13.6916C2.33678 13.6987 2.33199 13.7058 2.32738 13.7131C2.32276 13.7204 2.31834 13.7278 2.31411 13.7353C2.30989 13.7428 2.30586 13.7505 2.30202 13.7582C2.29819 13.7659 2.29456 13.7737 2.29113 13.7817C2.2877 13.7896 2.28448 13.7976 2.28147 13.8057C2.27845 13.8138 2.27565 13.8219 2.27306 13.8301C2.27047 13.8384 2.26809 13.8466 2.26593 13.855C2.26377 13.8634 2.26183 13.8718 2.2601 13.8802C2.25837 13.8887 2.25687 13.8971 2.25558 13.9057C2.2543 13.9142 2.25323 13.9228 2.25239 13.9314C2.25155 13.9399 2.25093 13.9485 2.25053 13.9572C2.25013 13.9658 2.24996 13.9744 2.25001 13.983C2.25006 13.9916 2.25033 14.0003 2.25083 14.0089C2.25132 14.0175 2.25204 14.0261 2.25298 14.0347C2.25393 14.0432 2.25509 14.0518 2.25647 14.0603C2.25786 14.0688 2.25946 14.0773 2.26128 14.0857C2.26311 14.0941 2.26515 14.1025 2.26741 14.1109C2.26966 14.1192 2.27214 14.1274 2.27482 14.1356C2.27751 14.1438 2.2804 14.152 2.28351 14.16C2.28662 14.168 2.28993 14.176 2.29345 14.1839C2.29697 14.1918 2.30069 14.1995 2.30461 14.2072C2.30853 14.2149 2.31265 14.2225 2.31696 14.23C2.32128 14.2374 2.32578 14.2448 2.33048 14.252C2.33518 14.2592 2.34006 14.2663 2.34512 14.2733C2.35018 14.2803 2.35543 14.2872 2.36084 14.2939C2.36626 14.3006 2.37185 14.3072 2.37761 14.3136C2.38337 14.32 2.38929 14.3263 2.39538 14.3324C2.40146 14.3385 2.4077 14.3445 2.41409 14.3502C2.42048 14.356 2.42702 14.3617 2.43371 14.3671L5.01411 16.8722C5.01982 16.8777 5.02568 16.8831 5.03165 16.8883C5.03762 16.8936 5.04372 16.8986 5.04993 16.9036C5.05616 16.9085 5.0625 16.9133 5.06895 16.9179C5.07539 16.9225 5.08193 16.927 5.0886 16.9313C5.09527 16.9357 5.10203 16.9398 5.1089 16.9438C5.11576 16.9478 5.12272 16.9516 5.12977 16.9553C5.13681 16.9589 5.14394 16.9624 5.15116 16.9657C5.15838 16.969 5.16567 16.9722 5.17304 16.9751C5.1804 16.9781 5.18783 16.9809 5.19532 16.9835C5.20283 16.9861 5.21038 16.9885 5.21801 16.9908C5.22563 16.993 5.23329 16.9951 5.24101 16.9969C5.24871 16.9988 5.25646 17.0005 5.26427 17.002C5.27207 17.0035 5.2799 17.0048 5.28775 17.006C5.29561 17.0071 5.30349 17.008 5.31139 17.0088C5.31931 17.0095 5.32722 17.01 5.33514 17.0104C5.34308 17.0108 5.35102 17.011 5.35895 17.0109Z"   fill="#0063B1" ></path><path d="M19.5903 2.10003L5.18018 2.09998C5.14496 2.09998 5.11548 2.09998 5.08032 2.09998C5.04516 2.09998 5.00525 2.10999 4.97021 2.10999C4.93518 2.10999 4.90517 2.12 4.87036 2.12C4.83554 2.12 4.79478 2.14001 4.76025 2.14001C4.72574 2.14001 4.6943 2.16992 4.66016 2.16992C4.62602 2.16992 4.59398 2.17968 4.5603 2.18994C4.52662 2.2002 4.49335 2.21809 4.46021 2.22998C4.42708 2.24188 4.39287 2.24651 4.36035 2.26001C4.32784 2.27351 4.29207 2.29486 4.26025 2.30994C4.22845 2.32501 4.20121 2.34337 4.17017 2.35999C4.13913 2.3766 4.11051 2.39192 4.08032 2.41003C4.05014 2.42815 4.01951 2.44039 3.99023 2.45996C3.96097 2.47953 3.92867 2.49904 3.90039 2.52002C3.87212 2.541 3.84752 2.56762 3.82031 2.58997C3.7931 2.61231 3.76632 2.63639 3.74023 2.66003C3.71415 2.68368 3.68505 2.70509 3.66016 2.72998C3.63526 2.75488 3.61398 2.78385 3.59033 2.80994C3.56669 2.83602 3.5426 2.86281 3.52026 2.89001C3.49792 2.91722 3.48119 2.9417 3.46021 2.96997C3.43922 2.99824 3.41996 3.03067 3.40039 3.05994C3.38082 3.0892 3.35845 3.11984 3.34033 3.15002C3.32221 3.18021 3.3069 3.20895 3.29028 3.23999C3.27366 3.27103 3.25531 3.29814 3.24023 3.32996C3.22516 3.36177 3.2137 3.39742 3.2002 3.42993C3.18669 3.46245 3.17205 3.49689 3.16016 3.53003C3.14826 3.56317 3.14063 3.59633 3.13037 3.63C3.12011 3.66368 3.10034 3.69584 3.10034 3.72998C3.10034 3.76412 3.07031 3.79543 3.07031 3.82996C3.07031 3.86448 3.0603 3.90512 3.0603 3.93994C3.0603 3.97475 3.04028 4.00488 3.04028 4.03992C3.04028 4.07495 3.03027 4.11488 3.03027 4.15002C3.03027 4.18519 3.03027 4.21478 3.03027 4.25L3.03027 4.69995L3.03027 4.72998L3.03027 4.75L3.03027 4.78003L3.03027 4.79993L3.04028 4.82996L3.04028 4.84998L3.05029 4.88L3.0603 4.90002L3.07031 4.92993L3.08032 4.94995L3.09033 4.97998L3.10034 5L3.11035 5.02002L3.13037 5.03992L3.14038 5.05994L3.16016 5.07996L3.18018 5.09998L3.2002 5.12L3.22021 5.13L3.24023 5.15002L3.26025 5.16003L3.28027 5.17993L3.30029 5.18994L3.33032 5.19995L3.35034 5.20996L3.38037 5.21997L3.40039 5.22998L3.43018 5.22998L3.4502 5.23999L3.48022 5.23999L3.50024 5.23999L3.53027 5.23999L3.5603 5.23999L3.58032 5.23999L3.61035 5.23999L3.63037 5.22998L3.66016 5.22998L3.68018 5.21997L3.71021 5.20996L3.73022 5.19995L3.75024 5.18994L3.78027 5.17993L3.80029 5.16003L3.82031 5.15002L3.84033 5.13L3.86035 5.12L3.88037 5.09998L3.90039 5.07996L3.91016 5.05994L3.93018 5.03992L3.9502 5.02002L3.96021 5L3.97021 4.97998L3.98022 4.94995L3.99023 4.92993L4.00024 4.90002L4.01025 4.88L4.02026 4.84998L4.02026 4.82996L4.03027 4.79993L4.03027 4.78003L4.03027 4.75L4.03027 4.72998L4.03027 4.69995L4.03027 4.25C4.03027 4.23106 4.03027 4.21885 4.03027 4.19995C4.03027 4.18103 4.03027 4.15886 4.03027 4.14001C4.03027 4.12117 4.04028 4.09869 4.04028 4.07996C4.04028 4.06122 4.05029 4.0486 4.05029 4.03003C4.05029 4.01146 4.0603 3.98834 4.0603 3.96997C4.0603 3.9516 4.08032 3.93805 4.08032 3.91992C4.08032 3.9018 4.09033 3.87782 4.09033 3.85999C4.09033 3.84215 4.11035 3.82744 4.11035 3.80994C4.11035 3.79244 4.14038 3.77713 4.14038 3.76001C4.14038 3.74289 4.16016 3.72667 4.16016 3.70996C4.16016 3.69326 4.19019 3.67628 4.19019 3.66003C4.19019 3.64379 4.20969 3.62573 4.22021 3.60999C4.23075 3.59424 4.23896 3.57515 4.25024 3.55994C4.26152 3.54472 4.27826 3.53466 4.29028 3.52002C4.3023 3.50538 4.31761 3.49402 4.33032 3.47998C4.34305 3.46595 4.35696 3.44333 4.37036 3.42993C4.38375 3.41654 4.39612 3.40274 4.41016 3.39001C4.42419 3.37729 4.43555 3.372 4.4502 3.35999C4.46483 3.34797 4.47501 3.33123 4.49023 3.31995C4.50545 3.30866 4.52453 3.30044 4.54028 3.28992C4.55603 3.27939 4.57409 3.26001 4.59033 3.26001C4.60659 3.26001 4.62368 3.22998 4.64038 3.22998C4.65709 3.22998 4.67306 3.20996 4.69019 3.20996C4.70731 3.20996 4.72273 3.17993 4.74023 3.17993C4.75774 3.17993 4.77245 3.16003 4.79028 3.16003C4.80812 3.16003 4.83222 3.14001 4.85034 3.14001C4.86847 3.14001 4.882 3.13 4.90039 3.13C4.91876 3.13 4.94163 3.12 4.96021 3.12C4.97878 3.12 4.99153 3.10999 5.01025 3.10999C5.02899 3.10999 5.05145 3.09998 5.07031 3.09998C5.08916 3.09998 5.11147 3.09998 5.13037 3.09998C5.14929 3.09998 5.16124 3.08997 5.18018 3.08997L19.5903 3.09003C19.6092 3.09003 19.6213 3.10003 19.6403 3.10003C19.6592 3.10003 19.6814 3.10003 19.7003 3.10003C19.7191 3.10003 19.7415 3.11003 19.7603 3.11003C19.779 3.11003 19.7917 3.12003 19.8103 3.12003C19.8288 3.12003 19.8519 3.13003 19.8703 3.13003C19.8886 3.13003 19.9021 3.14003 19.9203 3.14003C19.9384 3.14003 19.9624 3.16003 19.9803 3.16003C19.9981 3.16003 20.0128 3.18003 20.0303 3.18003C20.0478 3.18003 20.0631 3.21003 20.0803 3.21003C20.0974 3.21003 20.1136 3.23003 20.1303 3.23003C20.1469 3.23003 20.164 3.26003 20.1803 3.26003C20.1965 3.26003 20.2145 3.27951 20.2303 3.29003C20.246 3.30055 20.265 3.30875 20.2803 3.32003C20.2955 3.33131 20.3056 3.34801 20.3203 3.36003C20.3349 3.37205 20.3462 3.37731 20.3603 3.39003C20.3743 3.40275 20.3869 3.41664 20.4003 3.43003C20.4136 3.44342 20.4275 3.466 20.4403 3.48003C20.453 3.49407 20.4682 3.50539 20.4803 3.52003C20.4923 3.53467 20.509 3.54482 20.5203 3.56003C20.5315 3.57524 20.5397 3.59428 20.5503 3.61003C20.5608 3.62578 20.5803 3.64378 20.5803 3.66003C20.5803 3.67628 20.6103 3.69333 20.6103 3.71003C20.6103 3.72673 20.6303 3.74291 20.6303 3.76003C20.6303 3.77715 20.6603 3.79253 20.6603 3.81003C20.6603 3.82753 20.6803 3.8422 20.6803 3.86003C20.6803 3.87786 20.6903 3.9019 20.6903 3.92003C20.6903 3.93816 20.7103 3.95166 20.7103 3.97003C20.7103 3.9884 20.7203 4.01146 20.7203 4.03003C20.7203 4.0486 20.7303 4.06129 20.7303 4.08003C20.7303 4.09877 20.7403 4.12118 20.7403 4.14003C20.7403 4.15888 20.7403 4.18111 20.7403 4.20003C20.7403 4.21893 20.7403 4.23109 20.7403 4.25003L20.7403 19.75C20.7403 19.7693 20.7403 19.7908 20.7403 19.81C20.7403 19.8293 20.7403 19.8408 20.7403 19.86C20.7403 19.8792 20.7303 19.9009 20.7303 19.92C20.7303 19.9391 20.7303 19.9611 20.7303 19.98C20.7303 19.999 20.7103 20.0113 20.7103 20.03C20.7103 20.0488 20.7003 20.0715 20.7003 20.09C20.7003 20.1086 20.6803 20.1318 20.6803 20.15C20.6803 20.1683 20.6603 20.1821 20.6603 20.2C20.6603 20.218 20.6403 20.2325 20.6403 20.25C20.6403 20.2676 20.6203 20.2929 20.6203 20.31C20.6203 20.3272 20.5903 20.3433 20.5903 20.36C20.5903 20.3767 20.5707 20.3938 20.5603 20.41C20.5498 20.4262 20.5415 20.4344 20.5303 20.45C20.519 20.4657 20.5022 20.485 20.4903 20.5C20.4783 20.5151 20.463 20.5256 20.4503 20.54C20.4375 20.5545 20.4237 20.5762 20.4103 20.59C20.3968 20.6038 20.3844 20.6169 20.3703 20.63C20.3562 20.6431 20.345 20.6476 20.3303 20.66C20.3155 20.6724 20.2956 20.6884 20.2803 20.7C20.2649 20.7117 20.2561 20.7192 20.2403 20.73C20.2244 20.7409 20.2067 20.7599 20.1903 20.77C20.1738 20.7801 20.1571 20.79 20.1403 20.79C20.1234 20.79 20.1076 20.82 20.0903 20.82C20.0729 20.82 20.058 20.84 20.0403 20.84C20.0225 20.84 19.9983 20.87 19.9803 20.87C19.9622 20.87 19.9486 20.88 19.9303 20.88C19.9119 20.88 19.8889 20.9 19.8703 20.9C19.8516 20.9 19.8391 20.91 19.8203 20.91C19.8014 20.91 19.7793 20.92 19.7603 20.92C19.7412 20.92 19.7194 20.93 19.7003 20.93C19.6811 20.93 19.6595 20.94 19.6403 20.94C19.621 20.94 19.6095 20.94 19.5903 20.94L5.18018 20.9399C5.1609 20.9399 5.14961 20.9399 5.13037 20.9399C5.11114 20.9399 5.08947 20.9299 5.07031 20.9299C5.05115 20.9299 5.0293 20.9199 5.01025 20.9199C4.99122 20.9199 4.96906 20.91 4.9502 20.91C4.93133 20.91 4.91904 20.9 4.90039 20.9C4.88174 20.9 4.85872 20.88 4.84033 20.88C4.82194 20.88 4.80836 20.87 4.79028 20.87C4.77221 20.87 4.74796 20.84 4.73022 20.84C4.71249 20.84 4.6975 20.8199 4.68018 20.8199C4.66285 20.8199 4.64727 20.79 4.63037 20.79C4.61347 20.79 4.59673 20.7801 4.58032 20.77C4.56391 20.76 4.54617 20.7408 4.53027 20.73C4.51438 20.7191 4.50557 20.7116 4.49023 20.6999C4.4749 20.6883 4.45492 20.6724 4.44019 20.66C4.42544 20.6476 4.41449 20.6431 4.40039 20.63C4.38629 20.6169 4.37379 20.6038 4.36035 20.59C4.34692 20.5762 4.33304 20.5545 4.32031 20.54C4.30758 20.5256 4.29226 20.5151 4.28027 20.5C4.26827 20.4849 4.25146 20.4656 4.24023 20.4499C4.229 20.4343 4.22064 20.4262 4.21021 20.41C4.19976 20.3938 4.18018 20.3767 4.18018 20.36C4.18018 20.3433 4.15039 20.3271 4.15039 20.3099C4.15039 20.2928 4.13037 20.2676 4.13037 20.25C4.13037 20.2325 4.11035 20.2179 4.11035 20.1999C4.11035 20.182 4.09033 20.1683 4.09033 20.15C4.09033 20.1318 4.07031 20.1085 4.07031 20.09C4.07031 20.0714 4.0603 20.0488 4.0603 20.03C4.0603 20.0113 4.04028 19.999 4.04028 19.98C4.04028 19.961 4.04028 19.939 4.04028 19.9199C4.04028 19.9008 4.03027 19.8792 4.03027 19.86C4.03027 19.8408 4.03027 19.8292 4.03027 19.8099C4.03027 19.7907 4.03027 19.7693 4.03027 19.75L4.03027 18.3099L4.02026 18.29L4.02026 18.27L4.02026 18.24L4.01025 18.22L4.00024 18.2L4.00024 18.1799L3.99023 18.16L3.98022 18.13L3.97021 18.11L3.9502 18.09L3.94019 18.0699L3.93018 18.0599L3.91016 18.0399L3.90039 18.02L3.88037 18L3.87036 17.99L3.85034 17.97L3.83032 17.96L3.8103 17.9399L3.79028 17.9299L3.77026 17.9199L3.75024 17.91L3.73022 17.9L3.71021 17.89L3.69019 17.88L3.67017 17.88L3.64038 17.87L3.62036 17.87L3.60034 17.86L3.58032 17.86L3.55029 17.86L3.53027 17.86L3.51025 17.86L3.48022 17.86L3.46021 17.86L3.44019 17.87L3.41016 17.87L3.39038 17.88L3.37036 17.88L3.35034 17.89L3.33032 17.9L3.3103 17.91L3.29028 17.9199L3.27026 17.9299L3.25024 17.9399L3.23022 17.96L3.21021 17.97L3.19019 17.99L3.18018 18L3.16016 18.02L3.14038 18.0399L3.13037 18.0599L3.12036 18.0699L3.10034 18.09L3.09033 18.11L3.08032 18.13L3.07031 18.16L3.0603 18.1799L3.0603 18.2L3.05029 18.22L3.04028 18.24L3.04028 18.27L3.03027 18.29L3.03027 18.3099L3.03027 19.75C3.03027 19.7852 3.03027 19.8148 3.03027 19.85C3.03027 19.8851 3.04028 19.9249 3.04028 19.96C3.04028 19.995 3.0603 20.0251 3.0603 20.0599C3.0603 20.0947 3.07031 20.1354 3.07031 20.1699C3.07031 20.2044 3.10034 20.2359 3.10034 20.27C3.10034 20.3042 3.12011 20.3363 3.13037 20.37C3.14063 20.4037 3.14826 20.4368 3.16016 20.47C3.17205 20.5031 3.18669 20.5374 3.2002 20.5699C3.2137 20.6025 3.22516 20.6381 3.24023 20.6699C3.25531 20.7017 3.27366 20.729 3.29028 20.76C3.3069 20.791 3.32221 20.8198 3.34033 20.85C3.35845 20.8802 3.38082 20.9107 3.40039 20.9399C3.41996 20.9692 3.43922 21.0018 3.46021 21.03C3.48119 21.0583 3.49792 21.0828 3.52026 21.11C3.5426 21.1372 3.56669 21.1639 3.59033 21.1899C3.61398 21.216 3.63526 21.2451 3.66016 21.27C3.68505 21.2949 3.71415 21.3163 3.74023 21.34C3.76632 21.3636 3.7931 21.3877 3.82031 21.41C3.84752 21.4324 3.87212 21.459 3.90039 21.48C3.92867 21.5009 3.96097 21.5204 3.99023 21.54C4.01951 21.5597 4.05014 21.5718 4.08032 21.59C4.11051 21.6082 4.13913 21.6233 4.17017 21.64C4.20121 21.6565 4.22845 21.6749 4.26025 21.6899C4.29207 21.705 4.32784 21.7264 4.36035 21.74C4.39287 21.7534 4.42708 21.7581 4.46021 21.77C4.49335 21.782 4.52662 21.7996 4.5603 21.8099C4.59398 21.8202 4.62602 21.83 4.66016 21.83C4.6943 21.83 4.72574 21.86 4.76025 21.86C4.79478 21.86 4.83554 21.88 4.87036 21.88C4.90517 21.88 4.93518 21.89 4.97021 21.89C5.00525 21.89 5.04516 21.9 5.08032 21.9C5.11548 21.9 5.14496 21.9 5.18018 21.9L19.5903 21.9C19.6255 21.9 19.6551 21.9 19.6903 21.9C19.7254 21.9 19.7652 21.89 19.8003 21.89C19.8353 21.89 19.8654 21.88 19.9003 21.88C19.9351 21.88 19.9757 21.86 20.0103 21.86C20.0448 21.86 20.0761 21.83 20.1103 21.83C20.1444 21.83 20.1766 21.8203 20.2103 21.81C20.2439 21.7997 20.2771 21.782 20.3103 21.77C20.3434 21.7581 20.3777 21.7534 20.4103 21.74C20.4427 21.7264 20.4784 21.7051 20.5103 21.69C20.5421 21.675 20.5692 21.6566 20.6003 21.64C20.6313 21.6233 20.6601 21.6082 20.6903 21.59C20.7204 21.5718 20.751 21.5597 20.7803 21.54C20.8095 21.5204 20.842 21.501 20.8703 21.48C20.8985 21.4591 20.923 21.4324 20.9503 21.41C20.9775 21.3877 21.0042 21.3637 21.0303 21.34C21.0563 21.3164 21.0854 21.2949 21.1103 21.27C21.1351 21.2451 21.1566 21.2161 21.1803 21.19C21.2039 21.164 21.2279 21.1372 21.2503 21.11C21.2726 21.0828 21.2893 21.0583 21.3103 21.03C21.3312 21.0018 21.3507 20.9693 21.3703 20.94C21.3898 20.9108 21.4121 20.8802 21.4303 20.85C21.4484 20.8198 21.4637 20.7911 21.4803 20.76C21.4969 20.729 21.5152 20.7019 21.5303 20.67C21.5453 20.6382 21.5567 20.6025 21.5703 20.57C21.5837 20.5375 21.5984 20.5032 21.6103 20.47C21.6221 20.4369 21.63 20.4037 21.6403 20.37C21.6505 20.3364 21.6703 20.3042 21.6703 20.27C21.6703 20.2359 21.7003 20.2046 21.7003 20.17C21.7003 20.1355 21.7103 20.0948 21.7103 20.06C21.7103 20.0252 21.7303 19.9951 21.7303 19.96C21.7303 19.925 21.7403 19.8852 21.7403 19.85C21.7403 19.8149 21.7403 19.7852 21.7403 19.75L21.7403 4.25003C21.7403 4.21481 21.7403 4.18519 21.7403 4.15003C21.7403 4.11489 21.7303 4.07506 21.7303 4.04003C21.7303 4.005 21.7103 3.97484 21.7103 3.94003C21.7103 3.90521 21.7003 3.86455 21.7003 3.83003C21.7003 3.79551 21.6703 3.76417 21.6703 3.73003C21.6703 3.69589 21.6505 3.66371 21.6403 3.63003C21.63 3.59635 21.6221 3.56317 21.6103 3.53003C21.5984 3.49689 21.5837 3.46254 21.5703 3.43003C21.5567 3.39751 21.5453 3.36184 21.5303 3.33003C21.5152 3.29821 21.4969 3.27107 21.4803 3.24003C21.4637 3.20899 21.4484 3.18022 21.4303 3.15003C21.4121 3.11984 21.3898 3.08929 21.3703 3.06003C21.3507 3.03077 21.3312 2.9983 21.3103 2.97003C21.2893 2.94176 21.2726 2.91724 21.2503 2.89003C21.2279 2.86282 21.2039 2.83611 21.1803 2.81003C21.1566 2.78394 21.1351 2.75492 21.1103 2.73003C21.0854 2.70514 21.0563 2.68368 21.0303 2.66003C21.0042 2.63638 20.9775 2.61237 20.9503 2.59003C20.923 2.56769 20.8985 2.54101 20.8703 2.52003C20.842 2.49905 20.8095 2.4796 20.7803 2.46003C20.751 2.44046 20.7204 2.42815 20.6903 2.41003C20.6601 2.39191 20.6313 2.37665 20.6003 2.36003C20.5692 2.34341 20.5421 2.32511 20.5103 2.31003C20.4785 2.29495 20.4428 2.27353 20.4103 2.26003C20.3777 2.24653 20.3434 2.24192 20.3103 2.23003C20.2771 2.21813 20.2439 2.20029 20.2103 2.19003C20.1766 2.17977 20.1444 2.17003 20.1103 2.17003C20.0761 2.17003 20.0448 2.14003 20.0103 2.14003C19.9757 2.14003 19.9351 2.12003 19.9003 2.12003C19.8654 2.12003 19.8353 2.11003 19.8003 2.11003C19.7652 2.11003 19.7254 2.10003 19.6903 2.10003C19.6551 2.10003 19.6255 2.10003 19.5903 2.10003Z"   fill="#000000" ></path></svg>