<svg xmlns="http://www.w3.org/2000/svg" xmlns:xlink="http://www.w3.org/1999/xlink" width="24" height="24" viewBox="0 0 24 24" fill="none"><path d="M3.38 10.8901L8.58 10.8901C8.85742 10.8901 9.08 10.6676 9.08 10.3901C9.08 10.1127 8.85742 9.88012 8.58 9.88012L3.38 9.88012C3.10257 9.88012 2.87 10.1127 2.87 10.3901C2.87 10.6676 3.10257 10.8901 3.38 10.8901ZM8.72 9.47012C8.91617 9.66629 9.23381 9.66629 9.42999 9.47012C9.62617 9.27394 9.62617 8.95629 9.42999 8.76012L5.87 5.20012C5.67382 5.00394 5.35617 5.00394 5.16 5.20012C4.96382 5.39629 4.96382 5.71394 5.16 5.91012L8.72 9.47012ZM10.39 9.08012C10.6674 9.08012 10.89 8.85754 10.89 8.58012L10.89 3.37012C10.89 3.09269 10.6674 2.87012 10.39 2.87012C10.1126 2.87012 9.89 3.09269 9.89 3.37012L9.89 8.58012C9.89 8.85754 10.1126 9.08012 10.39 9.08012ZM20.5 12.9701L15.29 12.9701C15.0126 12.9701 14.79 13.2027 14.79 13.4801C14.79 13.7575 15.0126 13.9801 15.29 13.9801L20.5 13.9801C20.7774 13.9801 21 13.7575 21 13.4801C21 13.2027 20.7774 12.9701 20.5 12.9701ZM15.15 14.3901C14.9538 14.1939 14.6362 14.1939 14.44 14.3901C14.2438 14.5863 14.2438 14.9039 14.44 15.1001L18 18.6601C18.1962 18.8563 18.5138 18.8563 18.71 18.6601C18.9062 18.4639 18.9062 18.1463 18.71 17.9501L15.15 14.3901ZM13.48 14.7801C13.2026 14.7801 12.98 15.0027 12.98 15.2801L12.98 20.4901C12.98 20.7675 13.2026 20.9901 13.48 20.9901C13.7574 20.9901 13.98 20.7675 13.98 20.4901L13.98 15.2801C13.98 15.0027 13.7574 14.7801 13.48 14.7801Z"   fill="#0063B1" ></path><path d="M10.99 12.5001L3.37 12.5001C3.09257 12.5001 2.87 12.7227 2.87 13.0001L2.87 20.6201C2.87 20.8975 3.09257 21.1201 3.37 21.1201L10.99 21.1201C11.2674 21.1201 11.49 20.8975 11.49 20.6201L11.49 13.0001C11.49 12.7227 11.2674 12.5001 10.99 12.5001ZM10.48 20.1201L3.87 20.1201L3.87 13.5001L10.48 13.5001L10.48 20.1201ZM20.62 2.87012L13 2.87012C12.7226 2.87012 12.5 3.09269 12.5 3.37012L12.5 10.9901C12.5 11.2675 12.7226 11.4901 13 11.4901L20.62 11.4901C20.8974 11.4901 21.12 11.2675 21.12 10.9901L21.12 3.37012C21.12 3.09269 20.8974 2.87012 20.62 2.87012ZM20.12 10.4901L13.51 10.4901L13.51 3.88012L20.12 3.88012L20.12 10.4901Z"   fill="#000000" ></path></svg>