<svg xmlns="http://www.w3.org/2000/svg" xmlns:xlink="http://www.w3.org/1999/xlink" width="24" height="24" viewBox="0 0 24 24" fill="none"><path d="M19.163 3.00995L19.153 2.98995L19.143 2.97995L19.133 2.95995L19.123 2.93995L19.113 2.92995L19.103 2.90995L19.093 2.89995L19.083 2.87995L19.073 2.86995L19.063 2.85995L19.043 2.83995L19.033 2.82995L19.023 2.81995L19.003 2.80995L18.993 2.79995L18.973 2.78995L18.963 2.77995L18.943 2.76995L18.923 2.75995L18.913 2.74995L18.893 2.73995L18.873 2.72995L18.863 2.72995L18.843 2.71995L18.823 2.71995L18.803 2.70995L18.783 2.70995L18.773 2.70995L18.753 2.69995L18.733 2.69995L18.713 2.69995L18.693 2.69995L3.13299 2.69995L3.11299 2.69995L3.09299 2.69995L3.08299 2.69995L3.06299 2.70995L3.04299 2.70995L3.02299 2.70995L3.00299 2.71995L2.98299 2.71995L2.97299 2.72995L2.95299 2.72995L2.93299 2.73995L2.92299 2.74995L2.90299 2.75995L2.88299 2.76995L2.87299 2.77995L2.85299 2.78995L2.84299 2.79995L2.82299 2.80995L2.81299 2.81995L2.79299 2.82995L2.78299 2.83995L2.77299 2.85995L2.75299 2.86995L2.74299 2.87995L2.73299 2.89995L2.72299 2.90995L2.71299 2.92995L2.70299 2.93995L2.69299 2.95995L2.68299 2.97995L2.67299 2.98995L2.66299 3.00995C2.58528 3.19261 2.61348 3.43046 2.74299 3.55995L7.80299 10.13L7.80299 18.19L7.80299 18.21L7.81299 18.2299L7.81299 18.26L7.82299 18.28L7.82299 18.3L7.83299 18.33L7.84299 18.35L7.85299 18.37L7.86299 18.3899L7.87299 18.41L7.89299 18.43L7.90299 18.45L7.92299 18.47L7.93299 18.49L7.95299 18.51L7.97299 18.52L7.98299 18.54L8.00299 18.56L8.02299 18.57L8.04299 18.58L8.06299 18.6L8.09299 18.61L8.11299 18.62L8.13299 18.63L8.15299 18.63L8.18299 18.6399L8.20299 18.65L8.22299 18.65L8.25299 18.66L8.27299 18.66L8.29299 18.66L8.32299 18.66L8.34299 18.66L8.37299 18.66L8.39299 18.66L8.41299 18.65L8.44299 18.65L8.46299 18.6399L8.48299 18.63L8.51299 18.63L8.53299 18.62L8.55299 18.61L8.57299 18.6L8.59299 18.58L8.61299 18.57L8.63299 18.56L8.65299 18.54L8.67299 18.52L8.69299 18.51L8.70299 18.49L8.72299 18.47L8.73299 18.45L8.75299 18.43L8.76299 18.41L8.77299 18.3899L8.78299 18.37L8.80299 18.35L8.80299 18.33L8.81299 18.3L8.82299 18.28L8.83299 18.26L8.83299 18.2299L8.83299 18.21L8.84299 18.19L8.84299 9.91995L8.84299 9.89995L8.84299 9.87995L8.83299 9.85995L8.83299 9.82995L8.82299 9.80995L8.82299 9.78995L8.81299 9.76995L8.80299 9.73995L8.80299 9.71995L8.79299 9.69995L8.78299 9.67995L8.76299 9.65995L8.75299 9.63995L8.74299 9.61995L8.72299 9.59995L8.71299 9.58995L4.30299 3.73995L17.523 3.73995L13.123 9.58995L13.103 9.60995L13.093 9.61995L13.073 9.63995L13.063 9.65995L13.053 9.67995L13.043 9.69995L13.033 9.71995L13.023 9.73995L13.013 9.76995L13.003 9.78995L13.003 9.80995L12.993 9.82995L12.993 9.85995L12.993 9.87995L12.993 9.89995L12.993 9.92995L12.993 19.95L11.123 19.02L11.103 19.01L11.073 19L11.053 18.99L11.023 18.98L11.003 18.98L10.973 18.97L10.953 18.97L10.923 18.96L10.903 18.96L10.873 18.96L10.853 18.96L10.823 18.97L10.793 18.97L10.773 18.98L10.753 18.98L10.723 18.99L10.703 19L10.673 19.01L10.653 19.02L10.633 19.03L10.613 19.04L10.583 19.06L10.563 19.07L10.543 19.09L10.523 19.11L10.513 19.12L10.493 19.14L10.473 19.16L10.463 19.18L10.443 19.21L10.433 19.23L10.423 19.25L10.413 19.27L10.403 19.3L10.393 19.32L10.383 19.35L10.383 19.37L10.373 19.4L10.373 19.42L10.363 19.45L10.363 19.47L10.363 19.5L10.363 19.52L10.373 19.55L10.373 19.57L10.373 19.6L10.383 19.62L10.393 19.65L10.403 19.67L10.413 19.7L10.423 19.72L10.433 19.74L10.443 19.77L10.463 19.79L10.473 19.81L10.493 19.83L10.513 19.85L10.523 19.86L10.543 19.88L10.563 19.9L10.583 19.91L10.613 19.93L10.633 19.94L10.653 19.95L13.273 21.25C13.31 21.2648 13.3541 21.28 13.393 21.28C13.4318 21.28 13.4632 21.3 13.503 21.3C13.5155 21.3 13.5305 21.3 13.543 21.3C13.5554 21.3 13.5706 21.29 13.583 21.29C13.5954 21.29 13.6107 21.29 13.623 21.29C13.6352 21.29 13.6409 21.28 13.653 21.28C13.665 21.28 13.6812 21.27 13.693 21.27C13.7048 21.27 13.7114 21.26 13.723 21.26C13.7345 21.26 13.7518 21.24 13.763 21.24C13.7742 21.24 13.7821 21.22 13.793 21.22L13.803 21.21L13.823 21.2L13.833 21.19L13.843 21.18L13.853 21.17L13.873 21.16L13.883 21.15L13.893 21.14L13.903 21.13L13.913 21.11L13.923 21.1L13.933 21.09L13.943 21.07L13.953 21.06L13.963 21.05L13.963 21.03L13.973 21.02L13.983 21L13.983 20.99L13.993 20.97L14.003 20.96L14.003 20.94L14.013 20.93L14.013 20.91L14.013 20.89L14.023 20.88L14.023 20.86L14.023 20.85L14.023 20.83L14.023 20.81L14.023 20.8L14.023 20.78L14.023 10.13L19.083 3.55995C19.2138 3.43046 19.2407 3.19259 19.163 3.00995Z"   fill="#000000" ></path><path d="M15.923 10.7699C15.923 10.4973 16.1263 10.2699 16.373 10.2699L20.933 10.2699C21.181 10.2699 21.383 10.4946 21.383 10.7699C21.383 11.0466 21.181 11.2699 20.933 11.2699L16.373 11.2699C16.1276 11.2699 15.923 11.0425 15.923 10.7699ZM15.923 13.7699C15.923 13.4973 16.1263 13.2699 16.373 13.2699L20.933 13.2699C21.181 13.2699 21.383 13.4932 21.383 13.7699C21.383 14.0452 21.181 14.2699 20.933 14.2699L16.373 14.2699C16.1276 14.2699 15.923 14.0425 15.923 13.7699ZM15.923 16.7699C15.923 16.4973 16.1263 16.2699 16.373 16.2699L20.933 16.2699C21.181 16.2699 21.383 16.4946 21.383 16.7699C21.383 17.0466 21.181 17.2699 20.933 17.2699L16.373 17.2699C16.1276 17.2699 15.923 17.0439 15.923 16.7699Z"   fill="#0063B1" ></path></svg>