<svg xmlns="http://www.w3.org/2000/svg" xmlns:xlink="http://www.w3.org/1999/xlink" width="24" height="24" viewBox="0 0 24 24" fill="none"><circle cx="12" cy="11" r="3.5"   fill="#0082E6" fill-opacity="0.3"></circle><path d="M6.13988 9.79395C3.73671 10.5768 2 12.8356 2 15.5C2 18.8137 4.68629 21.5 8 21.5C11.3137 21.5 14 18.8137 14 15.5C14 15.0558 13.9517 14.6228 13.8601 14.2061C13.5461 14.3084 13.2207 14.3855 12.8863 14.435C12.9608 14.7782 13 15.1345 13 15.5C13 18.2615 10.7614 20.5 8 20.5C5.23858 20.5 3 18.2615 3 15.5C3 13.2848 4.44054 11.4061 6.43594 10.7495C6.3118 10.4428 6.2123 10.1234 6.13988 9.79395Z" fill-rule="evenodd"  fill="#000000" ></path><path fill-rule="evenodd"  fill="rgba(0, 99, 177, 1)"  d="M12 14.5C15.3137 14.5 18 11.8137 18 8.5C18 5.18629 15.3137 2.5 12 2.5C8.68629 2.5 6 5.18629 6 8.5C6 11.8137 8.68629 14.5 12 14.5ZM12 3.5C14.7614 3.5 17 5.73858 17 8.5C17 11.2614 14.7614 13.5 12 13.5C9.23858 13.5 7 11.2614 7 8.5C7 5.73858 9.23858 3.5 12 3.5Z"></path><path d="M17.5641 10.7495C19.5595 11.4061 21 13.2848 21 15.5C21 18.2615 18.7614 20.5 16 20.5C14.7295 20.5 13.5697 20.0261 12.6876 19.2455C12.4789 19.5065 12.2488 19.7496 12 19.9722C13.0615 20.9223 14.4633 21.5 16 21.5C19.3137 21.5 22 18.8137 22 15.5C22 12.8356 20.2633 10.5768 17.8601 9.79395C17.7877 10.1234 17.6882 10.4428 17.5641 10.7495Z" fill-rule="evenodd"  fill="#000000" ></path></svg>