<svg xmlns="http://www.w3.org/2000/svg" xmlns:xlink="http://www.w3.org/1999/xlink" width="24" height="24" viewBox="0 0 24 24" fill="none"><path d="M11.5 4.30005L12.5 4.30005L12.5 6.30005L11.5 6.30005L11.5 4.30005ZM11.5 10.1L12.5 10.1L12.5 13.9L11.5 13.9L11.5 10.1ZM11.5 17.7L12.5 17.7L12.5 19.7L11.5 19.7L11.5 17.7Z"   fill="#000000" ></path><path d="M8.80002 18.1L2.50001 18.1C2.2 18.1 2 17.9 2 17.6L2 6.49999C2 6.19999 2.2 6 2.50001 6L8.80002 6C9.10002 6 9.30001 6.19999 9.30001 6.49999L9.30001 17.6C9.30001 17.8 9.10002 18.1 8.80002 18.1ZM3 17.1L8.3 17.1L8.3 7.00001L3 7.00001L3 17.1Z"   fill="#000000" ></path><path d="M21.5 18.1L15.2 18.1C14.9 18.1 14.7 17.9 14.7 17.6L14.7 6.49999C14.7 6.19999 14.9 6 15.2 6L21.5 6C21.8 6 22 6.19999 22 6.49999L22 17.6C22 17.8 21.8 18.1 21.5 18.1ZM15.7 17.1L21 17.1L21 7.00001L15.7 7.00001L15.7 17.1Z"   fill="#0063B1" ></path></svg>