<svg xmlns="http://www.w3.org/2000/svg" xmlns:xlink="http://www.w3.org/1999/xlink" width="24" height="24" viewBox="0 0 24 24" fill="none"><path d="M15.1654 10.7553C15.1554 10.7153 15.1354 10.6753 15.1154 10.6353C15.0954 10.5953 15.0654 10.5653 15.0354 10.5303C15.0202 10.5143 15.0037 10.4995 14.9861 10.4861C14.9685 10.4727 14.9499 10.4608 14.9304 10.4503L13.5904 9.66529L12.2504 8.88027C12.2104 8.86027 12.1704 8.84027 12.1304 8.83027C12.1091 8.82534 12.0875 8.82163 12.0658 8.81914C12.0441 8.81667 12.0222 8.81543 12.0004 8.81543C11.9785 8.81543 11.9567 8.81667 11.9349 8.81914C11.9132 8.82163 11.8917 8.82534 11.8704 8.83027C11.8254 8.84027 11.7854 8.86027 11.7504 8.88027L10.4103 9.66529L9.07032 10.4503C9.03032 10.4703 9.00032 10.5003 8.96531 10.5303C8.93531 10.5603 8.91031 10.5953 8.88531 10.6353C8.86531 10.6753 8.84531 10.7153 8.83531 10.7553C8.82531 10.7953 8.82031 10.8403 8.82031 10.8853L8.82031 14.0154C8.82031 14.0604 8.82531 14.1004 8.83531 14.1454C8.84531 14.1854 8.86531 14.2254 8.88531 14.2654C8.90531 14.3054 8.93531 14.3354 8.96531 14.3704C8.99532 14.4004 9.03032 14.4254 9.07032 14.4504L10.4103 15.2354L11.7504 16.0204C11.7904 16.0404 11.8304 16.0604 11.8704 16.0704C11.8917 16.0753 11.9132 16.0791 11.9349 16.0815C11.9567 16.084 11.9785 16.0852 12.0004 16.0852C12.0222 16.0852 12.0441 16.084 12.0658 16.0815C12.0875 16.0791 12.1091 16.0753 12.1304 16.0704C12.1754 16.0604 12.2154 16.0404 12.2504 16.0204L13.5904 15.2354L14.9304 14.4504C14.9704 14.4304 15.0004 14.4004 15.0354 14.3704C15.0654 14.3404 15.0904 14.3054 15.1154 14.2654C15.1354 14.2254 15.1554 14.1854 15.1654 14.1454C15.1754 14.1054 15.1804 14.0604 15.1804 14.0154L15.1804 10.8853C15.1854 10.8403 15.1804 10.7953 15.1654 10.7553ZM14.1854 13.7254L13.0904 14.3654L12.0004 15.0004L10.9104 14.3654L9.81533 13.7254L9.81533 11.1703L12.0004 9.89529L13.0904 10.5303L14.1854 11.1703L14.1854 13.7254Z"   fill="#0063B1" ></path><path d="M19.6603 14.7102L19.6603 8.4201C19.6603 8.3751 19.6553 8.3301 19.6453 8.2901C19.6431 8.28215 19.6408 8.27427 19.6382 8.26646C19.6357 8.25863 19.6329 8.25088 19.63 8.24318C19.627 8.2355 19.6239 8.22789 19.6206 8.22035C19.6173 8.21281 19.6138 8.20535 19.6102 8.19798C19.6065 8.19062 19.6027 8.18334 19.5986 8.17617C19.5946 8.16898 19.5904 8.16189 19.5861 8.15492C19.5817 8.14794 19.5772 8.14109 19.5725 8.13433C19.5678 8.12757 19.5629 8.12093 19.5579 8.11441C19.5529 8.1079 19.5477 8.1015 19.5423 8.09523C19.537 8.08896 19.5315 8.08283 19.5259 8.07683C19.5203 8.07083 19.5145 8.06497 19.5086 8.05925C19.5026 8.05353 19.4966 8.04796 19.4904 8.04255C19.4842 8.03712 19.4779 8.03185 19.4714 8.02673C19.465 8.02161 19.4584 8.01665 19.4517 8.01187C19.4451 8.00708 19.4383 8.00245 19.4314 7.99798C19.4244 7.99351 19.4174 7.98921 19.4103 7.98509L13.8402 4.85503L13.8402 4.84003C13.8402 3.82501 13.0152 3 12.0002 3C10.9851 3 10.1601 3.82501 10.1601 4.84003L10.1601 4.85503L4.59503 7.98509C4.55503 8.00509 4.52003 8.03509 4.49003 8.06509C4.46003 8.09509 4.43003 8.13009 4.41003 8.17009C4.39003 8.21009 4.37002 8.25009 4.36002 8.2901C4.35002 8.3301 4.34502 8.3751 4.34502 8.4201L4.34502 14.7102C3.57001 14.9302 3 15.6302 3 16.4752C3 17.4903 3.82501 18.3153 4.84003 18.3153C5.34504 18.3153 5.80505 18.1103 6.14006 17.7753L11.7552 20.9353C11.7902 20.9553 11.8302 20.9703 11.8752 20.9853C11.8956 20.9903 11.9163 20.994 11.9372 20.9964C11.9581 20.9989 11.9791 21.0002 12.0002 21.0002C12.0212 21.0002 12.0422 20.9989 12.0631 20.9964C12.084 20.994 12.1047 20.9903 12.1252 20.9853C12.1652 20.9753 12.2052 20.9603 12.2452 20.9353L15.8252 18.9203L17.8603 17.7753C17.8709 17.7859 17.8817 17.7964 17.8926 17.8068C17.9035 17.8171 17.9145 17.8274 17.9257 17.8375C17.9368 17.8476 17.9481 17.8576 17.9595 17.8674C17.9709 17.8772 17.9824 17.8869 17.994 17.8964C18.0056 17.906 18.0174 17.9154 18.0292 17.9246C18.0411 17.9339 18.0531 17.943 18.0652 17.952C18.0772 17.961 18.0894 17.9698 18.1017 17.9784C18.114 17.9871 18.1264 17.9956 18.1389 18.004C18.1514 18.0123 18.164 18.0205 18.1768 18.0286C18.1895 18.0367 18.2023 18.0445 18.2152 18.0523C18.2281 18.06 18.2411 18.0676 18.2542 18.075C18.2672 18.0825 18.2804 18.0897 18.2937 18.0968C18.3069 18.1039 18.3203 18.1109 18.3337 18.1177C18.3472 18.1244 18.3607 18.131 18.3743 18.1375C18.3879 18.1439 18.4015 18.1502 18.4153 18.1563C18.429 18.1624 18.4429 18.1684 18.4568 18.1741C18.4706 18.1799 18.4846 18.1855 18.4986 18.1909C18.5127 18.1964 18.5268 18.2016 18.5409 18.2067C18.5551 18.2118 18.5693 18.2167 18.5836 18.2214C18.5979 18.2262 18.6122 18.2307 18.6266 18.2351C18.641 18.2395 18.6554 18.2437 18.6699 18.2478C18.6844 18.2518 18.699 18.2556 18.7136 18.2593C18.7282 18.263 18.7428 18.2665 18.7575 18.2698C18.7721 18.2731 18.7868 18.2763 18.8016 18.2792C18.8163 18.2822 18.8311 18.285 18.846 18.2876C18.8608 18.2902 18.8756 18.2926 18.8905 18.2948C18.9054 18.2971 18.9203 18.2991 18.9352 18.301C18.9502 18.3028 18.9651 18.3045 18.9801 18.306C18.995 18.3075 19.01 18.3089 19.025 18.31C19.04 18.3111 19.055 18.3121 19.0701 18.3129C19.0851 18.3136 19.1001 18.3142 19.1152 18.3146C19.1302 18.315 19.1453 18.3152 19.1603 18.3153C20.1753 18.3153 21.0003 17.4903 21.0003 16.4752C21.0003 15.6352 20.4303 14.9302 19.6603 14.7102ZM12.0002 4.00002C12.4652 4.00002 12.8402 4.38002 12.8402 4.84003C12.8402 5.30504 12.4652 5.68005 12.0002 5.68005C11.5352 5.68005 11.1601 5.30004 11.1601 4.84003C11.1601 4.38002 11.5352 4.00002 12.0002 4.00002ZM4.84003 17.3153C4.38002 17.3153 4.00002 16.9403 4.00002 16.4752C4.00002 16.0102 4.38002 15.6352 4.84003 15.6352C5.30004 15.6352 5.68005 16.0152 5.68005 16.4752C5.68005 16.9353 5.30504 17.3153 4.84003 17.3153ZM15.1852 13.5002L15.1852 14.0152C15.1852 14.0602 15.1802 14.1002 15.1702 14.1452C15.1602 14.1852 15.1402 14.2252 15.1202 14.2652C15.1002 14.3052 15.0702 14.3352 15.0402 14.3702C15.0102 14.4002 14.9752 14.4252 14.9352 14.4502L14.8802 14.4802L17.4103 15.9252C17.3553 16.1002 17.3153 16.2852 17.3153 16.4752C17.3153 16.6252 17.3403 16.7652 17.3703 16.9053L15.3302 18.0503L12.0002 19.9253L6.63007 16.9053C6.66507 16.7652 6.68507 16.6252 6.68507 16.4752C6.68507 16.2802 6.64507 16.1002 6.59007 15.9252L9.12011 14.4802L9.06511 14.4452C9.02511 14.4252 8.99511 14.3952 8.96011 14.3652C8.92942 14.3333 8.90276 14.2983 8.88011 14.2602C8.86011 14.2202 8.84011 14.1802 8.8301 14.1402C8.81987 14.0975 8.81487 14.0541 8.81511 14.0102L8.81511 13.5002L6.04005 15.0852C5.84005 14.9102 5.60505 14.7852 5.34504 14.7102L5.34504 8.7151L10.4551 5.84005C10.6951 6.21006 11.0651 6.48506 11.5002 6.61007L11.5002 9.03011L11.7502 8.88511C11.7902 8.86511 11.8302 8.84511 11.8702 8.83511C11.8915 8.83016 11.913 8.82645 11.9347 8.82397C11.9565 8.82149 11.9783 8.82026 12.0002 8.82026C12.022 8.82026 12.0439 8.82149 12.0656 8.82397C12.0873 8.82645 12.1089 8.83016 12.1302 8.83511C12.1752 8.84511 12.2152 8.86511 12.2502 8.88511L12.5002 9.03011L12.5002 6.60507C12.9352 6.48006 13.3052 6.20506 13.5452 5.83505L18.6603 8.7101L18.6603 14.7052C18.4003 14.7802 18.1603 14.9102 17.9603 15.0802L15.1852 13.5002ZM19.1603 17.3153C18.6953 17.3153 18.3203 16.9353 18.3203 16.4752C18.3203 16.0152 18.7003 15.6352 19.1603 15.6352C19.6203 15.6352 20.0003 16.0102 20.0003 16.4752C20.0003 16.9403 19.6203 17.3153 19.1603 17.3153Z"   fill="#000000" ></path></svg>