<svg xmlns="http://www.w3.org/2000/svg" xmlns:xlink="http://www.w3.org/1999/xlink" width="24" height="24" viewBox="0 0 24 24" fill="none"><path d="M6.44031 11.7744C6.23978 11.7744 6.03922 11.6741 5.83866 11.5739L3.13112 9.96938C2.73 9.76882 2.52945 9.36773 2.52945 8.86634L2.52945 5.85798C2.42917 5.45685 2.73 4.95545 3.13112 4.75489L5.83866 3.15042C6.23978 2.94986 6.74115 2.94986 7.14226 3.15042L9.74953 4.75489C10.1506 4.95545 10.3512 5.35657 10.3512 5.85798L10.3512 8.96662C10.3512 9.46799 10.1506 9.86913 9.74953 10.0697L7.04198 11.6741C6.84142 11.7744 6.64087 11.7744 6.44031 11.7744ZM6.44031 4.05293L6.34003 4.05293L3.63252 5.65741C3.53224 5.65741 3.43196 5.75769 3.43196 5.85798L3.43196 8.96662C3.43196 9.06687 3.53224 9.16718 3.53224 9.16718L6.34003 10.7716L6.64087 10.7716L9.34841 9.16718C9.44869 9.16718 9.44869 9.06687 9.44869 8.96662L9.44869 5.85798C9.44869 5.75769 9.34841 5.65741 9.34841 5.65741L6.54059 4.05293L6.44031 4.05293Z"   fill="#000000" ></path><path d="M6.44018 7.86362C6.23966 7.86362 6.0391 7.76334 6.0391 7.56279C5.93882 7.36223 6.0391 7.06139 6.23966 6.86083L8.54606 5.6575C8.74662 5.55722 9.04747 5.6575 9.24802 5.85806C9.3483 6.05862 9.24802 6.35943 9.04747 6.55999L6.64075 7.76334C6.54047 7.86362 6.54047 7.86362 6.44018 7.86362Z"   fill="#000000" ></path><path d="M6.44029 10.6716C6.13947 10.6716 5.93891 10.471 5.93891 10.1702L5.93891 7.66321L3.93332 6.56013C3.63248 6.45986 3.5322 6.15904 3.73276 5.85821C3.83304 5.65765 4.13388 5.55737 4.43472 5.65765L6.74113 6.86097C6.94169 6.96125 7.04197 7.16181 7.04197 7.26209L7.04197 10.0699C6.94169 10.471 6.74113 10.6716 6.44029 10.6716ZM20.9808 6.15904L11.9557 6.15904C11.6548 6.15904 11.4543 5.95849 11.4543 5.65765C11.4543 5.35681 11.6548 5.15625 11.9557 5.15625L20.9808 5.15625C21.2816 5.15625 21.4822 5.35681 21.4822 5.65765C21.4822 5.95849 21.2816 6.15904 20.9808 6.15904ZM20.9808 9.96964L11.9557 9.96964C11.6548 9.96964 11.4543 9.76908 11.4543 9.46824C11.4543 9.1674 11.6548 8.96684 11.9557 8.96684L20.9808 8.96684C21.2816 8.96684 21.4822 9.1674 21.4822 9.46824C21.4822 9.76908 21.2816 9.96964 20.9808 9.96964Z"   fill="#000000" ></path><path d="M6.44017 21.0002C6.23964 21.0002 6.03908 20.8999 5.83852 20.7996L3.13097 19.1952C2.72986 18.9946 2.5293 18.5935 2.5293 18.0921L2.5293 14.9834C2.5293 14.4821 2.72986 14.0809 3.13097 13.8804L5.83852 12.2759C6.23964 12.0753 6.74101 12.0753 7.14213 12.2759L9.84967 13.8804C10.2508 14.0809 10.4513 14.4821 10.4513 14.9834L10.4513 18.0921C10.4513 18.5935 10.2508 18.9946 9.84967 19.1952L7.04185 20.7996C6.84129 21.0002 6.64073 21.0002 6.44017 21.0002ZM6.44017 13.2787L6.33989 13.2787L3.63237 14.8832C3.53209 14.8832 3.53209 14.9834 3.53209 15.0837L3.53209 18.1924C3.53209 18.2926 3.63237 18.3929 3.63237 18.3929L6.33989 19.9974L6.64073 19.9974L9.34827 18.3929C9.44855 18.3929 9.44855 18.2927 9.44855 18.1924L9.44855 15.0837C9.44855 14.9834 9.34827 14.8832 9.34827 14.8832L6.64073 13.2787L6.44017 13.2787Z"   fill="#0063B1" ></path><path d="M6.44018 17.0897C6.23966 17.0897 6.0391 16.9894 6.0391 16.7889C5.93882 16.5883 6.0391 16.2875 6.23966 16.0869L8.54606 14.8836C8.74662 14.7833 9.04747 14.8836 9.24802 15.0841C9.3483 15.2847 9.24802 15.5855 9.04747 15.7861L6.74103 16.9894C6.54047 16.9894 6.54047 17.0897 6.44018 17.0897Z"   fill="#0063B1" ></path><path d="M6.44022 19.8975C6.13941 19.8975 5.93885 19.697 5.93885 19.3961L5.93885 16.8892L3.93326 15.7861C3.7327 15.6858 3.63242 15.385 3.7327 15.0841C3.83298 14.8836 4.13382 14.7833 4.43465 14.8836L6.74107 16.0869C6.94163 16.1872 7.04191 16.3878 7.04191 16.488L7.04191 19.2959C6.94163 19.697 6.74107 19.8975 6.44022 19.8975Z"   fill="#0063B1" ></path><path d="M20.9806 15.3846L11.9555 15.3846C11.6547 15.3846 11.4541 15.1841 11.4541 14.8832C11.4541 14.5824 11.6547 14.3818 11.9555 14.3818L20.9806 14.3818C21.2814 14.3818 21.482 14.5824 21.482 14.8832C21.482 15.1841 21.2814 15.3846 20.9806 15.3846Z"   fill="#000000" ></path><path d="M20.9806 19.1952L11.9555 19.1952C11.6547 19.1952 11.4541 18.9946 11.4541 18.6938C11.4541 18.3929 11.6547 18.1924 11.9555 18.1924L20.9806 18.1924C21.2814 18.1924 21.482 18.3929 21.482 18.6938C21.482 18.9946 21.2814 19.1952 20.9806 19.1952Z"   fill="#000000" ></path></svg>