<svg xmlns="http://www.w3.org/2000/svg" xmlns:xlink="http://www.w3.org/1999/xlink" width="24" height="24" viewBox="0 0 24 24" fill="none"><path d="M11.912 22.0042C10.8485 22.0042 9.6786 21.7948 8.72143 21.3761C5.10549 19.9106 2.65937 17.0843 2.12762 13.5252C1.59586 10.0708 2.76575 6.72102 5.53088 4.41809C9.04049 1.38239 14.3581 1.17304 18.1867 3.99937C18.3994 4.20874 18.5058 4.52277 18.2931 4.73212C18.0804 4.94147 17.7613 5.04615 17.5486 4.8368C14.039 2.21983 9.25319 2.42918 6.06264 5.15084C3.61654 7.13972 2.55304 10.2801 3.08479 13.3158C3.61654 16.4562 5.84994 19.0731 9.04049 20.434C10.5294 21.062 12.1247 21.1667 13.6136 20.748C16.6978 20.0153 19.0376 18.131 20.2074 15.4094C21.271 12.8971 21.1646 9.96607 19.782 7.55846C19.6757 7.34911 19.782 7.03508 19.9947 6.8257C20.2074 6.72104 20.5265 6.82569 20.7392 7.03506C22.2281 9.75671 22.4408 13.0018 21.1646 15.8281C19.8884 18.7591 17.2296 20.8527 13.8263 21.7948C13.2946 21.8995 12.5501 22.0042 11.912 22.0042Z"   fill="#000000" ></path><path d="M11.9999 17.1C11.3999 17.1 10.8999 16.6 10.8999 16L10.8999 11.6C10.8999 11 11.3999 10.5 11.9999 10.5C12.5999 10.5 13.0999 11 13.0999 11.6L13.0999 16C13.0999 16.7 12.5999 17.1 11.9999 17.1Z"   fill="#0063B1" ></path><path d="M10.8 8.00005C10.8 8.01969 10.8005 8.03932 10.8015 8.05895C10.8025 8.07856 10.8039 8.09813 10.8058 8.11768C10.8078 8.13723 10.8102 8.15671 10.813 8.17614C10.8159 8.19556 10.8193 8.2149 10.8231 8.23417C10.8269 8.25343 10.8312 8.27259 10.836 8.29163C10.8408 8.31068 10.846 8.3296 10.8517 8.3484C10.8574 8.3672 10.8636 8.38584 10.8702 8.40432C10.8768 8.42282 10.8839 8.44114 10.8914 8.45928C10.8989 8.47742 10.9069 8.49537 10.9153 8.51312C10.9237 8.53087 10.9325 8.54841 10.9418 8.56574C10.951 8.58305 10.9607 8.60013 10.9708 8.61697C10.9809 8.63381 10.9914 8.6504 11.0023 8.66673C11.0132 8.68307 11.0245 8.69913 11.0362 8.71489C11.0479 8.73068 11.06 8.74615 11.0724 8.76132C11.0849 8.77651 11.0977 8.79138 11.1109 8.80592C11.1241 8.82047 11.1376 8.83469 11.1515 8.84858C11.1654 8.86247 11.1796 8.87601 11.1942 8.8892C11.2087 8.90239 11.2236 8.91521 11.2388 8.92766C11.254 8.94013 11.2694 8.95221 11.2852 8.96392C11.301 8.9756 11.317 8.98691 11.3334 8.99783C11.3497 9.00874 11.3663 9.01924 11.3831 9.02933C11.4 9.03942 11.417 9.0491 11.4344 9.05837C11.4517 9.06762 11.4692 9.07645 11.487 9.08485C11.5047 9.09324 11.5227 9.1012 11.5408 9.10871C11.559 9.11623 11.5773 9.12329 11.5958 9.1299C11.6143 9.13653 11.6329 9.14269 11.6517 9.14839C11.6705 9.15409 11.6894 9.15934 11.7085 9.1641C11.7275 9.16885 11.7467 9.17317 11.7659 9.17701C11.7852 9.18083 11.8045 9.18418 11.824 9.18706C11.8434 9.18995 11.8629 9.19236 11.8824 9.19428C11.902 9.19621 11.9215 9.19766 11.9412 9.19862C11.9608 9.19958 11.9804 9.20005 12 9.20005C12.0197 9.20005 12.0393 9.19958 12.0589 9.19862C12.0785 9.19766 12.0981 9.19621 12.1177 9.19428C12.1372 9.19236 12.1567 9.18995 12.1761 9.18706C12.1956 9.18418 12.2149 9.18083 12.2342 9.17701C12.2534 9.17317 12.2726 9.16885 12.2916 9.1641C12.3107 9.15934 12.3296 9.15409 12.3484 9.14839C12.3672 9.14269 12.3858 9.13653 12.4043 9.1299C12.4228 9.12329 12.4411 9.11623 12.4593 9.10871C12.4774 9.1012 12.4954 9.09324 12.5131 9.08485C12.5309 9.07645 12.5484 9.06762 12.5657 9.05837C12.583 9.0491 12.6001 9.03942 12.617 9.02933C12.6338 9.01924 12.6504 9.00874 12.6667 8.99783C12.6831 8.98691 12.6991 8.9756 12.7149 8.96392C12.7307 8.95221 12.7461 8.94013 12.7613 8.92766C12.7765 8.91521 12.7914 8.90239 12.8059 8.8892C12.8205 8.87601 12.8347 8.86247 12.8486 8.84858C12.8625 8.83469 12.876 8.82047 12.8892 8.80592C12.9024 8.79138 12.9152 8.77651 12.9277 8.76132C12.9401 8.74615 12.9522 8.73068 12.9639 8.71489C12.9756 8.69913 12.9869 8.68308 12.9978 8.66675C13.0087 8.65041 13.0192 8.63381 13.0293 8.61697C13.0394 8.60013 13.0491 8.58305 13.0583 8.56574C13.0676 8.54841 13.0764 8.53087 13.0848 8.51312C13.0932 8.49537 13.1012 8.47742 13.1087 8.45928C13.1162 8.44114 13.1233 8.42282 13.1299 8.40432C13.1365 8.38584 13.1427 8.3672 13.1484 8.3484C13.1541 8.3296 13.1593 8.31068 13.1641 8.29163C13.1689 8.27259 13.1732 8.25343 13.177 8.23417C13.1808 8.2149 13.1842 8.19556 13.1871 8.17614C13.1899 8.15671 13.1923 8.13723 13.1943 8.11768C13.1962 8.09813 13.1976 8.07856 13.1986 8.05895C13.1996 8.03932 13.2 8.01969 13.2 8.00005C13.2 7.98041 13.1996 7.96078 13.1986 7.94117C13.1976 7.92156 13.1962 7.90199 13.1943 7.88244C13.1923 7.86289 13.1899 7.84341 13.1871 7.82399C13.1842 7.80455 13.1808 7.7852 13.177 7.76595C13.1732 7.74669 13.1689 7.72753 13.1641 7.70849C13.1593 7.68944 13.1541 7.67052 13.1484 7.65172C13.1427 7.63292 13.1365 7.61428 13.1299 7.5958C13.1233 7.5773 13.1162 7.55898 13.1087 7.54084C13.1012 7.5227 13.0932 7.50475 13.0848 7.487C13.0764 7.46924 13.0676 7.4517 13.0583 7.43438C13.0491 7.41706 13.0394 7.39997 13.0293 7.38313C13.0192 7.36628 13.0087 7.3497 12.9978 7.33337C12.9869 7.31704 12.9756 7.30099 12.9639 7.2852C12.9522 7.26944 12.9401 7.25396 12.9277 7.23878C12.9152 7.2236 12.9024 7.20874 12.8892 7.19417C12.876 7.17963 12.8625 7.16541 12.8486 7.15152C12.8347 7.13764 12.8205 7.12411 12.8059 7.11092C12.7914 7.09774 12.7765 7.08491 12.7613 7.07244C12.7461 7.05999 12.7307 7.04791 12.7149 7.03621C12.6991 7.0245 12.6831 7.0132 12.6667 7.00229C12.6504 6.99138 12.6338 6.98089 12.617 6.97079C12.6001 6.96068 12.583 6.951 12.5657 6.94175C12.5484 6.93249 12.5309 6.92366 12.5131 6.91527C12.4954 6.90688 12.4774 6.89892 12.4593 6.89141C12.4411 6.88389 12.4228 6.87682 12.4043 6.8702C12.3858 6.86359 12.3672 6.85743 12.3484 6.85173C12.3296 6.84603 12.3107 6.84079 12.2916 6.83603C12.2726 6.83124 12.2534 6.82694 12.2342 6.82311C12.2149 6.81928 12.1956 6.81593 12.1761 6.81306C12.1567 6.81017 12.1372 6.80776 12.1177 6.80584C12.0981 6.80392 12.0785 6.80247 12.0589 6.8015C12.0393 6.80053 12.0197 6.80005 12 6.80005C11.9804 6.80005 11.9608 6.80053 11.9412 6.8015C11.9215 6.80247 11.902 6.80392 11.8824 6.80584C11.8629 6.80776 11.8434 6.81017 11.824 6.81306C11.8045 6.81593 11.7852 6.81928 11.7659 6.82311C11.7467 6.82694 11.7275 6.83124 11.7085 6.83603C11.6894 6.84079 11.6705 6.84603 11.6517 6.85173C11.6329 6.85743 11.6143 6.86359 11.5958 6.8702C11.5773 6.87682 11.559 6.88389 11.5408 6.89141C11.5227 6.89892 11.5047 6.90688 11.487 6.91527C11.4692 6.92366 11.4517 6.93249 11.4344 6.94175C11.417 6.951 11.4 6.96068 11.3831 6.97079C11.3663 6.98089 11.3497 6.99138 11.3334 7.00229C11.317 7.0132 11.301 7.0245 11.2852 7.03621C11.2694 7.04791 11.254 7.05999 11.2388 7.07244C11.2236 7.08491 11.2087 7.09774 11.1942 7.11092C11.1796 7.12411 11.1654 7.13764 11.1515 7.15152C11.1376 7.16541 11.1241 7.17964 11.1109 7.1942C11.0977 7.20875 11.0849 7.2236 11.0724 7.23878C11.06 7.25396 11.0479 7.26945 11.0362 7.28523C11.0245 7.30099 11.0132 7.31704 11.0023 7.33337C10.9914 7.3497 10.9809 7.36628 10.9708 7.38313C10.9607 7.39997 10.951 7.41706 10.9418 7.43438C10.9325 7.4517 10.9237 7.46924 10.9153 7.487C10.9069 7.50475 10.8989 7.5227 10.8914 7.54084C10.8839 7.55898 10.8768 7.5773 10.8702 7.5958C10.8636 7.61428 10.8574 7.63292 10.8517 7.65172C10.846 7.67052 10.8408 7.68944 10.836 7.70849C10.8312 7.72753 10.8269 7.74669 10.8231 7.76595C10.8193 7.7852 10.8159 7.80455 10.813 7.82399C10.8102 7.84341 10.8078 7.86289 10.8058 7.88244C10.8039 7.90199 10.8025 7.92156 10.8015 7.94117C10.8005 7.96078 10.8 7.98041 10.8 8.00005Z"   fill="#0063B1" ></path></svg>