<svg xmlns="http://www.w3.org/2000/svg" xmlns:xlink="http://www.w3.org/1999/xlink" width="24" height="24" viewBox="0 0 24 24" fill="none"><path d="M7.30298 9.29482L16.253 4.1958L16.747 5.0658L7.79697 10.1638L7.30298 9.29482Z"   fill="#0063B1" ></path><path d="M3.49999 7.39989L3 6.59989L11.8 1.5999C12 1.4999 12.1 1.4999 12.3 1.5999L21.1 6.59989L20.6 7.49989L12 2.59989L3.49999 7.39989Z"   fill="#000000" ></path><path d="M12 22.4999C11.9 22.4999 11.8 22.4999 11.7 22.3999C11.5 22.2999 11.5 22.0999 11.5 21.9999L11.5 11.9999C11.5 11.7999 11.6 11.6999 11.8 11.5999L20.6 6.59991C20.8 6.4999 20.9 6.4999 21.1 6.59991C21.3 6.69992 21.3 6.89991 21.3 6.99991L21.3 16.9999C21.3 17.1999 21.2 17.2999 21 17.3999L12.2 22.3999C12.2 22.4999 12.1 22.4999 12 22.4999ZM12.5 12.2999L12.5 21.0999L20.3 16.6999L20.3 7.89991L12.5 12.2999Z"   fill="#000000" ></path><path d="M11.8 22.3999L2.99995 17.3999C2.79996 17.2999 2.69995 17.0999 2.69995 16.9999L2.69995 6.99991C2.69995 6.7999 2.79996 6.69992 2.89994 6.59991C3.09996 6.4999 3.19994 6.4999 3.39996 6.59991L12.1999 11.5999L11.7 12.4999L3.69996 7.89991L3.69996 16.6999L12.1999 21.5999L11.8 22.3999Z"   fill="#000000" ></path><path d="M8.79998 14.4002C8.69997 14.4002 8.59996 14.4002 8.59996 14.3002L5.99997 12.9002C5.79998 12.8002 5.69997 12.5002 5.79998 12.2002C5.89996 12.0002 6.19996 11.9002 6.49996 12.0002L8.99997 13.5002C9.19996 13.6002 9.29997 13.9002 9.19996 14.2002C9.09998 14.3002 8.89996 14.4002 8.79998 14.4002Z"   fill="#0063B1" ></path></svg>