<svg xmlns="http://www.w3.org/2000/svg" xmlns:xlink="http://www.w3.org/1999/xlink" width="24" height="24" viewBox="0 0 24 24" fill="none"><path d="M20.2 17.9998L6.49999 17.9998C6.19999 17.9998 6 17.7998 6 17.4998L6 3.7998C6 3.4998 6.19999 3.2998 6.49999 3.2998C6.79999 3.2998 7.00001 3.4998 7.00001 3.7998L7.00001 16.9998L20.2 16.9998C20.5 16.9998 20.7 17.1998 20.7 17.4998C20.7 17.7998 20.5 17.9998 20.2 17.9998Z"   fill="#000000" ></path><path d="M7.00006 5.5L4.30006 5.5C4.00006 5.5 3.80005 5.69999 3.80005 5.99999C3.80005 6.29999 4.00006 6.49998 4.30006 6.49998L7.00006 6.49998L7.00006 5.5ZM17.5001 14.8L18.5 14.8L18.5 5.99999C18.5 5.69999 18.3001 5.5 18.0001 5.5L9.20005 5.5L9.20005 6.49998L17.5001 6.49998L17.5001 14.8ZM17.5001 17L17.5001 19.7C17.5001 20 17.7001 20.2 18.0001 20.2C18.3001 20.2 18.5 20 18.5 19.7L18.5 17L17.5001 17Z"   fill="#000000" ></path><path d="M6.89999 21.5L2.99999 21.5C2.69999 21.5 2.5 21.3 2.5 21L2.5 17L3.49998 17L3.49998 20.5L6.89999 20.5L6.89999 21.5ZM21.5 6.89999L20.5 6.89999L20.5 3.49998L16.9 3.49998L16.9 2.5L21 2.5C21.3 2.5 21.5 2.69999 21.5 2.99999L21.5 6.89999Z"   fill="#0063B1" ></path><path d="M18.67 4.66695L20.084 3.25195L20.791 3.95895L19.377 5.37396L18.67 4.66695ZM14.67 8.64194L16.65 6.66195L17.357 7.36896L15.377 9.34896L14.67 8.64194ZM7.30001 17.4L6.6 16.6999L8.59999 14.7L9.3 15.4L7.30001 17.4ZM11.4 13.3999L10.7 12.7L12.7 10.6999L13.4 11.4L11.4 13.3999ZM3.20801 20.04L4.62199 18.6259L5.32901 19.333L3.915 20.748L3.20801 20.04Z"   fill="#0063B1" ></path></svg>