<svg xmlns="http://www.w3.org/2000/svg" xmlns:xlink="http://www.w3.org/1999/xlink" width="24" height="24" viewBox="0 0 24 24" fill="none"><path d="M12 14C10.9 14 10 13.1 10 12C10 10.9 10.9 10 12 10C13.1 10 14 10.9 14 12C14 13.1 13.1 14 12 14ZM12 11C11.4 11 11 11.5 11 12C11 12.5 11.5 13 12 13C12.5 13 13 12.5 13 12C13 11.5 12.6 11 12 11L12 11Z"   fill="#0063B1" ></path><path d="M2 11.5L5 11.5L5 12.5L2 12.5L2 11.5ZM11.5 19L12.5 19L12.5 22L11.5 22L11.5 19ZM19 11.5L22 11.5L22 12.5L19 12.5L19 11.5ZM11.5 2L12.5 2L12.5 5L11.5 5L11.5 2Z"   fill="#000000" ></path><path fill-rule="evenodd"  fill="rgba(0, 0, 0, 1)"  d="M12 17C14.7614 17 17 14.7614 17 12C17 9.23858 14.7614 7 12 7C9.23858 7 7 9.23858 7 12C7 14.7614 9.23858 17 12 17ZM12 8C14.2091 8 16 9.79086 16 12C16 14.2091 14.2091 16 12 16C9.79086 16 8 14.2091 8 12C8 9.79086 9.79086 8 12 8Z"></path></svg>