<svg xmlns="http://www.w3.org/2000/svg" xmlns:xlink="http://www.w3.org/1999/xlink" width="24" height="24" viewBox="0 0 24 24" fill="none"><path d="M15.793 7.80997C15.8045 7.80997 15.8159 7.81025 15.8273 7.81081C15.8388 7.81137 15.8502 7.81221 15.8616 7.81332C15.873 7.81444 15.8844 7.81585 15.8957 7.81754C15.907 7.81921 15.9183 7.82116 15.9295 7.8234C15.9408 7.82563 15.952 7.82815 15.9631 7.83095C15.9742 7.83373 15.9852 7.83678 15.9962 7.84011C16.0071 7.84342 16.018 7.84702 16.0288 7.85089C16.0396 7.85473 16.0503 7.85885 16.0609 7.86324C16.0715 7.86763 16.0819 7.87227 16.0923 7.87716C16.1026 7.88207 16.1129 7.88722 16.123 7.89261C16.1331 7.89802 16.143 7.90366 16.1529 7.90955C16.1627 7.91544 16.1724 7.92157 16.1819 7.92793C16.1914 7.93429 16.2008 7.94088 16.21 7.94771C16.2192 7.95454 16.2282 7.96159 16.2371 7.96885C16.2459 7.97612 16.2546 7.9836 16.2631 7.9913C16.2716 7.99899 16.2799 8.00688 16.288 8.01498C16.2961 8.02309 16.304 8.03138 16.3116 8.03987C16.3194 8.04835 16.3268 8.05702 16.3341 8.06588C16.3414 8.07474 16.3484 8.08377 16.3552 8.09298C16.3621 8.10218 16.3686 8.11154 16.375 8.12105C16.3814 8.13059 16.3875 8.14027 16.3934 8.15009C16.3993 8.15992 16.405 8.16988 16.4103 8.17998C16.4157 8.19009 16.4209 8.20032 16.4258 8.21068C16.4307 8.22102 16.4353 8.23149 16.4397 8.24208C16.4441 8.25266 16.4482 8.26334 16.4521 8.27412C16.4559 8.28492 16.4595 8.2958 16.4628 8.30675C16.4662 8.31772 16.4692 8.32876 16.472 8.33987C16.4748 8.35098 16.4773 8.36215 16.4795 8.37341C16.4818 8.38464 16.4837 8.39592 16.4854 8.40725C16.4871 8.41858 16.4885 8.42994 16.4896 8.44135C16.4907 8.45276 16.4916 8.46418 16.4921 8.47562C16.4927 8.48705 16.493 8.4985 16.493 8.50995L16.493 20.874C16.493 20.8854 16.4927 20.8969 16.4921 20.9083C16.4916 20.9198 16.4908 20.9312 16.4896 20.9426C16.4885 20.954 16.4871 20.9653 16.4854 20.9767C16.4837 20.988 16.4818 20.9993 16.4795 21.0105C16.4773 21.0218 16.4748 21.0329 16.472 21.044C16.4692 21.0552 16.4662 21.0662 16.4628 21.0772C16.4595 21.0881 16.456 21.099 16.4521 21.1098C16.4482 21.1206 16.4441 21.1313 16.4397 21.1418C16.4353 21.1524 16.4307 21.1629 16.4258 21.1733C16.4209 21.1836 16.4157 21.1938 16.4103 21.2039C16.405 21.214 16.3993 21.224 16.3934 21.2338C16.3875 21.2436 16.3814 21.2533 16.375 21.2629C16.3686 21.2724 16.3621 21.2817 16.3552 21.2909C16.3484 21.3001 16.3414 21.3092 16.3341 21.318C16.3268 21.3269 16.3194 21.3356 16.3116 21.344C16.304 21.3525 16.2961 21.3608 16.288 21.3689C16.2799 21.377 16.2716 21.3849 16.2631 21.3926C16.2546 21.4003 16.2459 21.4078 16.2371 21.4151C16.2282 21.4223 16.2192 21.4294 16.21 21.4362C16.2008 21.443 16.1914 21.4496 16.1819 21.456C16.1724 21.4623 16.1627 21.4685 16.1529 21.4744C16.143 21.4802 16.1331 21.4859 16.123 21.4913C16.1129 21.4967 16.1026 21.5019 16.0923 21.5067C16.0819 21.5116 16.0715 21.5163 16.0609 21.5207C16.0503 21.5251 16.0396 21.5292 16.0288 21.533C16.018 21.5369 16.0072 21.5405 15.9962 21.5438C15.9852 21.5471 15.9742 21.5502 15.9631 21.553C15.952 21.5558 15.9408 21.5583 15.9295 21.5605C15.9183 21.5627 15.907 21.5647 15.8957 21.5664C15.8844 21.5681 15.873 21.5695 15.8616 21.5706C15.8502 21.5717 15.8388 21.5726 15.8273 21.5731C15.8159 21.5737 15.8045 21.574 15.793 21.574L2.44999 21.574C2.43854 21.574 2.42709 21.5737 2.41566 21.5731C2.40422 21.5726 2.3928 21.5717 2.38139 21.5706C2.36998 21.5695 2.35862 21.5681 2.34729 21.5664C2.33596 21.5647 2.32467 21.5627 2.31344 21.5605C2.3022 21.5583 2.29102 21.5558 2.27991 21.553C2.2688 21.5502 2.25776 21.5471 2.2468 21.5438C2.23584 21.5405 2.22496 21.5369 2.21418 21.533C2.20339 21.5292 2.1927 21.5251 2.18212 21.5207C2.17154 21.5163 2.16107 21.5116 2.15071 21.5067C2.14035 21.5019 2.13013 21.4967 2.12002 21.4913C2.10992 21.4859 2.09995 21.4802 2.09013 21.4744C2.0803 21.4685 2.07063 21.4623 2.0611 21.456C2.05157 21.4496 2.04221 21.443 2.03301 21.4362C2.02381 21.4294 2.01478 21.4223 2.00592 21.4151C1.99707 21.4078 1.9884 21.4003 1.97991 21.3926C1.97142 21.3849 1.96312 21.377 1.95502 21.3689C1.94692 21.3608 1.93903 21.3525 1.93133 21.344C1.92364 21.3356 1.91616 21.3269 1.90889 21.318C1.90162 21.3092 1.89458 21.3001 1.88775 21.2909C1.88093 21.2817 1.87433 21.2724 1.86797 21.2629C1.86161 21.2533 1.85548 21.2436 1.84959 21.2338C1.8437 21.224 1.83805 21.214 1.83265 21.2039C1.82725 21.1938 1.82211 21.1836 1.81721 21.1732C1.81231 21.1629 1.80767 21.1524 1.80328 21.1418C1.7989 21.1313 1.79478 21.1206 1.79092 21.1098C1.78706 21.099 1.78347 21.0881 1.78014 21.0772C1.77682 21.0662 1.77376 21.0552 1.77098 21.044C1.76819 21.0329 1.76568 21.0218 1.76345 21.0105C1.76121 20.9993 1.75926 20.988 1.75757 20.9767C1.75589 20.9653 1.75449 20.954 1.75337 20.9426C1.75225 20.9312 1.7514 20.9198 1.75084 20.9083C1.75028 20.8969 1.75 20.8854 1.75 20.874L1.75 8.50897C1.75 8.4975 1.75028 8.48605 1.75084 8.47461C1.7514 8.46317 1.75225 8.45175 1.75337 8.44034C1.75449 8.42895 1.75589 8.41759 1.75757 8.40624C1.75926 8.39491 1.76121 8.38363 1.76345 8.3724C1.76568 8.36116 1.76819 8.34999 1.77098 8.33888C1.77376 8.32776 1.77682 8.31672 1.78014 8.30576C1.78347 8.2948 1.78706 8.28392 1.79092 8.27314C1.79478 8.26236 1.7989 8.25167 1.80328 8.24108C1.80767 8.2305 1.81231 8.22003 1.81721 8.20967C1.82211 8.19931 1.82725 8.18909 1.83265 8.17899C1.83805 8.16888 1.8437 8.15891 1.84959 8.14909C1.85548 8.13926 1.86161 8.12959 1.86797 8.12007C1.87433 8.11054 1.88093 8.10117 1.88775 8.09197C1.89458 8.08276 1.90162 8.07373 1.90889 8.06487C1.91616 8.05603 1.92364 8.04736 1.93133 8.03886C1.93903 8.03037 1.94692 8.02209 1.95502 8.01399C1.96312 8.00588 1.97142 7.99798 1.97991 7.9903C1.9884 7.98261 1.99707 7.97512 2.00592 7.96784C2.01478 7.96058 2.02381 7.95354 2.03301 7.94673C2.04221 7.9399 2.05157 7.9333 2.0611 7.92692C2.07063 7.92056 2.0803 7.91444 2.09013 7.90855C2.09995 7.90266 2.10992 7.89702 2.12002 7.89162C2.13013 7.88622 2.14035 7.88107 2.15071 7.87618C2.16107 7.87127 2.17154 7.86662 2.18212 7.86223C2.1927 7.85786 2.20339 7.85374 2.21418 7.84988C2.22496 7.84602 2.23584 7.84243 2.2468 7.8391C2.25776 7.83577 2.2688 7.83272 2.27991 7.82994C2.29102 7.82716 2.3022 7.82465 2.31344 7.82241C2.32467 7.82018 2.33596 7.81822 2.34729 7.81653C2.35862 7.81486 2.36998 7.81346 2.38139 7.81234C2.3928 7.81121 2.40422 7.81037 2.41566 7.8098C2.42709 7.80924 2.43854 7.80896 2.44999 7.80896L15.793 7.80896L15.793 7.80997ZM15.492 8.80995L2.74999 8.80995L2.74999 20.573L15.492 20.573L15.492 8.80995Z"   fill="#000000" ></path><path d="M21.55 2.43005C21.5614 2.43005 21.5729 2.43034 21.5843 2.4309C21.5958 2.43146 21.6072 2.4323 21.6186 2.43343C21.63 2.43455 21.6414 2.43595 21.6527 2.43762C21.664 2.43931 21.6753 2.44127 21.6865 2.44351C21.6978 2.44574 21.7089 2.44825 21.7201 2.45103C21.7312 2.45381 21.7422 2.45687 21.7532 2.46019C21.7641 2.46352 21.775 2.46712 21.7858 2.47098C21.7966 2.47483 21.8073 2.47895 21.8179 2.48333C21.8284 2.48772 21.8389 2.49237 21.8493 2.49727C21.8596 2.50216 21.8699 2.50731 21.88 2.51272C21.8901 2.51811 21.9 2.52375 21.9098 2.52964C21.9197 2.53553 21.9293 2.54166 21.9389 2.54801C21.9484 2.55439 21.9578 2.56099 21.967 2.56782C21.9762 2.57463 21.9852 2.58167 21.9941 2.58894C22.0029 2.59622 22.0116 2.6037 22.0201 2.61139C22.0286 2.61908 22.0369 2.62698 22.045 2.63508C22.0531 2.64318 22.0609 2.65147 22.0686 2.65995C22.0763 2.66845 22.0838 2.67712 22.0911 2.68597C22.0984 2.69483 22.1054 2.70386 22.1122 2.71306C22.119 2.72227 22.1256 2.73163 22.132 2.74116C22.1384 2.75068 22.1445 2.76035 22.1504 2.77018C22.1563 2.78001 22.1619 2.78998 22.1673 2.80009C22.1727 2.81018 22.1779 2.82041 22.1828 2.83076C22.1877 2.84112 22.1923 2.85159 22.1967 2.86217C22.2011 2.87276 22.2052 2.88345 22.209 2.89423C22.2129 2.90501 22.2165 2.91589 22.2198 2.92686C22.2232 2.93781 22.2262 2.94885 22.229 2.95998C22.2318 2.97109 22.2343 2.98226 22.2365 2.99349C22.2387 3.00472 22.2407 3.01601 22.2424 3.02733C22.2441 3.03868 22.2455 3.05005 22.2466 3.06144C22.2477 3.07284 22.2486 3.08426 22.2491 3.0957C22.2497 3.10714 22.25 3.11859 22.25 3.13006L22.25 15.4931C22.25 15.5045 22.2497 15.516 22.2491 15.5274C22.2486 15.5388 22.2477 15.5502 22.2466 15.5617C22.2455 15.5731 22.2441 15.5844 22.2424 15.5958C22.2407 15.6071 22.2387 15.6184 22.2365 15.6296C22.2343 15.6408 22.2318 15.652 22.229 15.6631C22.2262 15.6743 22.2232 15.6853 22.2198 15.6962C22.2165 15.7072 22.2129 15.7181 22.209 15.7289C22.2052 15.7397 22.2011 15.7504 22.1967 15.7609C22.1923 15.7715 22.1877 15.782 22.1828 15.7923C22.1779 15.8027 22.1727 15.8129 22.1673 15.823C22.1619 15.8331 22.1563 15.8431 22.1504 15.8529C22.1445 15.8627 22.1384 15.8724 22.132 15.882C22.1256 15.8915 22.119 15.9008 22.1122 15.91C22.1054 15.9192 22.0984 15.9283 22.0911 15.9371C22.0838 15.946 22.0763 15.9547 22.0686 15.9631C22.0609 15.9716 22.0531 15.9799 22.045 15.988C22.0369 15.9961 22.0286 16.004 22.0201 16.0117C22.0116 16.0194 22.0029 16.0269 21.9941 16.0342C21.9852 16.0414 21.9762 16.0485 21.967 16.0553C21.9578 16.0621 21.9484 16.0687 21.9389 16.0751C21.9293 16.0814 21.9197 16.0876 21.9098 16.0935C21.9 16.0993 21.8901 16.105 21.88 16.1104C21.8699 16.1158 21.8596 16.121 21.8493 16.1259C21.8389 16.1307 21.8284 16.1354 21.8179 16.1398C21.8073 16.1442 21.7966 16.1483 21.7858 16.1521C21.775 16.156 21.7641 16.1596 21.7532 16.1629C21.7422 16.1662 21.7312 16.1693 21.7201 16.1721C21.7089 16.1749 21.6978 16.1774 21.6865 16.1796C21.6753 16.1818 21.664 16.1838 21.6527 16.1855C21.6414 16.1872 21.63 16.1886 21.6186 16.1897C21.6072 16.1908 21.5958 16.1916 21.5843 16.1922C21.5729 16.1928 21.5614 16.193 21.55 16.193L21.39 16.1911L21.398 15.2351L21.362 15.2591C21.3555 15.2642 21.3493 15.2697 21.3433 15.2754C21.3373 15.2811 21.3315 15.287 21.326 15.2932C21.3205 15.2994 21.3153 15.3058 21.3103 15.3124C21.3053 15.3191 21.3006 15.3259 21.2962 15.3329C21.2918 15.3399 21.2877 15.347 21.2838 15.3544C21.28 15.3617 21.2765 15.3692 21.2733 15.3769C21.2701 15.3845 21.2672 15.3923 21.2647 15.4002C21.2621 15.408 21.2599 15.416 21.258 15.4241L21.25 15.4931L21.25 3.43006L8.50599 3.43006L7.50598 3.43205L7.50598 3.13006C7.50598 3.11859 7.50626 3.10714 7.50682 3.0957C7.50739 3.08426 7.50823 3.07284 7.50936 3.06144C7.51048 3.05005 7.51188 3.03868 7.51355 3.02733C7.51524 3.01601 7.5172 3.00472 7.51943 2.99349C7.52167 2.98226 7.52418 2.97109 7.52696 2.95998C7.52974 2.94885 7.53279 2.93781 7.53612 2.92686C7.53945 2.91589 7.54304 2.90501 7.5469 2.89423C7.55076 2.88345 7.55488 2.87276 7.55925 2.86217C7.56365 2.85159 7.56829 2.84112 7.5732 2.83076C7.57809 2.82041 7.58324 2.81018 7.58864 2.80009C7.59404 2.78998 7.59968 2.78001 7.60557 2.77018C7.61146 2.76035 7.61758 2.75068 7.62394 2.74116C7.63032 2.73163 7.63692 2.72227 7.64375 2.71306C7.65056 2.70386 7.6576 2.69483 7.66486 2.68597C7.67215 2.67712 7.67963 2.66845 7.68732 2.65995C7.695 2.65147 7.7029 2.64318 7.71101 2.63508C7.71911 2.62698 7.7274 2.61908 7.73588 2.61139C7.74438 2.6037 7.75305 2.59622 7.7619 2.58894C7.77075 2.58167 7.77979 2.57463 7.78899 2.56782C7.79819 2.56099 7.80756 2.55439 7.81709 2.54801C7.82661 2.54166 7.83628 2.53553 7.84611 2.52964C7.85593 2.52375 7.8659 2.51811 7.87601 2.51272C7.88611 2.50731 7.89633 2.50216 7.90669 2.49727C7.91705 2.49237 7.92752 2.48772 7.9381 2.48333C7.94869 2.47895 7.95938 2.47483 7.97016 2.47098C7.98094 2.46712 7.99182 2.46352 8.00279 2.46019C8.01374 2.45687 8.02478 2.45381 8.0359 2.45103C8.04701 2.44825 8.05819 2.44574 8.06942 2.44351C8.08065 2.44127 8.09193 2.43931 8.10326 2.43762C8.11461 2.43595 8.12597 2.43455 8.13736 2.43343C8.14877 2.4323 8.16019 2.43146 8.17163 2.4309C8.18308 2.43034 8.19454 2.43005 8.20599 2.43005L21.55 2.43005Z"   fill="#000000" ></path><path d="M21.408 15.2099L22.092 15.9399L16.334 21.3249L15.651 20.5949L21.408 15.2099ZM21.409 2.56494L22.091 3.29495L16.334 8.67493L15.651 7.94495L21.409 2.56494ZM7.771 2.58995L8.45399 3.31993L2.66799 8.72694L1.98499 7.99693L7.771 2.58995Z"   fill="#000000" ></path><path d="M10.543 15.075L10.543 16.075L8.54295 16.075L8.54295 15.075L10.543 15.075ZM13.743 15.075L13.743 16.075L11.743 16.075L11.743 15.075L13.743 15.075ZM16.943 15.075L16.943 16.075L14.943 16.075L14.943 15.075L16.943 15.075ZM20.143 15.075L20.143 16.075L18.143 16.075L18.143 15.075L20.143 15.075ZM21.54 15.075L21.54 16.075L21.343 16.075L21.343 15.075L21.54 15.075ZM8.58896 12.802L8.60595 14.802L7.60597 14.81L7.58895 12.81L8.58896 12.802ZM8.56196 9.60201L8.57895 11.602L7.57897 11.61L7.56195 9.61003L8.56196 9.60201ZM8.53395 6.40202L8.55097 8.40201L7.55096 8.41003L7.53495 6.41001L8.53496 6.40202L8.53395 6.40202ZM8.50695 3.20203L8.52397 5.20202L7.52396 5.21001L7.50697 3.21002L8.50695 3.20203ZM3.44996 19.231L4.13096 19.963L2.66696 21.326L1.98596 20.594L3.44996 19.23L3.44996 19.231ZM5.79195 17.051L6.47396 17.783L5.00996 19.146L4.32795 18.414L5.79195 17.051ZM7.77195 15.209L8.45295 15.942L7.35296 16.966L6.67095 16.234L7.77097 15.209L7.77195 15.209Z"   fill="#000000" ></path><path d="M15.492 20.574L15.492 8.80798L2.73804 8.80798L2.73804 20.574L15.492 20.574Z"   fill="#0082E6" fill-opacity="0.3"></path></svg>