<svg xmlns="http://www.w3.org/2000/svg" xmlns:xlink="http://www.w3.org/1999/xlink" width="24" height="24" viewBox="0 0 24 24" fill="none"><path d="M15.5 22L8.50002 22C8.20002 22 8 21.8 8 21.5L8 14.5C8 14.2 8.20002 14 8.50002 14L15.5 14C15.8 14 16 14.2 16 14.5L16 21.5C16 21.8 15.8 22 15.5 22ZM9.00001 21L15 21L15 15L9.00001 15L9.00001 21Z"   fill="#0063B1" ></path><path d="M20.5 21.995L3.5 21.995C3.2 21.995 3 21.805 3 21.5051L3 10.4051C3 10.2051 3.09997 10.095 3.19995 9.99504L11.7 3.10504C11.9 3.00503 12.1 3.00503 12.3 3.10504L20.8 9.99504C20.9 10.095 21 10.2051 21 10.4051L21 21.5051C21 21.805 20.8 21.995 20.5 21.995ZM4 20.995L20 20.995L20 10.595L12 4.09504L4 10.595L4 20.995Z"   fill="#000000" ></path></svg>