<svg xmlns="http://www.w3.org/2000/svg" xmlns:xlink="http://www.w3.org/1999/xlink" width="24" height="24" viewBox="0 0 24 24" fill="none"><path d="M10.5 21L3.49999 21C3.19999 21 3 20.8 3 20.5L3 3.49999C3 3.19999 3.19999 3 3.49999 3L13.5 3C13.6 3 13.8 3.10001 13.9 3.10001L17.9 7.09999C17.9 7.2 18 7.39999 18 7.5L18 9.49999C18 9.79999 17.8 10 17.5 10C17.2 10 17 9.79999 17 9.49999L17 7.69999L13.3 4.00001L4.00001 4.00001L4.00001 20L10.5 20C10.8 20 11 20.2 11 20.5C11 20.8 10.8 21 10.5 21Z"   fill="#000000" ></path><path d="M17.5 7.99999L13.5 7.99999C13.2 7.99999 13 7.8 13 7.5L13 3.49999C13 3.19999 13.2 3 13.5 3C13.8 3 14 3.19999 14 3.49999L14 7.00001L17.5 7.00001C17.8 7.00001 18 7.2 18 7.5C18 7.8 17.8 7.99999 17.5 7.99999Z"   fill="#000000" ></path><path d="M16 21C13.2 21 11 18.8 11 16C11 13.2 13.2 11 16 11C18.8 11 21 13.2 21 16C21 18.8 18.8 21 16 21ZM16 12C13.8 12 12 13.8 12 16C12 18.2 13.8 20 16 20C18.2 20 20 18.2 20 16C20 13.8 18.2 12 16 12Z"   fill="#0063B1" ></path><path d="M14.5 10L6.49999 10C6.19999 10 6 9.79999 6 9.49999C6 9.19999 6.19999 9 6.49999 9L14.5 9C14.8 9 15 9.19999 15 9.49999C15 9.79999 14.8 10 14.5 10ZM9.49999 15L6.49999 15C6.19999 15 6 14.8 6 14.5C6 14.2 6.19999 14 6.49999 14L9.49999 14C9.79999 14 10 14.2 10 14.5C10 14.8 9.79999 15 9.49999 15Z"   fill="#000000" ></path><path d="M15.5 18.5C15.4 18.5 15.1999 18.5 15.1 18.4001L13.0999 16.4C12.9 16.2001 12.9 15.9001 13.0999 15.7001L15.1 13.7C15.3 13.5001 15.6 13.5001 15.8 13.7C16 13.9001 16 14.2001 15.8 14.4001L14.2 16.0001L15.8 17.6C16 17.8001 16 18.1001 15.8 18.3001C15.8 18.5 15.6 18.5 15.5 18.5Z"   fill="#0063B1" ></path><path d="M18.5 16.5L13.5 16.5C13.2 16.5 13 16.3 13 16C13 15.7 13.2 15.5 13.5 15.5L18.5 15.5C18.8 15.5 19 15.7 19 16C19 16.3 18.8 16.5 18.5 16.5Z"   fill="#0063B1" ></path></svg>