<svg xmlns="http://www.w3.org/2000/svg" xmlns:xlink="http://www.w3.org/1999/xlink" width="24" height="24" viewBox="0 0 24 24" fill="none"><path d="M3.69997 7.60011L3.19995 6.70011L11.7 1.8001C11.9 1.7001 12 1.7001 12.2 1.8001L20.7 6.70011L20.2 7.60011L12 2.80011L3.69997 7.60011Z"   fill="#000000" ></path><path d="M12 22.2C11.9 22.2 11.8 22.2 11.8 22.1L3.3 17.2C3.10001 17.2 3 17.1 3 16.9L3 7.09999C3 7 3.10001 6.79999 3.19999 6.70001C3.40001 6.6 3.49999 6.6 3.70001 6.70001L12.2 11.6C12.4 11.7 12.5 11.9 12.5 12L12.5 21.7C12.5 21.9 12.4 22 12.3 22.1C12.2 22.2 12.1 22.2 12 22.2ZM4.00001 16.6L11.5 20.9L11.5 12.3L4.00001 7.99999L4.00001 16.6Z"   fill="#000000" ></path><path d="M12.3 22.1999L11.8 21.2999L20.1 16.5999L20.1 7.9999L12.3 12.3999L11.8 11.4999L20.3 6.59991C20.5 6.4999 20.6 6.4999 20.8 6.59991C21 6.69992 21 6.99991 21 7.0999L21 16.7999C21 16.9999 20.9 17.0999 20.7 17.1999L12.3 22.1999Z"   fill="#000000" ></path><path d="M19.8629 17.004L4.11292 17.004C4.10201 17.004 4.08379 17.004 4.07292 17.004C4.06203 17.004 4.05373 16.994 4.04291 16.994C4.0321 16.994 4.02362 16.994 4.01292 16.994C4.00221 16.994 3.99347 16.984 3.98291 16.984C3.97238 16.984 3.96325 16.974 3.95291 16.974C3.94258 16.974 3.93301 16.964 3.92291 16.964C3.91284 16.964 3.89292 16.954 3.89292 16.954L3.86292 16.934L3.83292 16.914L3.80292 16.904L3.78292 16.874L3.75291 16.854L3.73291 16.834L3.71291 16.804L3.69291 16.784L3.68291 16.754L3.66291 16.724C3.66291 16.724 3.65292 16.7041 3.65292 16.694C3.65292 16.6839 3.64292 16.6744 3.64292 16.664C3.64292 16.6537 3.63292 16.6446 3.63292 16.634C3.63292 16.6235 3.62292 16.6047 3.62292 16.594C3.62292 16.5833 3.61292 16.5749 3.61292 16.564C3.61292 16.5532 3.61292 16.5449 3.61292 16.534C3.61292 16.5231 3.61292 16.5149 3.61292 16.504C3.61292 16.4931 3.61292 16.4749 3.61292 16.464C3.61292 16.4531 3.61292 16.4449 3.61292 16.434C3.61292 16.4232 3.62292 16.4147 3.62292 16.404C3.62292 16.3933 3.63292 16.3846 3.63292 16.374C3.63292 16.3635 3.64292 16.3544 3.64292 16.344C3.64292 16.3337 3.65292 16.3241 3.65292 16.314C3.65292 16.3039 3.66291 16.284 3.66291 16.284L3.68291 16.254L11.5729 2.75403L11.5829 2.72403L11.6029 2.70403L11.6229 2.67403L11.6429 2.65403L11.6729 2.62403L11.6929 2.60403L11.7229 2.58403L11.7529 2.57403L11.7829 2.55403C11.7829 2.55403 11.8029 2.54403 11.8129 2.54403C11.8129 2.54403 11.8326 2.53403 11.8429 2.53403C11.8532 2.53403 11.8625 2.52403 11.8729 2.52403C11.8834 2.52403 11.8923 2.51403 11.9029 2.51403C11.9135 2.51403 11.9222 2.50403 11.9329 2.50403C11.9437 2.50403 11.9521 2.50403 11.9629 2.50403C11.9737 2.50403 11.9921 2.50403 12.0029 2.50403C12.0138 2.50403 12.0221 2.50403 12.0329 2.50403C12.0437 2.50403 12.0522 2.50403 12.0629 2.50403C12.0737 2.50403 12.0823 2.51403 12.0929 2.51403C12.1035 2.51403 12.1125 2.52403 12.1229 2.52403C12.1334 2.52403 12.1426 2.53403 12.1529 2.53403C12.1632 2.53403 12.1929 2.54403 12.1929 2.54403L12.2129 2.55403L12.2429 2.57403L12.2729 2.58403L12.3029 2.60403L12.3229 2.62403L12.3529 2.65403L12.3729 2.67403L12.3929 2.70403L12.4129 2.72403L12.4329 2.75403L20.3029 16.304L20.3229 16.334C20.3229 16.334 20.3329 16.3539 20.3329 16.364C20.3329 16.3742 20.3429 16.3836 20.3429 16.394C20.3429 16.4044 20.3529 16.4134 20.3529 16.424C20.3529 16.4346 20.3629 16.4433 20.3629 16.454C20.3629 16.4648 20.3729 16.4731 20.3729 16.484C20.3729 16.4949 20.3729 16.5131 20.3729 16.524C20.3729 16.535 20.3729 16.543 20.3729 16.554C20.3729 16.565 20.3729 16.5731 20.3729 16.584C20.3729 16.595 20.3729 16.6031 20.3729 16.614C20.3729 16.6249 20.3629 16.6433 20.3629 16.654C20.3629 16.6648 20.3529 16.6734 20.3529 16.684C20.3529 16.6946 20.3429 16.7036 20.3429 16.714C20.3429 16.7244 20.3329 16.7339 20.3329 16.744C20.3329 16.7541 20.3229 16.774 20.3229 16.774L20.3029 16.804L20.2829 16.834L20.2629 16.854L20.2429 16.884L20.2229 16.904L20.2029 16.934L20.1729 16.954L20.1429 16.974L20.1229 16.984L20.0929 17.004C20.0929 17.004 20.0731 17.014 20.0629 17.014C20.0527 17.014 20.0433 17.024 20.0329 17.024C20.0225 17.024 20.0036 17.034 19.9929 17.034C19.9823 17.034 19.9737 17.044 19.9629 17.044C19.9521 17.044 19.9438 17.044 19.9329 17.044C19.922 17.044 19.9139 17.054 19.9029 17.054C19.8919 17.054 19.8739 17.054 19.8629 17.054L19.8629 17.004ZM4.98291 16.004L18.9729 16.004L11.9829 4.00403L4.98291 16.004Z"   fill="#000000" ></path><path d="M11.9999 3.00391L19.8699 16.5039L4.10986 16.5039L11.9999 3.00391Z"   fill="#0082E6" fill-opacity="0.3"></path></svg>