<svg xmlns="http://www.w3.org/2000/svg" xmlns:xlink="http://www.w3.org/1999/xlink" width="24" height="24" viewBox="0 0 24 24" fill="none"><path d="M5 10.25L11.5 10.25L11.5 11.25L5 11.25L5 10.25ZM5 13.75L15 13.75L15 14.75L5 14.75L5 13.75Z"   fill="#0063B1" ></path><path d="M17 6.25L4 6.25C2.9 6.25 2 7.15 2 8.25L2 16.75C2 17.85 2.9 18.75 4 18.75L5.75 18.75L8 21.25L10.25 18.75L17 18.75C18.1 18.75 19 17.85 19 16.75L19 8.25C19 7.15 18.1 6.25 17 6.25ZM18 16.75C18 17.3 17.55 17.75 17 17.75L11 17.75L9.65 17.75L8 19.75L6.35 17.75L5 17.75L4 17.75C3.45 17.75 3 17.3 3 16.75L3 8.25C3 7.7 3.45 7.25 4 7.25L17 7.25C17.55 7.25 18 7.7 18 8.25L18 16.75ZM20 2.75L7 2.75C5.9 2.75 5 3.65 5 4.75L5 5.25L6 5.25L6 4.75C6 4.2 6.45 3.75 7 3.75L20 3.75C20.55 3.75 21 4.2 21 4.75L21 13.25C21 13.8 20.55 14.25 20 14.25L20 15.25C21.1 15.25 22 14.35 22 13.25L22 4.75C22 3.65 21.1 2.75 20 2.75Z"   fill="#000000" ></path></svg>