<svg xmlns="http://www.w3.org/2000/svg" xmlns:xlink="http://www.w3.org/1999/xlink" width="24" height="24" viewBox="0 0 24 24" fill="none"><path d="M12 21.0001C11.9 21.0001 11.8 21.0001 11.8 20.9001L1.8 15.4001C1.6 15.3001 1.5 15.1001 1.5 15.0001C1.5 14.8001 1.6 14.7001 1.8 14.6001L4.60001 13.0001C4.8 12.9001 5.1 13.0001 5.29999 13.2001C5.4 13.4001 5.29999 13.7001 5.1 13.9001L3 15.0001L12 19.9001L21 15.0001L18.8 13.8001C18.6 13.7001 18.5 13.4001 18.6 13.1001C18.7 12.9001 19 12.8001 19.3 12.9001L22.3 14.5001C22.5 14.6001 22.6 14.8001 22.6 14.9001C22.6 15.1001 22.5 15.2001 22.3 15.3001L12.3 20.8001C12.2 21.0001 12.1 21.0001 12 21.0001Z"   fill="#000000" ></path><path d="M22 9L12 14.5L2 9L12 3.5L22 9Z"   fill="#0082E6" fill-opacity="0.3"></path><path d="M12 14.9999C11.9 14.9999 11.8 14.9999 11.8 14.8999L1.8 9.3999C1.6 9.3999 1.5 9.19989 1.5 8.99989C1.5 8.7999 1.6 8.69989 1.8 8.59989L11.8 3.09991C12 2.9999 12.1 2.9999 12.3 3.09991L22.3 8.59989C22.5 8.69989 22.6 8.89989 22.6 8.99989C22.6 9.0999 22.5 9.29989 22.3 9.3999L12.3 14.8999C12.2 14.9999 12.1 14.9999 12 14.9999ZM3 8.99989L12 13.8999L21 8.99989L12 4.09989L3 8.99989Z"   fill="#0063B1" ></path></svg>