<svg xmlns="http://www.w3.org/2000/svg" xmlns:xlink="http://www.w3.org/1999/xlink" width="24" height="24" viewBox="0 0 24 24" fill="none"><path d="M12 16C9.8 16 8 14.2 8 12C8 9.8 9.8 8 12 8C14.2 8 16 9.8 16 12C16 14.2 14.2 16 12 16ZM12 9.00001C10.3 9.00001 9.00001 10.3 9.00001 12C9.00001 13.7 10.3 15 12 15C13.7 15 15 13.7 15 12C15 10.3 13.7 9.00001 12 9.00001Z"   fill="#000000" ></path><path d="M13.5 18.7999C13.3 18.7999 13.1 18.5999 13 18.3999C12.9 18.0999 13.1 17.8999 13.4 17.7999C15.6 17.2999 17.3 15.4999 17.8 13.2999C17.9 12.9999 18.1 12.8999 18.4 12.8999C18.7 12.9999 18.8 13.1999 18.8 13.4999C18.2 16.0999 16.2 18.0999 13.6 18.6999C13.6 18.7999 13.6 18.7999 13.5 18.7999Z"   fill="#0063B1" ></path><path d="M12 5C11.7 5 11.5 4.80001 11.5 4.50001L11.5 2.50001C11.5 2.2 11.7 2 12 2C12.3 2 12.5 2.2 12.5 2.50001L12.5 4.50001C12.5 4.80001 12.3 5 12 5ZM6.70002 7.20001C6.60001 7.20001 6.40002 7.20001 6.30001 7.1L4.90002 5.6C4.80001 5.50002 4.80001 5.40001 4.80001 5.3C4.80001 5.20002 4.80001 5 4.90002 4.90002C5.10001 4.7 5.40001 4.7 5.6 4.90002L7.00002 6.30001C7.1 6.40002 7.1 6.5 7.1 6.70002C7.1 6.90001 7.1 7.00002 7.00002 7.00002C6.90001 7.00002 6.8 7.20001 6.70002 7.20001ZM5.3 19.2C5.20002 19.2 5 19.2 4.90002 19.1C4.80001 19 4.80001 18.9 4.80001 18.7C4.80001 18.5 4.80001 18.4 4.90002 18.3L6.30001 17C6.5 16.8 6.8 16.8 7.00002 17C7.1 17.1 7.1 17.2 7.1 17.4C7.1 17.6 7.1 17.7 7.00002 17.8L5.6 19.2L5.3 19.2ZM17.3 7.20001C17.2 7.20001 17 7.20001 16.9 7.1C16.8 7.00002 16.8 6.90001 16.8 6.70002C16.8 6.5 16.8 6.40002 16.9 6.30001L18.3 4.90002C18.5 4.7 18.8 4.7 19 4.90002C19.1 5 19.1 5.10001 19.1 5.3C19.1 5.50002 19.1 5.6 19 5.70001L17.7 7.00002C17.6 7.1 17.4 7.20001 17.3 7.20001ZM4.50001 12.5L2.50001 12.5C2.2 12.5 2 12.3 2 12C2 11.7 2.2 11.5 2.50001 11.5L4.50001 11.5C4.80001 11.5 5 11.7 5 12C5 12.3 4.80001 12.5 4.50001 12.5Z"   fill="#000000" ></path><path d="M13.5 21.9C13.3 21.9 13 21.7 13 21.5C13 21.2 13.1 21 13.4 20.9C17.2 20.3 20.2 17.3 20.8 13.5C20.8 13.2 21.1 13 21.4 13.1C21.7 13.1 21.9 13.4 21.8 13.7C21.2 17.9 17.9 21.2 13.5 21.9C13.6 21.9 13.5 21.9 13.5 21.9Z"   fill="#0063B1" ></path></svg>