<svg xmlns="http://www.w3.org/2000/svg" xmlns:xlink="http://www.w3.org/1999/xlink" width="24" height="24" viewBox="0 0 24 24" fill="none"><path d="M17.51 10.08L6.73999 10.04C6.45855 10.04 6.23999 9.81168 6.23999 9.54004C6.23999 9.2586 6.45855 9.04004 6.73999 9.04004L17.51 9.08004C17.7914 9.08004 18.02 9.3084 18.02 9.58004C18.02 9.86148 17.7914 10.08 17.51 10.08ZM17.58 13.57L6.80999 13.53C6.52855 13.53 6.30999 13.3017 6.30999 13.03C6.30999 12.7486 6.52855 12.53 6.80999 12.53L17.58 12.57C17.8614 12.57 18.08 12.7984 18.08 13.07C18.08 13.3515 17.8614 13.57 17.58 13.57ZM17.58 17.02L6.80999 16.98C6.52855 16.98 6.30999 16.7517 6.30999 16.48C6.30999 16.1986 6.52855 15.98 6.80999 15.98L17.58 16.01C17.8614 16.01 18.08 16.2484 18.08 16.52C18.08 16.8015 17.8614 17.02 17.58 17.02Z"   fill="#0063B1" ></path><path d="M20.86 21.8L3.14001 21.8C2.85858 21.8 2.64001 21.5813 2.64001 21.3L2.64001 5.56995C2.64001 4.50784 3.49791 3.64995 4.56001 3.64995C4.84144 3.64995 5.07001 3.86851 5.07001 4.14995C5.07001 4.43138 4.84144 4.64995 4.56001 4.64995C4.05098 4.64995 3.64001 5.05848 3.64001 5.56995L3.64001 20.8L20.36 20.8L20.36 5.55995C20.36 5.54483 20.36 5.52503 20.36 5.50995C20.36 5.49485 20.36 5.485 20.36 5.46995C20.36 5.45491 20.35 5.4349 20.35 5.41995C20.35 5.405 20.35 5.39478 20.35 5.37995C20.35 5.36512 20.34 5.35461 20.34 5.33995C20.34 5.32529 20.32 5.30442 20.32 5.28995C20.32 5.27548 20.31 5.26417 20.31 5.24995C20.31 5.23571 20.29 5.2239 20.29 5.20995C20.29 5.19598 20.28 5.18362 20.28 5.16995C20.28 5.15628 20.25 5.13329 20.25 5.11995C20.25 5.10661 20.23 5.10291 20.23 5.08995C20.23 5.07699 20.21 5.06253 20.21 5.04995C20.21 5.03738 20.18 5.02211 20.18 5.00995C20.18 4.99782 20.15 4.98165 20.15 4.96995C20.15 4.95826 20.1302 4.95115 20.12 4.93995C20.1099 4.92875 20.1007 4.92063 20.09 4.90995C20.0793 4.89927 20.0712 4.8901 20.06 4.87995C20.0488 4.86981 20.0417 4.84995 20.03 4.84995C20.0183 4.84995 20.0021 4.81995 19.99 4.81995C19.9779 4.81995 19.9626 4.78995 19.95 4.78995C19.9375 4.78995 19.933 4.76995 19.92 4.76995C19.9071 4.76995 19.8934 4.74995 19.88 4.74995C19.8667 4.74995 19.8537 4.72995 19.84 4.72995C19.8263 4.72995 19.804 4.70995 19.79 4.70995C19.7761 4.70995 19.7643 4.68995 19.75 4.68995C19.7358 4.68995 19.7245 4.67995 19.71 4.67995C19.6955 4.67995 19.6747 4.65995 19.66 4.65995C19.6454 4.65995 19.6348 4.64995 19.62 4.64995C19.6052 4.64995 19.595 4.64995 19.58 4.64995C19.5651 4.64995 19.5451 4.63995 19.53 4.63995C19.515 4.63995 19.5051 4.63995 19.49 4.63995C19.4749 4.63995 19.4551 4.63995 19.44 4.63995C19.1586 4.63995 18.94 4.42139 18.94 4.13995C18.94 3.85852 19.1586 3.62995 19.44 3.62995C20.5021 3.62995 21.36 4.49784 21.36 5.55995L21.36 21.3C21.36 21.5838 21.1389 21.8 20.86 21.8ZM15.88 5.86995L8.27001 5.86995C7.25684 5.86995 6.44001 5.05312 6.44001 4.03995C6.44001 3.02679 7.25684 2.19995 8.27001 2.19995L15.88 2.19995C16.8932 2.19995 17.72 3.02679 17.72 4.03995C17.7078 5.05312 16.8809 5.86995 15.88 5.86995ZM8.27001 3.20995C7.80993 3.20995 7.44001 3.57987 7.44001 4.03995C7.44001 4.50003 7.80993 4.86995 8.27001 4.86995L15.88 4.86995C16.3401 4.86995 16.71 4.49982 16.71 4.02995C16.71 3.57966 16.3401 3.20995 15.88 3.20995L8.27001 3.20995Z"   fill="#000000" ></path></svg>