<svg xmlns="http://www.w3.org/2000/svg" xmlns:xlink="http://www.w3.org/1999/xlink" width="24" height="24" viewBox="0 0 24 24" fill="none"><path d="M12 2.50098C12.0082 2.50098 12.0164 2.50118 12.0245 2.50159C12.0327 2.50199 12.0409 2.50259 12.049 2.50339C12.0571 2.50419 12.0653 2.50519 12.0734 2.50639C12.0814 2.50759 12.0895 2.50899 12.0975 2.51059C12.1056 2.51218 12.1135 2.51398 12.1215 2.51598C12.1294 2.51796 12.1373 2.52014 12.1451 2.52252C12.153 2.52489 12.1607 2.52745 12.1684 2.5302C12.1761 2.53297 12.1838 2.53591 12.1913 2.53904C12.1989 2.54218 12.2064 2.5455 12.2138 2.549C12.2211 2.55248 12.2285 2.55616 12.2357 2.56002C12.2429 2.56387 12.25 2.56791 12.257 2.57211C12.2641 2.57633 12.271 2.58071 12.2778 2.58526C12.2846 2.5898 12.2913 2.59452 12.2978 2.59939C12.3044 2.60427 12.3109 2.6093 12.3172 2.61448C12.3235 2.61967 12.3297 2.62502 12.3358 2.63052C12.3419 2.636 12.3478 2.64164 12.3535 2.64744C12.3593 2.65322 12.365 2.65914 12.3705 2.6652C12.376 2.67127 12.3813 2.67746 12.3865 2.68379C12.3917 2.69012 12.3967 2.69656 12.4016 2.70312C12.4065 2.7097 12.4112 2.71639 12.4157 2.72319C12.4203 2.73 12.4247 2.73691 12.4289 2.74393C12.433 2.75094 12.4371 2.75806 12.4409 2.76528C12.4448 2.7725 12.4485 2.77981 12.452 2.7872C12.4555 2.7946 12.4588 2.80209 12.4619 2.80965C12.4651 2.81721 12.468 2.82484 12.4708 2.83255C12.4735 2.84025 12.4761 2.84802 12.4785 2.85584C12.4808 2.86367 12.483 2.87155 12.485 2.87949C12.487 2.88743 12.4888 2.89541 12.4904 2.90345C12.492 2.91146 12.4934 2.91952 12.4946 2.92761C12.4958 2.9357 12.4968 2.94383 12.4976 2.95198C12.4984 2.96012 12.499 2.96828 12.4994 2.97645C12.4998 2.98463 12.5 2.99281 12.5 3.00099L12.5 7.00098C12.5 7.00916 12.4998 7.01734 12.4994 7.02552C12.499 7.0337 12.4984 7.04185 12.4976 7.04998C12.4968 7.05814 12.4958 7.06627 12.4946 7.07436C12.4934 7.08245 12.492 7.09051 12.4904 7.09852C12.4888 7.10656 12.487 7.11453 12.485 7.12248C12.483 7.13042 12.4808 7.1383 12.4785 7.14612C12.4761 7.15395 12.4735 7.16171 12.4708 7.16942C12.468 7.17713 12.4651 7.18475 12.4619 7.19232C12.4588 7.19989 12.4555 7.20737 12.452 7.21477C12.4485 7.22216 12.4448 7.22947 12.4409 7.23669C12.4371 7.24391 12.433 7.25103 12.4289 7.25804C12.4247 7.26505 12.4203 7.27196 12.4157 7.27876C12.4112 7.28558 12.4065 7.29226 12.4016 7.29884C12.3967 7.30541 12.3917 7.31185 12.3865 7.31818C12.3813 7.32451 12.376 7.3307 12.3705 7.33677C12.365 7.34284 12.3593 7.34874 12.3535 7.35453C12.3478 7.36032 12.3419 7.36597 12.3358 7.37145C12.3297 7.37696 12.3235 7.3823 12.3172 7.38748C12.3109 7.39266 12.3044 7.3977 12.2978 7.40258C12.2913 7.40745 12.2846 7.41216 12.2778 7.41671C12.271 7.42126 12.2641 7.42564 12.257 7.42986C12.25 7.43405 12.2429 7.43809 12.2357 7.44195C12.2285 7.4458 12.2212 7.44948 12.2138 7.45297C12.2064 7.45646 12.1989 7.45979 12.1913 7.46293C12.1838 7.46605 12.1761 7.469 12.1684 7.47177C12.1607 7.47451 12.153 7.47709 12.1451 7.47945C12.1373 7.48182 12.1294 7.484 12.1215 7.48599C12.1135 7.48798 12.1056 7.48979 12.0975 7.49138C12.0895 7.49298 12.0814 7.49438 12.0734 7.49558C12.0653 7.49677 12.0571 7.49778 12.049 7.49858C12.0409 7.49937 12.0327 7.49998 12.0245 7.50038C12.0164 7.50078 12.0082 7.50099 12 7.50099C11.9918 7.50099 11.9836 7.50078 11.9755 7.50038C11.9673 7.49998 11.9591 7.49937 11.951 7.49858C11.9429 7.49778 11.9347 7.49677 11.9266 7.49558C11.9185 7.49438 11.9105 7.49298 11.9024 7.49138C11.8944 7.48979 11.8864 7.48798 11.8785 7.48599C11.8705 7.484 11.8627 7.48182 11.8548 7.47945C11.847 7.47709 11.8393 7.47451 11.8315 7.47177C11.8238 7.469 11.8162 7.46605 11.8086 7.46293C11.8011 7.45979 11.7936 7.45646 11.7862 7.45297C11.7788 7.44948 11.7715 7.44582 11.7643 7.44195C11.7571 7.43809 11.75 7.43405 11.7429 7.42986C11.7359 7.42564 11.729 7.42126 11.7222 7.41671C11.7154 7.41216 11.7087 7.40745 11.7021 7.40258C11.6956 7.3977 11.6891 7.39266 11.6828 7.38748C11.6765 7.3823 11.6703 7.37696 11.6642 7.37145C11.6581 7.36597 11.6522 7.36032 11.6464 7.35453C11.6406 7.34874 11.635 7.34284 11.6295 7.33677C11.624 7.3307 11.6187 7.32451 11.6135 7.31818C11.6083 7.31185 11.6033 7.30541 11.5984 7.29884C11.5935 7.29226 11.5888 7.28558 11.5843 7.27876C11.5797 7.27196 11.5753 7.26505 11.5711 7.25804C11.5669 7.25103 11.5629 7.24391 11.559 7.23669C11.5552 7.22947 11.5515 7.22216 11.548 7.21477C11.5445 7.20737 11.5412 7.19989 11.5381 7.19232C11.5349 7.18475 11.532 7.17713 11.5292 7.16942C11.5265 7.16171 11.5239 7.15395 11.5215 7.14612C11.5191 7.1383 11.517 7.13042 11.515 7.12248C11.513 7.11453 11.5112 7.10656 11.5096 7.09852C11.508 7.09051 11.5066 7.08245 11.5054 7.07436C11.5042 7.06627 11.5032 7.05814 11.5024 7.04998C11.5016 7.04185 11.501 7.0337 11.5006 7.02552C11.5002 7.01734 11.5 7.00916 11.5 7.00098L11.5 3.00099C11.5 2.99281 11.5002 2.98463 11.5006 2.97645C11.501 2.96828 11.5016 2.96012 11.5024 2.95198C11.5032 2.94383 11.5042 2.9357 11.5054 2.92761C11.5066 2.91952 11.508 2.91146 11.5096 2.90345C11.5112 2.89541 11.513 2.88743 11.515 2.87949C11.517 2.87155 11.5191 2.86367 11.5215 2.85584C11.5239 2.84802 11.5265 2.84025 11.5292 2.83255C11.532 2.82484 11.5349 2.81721 11.5381 2.80965C11.5412 2.80209 11.5445 2.79461 11.548 2.78722C11.5515 2.77981 11.5552 2.7725 11.559 2.76528C11.5629 2.75806 11.5669 2.75094 11.5711 2.74393C11.5753 2.73691 11.5797 2.73001 11.5843 2.72321C11.5888 2.7164 11.5935 2.7097 11.5984 2.70312C11.6033 2.69656 11.6083 2.69012 11.6135 2.68379C11.6187 2.67746 11.624 2.67127 11.6295 2.6652C11.635 2.65914 11.6406 2.65322 11.6464 2.64744C11.6522 2.64164 11.6581 2.636 11.6642 2.63052C11.6703 2.62502 11.6765 2.61967 11.6828 2.61448C11.6891 2.6093 11.6956 2.60427 11.7021 2.59939C11.7087 2.59452 11.7154 2.5898 11.7222 2.58526C11.729 2.58071 11.7359 2.57633 11.7429 2.57211C11.75 2.56791 11.7571 2.56387 11.7643 2.56002C11.7715 2.55616 11.7788 2.55248 11.7862 2.549C11.7936 2.5455 11.8011 2.54218 11.8086 2.53904C11.8162 2.53591 11.8238 2.53297 11.8315 2.5302C11.8393 2.52745 11.847 2.52489 11.8548 2.52252C11.8627 2.52014 11.8705 2.51796 11.8785 2.51598C11.8864 2.51398 11.8944 2.51218 11.9024 2.51059C11.9105 2.50899 11.9185 2.50759 11.9266 2.50639C11.9347 2.50519 11.9429 2.50419 11.951 2.50339C11.9591 2.50259 11.9673 2.50199 11.9755 2.50159C11.9836 2.50118 11.9918 2.50098 12 2.50098ZM16.753 3.83698C16.7601 3.84108 16.7671 3.84534 16.7739 3.84978C16.7808 3.8542 16.7876 3.8588 16.7942 3.86359C16.8009 3.86835 16.8074 3.87327 16.8138 3.87835C16.8202 3.88344 16.8265 3.88869 16.8327 3.89408C16.8388 3.89947 16.8448 3.90502 16.8507 3.91072C16.8566 3.91641 16.8623 3.92223 16.8679 3.9282C16.8735 3.93417 16.879 3.94028 16.8843 3.94653C16.8895 3.95277 16.8947 3.95912 16.8997 3.96561C16.9046 3.97211 16.9094 3.97872 16.9141 3.98544C16.9188 3.99217 16.9233 3.99901 16.9276 4.00597C16.9319 4.01292 16.936 4.01997 16.94 4.02711C16.944 4.03426 16.9478 4.04152 16.9514 4.04886C16.955 4.05619 16.9585 4.06361 16.9617 4.07113C16.965 4.07862 16.968 4.08621 16.9709 4.09388C16.9738 4.10154 16.9765 4.10926 16.979 4.11704C16.9815 4.12484 16.9838 4.13269 16.9859 4.14059C16.9881 4.14849 16.99 4.15643 16.9917 4.16443C16.9934 4.17243 16.995 4.18047 16.9963 4.18855C16.9976 4.19663 16.9988 4.20473 16.9997 4.21285C17.0006 4.22098 17.0014 4.22912 17.0019 4.2373C17.0024 4.24545 17.0028 4.25363 17.0029 4.26181C17.003 4.27 17.003 4.27818 17.0027 4.28635C17.0024 4.29452 17.002 4.30269 17.0013 4.31084C17.0006 4.319 16.9998 4.32713 16.9987 4.33524C16.9976 4.34337 16.9964 4.35145 16.9949 4.3595C16.9934 4.36755 16.9918 4.37555 16.9899 4.38352C16.9881 4.39149 16.986 4.39941 16.9838 4.40729C16.9815 4.41515 16.9791 4.42295 16.9765 4.4307C16.9738 4.43845 16.971 4.44613 16.968 4.45374C16.965 4.46135 16.9618 4.46888 16.9584 4.47634C16.955 4.48379 16.9515 4.49116 16.9477 4.49844C16.944 4.50572 16.9401 4.5129 16.936 4.51998L14.936 7.98399C14.9319 7.99102 14.9276 7.99794 14.9231 8.00476C14.9187 8.01158 14.914 8.0183 14.9092 8.02489C14.9045 8.03148 14.8995 8.03794 14.8944 8.0443C14.8893 8.05065 14.8841 8.05688 14.8787 8.06298C14.8732 8.06907 14.8677 8.07502 14.862 8.08086C14.8563 8.08667 14.8505 8.09234 14.8445 8.0979C14.8385 8.10343 14.8324 8.10882 14.8262 8.11407C14.8199 8.1193 14.8135 8.12438 14.8071 8.1293C14.8006 8.13425 14.794 8.13901 14.7872 8.14363C14.7805 8.14822 14.7737 8.15265 14.7667 8.15694C14.7598 8.1612 14.7528 8.1653 14.7456 8.16922C14.7385 8.17316 14.7313 8.17691 14.7239 8.18049C14.7166 8.18406 14.7092 8.18745 14.7017 8.19066C14.6942 8.19387 14.6867 8.1969 14.679 8.19973C14.6714 8.20257 14.6637 8.20524 14.6559 8.2077C14.6481 8.21016 14.6403 8.21244 14.6324 8.21452C14.6246 8.21661 14.6166 8.21848 14.6087 8.2202C14.6007 8.22188 14.5927 8.22338 14.5847 8.2247C14.5766 8.22598 14.5685 8.22709 14.5604 8.228C14.5524 8.22891 14.5442 8.22964 14.5361 8.23016C14.528 8.23065 14.5198 8.23098 14.5117 8.23109C14.5035 8.23121 14.4954 8.23112 14.4873 8.23084C14.4791 8.23055 14.471 8.23006 14.4629 8.22938C14.4547 8.2287 14.4466 8.22784 14.4385 8.22676C14.4305 8.22568 14.4224 8.22441 14.4144 8.22294C14.4064 8.22146 14.3984 8.2198 14.3905 8.21792C14.3826 8.21607 14.3747 8.21401 14.3669 8.21178C14.359 8.20953 14.3512 8.20709 14.3435 8.20447C14.3358 8.20184 14.3282 8.19903 14.3206 8.19603C14.313 8.19303 14.3055 8.18984 14.2981 8.18649C14.2907 8.18312 14.2833 8.17958 14.2761 8.17585C14.2688 8.17212 14.2617 8.16821 14.2546 8.16416C14.2476 8.16008 14.2406 8.15584 14.2338 8.15141C14.2269 8.147 14.2202 8.14243 14.2136 8.13767C14.2069 8.13294 14.2004 8.12804 14.194 8.12298C14.1876 8.11791 14.1814 8.11269 14.1753 8.10732C14.1691 8.10195 14.1631 8.09645 14.1573 8.09077C14.1514 8.08512 14.1457 8.07931 14.1401 8.07338C14.1345 8.06745 14.1291 8.06136 14.1238 8.05515C14.1186 8.04894 14.1134 8.04261 14.1085 8.03616C14.1035 8.02972 14.0987 8.02313 14.094 8.01643C14.0894 8.00975 14.0849 8.00295 14.0806 7.99604C14.0763 7.98912 14.0721 7.98212 14.0681 7.97499C14.0642 7.96789 14.0604 7.96067 14.0568 7.95338C14.0531 7.94609 14.0497 7.93871 14.0464 7.93123C14.0432 7.92376 14.0401 7.91621 14.0372 7.90859C14.0343 7.90098 14.0316 7.89331 14.0291 7.88555C14.0266 7.8778 14.0242 7.86999 14.0221 7.86212C14.02 7.85427 14.018 7.84634 14.0163 7.8384C14.0145 7.83043 14.013 7.82244 14.0116 7.8144C14.0103 7.80636 14.0091 7.7983 14.0081 7.79021C14.0072 7.78212 14.0064 7.77402 14.0058 7.76588C14.0053 7.75775 14.0049 7.74962 14.0047 7.74146C14.0046 7.73333 14.0046 7.72517 14.0048 7.71704C14.0051 7.70888 14.0055 7.70075 14.0061 7.69262C14.0068 7.68448 14.0076 7.6764 14.0086 7.66831C14.0096 7.66023 14.0108 7.65219 14.0123 7.64415C14.0137 7.63613 14.0153 7.62814 14.0171 7.6202C14.0189 7.61225 14.0209 7.60435 14.0231 7.5965C14.0253 7.58865 14.0277 7.58087 14.0303 7.57313C14.0328 7.5654 14.0356 7.55773 14.0385 7.55014C14.0415 7.54255 14.0446 7.53502 14.0479 7.52759C14.0513 7.52014 14.0548 7.51278 14.0584 7.50552C14.0621 7.49825 14.066 7.49108 14.07 7.48398L16.07 4.01998C16.0741 4.01289 16.0784 4.00591 16.0828 3.99903C16.0872 3.99216 16.0918 3.9854 16.0966 3.97876C16.1013 3.9721 16.1063 3.96557 16.1114 3.95916C16.1164 3.95274 16.1217 3.94646 16.1271 3.94032C16.1325 3.93416 16.138 3.92815 16.1437 3.92227C16.1494 3.91638 16.1552 3.91064 16.1612 3.90505C16.1672 3.89945 16.1733 3.89401 16.1795 3.88873C16.1858 3.88344 16.1921 3.8783 16.1986 3.87331C16.2051 3.86833 16.2117 3.86351 16.2185 3.85885C16.2252 3.85419 16.232 3.84971 16.239 3.8454C16.2459 3.84107 16.253 3.83692 16.2601 3.83295C16.2673 3.82897 16.2745 3.82517 16.2819 3.82156C16.2892 3.81794 16.2966 3.8145 16.3041 3.81125C16.3116 3.808 16.3192 3.80493 16.3269 3.80204C16.3345 3.79916 16.3423 3.79648 16.35 3.79398C16.3578 3.79146 16.3657 3.78915 16.3736 3.78704C16.3815 3.78491 16.3895 3.78299 16.3975 3.78127C16.4054 3.77954 16.4135 3.77801 16.4215 3.77668C16.4296 3.77535 16.4377 3.77422 16.4459 3.77328C16.454 3.77234 16.4621 3.77161 16.4703 3.77108C16.4785 3.77053 16.4866 3.77019 16.4948 3.77007C16.503 3.76993 16.5112 3.76999 16.5194 3.77026C16.5275 3.77054 16.5357 3.77101 16.5439 3.77166C16.552 3.77234 16.5601 3.7732 16.5683 3.77427C16.5764 3.77534 16.5845 3.77662 16.5925 3.77809C16.6005 3.77954 16.6086 3.7812 16.6165 3.78305C16.6245 3.78491 16.6324 3.78697 16.6403 3.78922C16.6482 3.79147 16.656 3.79391 16.6637 3.79653C16.6715 3.79916 16.6791 3.80198 16.6867 3.80499C16.6944 3.80799 16.7019 3.81118 16.7093 3.81455C16.7168 3.81795 16.7242 3.82151 16.7314 3.82524C16.7387 3.82898 16.7459 3.83289 16.753 3.83698ZM20.228 7.29298C20.2321 7.30009 20.236 7.30726 20.2397 7.31452C20.2435 7.32181 20.247 7.32917 20.2504 7.33663C20.2538 7.34408 20.257 7.3516 20.26 7.35922C20.263 7.36684 20.2658 7.3745 20.2684 7.38226C20.2711 7.39002 20.2735 7.39782 20.2757 7.40569C20.278 7.41355 20.2801 7.42147 20.2819 7.42944C20.2838 7.43741 20.2854 7.44542 20.2869 7.45346C20.2884 7.46152 20.2896 7.46961 20.2907 7.47772C20.2918 7.48583 20.2926 7.49396 20.2933 7.50212C20.294 7.51027 20.2945 7.51843 20.2947 7.52661C20.295 7.53479 20.295 7.54297 20.2949 7.55115C20.2948 7.55933 20.2945 7.56751 20.2939 7.57569C20.2934 7.58384 20.2926 7.59198 20.2917 7.60011C20.2908 7.60824 20.2896 7.61635 20.2883 7.62441C20.287 7.6325 20.2854 7.64054 20.2837 7.64853C20.282 7.65652 20.2801 7.66449 20.278 7.67239C20.2758 7.68029 20.2735 7.68814 20.271 7.69592C20.2685 7.70373 20.2658 7.71144 20.2629 7.7191C20.26 7.72677 20.257 7.73434 20.2537 7.74184C20.2505 7.74936 20.247 7.75679 20.2434 7.76412C20.2398 7.77146 20.236 7.7787 20.232 7.78585C20.2281 7.793 20.2239 7.80005 20.2196 7.80702C20.2153 7.81395 20.2108 7.8208 20.2061 7.82752C20.2015 7.83425 20.1966 7.84086 20.1917 7.84735C20.1867 7.85384 20.1815 7.8602 20.1763 7.86645C20.171 7.87269 20.1655 7.87878 20.1599 7.88476C20.1543 7.89073 20.1486 7.89657 20.1427 7.90227C20.1368 7.90796 20.1308 7.91349 20.1247 7.91888C20.1185 7.9243 20.1122 7.92952 20.1058 7.93461C20.0994 7.9397 20.0929 7.94464 20.0862 7.9494C20.0796 7.95416 20.0728 7.95877 20.0659 7.9632C20.0591 7.96763 20.0521 7.97187 20.045 7.97598L16.581 9.97599C16.5739 9.98 16.5667 9.98387 16.5595 9.98755C16.5522 9.99123 16.5448 9.99472 16.5374 9.99802C16.5299 10.0014 16.5224 10.0045 16.5148 10.0074C16.5072 10.0104 16.4996 10.0131 16.4918 10.0157C16.4841 10.0183 16.4763 10.0207 16.4685 10.0229C16.4606 10.0251 16.4527 10.0271 16.4448 10.0289C16.4368 10.0307 16.4289 10.0323 16.4208 10.0337C16.4128 10.0351 16.4047 10.0363 16.3967 10.0374C16.3886 10.0384 16.3805 10.0392 16.3724 10.0398C16.3642 10.0405 16.3561 10.0409 16.348 10.0411C16.3398 10.0414 16.3317 10.0414 16.3235 10.0412C16.3154 10.0411 16.3072 10.0407 16.2991 10.0401C16.291 10.0396 16.2829 10.0388 16.2748 10.0378C16.2667 10.0369 16.2586 10.0357 16.2506 10.0344C16.2426 10.033 16.2345 10.0314 16.2266 10.0297C16.2186 10.0279 16.2107 10.026 16.2029 10.0239C16.195 10.0217 16.1872 10.0194 16.1794 10.0169C16.1717 10.0144 16.164 10.0117 16.1564 10.0088C16.1488 10.0059 16.1412 10.0028 16.1338 9.99955C16.1263 9.99629 16.1189 9.99284 16.1116 9.98921C16.1043 9.9856 16.0971 9.9818 16.09 9.97782C16.0829 9.97386 16.0759 9.96971 16.069 9.9654C16.062 9.96106 16.0552 9.95659 16.0486 9.95195C16.0419 9.94728 16.0353 9.94248 16.0288 9.93751C16.0224 9.93254 16.0161 9.92741 16.0098 9.92213C16.0036 9.91686 15.9976 9.91142 15.9916 9.90584C15.9857 9.90027 15.9799 9.89455 15.9742 9.88869C15.9686 9.88283 15.963 9.87683 15.9577 9.87071C15.9523 9.86457 15.9471 9.85831 15.942 9.85191C15.937 9.84554 15.9321 9.83905 15.9273 9.83241C15.9226 9.82578 15.918 9.81905 15.9136 9.81219C15.9092 9.80534 15.9049 9.79838 15.9009 9.79133C15.8968 9.78427 15.8929 9.77712 15.8892 9.76988C15.8854 9.76264 15.8819 9.7553 15.8785 9.74788C15.8751 9.74045 15.872 9.73295 15.869 9.72538C15.866 9.7178 15.8631 9.71016 15.8605 9.70245C15.8579 9.69474 15.8555 9.68696 15.8532 9.67913C15.851 9.6713 15.8489 9.66343 15.8471 9.65548C15.8452 9.64754 15.8436 9.63957 15.8421 9.63155C15.8406 9.62354 15.8393 9.6155 15.8383 9.60741C15.8372 9.59933 15.8363 9.59124 15.8356 9.58313C15.8349 9.575 15.8344 9.56687 15.8342 9.55873C15.8339 9.5506 15.8338 9.54245 15.8339 9.53429C15.834 9.52616 15.8343 9.518 15.8349 9.50987C15.8354 9.50173 15.8361 9.49363 15.837 9.48554C15.8379 9.47743 15.839 9.46937 15.8403 9.46133C15.8416 9.45329 15.8431 9.44527 15.8448 9.4373C15.8465 9.42934 15.8484 9.42141 15.8505 9.41352C15.8526 9.40564 15.8548 9.39781 15.8573 9.39005C15.8598 9.3823 15.8624 9.37459 15.8653 9.36695C15.8681 9.35933 15.8711 9.35176 15.8743 9.34426C15.8775 9.33678 15.8809 9.32937 15.8845 9.32204C15.8881 9.31473 15.8918 9.30751 15.8958 9.30036C15.8997 9.29321 15.9038 9.28618 15.9081 9.27924C15.9123 9.2723 15.9168 9.26546 15.9214 9.25873C15.926 9.25201 15.9307 9.24542 15.9357 9.23893C15.9406 9.23244 15.9457 9.22609 15.9509 9.21983C15.9561 9.21359 15.9615 9.20748 15.9671 9.2015C15.9726 9.19552 15.9783 9.18969 15.9841 9.18399C15.99 9.1783 15.9959 9.17274 16.002 9.16733C16.0081 9.16191 16.0143 9.15666 16.0207 9.15155C16.027 9.14647 16.0335 9.14152 16.0401 9.13672C16.0467 9.13194 16.0534 9.12732 16.0602 9.12284C16.067 9.11839 16.074 9.1141 16.081 9.10998L19.545 7.10998C19.5521 7.10588 19.5593 7.10197 19.5665 7.09824C19.5738 7.09452 19.5812 7.09095 19.5886 7.08755C19.5961 7.08418 19.6036 7.08099 19.6112 7.07799C19.6188 7.07497 19.6265 7.07216 19.6343 7.06953C19.642 7.06691 19.6498 7.06447 19.6577 7.06222C19.6656 7.05997 19.6735 7.05791 19.6814 7.05605C19.6894 7.0542 19.6974 7.05254 19.7055 7.05109C19.7135 7.04961 19.7216 7.04834 19.7297 7.04727C19.7378 7.04621 19.746 7.04534 19.7541 7.04466C19.7623 7.04401 19.7704 7.04354 19.7786 7.04326C19.7868 7.043 19.795 7.04293 19.8032 7.04307C19.8113 7.04319 19.8195 7.04354 19.8277 7.04408C19.8359 7.04462 19.844 7.04534 19.8521 7.04628C19.8603 7.04722 19.8684 7.04834 19.8764 7.04968C19.8845 7.05102 19.8925 7.05254 19.9005 7.05427C19.9085 7.05598 19.9165 7.05791 19.9244 7.06004C19.9323 7.06215 19.9401 7.06447 19.9479 7.06698C19.9557 7.06948 19.9634 7.07216 19.9711 7.07504C19.9788 7.07792 19.9863 7.08099 19.9938 7.08425C20.0014 7.08751 20.0088 7.09093 20.0161 7.09456C20.0235 7.09817 20.0307 7.10197 20.0379 7.10595C20.045 7.10991 20.0521 7.11406 20.059 7.1184C20.066 7.12271 20.0728 7.12719 20.0795 7.13185C20.0863 7.13652 20.0929 7.14132 20.0994 7.14631C20.1059 7.1513 20.1122 7.15644 20.1185 7.16173C20.1247 7.16701 20.1308 7.17245 20.1368 7.17805C20.1427 7.18365 20.1486 7.18939 20.1543 7.19527C20.16 7.20116 20.1655 7.20716 20.1709 7.21332C20.1763 7.21948 20.1815 7.22577 20.1866 7.23216C20.1917 7.23856 20.1966 7.2451 20.2014 7.25176C20.2062 7.25839 20.2108 7.26516 20.2152 7.27203C20.2196 7.2789 20.2239 7.28588 20.228 7.29298ZM21.502 11.998C21.502 12.0062 21.5018 12.0143 21.5014 12.0225C21.501 12.0307 21.5004 12.0388 21.4996 12.047C21.4988 12.0551 21.4978 12.0633 21.4966 12.0714C21.4954 12.0794 21.494 12.0875 21.4924 12.0955C21.4908 12.1036 21.489 12.1115 21.487 12.1195C21.485 12.1274 21.4828 12.1353 21.4805 12.1431C21.4781 12.151 21.4755 12.1587 21.4728 12.1664C21.47 12.1741 21.4671 12.1818 21.4639 12.1893C21.4608 12.1969 21.4575 12.2044 21.454 12.2118C21.4505 12.2191 21.4468 12.2265 21.443 12.2337C21.4391 12.2409 21.4351 12.248 21.4308 12.255C21.4266 12.262 21.4223 12.269 21.4177 12.2758C21.4132 12.2826 21.4085 12.2892 21.4036 12.2958C21.3987 12.3024 21.3937 12.3089 21.3885 12.3152C21.3833 12.3215 21.378 12.3277 21.3725 12.3338C21.367 12.3398 21.3613 12.3458 21.3555 12.3515C21.3498 12.3573 21.3438 12.363 21.3378 12.3685C21.3317 12.374 21.3255 12.3793 21.3192 12.3845C21.3129 12.3897 21.3064 12.3947 21.2998 12.3996C21.2933 12.4045 21.2866 12.4092 21.2798 12.4137C21.273 12.4183 21.2661 12.4226 21.259 12.4269C21.252 12.431 21.2449 12.4351 21.2377 12.4389C21.2305 12.4428 21.2232 12.4465 21.2158 12.45C21.2084 12.4535 21.2009 12.4568 21.1933 12.4599C21.1858 12.463 21.1781 12.466 21.1704 12.4688C21.1627 12.4715 21.155 12.4741 21.1471 12.4764C21.1393 12.4788 21.1314 12.481 21.1235 12.483C21.1155 12.485 21.1076 12.4868 21.0995 12.4884C21.0915 12.49 21.0835 12.4914 21.0754 12.4926C21.0673 12.4938 21.0591 12.4948 21.051 12.4956C21.0429 12.4964 21.0347 12.497 21.0265 12.4974C21.0183 12.4978 21.0102 12.498 21.002 12.498L17.002 12.498C16.9938 12.498 16.9856 12.4978 16.9775 12.4974C16.9693 12.497 16.9611 12.4964 16.953 12.4956C16.9448 12.4948 16.9367 12.4938 16.9286 12.4926C16.9205 12.4914 16.9125 12.49 16.9045 12.4884C16.8964 12.4868 16.8884 12.485 16.8805 12.483C16.8726 12.481 16.8647 12.4788 16.8569 12.4764C16.849 12.4741 16.8413 12.4715 16.8336 12.4688C16.8258 12.466 16.8182 12.463 16.8107 12.4599C16.8031 12.4568 16.7956 12.4535 16.7882 12.45C16.7808 12.4465 16.7735 12.4428 16.7663 12.4389C16.7591 12.4351 16.7519 12.431 16.7449 12.4269C16.7379 12.4227 16.731 12.4183 16.7242 12.4137C16.7174 12.4092 16.7107 12.4045 16.7041 12.3996C16.6976 12.3947 16.6911 12.3897 16.6848 12.3845C16.6785 12.3793 16.6723 12.374 16.6662 12.3685C16.6601 12.363 16.6542 12.3573 16.6484 12.3515C16.6427 12.3458 16.637 12.3398 16.6315 12.3338C16.626 12.3277 16.6207 12.3215 16.6155 12.3152C16.6103 12.3089 16.6053 12.3024 16.6004 12.2958C16.5955 12.2892 16.5908 12.2826 16.5863 12.2758C16.5817 12.269 16.5773 12.262 16.5731 12.255C16.5689 12.248 16.5649 12.2409 16.561 12.2337C16.5572 12.2265 16.5535 12.2191 16.55 12.2118C16.5465 12.2044 16.5432 12.1969 16.54 12.1893C16.5369 12.1818 16.534 12.1741 16.5312 12.1664C16.5285 12.1587 16.5259 12.151 16.5235 12.1431C16.5212 12.1353 16.519 12.1274 16.517 12.1195C16.515 12.1115 16.5132 12.1036 16.5116 12.0955C16.51 12.0875 16.5086 12.0794 16.5074 12.0714C16.5062 12.0633 16.5052 12.0551 16.5044 12.047C16.5036 12.0388 16.503 12.0307 16.5026 12.0225C16.5022 12.0143 16.502 12.0062 16.502 11.998C16.502 11.9898 16.5022 11.9816 16.5026 11.9735C16.503 11.9653 16.5036 11.9571 16.5044 11.949C16.5052 11.9408 16.5062 11.9327 16.5074 11.9246C16.5086 11.9165 16.51 11.9085 16.5116 11.9004C16.5132 11.8924 16.515 11.8844 16.517 11.8765C16.519 11.8685 16.5212 11.8607 16.5235 11.8528C16.5259 11.845 16.5285 11.8373 16.5312 11.8295C16.534 11.8218 16.5369 11.8142 16.54 11.8066C16.5432 11.7991 16.5465 11.7916 16.55 11.7842C16.5535 11.7768 16.5572 11.7695 16.561 11.7623C16.5649 11.7551 16.5689 11.7479 16.5731 11.7409C16.5773 11.7339 16.5817 11.727 16.5863 11.7202C16.5908 11.7134 16.5955 11.7067 16.6004 11.7001C16.6053 11.6936 16.6103 11.6871 16.6155 11.6808C16.6207 11.6745 16.626 11.6683 16.6315 11.6622C16.637 11.6561 16.6427 11.6502 16.6484 11.6444C16.6542 11.6386 16.6601 11.633 16.6662 11.6275C16.6723 11.622 16.6785 11.6167 16.6848 11.6115C16.6911 11.6063 16.6976 11.6013 16.7041 11.5964C16.7107 11.5915 16.7174 11.5868 16.7242 11.5823C16.731 11.5777 16.7379 11.5733 16.7449 11.5691C16.7519 11.5649 16.7591 11.5609 16.7663 11.557C16.7735 11.5531 16.7808 11.5495 16.7882 11.546C16.7956 11.5425 16.8031 11.5392 16.8107 11.536C16.8182 11.5329 16.8258 11.53 16.8336 11.5272C16.8413 11.5245 16.849 11.5219 16.8569 11.5195C16.8647 11.5171 16.8726 11.515 16.8805 11.513C16.8884 11.511 16.8964 11.5092 16.9045 11.5076C16.9125 11.506 16.9205 11.5046 16.9286 11.5034C16.9367 11.5022 16.9448 11.5012 16.953 11.5004C16.9611 11.4996 16.9693 11.499 16.9775 11.4986C16.9856 11.4982 16.9938 11.498 17.002 11.498L21.002 11.498C21.0102 11.498 21.0183 11.4982 21.0265 11.4986C21.0347 11.499 21.0429 11.4996 21.051 11.5004C21.0591 11.5012 21.0673 11.5022 21.0754 11.5034C21.0835 11.5046 21.0915 11.506 21.0995 11.5076C21.1076 11.5092 21.1155 11.511 21.1235 11.513C21.1314 11.515 21.1393 11.5171 21.1471 11.5195C21.155 11.5219 21.1627 11.5245 21.1704 11.5272C21.1781 11.53 21.1858 11.5329 21.1933 11.536C21.2009 11.5392 21.2084 11.5425 21.2158 11.546C21.2232 11.5495 21.2305 11.5531 21.2377 11.557C21.2449 11.5609 21.252 11.5649 21.259 11.5691C21.2661 11.5733 21.273 11.5777 21.2798 11.5823C21.2866 11.5868 21.2933 11.5915 21.2999 11.5964C21.3064 11.6013 21.3129 11.6063 21.3192 11.6115C21.3255 11.6167 21.3317 11.622 21.3378 11.6275C21.3438 11.633 21.3498 11.6386 21.3555 11.6444C21.3613 11.6502 21.367 11.6561 21.3725 11.6622C21.378 11.6683 21.3833 11.6745 21.3885 11.6808C21.3937 11.6871 21.3987 11.6936 21.4036 11.7001C21.4085 11.7067 21.4132 11.7134 21.4177 11.7202C21.4223 11.727 21.4266 11.7339 21.4308 11.7409C21.4351 11.7479 21.4391 11.7551 21.443 11.7623C21.4468 11.7695 21.4505 11.7768 21.454 11.7842C21.4575 11.7916 21.4608 11.7991 21.4639 11.8066C21.4671 11.8142 21.47 11.8218 21.4728 11.8295C21.4755 11.8373 21.4781 11.845 21.4805 11.8528C21.4828 11.8607 21.485 11.8685 21.487 11.8765C21.489 11.8844 21.4908 11.8924 21.4924 11.9004C21.494 11.9085 21.4954 11.9165 21.4966 11.9246C21.4978 11.9327 21.4988 11.9408 21.4996 11.949C21.5004 11.9571 21.501 11.9653 21.5014 11.9735C21.5018 11.9816 21.502 11.9898 21.502 11.998ZM7.25399 3.83598C7.26109 3.83188 7.26827 3.82797 7.27553 3.82423C7.28282 3.8205 7.29018 3.81695 7.29763 3.81357C7.30509 3.8102 7.31261 3.807 7.32023 3.80398C7.32784 3.80098 7.33551 3.79816 7.34327 3.79552C7.35102 3.7929 7.35883 3.79046 7.3667 3.78821C7.37455 3.78598 7.38248 3.78393 7.39045 3.78207C7.39841 3.78021 7.40643 3.77855 7.41447 3.77708C7.42253 3.77561 7.43062 3.77434 7.43873 3.77328C7.44684 3.7722 7.45497 3.77134 7.46312 3.77068C7.47128 3.77001 7.47944 3.76954 7.48762 3.76927C7.4958 3.76901 7.50398 3.76894 7.51216 3.76906C7.52034 3.7692 7.52852 3.76954 7.5367 3.77007C7.54485 3.7706 7.55298 3.77134 7.56112 3.77227C7.56925 3.77321 7.57736 3.77434 7.58542 3.77567C7.59351 3.77701 7.60155 3.77855 7.60954 3.78027C7.61753 3.782 7.6255 3.78392 7.6334 3.78603C7.6413 3.78816 7.64915 3.79047 7.65693 3.79297C7.66473 3.79547 7.67245 3.79816 7.68011 3.80105C7.68777 3.80393 7.69534 3.80699 7.70284 3.81024C7.71037 3.81351 7.7178 3.81695 7.72513 3.82055C7.73247 3.82418 7.73971 3.82798 7.74686 3.83195C7.75401 3.83593 7.76106 3.84008 7.76802 3.84439C7.77496 3.84872 7.7818 3.85321 7.78853 3.85787C7.79526 3.86252 7.80187 3.86734 7.80836 3.8723C7.81485 3.87729 7.8212 3.88243 7.82746 3.88773C7.8337 3.89302 7.83979 3.89847 7.84577 3.90406C7.85174 3.90966 7.85758 3.91539 7.86327 3.92127C7.86897 3.92714 7.8745 3.93316 7.87989 3.93931C7.8853 3.94547 7.89053 3.95175 7.89562 3.95816C7.9007 3.96456 7.90565 3.97109 7.91041 3.97775C7.91516 3.98441 7.91978 3.99117 7.92421 3.99805C7.92864 4.00492 7.93288 4.0119 7.93698 4.01898L9.937 7.48299C9.94101 7.49007 9.94488 7.49724 9.94855 7.50451C9.95223 7.5118 9.95573 7.51916 9.95903 7.52659C9.96236 7.53402 9.9655 7.54154 9.96845 7.54916C9.97138 7.55675 9.97415 7.56441 9.97673 7.57215C9.97931 7.57986 9.9817 7.58766 9.98388 7.59552C9.98608 7.60337 9.98807 7.61124 9.98988 7.61919C9.99168 7.62713 9.9933 7.63512 9.99473 7.64314C9.99616 7.65118 9.99738 7.65922 9.99838 7.6673C9.99941 7.67539 10.0002 7.6835 10.0009 7.69163C10.0015 7.69977 10.0019 7.7079 10.0022 7.71603C10.0024 7.72416 10.0024 7.73232 10.0023 7.74048C10.0021 7.74861 10.0017 7.75674 10.0011 7.76487C10.0006 7.77301 9.99981 7.78112 9.99885 7.7892C9.99789 7.79729 9.99672 7.80535 9.99536 7.81339C9.994 7.82143 9.99245 7.82945 9.99072 7.83739C9.98896 7.84534 9.98702 7.85326 9.98488 7.86113C9.98275 7.86898 9.98041 7.87679 9.9779 7.88455C9.97539 7.8923 9.97267 7.89999 9.96979 7.90761C9.96691 7.91523 9.96381 7.92275 9.96056 7.93023C9.9573 7.9377 9.95387 7.94509 9.95024 7.95237C9.94661 7.95966 9.94281 7.96688 9.93885 7.97401C9.93487 7.98111 9.93072 7.98812 9.92641 7.99503C9.92209 8.00195 9.91762 8.00877 9.91295 8.01545C9.90831 8.02213 9.90351 8.02871 9.89854 8.03516C9.89355 8.04163 9.88841 8.04795 9.88314 8.05416C9.87787 8.06038 9.87245 8.06645 9.86687 8.07237C9.8613 8.0783 9.85558 8.08412 9.8497 8.08979C9.84384 8.09544 9.83784 8.10095 9.83172 8.10631C9.8256 8.11168 9.81934 8.11691 9.81295 8.12197C9.80655 8.12703 9.80005 8.13193 9.79342 8.13666C9.78679 8.14142 9.78006 8.14599 9.77322 8.15042C9.76635 8.15483 9.75941 8.15907 9.75236 8.16315C9.74531 8.16723 9.73813 8.17112 9.73089 8.17484C9.72365 8.17857 9.71631 8.18211 9.70891 8.18548C9.70148 8.18884 9.69398 8.19202 9.68641 8.19502C9.67884 8.19802 9.67117 8.20084 9.66346 8.20346C9.65575 8.20609 9.64797 8.20852 9.64014 8.21077C9.63231 8.21302 9.62444 8.21509 9.61649 8.21694C9.60855 8.21879 9.60058 8.22045 9.59256 8.22193C9.58455 8.22341 9.57651 8.22467 9.56845 8.22575C9.56036 8.22683 9.55227 8.22772 9.54414 8.2284C9.53601 8.22908 9.52787 8.22955 9.51974 8.22983C9.51161 8.23011 9.50345 8.2302 9.4953 8.23009C9.48716 8.22997 9.47901 8.22966 9.47087 8.22915C9.46274 8.22863 9.45463 8.22793 9.44655 8.22702C9.43844 8.2261 9.43038 8.225 9.42234 8.22369C9.4143 8.2224 9.40628 8.2209 9.39831 8.21919C9.39034 8.2175 9.38242 8.2156 9.37452 8.21352C9.36665 8.21143 9.35882 8.20916 9.35106 8.2067C9.3433 8.20423 9.33559 8.20159 9.32795 8.19875C9.32034 8.19591 9.31277 8.19287 9.30527 8.18966C9.29779 8.18645 9.29038 8.18307 9.28305 8.17948C9.27573 8.1759 9.26852 8.17215 9.26137 8.16823C9.25422 8.1643 9.24719 8.1602 9.24025 8.15593C9.23331 8.15166 9.22647 8.14723 9.21974 8.14262C9.21302 8.138 9.20643 8.13324 9.19994 8.12832C9.19345 8.12337 9.18709 8.11829 9.18084 8.11306C9.1746 8.10784 9.16848 8.10245 9.16251 8.09689C9.15653 8.09136 9.1507 8.08569 9.145 8.07985C9.13931 8.07402 9.13375 8.06806 9.12834 8.06197C9.12292 8.05587 9.11767 8.04964 9.11256 8.04329C9.10748 8.03694 9.10253 8.03047 9.09773 8.02388C9.09295 8.0173 9.08833 8.01057 9.08385 8.00375C9.0794 7.99693 9.07511 7.99002 9.07098 7.98298L7.07099 4.51899C7.06689 4.5119 7.06298 4.50471 7.05925 4.49743C7.05552 4.49015 7.05196 4.48278 7.04856 4.47533C7.04519 4.46788 7.042 4.46034 7.039 4.45273C7.03598 4.44512 7.03316 4.43745 7.03054 4.4297C7.02791 4.42196 7.02548 4.41416 7.02323 4.40628C7.02098 4.39841 7.01891 4.39048 7.01706 4.38252C7.01521 4.37455 7.01355 4.36654 7.01209 4.35849C7.01062 4.35045 7.00935 4.34237 7.00827 4.33426C7.00722 4.32615 7.00635 4.31802 7.00567 4.30986C7.00502 4.3017 7.00455 4.29353 7.00427 4.28534C7.00401 4.27717 7.00394 4.26899 7.00408 4.2608C7.0042 4.25263 7.00455 4.24446 7.00509 4.23629C7.00562 4.22812 7.00635 4.21997 7.00729 4.21184C7.00823 4.20372 7.00935 4.19562 7.01069 4.18754C7.01202 4.17948 7.01355 4.17144 7.01528 4.16345C7.01699 4.15545 7.01891 4.14749 7.02105 4.13959C7.02316 4.13168 7.02548 4.12384 7.02798 4.11605C7.03049 4.10826 7.03316 4.10053 7.03605 4.09288C7.03893 4.08522 7.042 4.07763 7.04526 4.07012C7.04852 4.06262 7.05194 4.05519 7.05557 4.04785C7.05918 4.04051 7.06298 4.03327 7.06696 4.02612C7.07092 4.01897 7.07507 4.01191 7.07941 4.00496C7.08372 3.99801 7.0882 3.99117 7.09286 3.98445C7.09752 3.97772 7.10233 3.97111 7.10732 3.96462C7.11231 3.95813 7.11745 3.95176 7.12274 3.94552C7.12802 3.93929 7.13345 3.93318 7.13905 3.9272C7.14466 3.92123 7.1504 3.9154 7.15628 3.90971C7.16216 3.90402 7.16816 3.89848 7.17433 3.89307C7.18049 3.88768 7.18677 3.88244 7.19317 3.87734C7.19957 3.87226 7.20611 3.86734 7.21277 3.86258C7.2194 3.85781 7.22617 3.85321 7.23304 3.84877C7.23991 3.84434 7.24689 3.84007 7.25399 3.83598ZM3.98898 7.39599C3.99308 7.38889 3.99734 7.38191 4.00178 7.37504C4.00622 7.36817 4.01082 7.3614 4.01559 7.35474C4.02035 7.34811 4.02527 7.34157 4.03035 7.33515C4.03544 7.32875 4.04069 7.32247 4.04608 7.3163C4.05149 7.31016 4.05703 7.30414 4.06272 7.29826C4.06841 7.29238 4.07423 7.28666 4.0802 7.28105C4.08617 7.27545 4.09228 7.27002 4.09853 7.26472C4.10477 7.25945 4.11113 7.25431 4.11763 7.24932C4.12412 7.24433 4.13073 7.23952 4.13746 7.23486C4.14418 7.2302 4.15101 7.22572 4.15797 7.22138C4.16492 7.21707 4.17198 7.21292 4.17913 7.20894C4.18627 7.20498 4.19352 7.20118 4.20086 7.19757C4.2082 7.19394 4.21562 7.19052 4.22312 7.18726C4.23064 7.184 4.23823 7.18093 4.24588 7.17805C4.25354 7.17516 4.26126 7.17247 4.26904 7.16996C4.27684 7.16745 4.28469 7.16516 4.29259 7.16302C4.3005 7.16091 4.30845 7.15899 4.31645 7.15726C4.32445 7.15555 4.33248 7.15402 4.34055 7.15269C4.34863 7.15135 4.35673 7.1502 4.36485 7.14927C4.37298 7.14835 4.38112 7.1476 4.3893 7.14706C4.39747 7.14652 4.40564 7.1462 4.41381 7.14608C4.422 7.14594 4.43018 7.14601 4.43835 7.14627C4.44654 7.14652 4.45471 7.14699 4.46287 7.14767C4.47102 7.14835 4.47916 7.14922 4.48727 7.15027C4.49538 7.15135 4.50345 7.15262 4.5115 7.15407C4.51955 7.15555 4.52755 7.15721 4.53552 7.15906C4.54349 7.16091 4.55141 7.16298 4.55929 7.16523C4.56716 7.16745 4.57497 7.16989 4.5827 7.17254C4.59045 7.17516 4.59813 7.17798 4.60574 7.181C4.61335 7.184 4.62088 7.18719 4.62834 7.19056C4.63579 7.19394 4.64316 7.1975 4.65044 7.20125C4.65772 7.20498 4.66491 7.20889 4.672 7.21299L7.27098 8.71299C7.27802 8.71709 7.28495 8.72138 7.29177 8.72586C7.29859 8.73031 7.3053 8.73493 7.31188 8.73971C7.31847 8.74452 7.32496 8.74946 7.33131 8.75455C7.33766 8.75966 7.3439 8.76491 7.34999 8.77032C7.35609 8.77573 7.36204 8.78129 7.36788 8.78698C7.37371 8.79268 7.37938 8.79852 7.38491 8.80449C7.39047 8.81047 7.39586 8.81659 7.40109 8.82282C7.40631 8.82908 7.4114 8.83543 7.41634 8.84192C7.42127 8.84841 7.42602 8.85502 7.43064 8.86175C7.43526 8.86848 7.43969 8.8753 7.44395 8.88223C7.44824 8.88917 7.45234 8.8962 7.45626 8.90335C7.46017 8.9105 7.46392 8.91772 7.46751 8.92505C7.47109 8.93237 7.47449 8.93977 7.4777 8.94727C7.48091 8.95475 7.48394 8.96232 7.48677 8.96996C7.48961 8.97758 7.49228 8.98529 7.49474 8.99305C7.4972 9.00083 7.49948 9.00866 7.50156 9.01653C7.50365 9.02441 7.50552 9.03233 7.50723 9.0403C7.50892 9.04827 7.51042 9.05628 7.51173 9.06432C7.51302 9.07236 7.51415 9.08045 7.51506 9.08853C7.51598 9.09662 7.51668 9.10475 7.5172 9.11288C7.51771 9.12102 7.51802 9.12915 7.51813 9.1373C7.51825 9.14544 7.51816 9.15359 7.51788 9.16175C7.51759 9.16988 7.51713 9.17802 7.51645 9.18615C7.51577 9.19426 7.51487 9.20234 7.5138 9.21043C7.51272 9.21852 7.51145 9.22655 7.50998 9.23457C7.5085 9.24259 7.50684 9.25056 7.50498 9.2585C7.50313 9.26645 7.50107 9.27432 7.49882 9.28215C7.49657 9.28998 7.49413 9.29776 7.49151 9.30547C7.48888 9.31318 7.48607 9.32084 7.48307 9.32841C7.48007 9.33598 7.47688 9.34348 7.47353 9.35091C7.47016 9.35834 7.46662 9.36566 7.46289 9.3729C7.45916 9.38014 7.45527 9.38731 7.4512 9.39437C7.44712 9.40142 7.44287 9.40838 7.43847 9.41523C7.43404 9.42207 7.42947 9.42882 7.42471 9.43545C7.41998 9.44209 7.41508 9.44858 7.41002 9.45495C7.40495 9.46135 7.39973 9.46761 7.39436 9.47373C7.38899 9.47987 7.38348 9.48587 7.37781 9.49173C7.37216 9.49759 7.36635 9.50331 7.36042 9.50888C7.35449 9.51446 7.3484 9.5199 7.34219 9.52517C7.33598 9.53045 7.32965 9.53558 7.3232 9.54055C7.31676 9.54552 7.31017 9.55032 7.30347 9.55499C7.29679 9.55963 7.28999 9.5641 7.28308 9.56844C7.27616 9.57275 7.26913 9.5769 7.26203 9.58086C7.25493 9.58484 7.24771 9.58864 7.24042 9.59227C7.23311 9.59588 7.22573 9.59933 7.21825 9.60259C7.21077 9.60584 7.20325 9.60894 7.19563 9.61182C7.18802 9.6147 7.18033 9.61742 7.17257 9.61993C7.16481 9.62244 7.15701 9.62478 7.14916 9.62691C7.14128 9.62905 7.13336 9.63097 7.12541 9.63273C7.11747 9.63448 7.10945 9.63603 7.10141 9.63739C7.09337 9.63875 7.08531 9.6399 7.07723 9.64086C7.06914 9.64182 7.06103 9.64259 7.0529 9.64316C7.04477 9.64372 7.03663 9.64409 7.02848 9.64426C7.02034 9.64442 7.01219 9.6444 7.00405 9.64416C6.9959 9.64393 6.98777 9.64351 6.97963 9.64288C6.9715 9.64224 6.96341 9.64142 6.95533 9.64039C6.94724 9.63938 6.93918 9.63816 6.93116 9.63673C6.92312 9.63531 6.91516 9.63369 6.90721 9.63188C6.89927 9.63008 6.89137 9.62809 6.88352 9.62588C6.87566 9.6237 6.86788 9.62131 6.86015 9.61873C6.85241 9.61616 6.84475 9.61339 6.83716 9.61044C6.82956 9.60748 6.82204 9.60434 6.81459 9.60104C6.80716 9.59773 6.7998 9.59422 6.79253 9.59054C6.78524 9.58686 6.77807 9.58302 6.77099 9.57898L4.17198 8.07898C4.16491 8.07488 4.15793 8.07062 4.15105 8.06619C4.14418 8.06176 4.13741 8.05716 4.13076 8.05241C4.1241 8.04762 4.11757 8.0427 4.11116 8.03762C4.10476 8.03253 4.09848 8.02728 4.09232 8.02189C4.08616 8.0165 4.08015 8.01097 4.07427 8.00527C4.0684 7.99958 4.06266 7.99374 4.05707 7.98777C4.05148 7.98179 4.04603 7.9757 4.04073 7.96944C4.03544 7.9632 4.0303 7.95685 4.02531 7.95036C4.02034 7.94387 4.01553 7.93726 4.01087 7.93053C4.00622 7.9238 4.00173 7.91696 3.9974 7.91C3.99309 7.90304 3.98894 7.89601 3.98495 7.88886C3.98099 7.88171 3.97719 7.87445 3.97356 7.86711C3.96995 7.85977 3.96651 7.85237 3.96325 7.84484C3.96 7.83734 3.95693 7.82977 3.95404 7.82211C3.95116 7.81445 3.94848 7.80671 3.94598 7.79893C3.94348 7.79112 3.94116 7.78327 3.93904 7.77537C3.93693 7.76748 3.93501 7.75953 3.93327 7.75154C3.93154 7.74355 3.93001 7.73551 3.92868 7.72742C3.92735 7.71934 3.92622 7.71125 3.92528 7.70312C3.92434 7.69498 3.92361 7.68685 3.92308 7.67867C3.92255 7.67052 3.92221 7.66234 3.92207 7.65416C3.92195 7.64598 3.92202 7.6378 3.92228 7.62962C3.92255 7.62144 3.92301 7.61328 3.92369 7.60512C3.92434 7.59697 3.92521 7.58884 3.92629 7.58073C3.92735 7.57259 3.92862 7.56451 3.93009 7.55647C3.93156 7.54843 3.93322 7.54041 3.93508 7.53245C3.93692 7.52448 3.93897 7.51655 3.94122 7.50868C3.94347 7.50083 3.94591 7.49302 3.94853 7.48527C3.95117 7.47751 3.95399 7.46984 3.95699 7.46223C3.96001 7.45461 3.9632 7.44709 3.96658 7.43963C3.96995 7.43218 3.97351 7.42482 3.97724 7.41753C3.98098 7.41024 3.98489 7.40307 3.98898 7.39599ZM2.5 12C2.5 11.9918 2.5002 11.9836 2.50059 11.9754C2.50099 11.9673 2.50159 11.9591 2.50239 11.951C2.5032 11.9428 2.50421 11.9347 2.50541 11.9266C2.5066 11.9185 2.508 11.9105 2.50961 11.9024C2.5112 11.8944 2.51299 11.8864 2.51498 11.8785C2.51696 11.8705 2.51914 11.8627 2.52152 11.8548C2.52389 11.847 2.52646 11.8392 2.52923 11.8315C2.53198 11.8238 2.53492 11.8162 2.53806 11.8086C2.54119 11.8011 2.5445 11.7936 2.548 11.7862C2.5515 11.7788 2.55518 11.7715 2.55904 11.7643C2.5629 11.7571 2.56693 11.75 2.57113 11.7429C2.57534 11.7359 2.57971 11.729 2.58426 11.7222C2.5888 11.7154 2.59352 11.7087 2.59839 11.7021C2.60327 11.6956 2.6083 11.6891 2.61348 11.6828C2.61867 11.6765 2.62402 11.6703 2.62952 11.6642C2.63502 11.6581 2.64066 11.6522 2.64644 11.6464C2.65222 11.6406 2.65814 11.635 2.6642 11.6295C2.67027 11.624 2.67646 11.6187 2.68279 11.6135C2.68912 11.6083 2.69557 11.6033 2.70215 11.5984C2.70871 11.5935 2.7154 11.5888 2.72221 11.5842C2.72901 11.5797 2.73591 11.5753 2.74293 11.5711C2.74996 11.5669 2.75709 11.5629 2.7643 11.559C2.77151 11.5552 2.77881 11.5515 2.78622 11.548C2.79361 11.5445 2.80109 11.5412 2.80865 11.5381C2.81621 11.5349 2.82384 11.532 2.83155 11.5292C2.83925 11.5265 2.84702 11.5239 2.85484 11.5215C2.86267 11.5191 2.87055 11.517 2.87849 11.515C2.88643 11.513 2.89441 11.5112 2.90245 11.5096C2.91048 11.508 2.91854 11.5066 2.92663 11.5054C2.93473 11.5042 2.94284 11.5032 2.95098 11.5024C2.95912 11.5016 2.96728 11.501 2.97545 11.5006C2.98363 11.5002 2.99181 11.5 2.99999 11.5L5.99999 11.5C6.00817 11.5 6.01635 11.5002 6.02453 11.5006C6.03271 11.501 6.04087 11.5016 6.049 11.5024C6.05713 11.5032 6.06527 11.5042 6.07335 11.5054C6.08144 11.5066 6.0895 11.508 6.09754 11.5096C6.10558 11.5112 6.11355 11.513 6.12149 11.515C6.12944 11.517 6.13731 11.5191 6.14514 11.5215C6.15297 11.5239 6.16073 11.5265 6.16844 11.5292C6.17615 11.532 6.18377 11.5349 6.19134 11.5381C6.19891 11.5412 6.20638 11.5445 6.21377 11.548C6.22117 11.5515 6.22848 11.5552 6.23568 11.559C6.2429 11.5629 6.25002 11.5669 6.25705 11.5711C6.26406 11.5753 6.27098 11.5797 6.27777 11.5842C6.28459 11.5888 6.29127 11.5935 6.29784 11.5984C6.30442 11.6033 6.31087 11.6083 6.3172 11.6135C6.32352 11.6187 6.32971 11.624 6.33578 11.6295C6.34185 11.635 6.34776 11.6406 6.35355 11.6464C6.35934 11.6522 6.36496 11.6581 6.37047 11.6642C6.37598 11.6703 6.38132 11.6765 6.3865 11.6828C6.39168 11.6891 6.39672 11.6956 6.40159 11.7021C6.40647 11.7087 6.41118 11.7154 6.41573 11.7222C6.42027 11.729 6.42466 11.7359 6.42885 11.7429C6.43305 11.75 6.43708 11.7571 6.44095 11.7643C6.44481 11.7715 6.44849 11.7788 6.45198 11.7862C6.45548 11.7936 6.45881 11.8011 6.46192 11.8086C6.46506 11.8162 6.46802 11.8238 6.47076 11.8315C6.47352 11.8392 6.4761 11.847 6.47847 11.8548C6.48084 11.8627 6.48302 11.8705 6.48501 11.8785C6.487 11.8864 6.48878 11.8944 6.49038 11.9024C6.49199 11.9105 6.49337 11.9185 6.49457 11.9266C6.49577 11.9347 6.49677 11.9428 6.49759 11.951C6.49839 11.9591 6.499 11.9673 6.4994 11.9754C6.4998 11.9836 6.49998 11.9918 6.49998 12C6.49998 12.0082 6.4998 12.0163 6.4994 12.0245C6.499 12.0327 6.49839 12.0409 6.49759 12.049C6.49677 12.0571 6.49577 12.0653 6.49457 12.0733C6.49337 12.0814 6.49199 12.0895 6.49038 12.0975C6.48878 12.1056 6.487 12.1135 6.48501 12.1215C6.48302 12.1294 6.48084 12.1373 6.47847 12.1451C6.4761 12.153 6.47352 12.1607 6.47076 12.1684C6.46802 12.1761 6.46506 12.1838 6.46192 12.1913C6.45881 12.1989 6.45548 12.2064 6.45198 12.2138C6.44849 12.2211 6.44481 12.2285 6.44095 12.2357C6.43708 12.2429 6.43305 12.25 6.42885 12.257C6.42466 12.2641 6.42027 12.271 6.41573 12.2778C6.41118 12.2846 6.40647 12.2912 6.40159 12.2978C6.39672 12.3044 6.39168 12.3109 6.3865 12.3172C6.38132 12.3235 6.37598 12.3297 6.37047 12.3358C6.36496 12.3418 6.35934 12.3477 6.35355 12.3535C6.34776 12.3593 6.34185 12.365 6.33578 12.3705C6.32971 12.376 6.32352 12.3813 6.3172 12.3865C6.31087 12.3917 6.30442 12.3967 6.29784 12.4016C6.29127 12.4065 6.28459 12.4112 6.27777 12.4157C6.27098 12.4203 6.26406 12.4246 6.25705 12.4288C6.25002 12.433 6.2429 12.4371 6.23568 12.4409C6.22848 12.4448 6.22117 12.4485 6.21377 12.452C6.20638 12.4555 6.19891 12.4588 6.19134 12.4619C6.18377 12.4651 6.17615 12.468 6.16844 12.4707C6.16073 12.4735 6.15297 12.4761 6.14514 12.4785C6.13731 12.4808 6.12944 12.483 6.12149 12.485C6.11355 12.487 6.10558 12.4888 6.09754 12.4904C6.0895 12.492 6.08144 12.4934 6.07335 12.4946C6.06527 12.4958 6.05713 12.4968 6.049 12.4976C6.04087 12.4984 6.03271 12.499 6.02453 12.4994C6.01635 12.4998 6.00817 12.5 5.99999 12.5L2.99999 12.5C2.99181 12.5 2.98363 12.4998 2.97545 12.4994C2.96728 12.499 2.95912 12.4984 2.95098 12.4976C2.94284 12.4968 2.93473 12.4958 2.92663 12.4946C2.91854 12.4934 2.91048 12.492 2.90245 12.4904C2.89441 12.4888 2.88643 12.487 2.87849 12.485C2.87055 12.483 2.86267 12.4808 2.85484 12.4785C2.84702 12.4761 2.83925 12.4735 2.83155 12.4707C2.82384 12.468 2.81621 12.4651 2.80865 12.4619C2.80109 12.4588 2.79361 12.4555 2.78622 12.452C2.77881 12.4485 2.77151 12.4448 2.7643 12.4409C2.75709 12.4371 2.74996 12.433 2.74293 12.4288C2.73591 12.4246 2.72901 12.4203 2.72221 12.4157C2.7154 12.4112 2.70871 12.4065 2.70215 12.4016C2.69557 12.3967 2.68912 12.3917 2.68279 12.3865C2.67646 12.3813 2.67027 12.376 2.6642 12.3705C2.65814 12.365 2.65222 12.3593 2.64644 12.3535C2.64066 12.3477 2.63502 12.3418 2.62952 12.3358C2.62402 12.3297 2.61867 12.3235 2.61348 12.3172C2.6083 12.3109 2.60327 12.3044 2.59839 12.2978C2.59352 12.2912 2.5888 12.2846 2.58426 12.2778C2.57971 12.271 2.57534 12.2641 2.57113 12.257C2.56693 12.25 2.5629 12.2429 2.55904 12.2357C2.55518 12.2285 2.5515 12.2211 2.548 12.2138C2.5445 12.2064 2.54119 12.1989 2.53806 12.1913C2.53492 12.1838 2.53198 12.1761 2.52923 12.1684C2.52646 12.1607 2.52389 12.153 2.52152 12.1451C2.51914 12.1373 2.51696 12.1294 2.51498 12.1215C2.51299 12.1135 2.5112 12.1055 2.50961 12.0975C2.508 12.0895 2.5066 12.0814 2.50541 12.0733C2.50421 12.0653 2.5032 12.0571 2.50239 12.049C2.50159 12.0409 2.50099 12.0327 2.50059 12.0245C2.5002 12.0163 2.5 12.0082 2.5 12ZM3.955 16.626C3.95091 16.6189 3.94699 16.6117 3.94326 16.6044C3.93951 16.5972 3.93595 16.5898 3.93257 16.5823C3.9292 16.5749 3.92601 16.5674 3.92301 16.5597C3.91999 16.5521 3.91717 16.5445 3.91455 16.5367C3.91191 16.529 3.90947 16.5211 3.90723 16.5133C3.90498 16.5054 3.90293 16.4975 3.90107 16.4895C3.89921 16.4816 3.89755 16.4735 3.89608 16.4655C3.89461 16.4574 3.89334 16.4494 3.89228 16.4412C3.89122 16.4331 3.89035 16.425 3.88968 16.4169C3.88901 16.4087 3.88854 16.4005 3.88827 16.3924C3.88801 16.3842 3.88794 16.376 3.88806 16.3678C3.8882 16.3596 3.88854 16.3515 3.88907 16.3433C3.88962 16.3351 3.89035 16.327 3.89127 16.3189C3.89221 16.3107 3.89335 16.3026 3.8947 16.2946C3.89602 16.2865 3.89755 16.2784 3.89927 16.2704C3.901 16.2624 3.90292 16.2545 3.90503 16.2466C3.90716 16.2387 3.90947 16.2308 3.91197 16.223C3.91447 16.2152 3.91716 16.2075 3.92005 16.1999C3.92293 16.1922 3.926 16.1846 3.92927 16.1771C3.93252 16.1696 3.93595 16.1622 3.93955 16.1548C3.94318 16.1475 3.94698 16.1403 3.95095 16.1331C3.95493 16.126 3.95908 16.1189 3.96339 16.112C3.96772 16.105 3.97221 16.0982 3.97687 16.0914C3.98152 16.0847 3.98634 16.0781 3.99133 16.0716C3.99631 16.0651 4.00145 16.0588 4.00673 16.0525C4.01202 16.0463 4.01747 16.0402 4.02306 16.0342C4.02866 16.0282 4.03439 16.0224 4.04027 16.0167C4.04616 16.011 4.05217 16.0055 4.05831 16.0001C4.06447 15.9947 4.07075 15.9894 4.07716 15.9844C4.08358 15.9793 4.09011 15.9743 4.09675 15.9696C4.10341 15.9648 4.11017 15.9602 4.11705 15.9558C4.12392 15.9513 4.13091 15.9471 4.138 15.943L5.86998 14.943C5.87709 14.9388 5.88426 14.9349 5.89155 14.9311C5.89884 14.9273 5.90622 14.9236 5.91367 14.9202C5.92115 14.9167 5.9287 14.9135 5.93631 14.9104C5.94393 14.9074 5.95164 14.9045 5.9594 14.9018C5.96716 14.8991 5.97498 14.8966 5.98288 14.8943C5.99078 14.892 5.9987 14.8899 6.0067 14.888C6.01469 14.8861 6.02273 14.8844 6.03079 14.8829C6.03888 14.8814 6.04698 14.8801 6.05512 14.879C6.06325 14.8778 6.07143 14.8769 6.07961 14.8762C6.08779 14.8755 6.09599 14.875 6.10422 14.8747C6.11242 14.8744 6.12063 14.8743 6.12885 14.8744C6.13708 14.8745 6.14528 14.8748 6.15348 14.8753C6.16169 14.8758 6.16987 14.8765 6.17805 14.8774C6.1862 14.8783 6.19434 14.8794 6.20245 14.8807C6.21058 14.882 6.21864 14.8835 6.22668 14.8852C6.23472 14.8869 6.24271 14.8889 6.25066 14.891C6.2586 14.893 6.26648 14.8953 6.27433 14.8978C6.28216 14.9003 6.28991 14.903 6.2976 14.9059C6.30531 14.9088 6.31293 14.9118 6.32048 14.9151C6.32802 14.9183 6.3355 14.9217 6.34288 14.9254C6.35027 14.929 6.35753 14.9328 6.36473 14.9368C6.37192 14.9407 6.379 14.9449 6.38598 14.9492C6.39299 14.9535 6.39986 14.958 6.40663 14.9627C6.41341 14.9673 6.42004 14.9722 6.42655 14.9772C6.43309 14.9821 6.43949 14.9873 6.44577 14.9926C6.45203 14.9979 6.45817 15.0034 6.46417 15.009C6.4702 15.0146 6.47606 15.0204 6.48177 15.0262C6.48749 15.0321 6.49307 15.0382 6.49848 15.0444C6.5039 15.0505 6.50917 15.0568 6.51428 15.0633C6.51941 15.0697 6.52436 15.0763 6.52914 15.0829C6.53395 15.0896 6.53856 15.0964 6.54302 15.1033C6.54747 15.1102 6.55176 15.1172 6.55586 15.1243C6.55996 15.1314 6.5639 15.1387 6.56765 15.146C6.5714 15.1533 6.57496 15.1607 6.57836 15.1682C6.58176 15.1756 6.58495 15.1832 6.58797 15.1909C6.59099 15.1985 6.5938 15.2062 6.59643 15.214C6.59908 15.2218 6.60152 15.2296 6.60377 15.2375C6.60602 15.2454 6.60805 15.2534 6.60991 15.2614C6.61176 15.2694 6.61342 15.2774 6.6149 15.2855C6.61635 15.2936 6.61762 15.3017 6.61867 15.3099C6.61973 15.318 6.62059 15.3262 6.62125 15.3344C6.62191 15.3426 6.62235 15.3508 6.62261 15.359C6.62287 15.3672 6.62291 15.3754 6.62275 15.3836C6.62259 15.3919 6.62223 15.4001 6.6217 15.4083C6.62113 15.4165 6.62038 15.4246 6.61942 15.4328C6.61846 15.441 6.61729 15.4491 6.61593 15.4572C6.61457 15.4653 6.613 15.4734 6.61124 15.4814C6.60948 15.4894 6.60754 15.4974 6.60538 15.5053C6.60323 15.5133 6.60088 15.5211 6.59833 15.5289C6.5958 15.5367 6.59308 15.5445 6.59015 15.5522C6.58722 15.5599 6.58413 15.5675 6.58082 15.575C6.57752 15.5825 6.57405 15.59 6.57037 15.5973C6.56669 15.6047 6.56284 15.6119 6.55884 15.6191C6.55483 15.6263 6.55063 15.6333 6.54625 15.6403C6.54187 15.6472 6.53734 15.6541 6.53263 15.6608C6.52792 15.6676 6.52305 15.6742 6.51801 15.6807C6.51297 15.6871 6.50779 15.6935 6.50245 15.6998C6.4971 15.706 6.49159 15.7121 6.48595 15.7181C6.4803 15.7241 6.47451 15.7299 6.46858 15.7355C6.46265 15.7412 6.45655 15.7468 6.45034 15.7521C6.44413 15.7575 6.4378 15.7628 6.43134 15.7678C6.42487 15.7729 6.41828 15.7778 6.41158 15.7825C6.40485 15.7873 6.39803 15.7919 6.39112 15.7963C6.38418 15.8007 6.37715 15.8049 6.37 15.809L4.63799 16.809C4.6309 16.8131 4.62372 16.817 4.61645 16.8207C4.60917 16.8245 4.6018 16.828 4.59435 16.8314C4.5869 16.8348 4.57937 16.838 4.57176 16.841C4.56415 16.844 4.55647 16.8468 4.54872 16.8494C4.54097 16.8521 4.53316 16.8545 4.52528 16.8568C4.51742 16.859 4.50951 16.8611 4.50154 16.8629C4.49357 16.8648 4.48556 16.8664 4.47752 16.8679C4.46945 16.8694 4.46137 16.8706 4.45326 16.8717C4.44515 16.8728 4.43702 16.8736 4.42886 16.8743C4.4207 16.875 4.41254 16.8754 4.40437 16.8757C4.39618 16.876 4.388 16.876 4.37983 16.8759C4.37164 16.8758 4.36346 16.8754 4.35529 16.8749C4.34713 16.8744 4.33899 16.8736 4.33087 16.8727C4.32273 16.8717 4.31462 16.8706 4.30656 16.8693C4.29848 16.868 4.29044 16.8664 4.28245 16.8647C4.27445 16.863 4.26649 16.8611 4.25859 16.8589C4.25068 16.8568 4.24284 16.8545 4.23505 16.852C4.22726 16.8495 4.21953 16.8468 4.21187 16.8439C4.20422 16.841 4.19664 16.838 4.18914 16.8347C4.18162 16.8315 4.17419 16.828 4.16685 16.8244C4.15952 16.8208 4.15228 16.817 4.14512 16.813C4.13797 16.8091 4.13091 16.8049 4.12396 16.8006C4.11702 16.7963 4.11019 16.7918 4.10345 16.7871C4.09672 16.7825 4.09011 16.7776 4.08362 16.7727C4.07714 16.7677 4.07077 16.7625 4.06452 16.7572C4.05829 16.7519 4.05219 16.7465 4.04622 16.7409C4.04024 16.7353 4.0344 16.7296 4.02871 16.7237C4.02302 16.7178 4.01748 16.7118 4.01209 16.7056C4.00669 16.6995 4.00145 16.6932 3.99637 16.6868C3.99127 16.6804 3.98634 16.6739 3.98158 16.6672C3.97681 16.6606 3.97221 16.6538 3.96777 16.6469C3.96335 16.64 3.95909 16.6331 3.955 16.626ZM7.08498 20.527C7.07791 20.5229 7.07092 20.5186 7.06405 20.5142C7.05719 20.5098 7.05041 20.5051 7.04376 20.5004C7.0371 20.4956 7.03056 20.4907 7.02416 20.4856C7.01777 20.4805 7.01148 20.4753 7.00532 20.4699C6.99916 20.4645 6.99316 20.459 6.98727 20.4533C6.98139 20.4476 6.97567 20.4417 6.97007 20.4358C6.96447 20.4298 6.95903 20.4237 6.95373 20.4174C6.94844 20.4112 6.9433 20.4048 6.93831 20.3983C6.93334 20.3919 6.92854 20.3852 6.92387 20.3785C6.91921 20.3718 6.91473 20.365 6.9104 20.358C6.90609 20.351 6.90194 20.344 6.89795 20.3369C6.89399 20.3297 6.8902 20.3225 6.88656 20.3151C6.88295 20.3078 6.87951 20.3004 6.87625 20.2929C6.87299 20.2853 6.86995 20.2778 6.86706 20.2701C6.86418 20.2624 6.86148 20.2547 6.85898 20.2469C6.85647 20.2391 6.85417 20.2313 6.85204 20.2234C6.84993 20.2155 6.84801 20.2075 6.84627 20.1995C6.84454 20.1915 6.84302 20.1835 6.84168 20.1754C6.84034 20.1673 6.83922 20.1593 6.83828 20.1511C6.83734 20.143 6.83662 20.1349 6.83608 20.1267C6.83554 20.1185 6.83521 20.1103 6.83507 20.1022C6.83495 20.094 6.83502 20.0858 6.83528 20.0776C6.83554 20.0694 6.83601 20.0613 6.83669 20.0531C6.83734 20.045 6.83821 20.0368 6.83929 20.0287C6.84034 20.0206 6.84161 20.0125 6.84309 20.0045C6.84456 19.9964 6.84623 19.9884 6.84808 19.9805C6.84993 19.9725 6.85199 19.9646 6.85422 19.9567C6.85647 19.9488 6.85891 19.941 6.86153 19.9333C6.86418 19.9255 6.86699 19.9179 6.86999 19.9102C6.87302 19.9026 6.8762 19.8951 6.87958 19.8876C6.88295 19.8802 6.88652 19.8728 6.89024 19.8655C6.89397 19.8582 6.89788 19.8511 6.90198 19.844L7.90199 18.112C7.90612 18.105 7.91041 18.098 7.91486 18.0912C7.91934 18.0844 7.92395 18.0777 7.92873 18.0711C7.93352 18.0645 7.93846 18.058 7.94357 18.0517C7.94868 18.0453 7.95393 18.0391 7.95934 18.033C7.96476 18.0269 7.97031 18.021 7.97601 18.0151C7.9817 18.0093 7.98754 18.0036 7.99352 17.9981C7.99949 17.9926 8.00561 17.9872 8.01184 17.9819C8.01808 17.9767 8.02445 17.9716 8.03094 17.9667C8.03744 17.9618 8.04402 17.957 8.05075 17.9524C8.05748 17.9478 8.0643 17.9433 8.07126 17.9391C8.0782 17.9348 8.08523 17.9307 8.09237 17.9268C8.0995 17.9229 8.10672 17.9191 8.11405 17.9155C8.12139 17.912 8.1288 17.9086 8.13627 17.9053C8.14375 17.9021 8.15132 17.8991 8.15896 17.8963C8.1666 17.8934 8.17431 17.8908 8.18207 17.8883C8.18983 17.8858 8.19766 17.8836 8.20553 17.8815C8.21341 17.8794 8.22133 17.8775 8.2293 17.8758C8.23727 17.8741 8.24528 17.8726 8.25332 17.8713C8.26136 17.87 8.26945 17.8689 8.27753 17.868C8.28562 17.8671 8.29375 17.8664 8.30188 17.8659C8.31002 17.8654 8.31815 17.8651 8.32631 17.8649C8.33444 17.8648 8.34259 17.8649 8.35073 17.8652C8.35886 17.8655 8.36699 17.8659 8.37512 17.8666C8.38326 17.8673 8.39134 17.8682 8.39941 17.8693C8.40749 17.8704 8.41553 17.8716 8.42355 17.8731C8.43156 17.8746 8.43953 17.8762 8.44748 17.8781C8.45542 17.8799 8.4633 17.882 8.47112 17.8843C8.47895 17.8865 8.48673 17.8889 8.49445 17.8916C8.50216 17.8942 8.5098 17.897 8.51737 17.9C8.52494 17.903 8.53244 17.9062 8.53987 17.9095C8.5473 17.9129 8.55463 17.9165 8.56187 17.9202C8.56912 17.9239 8.57627 17.9278 8.58332 17.9319C8.59037 17.936 8.59734 17.9402 8.60418 17.9446C8.61102 17.949 8.61775 17.9536 8.62438 17.9583C8.63102 17.9631 8.63751 17.968 8.64391 17.9731C8.6503 17.9781 8.65656 17.9833 8.66268 17.9887C8.6688 17.9941 8.6748 17.9996 8.68066 18.0052C8.68654 18.0109 8.69226 18.0167 8.69784 18.0226C8.70339 18.0286 8.70883 18.0346 8.7141 18.0409C8.71938 18.0471 8.72451 18.0534 8.72948 18.0598C8.73447 18.0663 8.73927 18.0729 8.74391 18.0796C8.74858 18.0863 8.75305 18.0931 8.75737 18.1C8.76168 18.1069 8.76583 18.1139 8.76981 18.121C8.77377 18.1281 8.77757 18.1353 8.7812 18.1426C8.78484 18.1499 8.78826 18.1573 8.79152 18.1648C8.79477 18.1722 8.79787 18.1798 8.80075 18.1874C8.80363 18.195 8.80635 18.2027 8.80886 18.2105C8.81137 18.2182 8.81371 18.226 8.81584 18.2339C8.81798 18.2417 8.81992 18.2496 8.82168 18.2576C8.82344 18.2656 8.82498 18.2735 8.82632 18.2816C8.82768 18.2896 8.82885 18.2977 8.82981 18.3058C8.83077 18.3139 8.83155 18.322 8.83211 18.3301C8.83267 18.3382 8.83305 18.3464 8.83321 18.3545C8.83337 18.3627 8.83335 18.3708 8.83312 18.3789C8.83288 18.3871 8.83246 18.3952 8.83183 18.4033C8.8312 18.4115 8.83038 18.4196 8.82937 18.4277C8.82834 18.4358 8.82712 18.4438 8.82571 18.4518C8.82428 18.4599 8.82266 18.4678 8.82086 18.4758C8.81905 18.4837 8.81706 18.4916 8.81486 18.4995C8.81268 18.5073 8.81029 18.5151 8.80771 18.5228C8.80513 18.5306 8.80237 18.5382 8.79944 18.5458C8.79648 18.5534 8.79334 18.5609 8.79004 18.5684C8.78673 18.5758 8.78322 18.5832 8.77954 18.5904C8.77586 18.5977 8.77202 18.6049 8.76798 18.612L7.768 20.344C7.7639 20.3511 7.75963 20.3581 7.7552 20.3649C7.75077 20.3718 7.74616 20.3786 7.7414 20.3852C7.73664 20.3919 7.73172 20.3984 7.72663 20.4048C7.72155 20.4112 7.7163 20.4175 7.71091 20.4237C7.70549 20.4298 7.69996 20.4358 7.69427 20.4417C7.68857 20.4476 7.68276 20.4533 7.67678 20.4589C7.6708 20.4645 7.66469 20.4699 7.65845 20.4752C7.65222 20.4805 7.64584 20.4857 7.63935 20.4906C7.63286 20.4956 7.62625 20.5004 7.61952 20.5051C7.6128 20.5098 7.60598 20.5142 7.59902 20.5186C7.59205 20.5229 7.585 20.527 7.57785 20.531C7.5707 20.535 7.56346 20.5388 7.55613 20.5424C7.54879 20.546 7.54136 20.5495 7.53386 20.5527C7.52634 20.556 7.51877 20.559 7.5111 20.5619C7.50344 20.5648 7.49573 20.5675 7.48792 20.57C7.48014 20.5725 7.47229 20.5748 7.46439 20.5769C7.45649 20.579 7.44852 20.581 7.44053 20.5827C7.43254 20.5844 7.4245 20.586 7.41644 20.5873C7.40835 20.5886 7.40027 20.5898 7.39213 20.5907C7.384 20.5916 7.37587 20.5924 7.36769 20.5929C7.35951 20.5934 7.35135 20.5938 7.34317 20.5939C7.33499 20.594 7.32681 20.594 7.31863 20.5937C7.31045 20.5934 7.30227 20.593 7.29412 20.5923C7.28596 20.5916 7.27783 20.5907 7.26972 20.5897C7.26161 20.5886 7.25352 20.5874 7.24548 20.5859C7.23745 20.5844 7.22943 20.5828 7.22146 20.5809C7.21349 20.579 7.20557 20.577 7.1977 20.5748C7.18982 20.5725 7.18202 20.5701 7.17428 20.5674C7.16652 20.5648 7.15886 20.562 7.15124 20.559C7.14362 20.556 7.1361 20.5528 7.12865 20.5494C7.1212 20.546 7.11384 20.5425 7.10655 20.5387C7.09926 20.535 7.09209 20.5311 7.08498 20.527ZM11.998 21.453C11.9898 21.453 11.9816 21.4528 11.9735 21.4524C11.9653 21.452 11.9571 21.4514 11.949 21.4506C11.9408 21.4498 11.9327 21.4488 11.9246 21.4476C11.9165 21.4464 11.9085 21.445 11.9005 21.4434C11.8924 21.4418 11.8844 21.44 11.8765 21.438C11.8686 21.436 11.8607 21.4338 11.8529 21.4314C11.845 21.4291 11.8373 21.4265 11.8296 21.4238C11.8218 21.421 11.8142 21.418 11.8067 21.4149C11.7991 21.4118 11.7916 21.4085 11.7842 21.405C11.7768 21.4015 11.7695 21.3978 11.7623 21.3939C11.7551 21.3901 11.7479 21.386 11.7409 21.3819C11.7339 21.3777 11.727 21.3733 11.7202 21.3687C11.7134 21.3642 11.7067 21.3595 11.7001 21.3546C11.6936 21.3497 11.6871 21.3447 11.6808 21.3395C11.6745 21.3343 11.6683 21.329 11.6622 21.3235C11.6561 21.318 11.6502 21.3123 11.6444 21.3065C11.6387 21.3008 11.633 21.2948 11.6275 21.2888C11.622 21.2827 11.6167 21.2765 11.6115 21.2702C11.6063 21.2639 11.6013 21.2574 11.5964 21.2508C11.5915 21.2442 11.5868 21.2376 11.5823 21.2308C11.5777 21.224 11.5733 21.217 11.5691 21.21C11.5649 21.203 11.5609 21.1959 11.557 21.1887C11.5532 21.1815 11.5495 21.1741 11.546 21.1668C11.5425 21.1594 11.5392 21.1519 11.536 21.1443C11.5329 21.1368 11.53 21.1291 11.5272 21.1214C11.5245 21.1137 11.5219 21.106 11.5195 21.0981C11.5172 21.0903 11.515 21.0824 11.513 21.0745C11.511 21.0665 11.5092 21.0586 11.5076 21.0505C11.506 21.0425 11.5046 21.0344 11.5034 21.0264C11.5022 21.0183 11.5012 21.0101 11.5004 21.002C11.4996 20.9939 11.499 20.9857 11.4986 20.9775C11.4982 20.9693 11.498 20.9612 11.498 20.953L11.498 19.953C11.498 19.9448 11.4982 19.9366 11.4986 19.9284C11.499 19.9203 11.4996 19.9121 11.5004 19.904C11.5012 19.8958 11.5022 19.8877 11.5034 19.8796C11.5046 19.8715 11.506 19.8635 11.5076 19.8554C11.5092 19.8474 11.511 19.8394 11.513 19.8315C11.515 19.8235 11.5172 19.8157 11.5195 19.8078C11.5219 19.8 11.5245 19.7922 11.5272 19.7845C11.53 19.7768 11.5329 19.7692 11.536 19.7616C11.5392 19.7541 11.5425 19.7466 11.546 19.7392C11.5495 19.7318 11.5532 19.7245 11.557 19.7173C11.5609 19.7101 11.5649 19.703 11.5691 19.6959C11.5733 19.6889 11.5777 19.682 11.5823 19.6752C11.5868 19.6684 11.5915 19.6617 11.5964 19.6551C11.6013 19.6486 11.6063 19.6421 11.6115 19.6358C11.6167 19.6295 11.622 19.6233 11.6275 19.6172C11.633 19.6111 11.6387 19.6052 11.6444 19.5994C11.6502 19.5936 11.6561 19.588 11.6622 19.5825C11.6683 19.577 11.6745 19.5717 11.6808 19.5665C11.6871 19.5613 11.6936 19.5563 11.7001 19.5514C11.7067 19.5465 11.7134 19.5418 11.7202 19.5372C11.727 19.5327 11.7339 19.5283 11.7409 19.5241C11.7479 19.5199 11.7551 19.5159 11.7623 19.512C11.7695 19.5082 11.7768 19.5045 11.7842 19.501C11.7916 19.4975 11.7991 19.4942 11.8067 19.4911C11.8142 19.4879 11.8218 19.485 11.8296 19.4822C11.8373 19.4795 11.845 19.4769 11.8529 19.4745C11.8607 19.4721 11.8686 19.47 11.8765 19.468C11.8844 19.466 11.8924 19.4642 11.9005 19.4626C11.9085 19.461 11.9165 19.4596 11.9246 19.4584C11.9327 19.4572 11.9408 19.4562 11.949 19.4554C11.9571 19.4546 11.9653 19.454 11.9735 19.4536C11.9816 19.4532 11.9898 19.453 11.998 19.453C12.0062 19.453 12.0143 19.4532 12.0225 19.4536C12.0307 19.454 12.0389 19.4546 12.047 19.4554C12.0551 19.4562 12.0633 19.4572 12.0714 19.4584C12.0794 19.4596 12.0875 19.461 12.0955 19.4626C12.1036 19.4642 12.1115 19.466 12.1195 19.468C12.1274 19.47 12.1353 19.4721 12.1431 19.4745C12.151 19.4769 12.1587 19.4795 12.1664 19.4822C12.1742 19.485 12.1818 19.4879 12.1893 19.4911C12.1969 19.4942 12.2044 19.4975 12.2118 19.501C12.2192 19.5045 12.2265 19.5082 12.2337 19.512C12.2409 19.5159 12.248 19.5199 12.255 19.5241C12.262 19.5283 12.269 19.5327 12.2758 19.5372C12.2826 19.5418 12.2893 19.5465 12.2958 19.5514C12.3024 19.5563 12.3089 19.5613 12.3152 19.5665C12.3215 19.5717 12.3277 19.577 12.3338 19.5825C12.3398 19.588 12.3458 19.5936 12.3516 19.5994C12.3573 19.6052 12.363 19.6111 12.3685 19.6172C12.374 19.6233 12.3793 19.6295 12.3845 19.6358C12.3897 19.6421 12.3947 19.6486 12.3996 19.6551C12.4045 19.6617 12.4092 19.6684 12.4137 19.6752C12.4183 19.682 12.4226 19.6889 12.4269 19.6959C12.4311 19.703 12.4351 19.7101 12.439 19.7173C12.4428 19.7245 12.4465 19.7318 12.45 19.7392C12.4535 19.7466 12.4568 19.7541 12.4599 19.7616C12.463 19.7692 12.466 19.7768 12.4688 19.7845C12.4715 19.7922 12.4741 19.8 12.4765 19.8078C12.4788 19.8157 12.481 19.8235 12.483 19.8315C12.485 19.8394 12.4868 19.8474 12.4884 19.8554C12.49 19.8635 12.4914 19.8715 12.4926 19.8796C12.4938 19.8877 12.4948 19.8958 12.4956 19.904C12.4964 19.9121 12.497 19.9203 12.4974 19.9284C12.4978 19.9366 12.498 19.9448 12.498 19.953L12.498 20.953C12.498 20.9612 12.4978 20.9693 12.4974 20.9775C12.497 20.9857 12.4964 20.9938 12.4956 21.002C12.4948 21.0101 12.4938 21.0183 12.4926 21.0264C12.4914 21.0344 12.49 21.0425 12.4884 21.0505C12.4868 21.0586 12.485 21.0665 12.483 21.0745C12.481 21.0824 12.4788 21.0903 12.4765 21.0981C12.4741 21.1059 12.4715 21.1137 12.4688 21.1214C12.466 21.1291 12.463 21.1368 12.4599 21.1443C12.4568 21.1519 12.4535 21.1594 12.45 21.1668C12.4465 21.1741 12.4428 21.1815 12.439 21.1887C12.4351 21.1959 12.4311 21.203 12.4269 21.21C12.4227 21.217 12.4183 21.224 12.4137 21.2308C12.4092 21.2376 12.4045 21.2442 12.3996 21.2508C12.3947 21.2574 12.3897 21.2639 12.3845 21.2702C12.3793 21.2765 12.374 21.2827 12.3685 21.2888C12.363 21.2948 12.3573 21.3008 12.3516 21.3065C12.3458 21.3123 12.3398 21.318 12.3338 21.3235C12.3277 21.329 12.3215 21.3343 12.3152 21.3395C12.3089 21.3447 12.3024 21.3497 12.2958 21.3546C12.2893 21.3595 12.2826 21.3642 12.2758 21.3687C12.269 21.3733 12.262 21.3777 12.255 21.3819C12.248 21.386 12.2409 21.3901 12.2337 21.3939C12.2265 21.3978 12.2192 21.4015 12.2118 21.405C12.2044 21.4085 12.1969 21.4118 12.1893 21.4149C12.1818 21.418 12.1742 21.421 12.1664 21.4238C12.1587 21.4265 12.151 21.4291 12.1431 21.4314C12.1353 21.4338 12.1274 21.436 12.1195 21.438C12.1115 21.44 12.1036 21.4418 12.0955 21.4434C12.0875 21.445 12.0794 21.4464 12.0714 21.4476C12.0633 21.4488 12.0551 21.4498 12.047 21.4506C12.0389 21.4514 12.0307 21.452 12.0225 21.4524C12.0143 21.4528 12.0062 21.453 11.998 21.453ZM16.5 20C16.4918 20 16.4836 19.9998 16.4755 19.9994C16.4673 19.999 16.4591 19.9984 16.451 19.9976C16.4429 19.9968 16.4347 19.9958 16.4266 19.9946C16.4185 19.9934 16.4105 19.992 16.4024 19.9904C16.3944 19.9888 16.3864 19.987 16.3785 19.985C16.3705 19.983 16.3627 19.9808 16.3548 19.9785C16.347 19.9761 16.3393 19.9735 16.3315 19.9707C16.3238 19.968 16.3162 19.9651 16.3086 19.9619C16.3011 19.9588 16.2936 19.9555 16.2862 19.952C16.2788 19.9485 16.2715 19.9448 16.2643 19.9409C16.2571 19.9371 16.25 19.933 16.2429 19.9288C16.2359 19.9246 16.229 19.9203 16.2222 19.9157C16.2154 19.9112 16.2087 19.9065 16.2021 19.9016C16.1956 19.8967 16.1891 19.8917 16.1828 19.8865C16.1765 19.8813 16.1703 19.876 16.1642 19.8705C16.1581 19.865 16.1522 19.8593 16.1464 19.8535C16.1406 19.8477 16.135 19.8418 16.1295 19.8358C16.124 19.8297 16.1187 19.8235 16.1135 19.8172C16.1083 19.8109 16.1033 19.8044 16.0984 19.7978C16.0935 19.7912 16.0888 19.7846 16.0843 19.7778C16.0797 19.771 16.0753 19.7641 16.0711 19.757C16.0669 19.75 16.0629 19.7429 16.059 19.7357C16.0552 19.7285 16.0515 19.7212 16.048 19.7138C16.0445 19.7064 16.0412 19.6989 16.0381 19.6913C16.0349 19.6838 16.032 19.6761 16.0292 19.6684C16.0265 19.6607 16.0239 19.653 16.0215 19.6451C16.0191 19.6373 16.017 19.6294 16.015 19.6215C16.013 19.6135 16.0112 19.6056 16.0096 19.5975C16.008 19.5895 16.0066 19.5814 16.0054 19.5733C16.0042 19.5653 16.0032 19.5571 16.0024 19.549C16.0016 19.5409 16.001 19.5327 16.0006 19.5245C16.0002 19.5163 16 19.5082 16 19.5C16 19.4918 16.0002 19.4836 16.0006 19.4754C16.001 19.4673 16.0016 19.4591 16.0024 19.451C16.0032 19.4428 16.0042 19.4347 16.0054 19.4266C16.0066 19.4185 16.008 19.4105 16.0096 19.4024C16.0112 19.3944 16.013 19.3864 16.015 19.3785C16.017 19.3705 16.0191 19.3627 16.0215 19.3548C16.0239 19.347 16.0265 19.3392 16.0292 19.3315C16.032 19.3238 16.0349 19.3162 16.0381 19.3086C16.0412 19.3011 16.0445 19.2936 16.048 19.2862C16.0515 19.2788 16.0552 19.2715 16.059 19.2643C16.0629 19.2571 16.0669 19.25 16.0711 19.2429C16.0753 19.2359 16.0797 19.229 16.0843 19.2222C16.0888 19.2154 16.0935 19.2087 16.0984 19.2021C16.1033 19.1956 16.1083 19.1891 16.1135 19.1828C16.1187 19.1765 16.124 19.1703 16.1295 19.1642C16.135 19.1581 16.1406 19.1522 16.1464 19.1464C16.1522 19.1406 16.1581 19.135 16.1642 19.1295C16.1703 19.124 16.1765 19.1187 16.1828 19.1135C16.1891 19.1083 16.1956 19.1033 16.2021 19.0984C16.2087 19.0935 16.2154 19.0888 16.2222 19.0842C16.229 19.0797 16.2359 19.0753 16.2429 19.0711C16.25 19.0669 16.2571 19.0629 16.2643 19.059C16.2715 19.0552 16.2788 19.0515 16.2862 19.048C16.2936 19.0445 16.3011 19.0412 16.3086 19.038C16.3162 19.0349 16.3238 19.032 16.3315 19.0292C16.3393 19.0265 16.347 19.0239 16.3548 19.0215C16.3627 19.0191 16.3705 19.017 16.3785 19.015C16.3864 19.013 16.3944 19.0112 16.4024 19.0096C16.4105 19.008 16.4185 19.0066 16.4266 19.0054C16.4347 19.0042 16.4429 19.0032 16.451 19.0024C16.4591 19.0016 16.4673 19.001 16.4755 19.0006C16.4836 19.0002 16.4918 19 16.5 19C16.5082 19 16.5164 19.0002 16.5245 19.0006C16.5327 19.001 16.5409 19.0016 16.549 19.0024C16.5571 19.0032 16.5653 19.0042 16.5734 19.0054C16.5814 19.0066 16.5895 19.008 16.5975 19.0096C16.6056 19.0112 16.6135 19.013 16.6215 19.015C16.6294 19.017 16.6373 19.0191 16.6451 19.0215C16.653 19.0239 16.6607 19.0265 16.6684 19.0292C16.6761 19.032 16.6838 19.0349 16.6913 19.038C16.6989 19.0412 16.7064 19.0445 16.7138 19.048C16.7212 19.0515 16.7285 19.0552 16.7357 19.059C16.7429 19.0629 16.75 19.0669 16.7571 19.0711C16.7641 19.0753 16.771 19.0797 16.7778 19.0842C16.7846 19.0888 16.7913 19.0935 16.7978 19.0984C16.8044 19.1033 16.8109 19.1083 16.8172 19.1135C16.8235 19.1187 16.8297 19.124 16.8358 19.1295C16.8419 19.135 16.8478 19.1406 16.8535 19.1464C16.8593 19.1522 16.865 19.1581 16.8705 19.1642C16.876 19.1703 16.8813 19.1765 16.8865 19.1828C16.8917 19.1891 16.8967 19.1956 16.9016 19.2021C16.9065 19.2087 16.9112 19.2154 16.9157 19.2222C16.9203 19.229 16.9247 19.2359 16.9289 19.2429C16.933 19.25 16.9371 19.2571 16.9409 19.2643C16.9448 19.2715 16.9485 19.2788 16.952 19.2862C16.9555 19.2936 16.9588 19.3011 16.9619 19.3086C16.9651 19.3162 16.968 19.3238 16.9708 19.3315C16.9735 19.3392 16.9761 19.347 16.9785 19.3548C16.9808 19.3627 16.983 19.3705 16.985 19.3785C16.987 19.3864 16.9888 19.3944 16.9904 19.4024C16.992 19.4105 16.9934 19.4185 16.9946 19.4266C16.9958 19.4347 16.9968 19.4428 16.9976 19.451C16.9984 19.4591 16.999 19.4673 16.9994 19.4754C16.9998 19.4836 17 19.4918 17 19.5C17 19.5082 16.9998 19.5163 16.9994 19.5245C16.999 19.5327 16.9984 19.5409 16.9976 19.549C16.9968 19.5571 16.9958 19.5653 16.9946 19.5733C16.9934 19.5814 16.992 19.5895 16.9904 19.5975C16.9888 19.6056 16.987 19.6135 16.985 19.6215C16.983 19.6294 16.9808 19.6373 16.9785 19.6451C16.9761 19.653 16.9735 19.6607 16.9708 19.6684C16.968 19.6761 16.9651 19.6838 16.9619 19.6913C16.9588 19.6989 16.9555 19.7064 16.952 19.7138C16.9485 19.7212 16.9448 19.7285 16.9409 19.7357C16.9371 19.7429 16.9331 19.75 16.9289 19.757C16.9247 19.7641 16.9203 19.771 16.9157 19.7778C16.9112 19.7846 16.9065 19.7912 16.9016 19.7978C16.8967 19.8044 16.8917 19.8109 16.8865 19.8172C16.8813 19.8235 16.876 19.8297 16.8705 19.8358C16.865 19.8418 16.8593 19.8477 16.8535 19.8535C16.8478 19.8593 16.8419 19.865 16.8358 19.8705C16.8297 19.876 16.8235 19.8813 16.8172 19.8865C16.8109 19.8917 16.8044 19.8967 16.7978 19.9016C16.7913 19.9065 16.7846 19.9112 16.7778 19.9157C16.771 19.9203 16.7641 19.9246 16.7571 19.9288C16.75 19.933 16.7429 19.9371 16.7357 19.9409C16.7285 19.9448 16.7212 19.9485 16.7138 19.952C16.7064 19.9555 16.6989 19.9588 16.6913 19.9619C16.6838 19.9651 16.6761 19.968 16.6684 19.9707C16.6607 19.9735 16.653 19.9761 16.6451 19.9785C16.6373 19.9808 16.6294 19.983 16.6215 19.985C16.6135 19.987 16.6056 19.9888 16.5975 19.9904C16.5895 19.992 16.5814 19.9934 16.5734 19.9946C16.5653 19.9958 16.5571 19.9968 16.549 19.9976C16.5409 19.9984 16.5327 19.999 16.5245 19.9994C16.5164 19.9998 16.5082 20 16.5 20Z"   fill="#000000" ></path></svg>