<svg xmlns="http://www.w3.org/2000/svg" xmlns:xlink="http://www.w3.org/1999/xlink" width="24" height="24" viewBox="0 0 24 24" fill="none"><path d="M8.38 3C8.39154 3 8.40848 3 8.42 3C8.43152 3 8.4385 3 8.45 3C8.4615 3 8.47853 3.01 8.49 3.01C8.50146 3.01 8.50857 3.01 8.52 3.01C8.53143 3.01 8.53865 3.02 8.55 3.02C8.56135 3.02 8.57871 3.02 8.59 3.02C8.60127 3.02 8.60881 3.03 8.62 3.03C8.63119 3.03 8.64891 3.04 8.66 3.04C8.67109 3.04 8.67902 3.05 8.69 3.05C8.70096 3.05 8.70916 3.06 8.72 3.06C8.73084 3.06 8.7393 3.07 8.75 3.07C8.76072 3.07 8.77945 3.09 8.79 3.09C8.80055 3.09 8.80963 3.1 8.82 3.1C8.83039 3.1 8.8398 3.12 8.85 3.12C8.86021 3.12 8.88 3.13 8.88 3.13C8.89002 3.13 8.91 3.15 8.91 3.15L8.94 3.17L8.97 3.19L8.99 3.21L9.02 3.23L9.05 3.25L9.07 3.28L9.1 3.3L9.12 3.33L9.14 3.35L9.16 3.38L9.19 3.41L9.21 3.43L9.22 3.46L9.24 3.49C9.24 3.49 9.26 3.50987 9.26 3.52C9.26 3.53013 9.28 3.53967 9.28 3.55L10.5 5L18.5 5C18.5164 5 18.5337 5 18.55 5C18.5663 5 18.5837 5 18.6 5C18.6163 5 18.6338 5.01 18.65 5.01C18.6662 5.01 18.6839 5.02 18.7 5.02C18.716 5.02 18.7241 5.03 18.74 5.03C18.7559 5.03 18.7744 5.04 18.79 5.04C18.8057 5.04 18.8246 5.06 18.84 5.06C18.8554 5.06 18.8649 5.08 18.88 5.08C18.8951 5.08 18.9152 5.1 18.93 5.1C18.9448 5.1 18.9556 5.12 18.97 5.12C18.9844 5.12 18.996 5.14 19.01 5.14C19.024 5.14 19.0464 5.17 19.06 5.17C19.0736 5.17 19.0869 5.2 19.1 5.2C19.1131 5.2 19.1173 5.21961 19.13 5.23C19.1426 5.24037 19.1579 5.249 19.17 5.26C19.1821 5.271 19.1984 5.27842 19.21 5.29C19.2216 5.30158 19.229 5.31787 19.24 5.33C19.251 5.34213 19.2596 5.35734 19.27 5.37C19.2804 5.38266 19.3 5.38686 19.3 5.4C19.3 5.41314 19.33 5.42639 19.33 5.44C19.33 5.45361 19.36 5.47596 19.36 5.49C19.36 5.50404 19.38 5.51557 19.38 5.53C19.38 5.54443 19.4 5.55521 19.4 5.57C19.4 5.58479 19.42 5.60486 19.42 5.62C19.42 5.63512 19.44 5.64459 19.44 5.66C19.44 5.67541 19.46 5.69436 19.46 5.71C19.46 5.72566 19.47 5.74412 19.47 5.76C19.47 5.77588 19.48 5.78397 19.48 5.8C19.48 5.81605 19.49 5.83381 19.49 5.85C19.49 5.86619 19.5 5.88371 19.5 5.9C19.5 5.91627 19.5 5.93365 19.5 5.95C19.5 5.96635 19.5 5.98363 19.5 6L19.5 9L18.5 9L18.5 6L9.88 6L8.38 4L3.5 4L3.5 19L18.5 19C18.5 19.0164 18.5 19.0337 18.5 19.05C18.5 19.0663 18.5 19.0837 18.5 19.1C18.5 19.1163 18.49 19.1338 18.49 19.15C18.49 19.1662 18.48 19.1839 18.48 19.2C18.48 19.216 18.47 19.2241 18.47 19.24C18.47 19.2559 18.46 19.2744 18.46 19.29C18.46 19.3057 18.44 19.3246 18.44 19.34C18.44 19.3554 18.42 19.3649 18.42 19.38C18.42 19.3951 18.4 19.4152 18.4 19.43C18.4 19.4448 18.38 19.4556 18.38 19.47C18.38 19.4844 18.36 19.496 18.36 19.51C18.36 19.524 18.33 19.5464 18.33 19.56C18.33 19.5736 18.3 19.5869 18.3 19.6C18.3 19.6131 18.2804 19.6173 18.27 19.63C18.2596 19.6427 18.251 19.6579 18.24 19.67C18.229 19.6821 18.2216 19.6984 18.21 19.71C18.1984 19.7216 18.1821 19.729 18.17 19.74C18.1579 19.751 18.1426 19.7596 18.13 19.77C18.1173 19.7804 18.1131 19.8 18.1 19.8C18.0869 19.8 18.0736 19.83 18.06 19.83C18.0464 19.83 18.024 19.86 18.01 19.86C17.996 19.86 17.9844 19.88 17.97 19.88C17.9556 19.88 17.9448 19.9 17.93 19.9C17.9152 19.9 17.8951 19.92 17.88 19.92C17.8649 19.92 17.8554 19.94 17.84 19.94C17.8246 19.94 17.8056 19.96 17.79 19.96C17.7743 19.96 17.7559 19.97 17.74 19.97C17.7241 19.97 17.716 19.98 17.7 19.98C17.6839 19.98 17.6662 19.99 17.65 19.99C17.6338 19.99 17.6163 20 17.6 20C17.5837 20 17.5663 20 17.55 20C17.5337 20 17.5164 20 17.5 20L3.5 20C3.48363 20 3.46635 20 3.45 20C3.43365 20 3.41629 20 3.4 20C3.38371 20 3.36619 19.99 3.35 19.99C3.33381 19.99 3.31605 19.98 3.3 19.98C3.28395 19.98 3.27588 19.97 3.26 19.97C3.24412 19.97 3.22566 19.96 3.21 19.96C3.19434 19.96 3.17541 19.94 3.16 19.94C3.14459 19.94 3.13512 19.92 3.12 19.92C3.10488 19.92 3.08479 19.9 3.07 19.9C3.05521 19.9 3.04443 19.88 3.03 19.88C3.01557 19.88 3.00404 19.86 2.99 19.86C2.97596 19.86 2.95361 19.83 2.94 19.83C2.92639 19.83 2.91314 19.8 2.9 19.8C2.88686 19.8 2.88265 19.7804 2.87 19.77C2.85735 19.7596 2.84213 19.751 2.83 19.74C2.81787 19.729 2.80157 19.7216 2.79 19.71C2.77843 19.6984 2.77099 19.6821 2.76 19.67C2.74901 19.6579 2.74038 19.6426 2.73 19.63C2.71962 19.6173 2.7 19.6131 2.7 19.6C2.7 19.5869 2.67 19.5736 2.67 19.56C2.67 19.5464 2.64 19.524 2.64 19.51C2.64 19.496 2.62 19.4844 2.62 19.47C2.62 19.4556 2.6 19.4448 2.6 19.43C2.6 19.4152 2.58 19.3951 2.58 19.38C2.58 19.3649 2.56 19.3554 2.56 19.34C2.56 19.3246 2.54 19.3057 2.54 19.29C2.54 19.2744 2.53 19.2559 2.53 19.24C2.53 19.2241 2.52 19.2161 2.52 19.2C2.52 19.184 2.51 19.1662 2.51 19.15C2.51 19.1338 2.5 19.1163 2.5 19.1C2.5 19.0837 2.5 19.0663 2.5 19.05C2.5 19.0337 2.5 19.0164 2.5 19L2.5 4C2.5 3.9847 2.5 3.96527 2.5 3.95C2.5 3.93473 2.5 3.92523 2.5 3.91C2.5 3.89478 2.51 3.87516 2.51 3.86C2.51 3.84486 2.52 3.83504 2.52 3.82C2.52 3.80496 2.53 3.7849 2.53 3.77C2.53 3.7551 2.54 3.74471 2.54 3.73C2.54 3.71527 2.55 3.69452 2.55 3.68C2.55 3.66549 2.57 3.65428 2.57 3.64C2.57 3.62573 2.58 3.61401 2.58 3.6C2.58 3.58599 2.6 3.57371 2.6 3.56C2.6 3.54628 2.62 3.53338 2.62 3.52C2.62 3.50662 2.65 3.49305 2.65 3.48C2.65 3.46697 2.67 3.45266 2.67 3.44C2.67 3.42734 2.7 3.41225 2.7 3.4C2.7 3.38775 2.73 3.37181 2.73 3.36C2.73 3.34818 2.74976 3.34135 2.76 3.33C2.77024 3.31865 2.77925 3.31088 2.79 3.3C2.80075 3.28913 2.80876 3.27038 2.82 3.26C2.83124 3.24963 2.8483 3.23 2.86 3.23C2.8717 3.23 2.87786 3.21 2.89 3.21C2.90214 3.21 2.91745 3.18 2.93 3.18C2.94255 3.18 2.95706 3.15 2.97 3.15C2.98294 3.15 2.9967 3.13 3.01 3.13C3.0233 3.13 3.03637 3.11 3.05 3.11C3.06363 3.11 3.07606 3.09 3.09 3.09C3.10394 3.09 3.11579 3.07 3.13 3.07C3.14421 3.07 3.15554 3.05 3.17 3.05C3.18446 3.05 3.20533 3.04 3.22 3.04C3.23467 3.04 3.24515 3.03 3.26 3.03C3.27485 3.03 3.295 3.02 3.31 3.02C3.325 3.02 3.33488 3.01 3.35 3.01C3.36512 3.01 3.38479 3 3.4 3L3.5 3L8.38 3Z"   fill="#000000" ></path><path d="M21.72 9C21.7397 9 21.7603 9 21.78 9C21.7997 9 21.8204 9.01001 21.84 9.01001C21.8596 9.01001 21.8806 9.02002 21.9 9.02002C21.9194 9.02002 21.9408 9.03003 21.96 9.03003C21.9792 9.03003 22.0012 9.03998 22.02 9.03998C22.0389 9.03998 22.0515 9.06 22.07 9.06C22.0885 9.06 22.112 9.08002 22.13 9.08002C22.1481 9.08002 22.1624 9.10999 22.18 9.10999C22.1975 9.10999 22.213 9.13001 22.23 9.14001C22.247 9.14001 22.2636 9.15899 22.28 9.16998C22.2964 9.18097 22.3143 9.18807 22.33 9.20001C22.3457 9.21195 22.365 9.22714 22.38 9.23999C22.395 9.25283 22.4058 9.26632 22.42 9.28003C22.4342 9.29374 22.4467 9.30549 22.46 9.32001C22.4733 9.33454 22.4875 9.35472 22.5 9.37C22.5125 9.38528 22.5284 9.40398 22.54 9.41998C22.5515 9.43597 22.5594 9.44337 22.57 9.46002C22.5806 9.47666 22.6 9.49276 22.6 9.51001C22.6 9.52725 22.63 9.55222 22.63 9.57001C22.63 9.58778 22.65 9.60174 22.65 9.62C22.65 9.63825 22.67 9.66133 22.67 9.67999C22.67 9.69865 22.69 9.71097 22.69 9.72998C22.69 9.74898 22.7 9.77069 22.7 9.78998C22.7 9.80926 22.71 9.83048 22.71 9.84998C22.71 9.86947 22.72 9.89034 22.72 9.90997C22.72 9.92961 22.72 9.95026 22.72 9.96997C22.72 9.98968 22.72 10.0103 22.72 10.03C22.72 10.0497 22.72 10.0604 22.72 10.08C22.72 10.0997 22.71 10.1205 22.71 10.14C22.71 10.1595 22.7 10.1807 22.7 10.2C22.7 10.2193 22.69 10.241 22.69 10.26C22.69 10.279 22.67 10.3013 22.67 10.32L19.34 19.32L19.28 19.46C19.134 19.74 18.861 19.94 18.55 19.99L18.39 20L3.5 20L3.37 19.99C3.35174 19.99 3.3381 19.98 3.32 19.98C3.3019 19.98 3.28789 19.97 3.27 19.97C3.25211 19.97 3.22762 19.96 3.21 19.96C3.19237 19.96 3.1773 19.94 3.16 19.94C3.1427 19.94 3.12694 19.92 3.11 19.92C3.09307 19.92 3.07651 19.9 3.06 19.9C3.04349 19.9 3.02604 19.87 3.01 19.87C2.99396 19.87 2.97552 19.84 2.96 19.84C2.94448 19.84 2.93495 19.8207 2.92 19.81C2.90505 19.7993 2.88433 19.7915 2.87 19.78C2.85567 19.7685 2.84367 19.7523 2.83 19.74C2.81633 19.7277 2.80297 19.713 2.79 19.7C2.77703 19.6869 2.76223 19.6737 2.75 19.66C2.73777 19.6462 2.73146 19.6344 2.72 19.62C2.70854 19.6056 2.69064 19.595 2.68 19.58C2.66936 19.565 2.65 19.5456 2.65 19.53C2.65 19.5144 2.63 19.5061 2.63 19.49C2.63 19.4739 2.6 19.4566 2.6 19.44C2.6 19.4234 2.58 19.407 2.58 19.39C2.58 19.373 2.56 19.3473 2.56 19.33C2.56 19.3127 2.54 19.2977 2.54 19.28C2.54 19.2623 2.53 19.2479 2.53 19.23C2.53 19.2121 2.52 19.1881 2.52 19.17C2.52 19.1519 2.51 19.1383 2.51 19.12C2.51 19.1017 2.5 19.0784 2.5 19.06C2.5 19.0416 2.5 19.0284 2.5 19.01C2.5 18.9916 2.5 18.9684 2.5 18.95C2.5 18.9316 2.51 18.9183 2.51 18.9C2.51 18.8817 2.51 18.8582 2.51 18.84C2.51 18.8218 2.52 18.808 2.52 18.79C2.52 18.772 2.54 18.7578 2.54 18.74C2.54 18.7222 2.55 18.6975 2.55 18.68L5.89001 9.67999C5.89001 9.66766 5.90002 9.66219 5.90002 9.65002C5.90002 9.63786 5.90997 9.62196 5.90997 9.60999C5.90997 9.59802 5.92999 9.59179 5.92999 9.58002C5.92999 9.56825 5.95001 9.55152 5.95001 9.53998C5.95001 9.52843 5.96002 9.52131 5.96002 9.51001C5.96002 9.49871 5.97998 9.48101 5.97998 9.46997C5.97998 9.45893 6.01001 9.45077 6.01001 9.44C6.01001 9.42923 6.03003 9.42044 6.03003 9.40997C6.03003 9.39949 6.04999 9.39017 6.04999 9.38C6.04999 9.36983 6.08002 9.34998 6.08002 9.34998L6.09998 9.32001L6.13 9.28998L6.15997 9.26001L6.19 9.23999C6.19 9.23999 6.20974 9.21002 6.21997 9.21002C6.23021 9.21002 6.23945 9.19 6.25 9.19C6.26055 9.19 6.26921 9.16998 6.28003 9.16998C6.29085 9.16998 6.2989 9.15002 6.31 9.15002C6.32109 9.15002 6.33863 9.13 6.34998 9.13C6.36132 9.13 6.3684 9.10999 6.38 9.10999C6.39159 9.10999 6.40817 9.09003 6.41998 9.09003C6.4318 9.09003 6.438 9.08002 6.45001 9.08002C6.46202 9.08002 6.4778 9.06 6.48999 9.06C6.50218 9.06 6.51765 9.04999 6.53003 9.04999C6.54237 9.04999 6.54748 9.03998 6.56 9.03998C6.5725 9.03998 6.58734 9.03003 6.59998 9.03003C6.61261 9.03003 6.62726 9.02002 6.64001 9.02002C6.65275 9.02002 6.66714 9.01001 6.67999 9.01001C6.69282 9.01001 6.70706 9.01001 6.71997 9.01001C6.73286 9.01001 6.73703 9 6.75 9C6.76295 9 6.77697 9 6.78998 9C6.80295 9 6.81701 9 6.83002 9L21.72 9ZM3.5 19L18.39 19L21.73 10L6.83002 10L3.5 19Z"   fill="#0063B1" ></path></svg>