<svg xmlns="http://www.w3.org/2000/svg" xmlns:xlink="http://www.w3.org/1999/xlink" width="24" height="24" viewBox="0 0 24 24" fill="none"><path d="M6.95 9.5L7.05 9.5L7.07 9.49L7.12 9.49L7.15 9.48001L7.17 9.47001L7.21 9.45L7.24 9.44L7.28 9.42L7.3 9.40001L7.32 9.39001L7.34 9.37L7.35 9.35001L7.37 9.34L7.39 9.32001L7.4 9.3L7.42 9.28L7.43 9.26L7.44 9.24L7.45 9.21L7.46 9.19L7.47 9.17L7.48 9.15001L7.49 9.12L7.49 9.07001L7.5 9.05L7.5 7.08L7.49 7.06L7.49 7.01L7.48 6.98L7.47 6.96L7.46 6.94L7.45 6.92L7.44 6.89001L7.42 6.85L7.4 6.83L7.39 6.81L7.37 6.79L7.35 6.78L7.34 6.76L7.32 6.74001L7.3 6.73L7.28 6.71L7.26 6.70001L7.24 6.69L7.21 6.68001L7.19 6.67L7.17 6.66001L7.15 6.65L7.12 6.64001L7.07 6.64001L7.05 6.63L6.95 6.63L6.93 6.64001L6.88 6.64001L6.85 6.65L6.83 6.66001L6.81 6.67L6.79 6.68001L6.76 6.69L6.74 6.70001L6.72 6.71L6.7 6.73L6.68 6.74001L6.66 6.76L6.65 6.78L6.63 6.79L6.61 6.81L6.6 6.83L6.58 6.85L6.57 6.87L6.56 6.89001L6.55 6.92L6.54 6.94L6.53 6.96L6.52 6.98L6.51 7.01L6.51 7.06L6.5 7.08L6.5 9.05L6.51 9.07001L6.51 9.12L6.52 9.15001L6.54 9.19L6.55 9.21L6.56 9.24L6.57 9.26L6.58 9.28L6.6 9.3L6.61 9.32001L6.63 9.34L6.65 9.35001L6.66 9.37L6.68 9.39001L6.7 9.40001L6.72 9.42L6.76 9.44L6.79 9.45L6.83 9.47001L6.85 9.48001L6.88 9.49L6.93 9.49L6.95 9.5ZM7.02 13.5L6.95 13.5L6.93 13.49L6.88 13.49L6.85 13.48L6.83 13.47L6.79 13.45L6.76 13.44L6.74 13.43L6.72 13.42L6.7 13.4L6.68 13.39L6.66 13.37L6.65 13.35L6.63 13.34L6.61 13.32L6.6 13.3L6.58 13.28L6.57 13.26L6.56 13.24L6.55 13.21L6.54 13.19L6.52 13.15L6.51 13.12L6.51 13.07L6.5 13.05L6.5 11.08L6.51 11.06L6.51 11.01L6.52 10.98L6.54 10.94L6.55 10.92L6.56 10.89L6.57 10.87L6.58 10.85L6.6 10.83L6.61 10.81L6.63 10.79L6.65 10.78L6.66 10.76L6.68 10.74L6.7 10.73L6.72 10.71L6.74 10.7L6.76 10.69L6.79 10.68L6.81 10.67L6.83 10.66L6.85 10.65L6.88 10.64L6.93 10.64L6.95 10.63L7.05 10.63L7.07 10.64L7.12 10.64L7.15 10.65L7.17 10.66L7.19 10.67L7.21 10.68L7.24 10.69L7.26 10.7L7.28 10.71L7.3 10.73L7.32 10.74L7.34 10.76L7.35 10.78L7.37 10.79L7.39 10.81L7.4 10.83L7.42 10.85L7.43 10.87L7.44 10.89L7.45 10.92L7.46 10.94L7.47 10.96L7.48 10.98L7.49 11.01L7.49 11.06L7.5 11.08L7.5 13.05L7.49 13.07L7.49 13.12L7.48 13.15L7.47 13.17L7.46 13.19L7.45 13.21L7.44 13.24L7.43 13.26L7.42 13.28L7.4 13.3L7.39 13.32L7.37 13.34L7.35 13.35L7.34 13.37L7.32 13.39L7.3 13.4L7.28 13.42L7.26 13.43L7.24 13.44L7.21 13.45L7.17 13.47L7.15 13.48L7.12 13.49L7.07 13.49L7.05 13.5L7.02 13.5ZM9.05005 16.5L7.5 16.5L7.5 14.95L7.49 14.93L7.49 14.88L7.48 14.85L7.47 14.83L7.46 14.81L7.45 14.79L7.44 14.76L7.43 14.74L7.42 14.72L7.4 14.7L7.39 14.68L7.37 14.66L7.35 14.65L7.34 14.63L7.32 14.61L7.3 14.6L7.28 14.58L7.26 14.57L7.24 14.56L7.21 14.55L7.19 14.54L7.17 14.53L7.15 14.52L7.12 14.51L7.07 14.51L7.05 14.5L6.95 14.5L6.93 14.51L6.88 14.51L6.85 14.52L6.83 14.53L6.81 14.54L6.79 14.55L6.76 14.56L6.74 14.57L6.72 14.58L6.7 14.6L6.68 14.61L6.66 14.63L6.65 14.65L6.63 14.66L6.61 14.68L6.6 14.7L6.58 14.72L6.57 14.74L6.56 14.76L6.55 14.79L6.54 14.81L6.53 14.83L6.52 14.85L6.51 14.88L6.51 14.93L6.5 14.95L6.5 16.6901C6.5 16.7047 6.51001 16.7154 6.51001 16.73C6.51001 16.7445 6.52002 16.7656 6.52002 16.78C6.52002 16.7945 6.53003 16.8057 6.53003 16.8199C6.53003 16.8342 6.54004 16.8459 6.54004 16.86C6.54004 16.8741 6.55005 16.8862 6.55005 16.9C6.55005 16.9139 6.56995 16.9265 6.56995 16.9401C6.56995 16.9537 6.58997 16.9667 6.58997 16.98C6.58997 16.9933 6.60999 17.007 6.60999 17.02C6.60999 17.033 6.63 17.0474 6.63 17.0601C6.63 17.0727 6.65002 17.0877 6.65002 17.1C6.65002 17.1122 6.68005 17.1282 6.68005 17.14C6.68005 17.1518 6.69995 17.1587 6.69995 17.17C6.69995 17.1814 6.72998 17.189 6.72998 17.2C6.72998 17.2109 6.7496 17.2296 6.76001 17.24C6.77043 17.2504 6.78914 17.27 6.80005 17.27C6.81097 17.27 6.81858 17.3 6.82996 17.3C6.84135 17.3 6.84816 17.3199 6.85999 17.3199C6.87181 17.3199 6.88779 17.35 6.90002 17.35C6.91226 17.35 6.9273 17.37 6.93994 17.37C6.95257 17.37 6.967 17.39 6.97998 17.39C6.99296 17.39 7.00672 17.41 7.02002 17.41C7.03333 17.41 7.04646 17.4301 7.06006 17.4301C7.07367 17.4301 7.08612 17.45 7.09998 17.45C7.11383 17.45 7.12592 17.46 7.14001 17.46C7.15409 17.46 7.16577 17.47 7.18005 17.47C7.19433 17.47 7.20553 17.48 7.21997 17.48C7.23441 17.48 7.25546 17.49 7.27002 17.49C7.2846 17.49 7.29542 17.5 7.31006 17.5L9.05005 17.5L9.06995 17.49L9.12 17.49L9.15002 17.48L9.17004 17.47L9.18994 17.46L9.20996 17.45L9.23999 17.4401L9.26001 17.4301L9.28003 17.42L9.30005 17.4L9.31995 17.39L9.33997 17.37L9.34998 17.35L9.37 17.34L9.39001 17.3199L9.40002 17.3L9.42004 17.28L9.43005 17.26L9.43994 17.24L9.44995 17.21L9.45996 17.1901L9.46997 17.17L9.47998 17.15L9.48999 17.12L9.48999 17.0699L9.5 17.05L9.5 16.95L9.48999 16.9301L9.48999 16.88L9.47998 16.85L9.46997 16.83L9.45996 16.8101L9.44995 16.79L9.43994 16.76L9.43005 16.74L9.42004 16.72L9.40002 16.7L9.39001 16.6801L9.37 16.66L9.34998 16.65L9.33997 16.63L9.31995 16.61L9.30005 16.6L9.28003 16.58L9.26001 16.5699L9.23999 16.5601L9.20996 16.55L9.18994 16.54L9.17004 16.53L9.15002 16.52L9.12 16.51L9.06995 16.51L9.05005 16.5ZM11 16.5L13.05 16.5L13.0699 16.51L13.12 16.51L13.15 16.52L13.17 16.53L13.1899 16.54L13.21 16.55L13.24 16.5601L13.26 16.5699L13.28 16.58L13.3 16.6L13.3199 16.61L13.34 16.63L13.35 16.65L13.37 16.66L13.39 16.6801L13.4 16.7L13.42 16.72L13.4301 16.74L13.4399 16.76L13.45 16.79L13.46 16.8101L13.47 16.83L13.48 16.85L13.49 16.88L13.49 16.9301L13.5 16.95L13.5 17.05L13.49 17.0699L13.49 17.12L13.48 17.15L13.46 17.1901L13.45 17.21L13.4399 17.24L13.4301 17.26L13.42 17.28L13.4 17.3L13.39 17.3199L13.37 17.34L13.35 17.35L13.34 17.37L13.3199 17.39L13.3 17.4L13.28 17.42L13.24 17.4401L13.21 17.45L13.1899 17.46L13.17 17.47L13.15 17.48L13.12 17.49L13.0699 17.49L13.05 17.5L10.95 17.5L10.9301 17.49L10.88 17.49L10.85 17.48L10.83 17.47L10.8101 17.46L10.79 17.45L10.76 17.4401L10.72 17.42L10.7 17.4L10.6801 17.39L10.66 17.37L10.65 17.35L10.63 17.34L10.61 17.3199L10.6 17.3L10.58 17.28L10.5699 17.26L10.5601 17.24L10.55 17.21L10.54 17.1901L10.52 17.15L10.51 17.12L10.51 17.0699L10.5 17.05L10.5 16.95L10.51 16.9301L10.51 16.88L10.52 16.85L10.53 16.83L10.54 16.8101L10.55 16.79L10.5601 16.76L10.5699 16.74L10.58 16.72L10.6 16.7L10.61 16.6801L10.63 16.66L10.65 16.65L10.66 16.63L10.6801 16.61L10.7 16.6L10.72 16.58L10.74 16.5699L10.76 16.5601L10.79 16.55L10.8101 16.54L10.83 16.53L10.85 16.52L10.88 16.51L10.9301 16.51L10.95 16.5L11 16.5ZM17.05 16.5L14.95 16.5L14.9301 16.51L14.88 16.51L14.85 16.52L14.83 16.53L14.79 16.55L14.76 16.5601L14.74 16.5699L14.72 16.58L14.7 16.6L14.6801 16.61L14.66 16.63L14.65 16.65L14.63 16.66L14.61 16.6801L14.6 16.7L14.58 16.72L14.5601 16.76L14.55 16.79L14.52 16.85L14.51 16.88L14.51 16.9301L14.5 16.95L14.5 17.05L14.51 17.0699L14.51 17.12L14.52 17.15L14.53 17.17L14.54 17.1901L14.55 17.21L14.5601 17.24L14.58 17.28L14.6 17.3L14.61 17.3199L14.63 17.34L14.65 17.35L14.66 17.37L14.6801 17.39L14.7 17.4L14.72 17.42L14.74 17.4301L14.76 17.4401L14.79 17.45L14.85 17.48L14.88 17.49L14.9301 17.49L14.95 17.5L17.05 17.5L17.0699 17.49L17.12 17.49L17.15 17.48L17.17 17.47L17.1899 17.46L17.21 17.45L17.24 17.4401L17.26 17.4301L17.28 17.42L17.3 17.4L17.3199 17.39L17.34 17.37L17.35 17.35L17.37 17.34L17.39 17.3199L17.4 17.3L17.42 17.28L17.4301 17.26L17.4399 17.24L17.45 17.21L17.46 17.1901L17.47 17.17L17.48 17.15L17.49 17.12L17.49 17.0699L17.5 17.05L17.5 16.95L17.49 16.9301L17.49 16.88L17.48 16.85L17.47 16.83L17.46 16.8101L17.45 16.79L17.4399 16.76L17.4301 16.74L17.42 16.72L17.4 16.7L17.39 16.6801L17.37 16.66L17.35 16.65L17.34 16.63L17.3199 16.61L17.3 16.6L17.28 16.58L17.26 16.5699L17.24 16.5601L17.21 16.55L17.1899 16.54L17.17 16.53L17.15 16.52L17.12 16.51L17.0699 16.51L17.05 16.5Z" fill-rule="evenodd"  fill="#0063B1" ></path><path d="M16.6 6.5L3.4 6.5C3.38527 6.5 3.3747 6.5 3.36 6.5C3.34529 6.5 3.32466 6.5 3.31 6.5C3.29535 6.5 3.28456 6.51 3.27 6.51C3.25543 6.51 3.23444 6.52 3.22 6.52C3.20556 6.52 3.19428 6.53 3.18 6.53C3.16572 6.53 3.15408 6.54 3.14 6.54C3.12591 6.54 3.11385 6.55 3.1 6.55C3.08614 6.55 3.0736 6.57 3.06 6.57C3.04641 6.57 3.03331 6.59 3.02 6.59C3.0067 6.59 2.99299 6.61 2.98 6.61C2.96702 6.61 2.95263 6.63 2.94 6.63C2.92736 6.63 2.91224 6.65 2.9 6.65C2.88776 6.65 2.87182 6.68 2.86 6.68C2.84818 6.68 2.84139 6.7 2.83 6.7C2.81862 6.7 2.81092 6.73 2.8 6.73C2.78909 6.73 2.77042 6.74959 2.76 6.76C2.74959 6.77042 2.73 6.78909 2.73 6.8C2.73 6.81092 2.7 6.81862 2.7 6.83C2.7 6.84139 2.68 6.84817 2.68 6.86C2.68 6.87183 2.65 6.88777 2.65 6.9C2.65 6.91223 2.63 6.92736 2.63 6.94C2.63 6.95262 2.61 6.96702 2.61 6.98C2.61 6.99298 2.59 7.0067 2.59 7.02C2.59 7.03331 2.57 7.04641 2.57 7.06C2.57 7.07361 2.55 7.08614 2.55 7.1C2.55 7.11386 2.54 7.12591 2.54 7.14C2.54 7.15408 2.53 7.16572 2.53 7.18C2.53 7.19428 2.52 7.20556 2.52 7.22C2.52 7.23444 2.51 7.25544 2.51 7.27C2.51 7.28458 2.5 7.29536 2.5 7.31C2.5 7.32466 2.5 7.3453 2.5 7.36C2.5 7.3747 2.5 7.38527 2.5 7.4L2.5 20.6C2.5 20.6147 2.5 20.6253 2.5 20.64C2.5 20.6547 2.5 20.6753 2.5 20.6899C2.5 20.7046 2.51001 20.7154 2.51001 20.73C2.51001 20.7445 2.52002 20.7656 2.52002 20.78C2.52002 20.7945 2.53003 20.8057 2.53003 20.8199C2.53003 20.8342 2.54004 20.8459 2.54004 20.86C2.54004 20.8741 2.55005 20.8862 2.55005 20.9C2.55005 20.9139 2.56995 20.9263 2.56995 20.9399C2.56995 20.9535 2.58997 20.9667 2.58997 20.98C2.58997 20.9933 2.60999 21.007 2.60999 21.02C2.60999 21.033 2.63 21.0474 2.63 21.0601C2.63 21.0727 2.65002 21.0877 2.65002 21.1C2.65002 21.1122 2.68005 21.1282 2.68005 21.14C2.68005 21.1518 2.69995 21.1587 2.69995 21.17C2.69995 21.1814 2.72998 21.189 2.72998 21.2C2.72998 21.2109 2.7496 21.2296 2.76001 21.24C2.77043 21.2504 2.78914 21.27 2.80005 21.27C2.81097 21.27 2.81858 21.3 2.82996 21.3C2.84134 21.3 2.84816 21.3199 2.85999 21.3199C2.87181 21.3199 2.88779 21.35 2.90002 21.35C2.91226 21.35 2.92731 21.37 2.93994 21.37C2.95257 21.37 2.967 21.39 2.97998 21.39C2.99297 21.39 3.00672 21.41 3.02002 21.41C3.03333 21.41 3.04646 21.4301 3.06006 21.4301C3.07366 21.4301 3.08611 21.45 3.09998 21.45C3.11383 21.45 3.12592 21.46 3.14001 21.46C3.1541 21.46 3.16577 21.47 3.18005 21.47C3.19433 21.47 3.20553 21.48 3.21997 21.48C3.23441 21.48 3.25546 21.49 3.27002 21.49C3.28459 21.49 3.29541 21.5 3.31006 21.5C3.32471 21.5 3.34528 21.5 3.35999 21.5C3.37468 21.5 3.38529 21.5 3.40002 21.5L16.6 21.5C16.6147 21.5 16.6253 21.5 16.64 21.5C16.6547 21.5 16.6753 21.5 16.6899 21.5C16.7046 21.5 16.7154 21.49 16.73 21.49C16.7445 21.49 16.7656 21.48 16.78 21.48C16.7945 21.48 16.8057 21.47 16.8199 21.47C16.8342 21.47 16.8459 21.46 16.86 21.46C16.8741 21.46 16.8862 21.45 16.9 21.45C16.9139 21.45 16.9263 21.4301 16.9399 21.4301C16.9535 21.4301 16.9667 21.41 16.98 21.41C16.9933 21.41 17.007 21.39 17.02 21.39C17.033 21.39 17.0474 21.37 17.0601 21.37C17.0727 21.37 17.0877 21.35 17.1 21.35C17.1122 21.35 17.1282 21.3199 17.14 21.3199C17.1518 21.3199 17.1587 21.3 17.17 21.3C17.1814 21.3 17.189 21.27 17.2 21.27C17.2109 21.27 17.2296 21.2504 17.24 21.24C17.2504 21.2296 17.27 21.2109 17.27 21.2C17.27 21.189 17.3 21.1814 17.3 21.17C17.3 21.1587 17.3199 21.1518 17.3199 21.14C17.3199 21.1282 17.35 21.1122 17.35 21.1C17.35 21.0877 17.37 21.0727 17.37 21.0601C17.37 21.0474 17.39 21.033 17.39 21.02C17.39 21.007 17.41 20.9933 17.41 20.98C17.41 20.9667 17.4301 20.9535 17.4301 20.9399C17.4301 20.9263 17.45 20.9139 17.45 20.9C17.45 20.8862 17.46 20.8741 17.46 20.86C17.46 20.8459 17.47 20.8342 17.47 20.8199C17.47 20.8057 17.48 20.7945 17.48 20.78C17.48 20.7656 17.49 20.7445 17.49 20.73C17.49 20.7154 17.5 20.7046 17.5 20.6899C17.5 20.6753 17.5 20.6547 17.5 20.64C17.5 20.6253 17.5 20.6147 17.5 20.6L17.5 7.4C17.5 7.38527 17.5 7.3747 17.5 7.36C17.5 7.3453 17.5 7.32466 17.5 7.31C17.5 7.29536 17.49 7.28458 17.49 7.27C17.49 7.25544 17.48 7.23444 17.48 7.22C17.48 7.20556 17.47 7.19428 17.47 7.18C17.47 7.16572 17.46 7.15408 17.46 7.14C17.46 7.12591 17.45 7.11386 17.45 7.1C17.45 7.08614 17.43 7.07361 17.43 7.06C17.43 7.04641 17.41 7.03331 17.41 7.02C17.41 7.0067 17.39 6.99298 17.39 6.98C17.39 6.96702 17.37 6.95262 17.37 6.94C17.37 6.92736 17.35 6.91223 17.35 6.9C17.35 6.88777 17.32 6.87183 17.32 6.86C17.32 6.84817 17.3 6.84139 17.3 6.83C17.3 6.81862 17.27 6.81092 17.27 6.8C17.27 6.78909 17.2504 6.77042 17.24 6.76C17.2296 6.74959 17.2109 6.73 17.2 6.73C17.1891 6.73 17.1814 6.7 17.17 6.7C17.1586 6.7 17.1518 6.68 17.14 6.68C17.1282 6.68 17.1122 6.65 17.1 6.65C17.0878 6.65 17.0726 6.63 17.06 6.63C17.0474 6.63 17.033 6.61 17.02 6.61C17.007 6.61 16.9933 6.59 16.98 6.59C16.9667 6.59 16.9536 6.57 16.94 6.57C16.9264 6.57 16.9139 6.55 16.9 6.55C16.8861 6.55 16.8741 6.54 16.86 6.54C16.8459 6.54 16.8343 6.53 16.82 6.53C16.8057 6.53 16.7944 6.52 16.78 6.52C16.7656 6.52 16.7446 6.51 16.73 6.51C16.7154 6.51 16.7046 6.5 16.69 6.5C16.6753 6.5 16.6547 6.5 16.64 6.5C16.6253 6.5 16.6147 6.5 16.6 6.5ZM16.5 20.5L3.5 20.5L3.5 7.5L16.5 7.5L16.5 20.5ZM20.6 2.5L7.4 2.5C7.38527 2.5 7.37472 2.5 7.36 2.5C7.34527 2.5 7.32467 2.5 7.31 2.5C7.29533 2.5 7.28458 2.51 7.27 2.51C7.25542 2.51 7.23445 2.52 7.22 2.52C7.20555 2.52 7.1943 2.53 7.18 2.53C7.1657 2.53 7.15409 2.54 7.14 2.54C7.12591 2.54 7.11387 2.55 7.1 2.55C7.08612 2.55 7.07361 2.57 7.06 2.57C7.04639 2.57 7.03331 2.59 7.02 2.59C7.00669 2.59 6.99298 2.61 6.98 2.61C6.96702 2.61 6.95264 2.63 6.94 2.63C6.92736 2.63 6.91223 2.65 6.9 2.65C6.88775 2.65 6.87183 2.68 6.86 2.68C6.84817 2.68 6.84139 2.71 6.83 2.71C6.81861 2.71 6.81091 2.73 6.8 2.73C6.78908 2.73 6.77041 2.74957 6.76 2.76C6.74958 2.77044 6.73 2.78906 6.73 2.8C6.73 2.81093 6.7 2.81859 6.7 2.83C6.7 2.84141 6.68 2.85816 6.68 2.87C6.68 2.88185 6.65 2.88774 6.65 2.9C6.65 2.91226 6.63 2.92735 6.63 2.94C6.63 2.95266 6.61 2.967 6.61 2.98C6.61 2.99301 6.59 3.00667 6.59 3.02C6.59 3.03332 6.57 3.04638 6.57 3.06C6.57 3.07363 6.55 3.08612 6.55 3.1C6.55 3.11389 6.54 3.1259 6.54 3.14C6.54 3.15411 6.53 3.1657 6.53 3.18C6.53 3.19429 6.52 3.21554 6.52 3.23C6.52 3.24447 6.51 3.25543 6.51 3.27C6.51 3.28458 6.5 3.29532 6.5 3.31C6.5 3.32467 6.5 3.34528 6.5 3.36C6.5 3.37473 6.5 3.38526 6.5 3.4L6.5 4.98L6.5 5L6.5 5.03L6.51 5.05L6.51 5.08L6.51 5.1L6.52 5.12L6.53 5.15L6.54 5.17L6.55 5.19L6.56 5.21L6.57 5.24L6.58 5.26L6.6 5.28L6.61 5.3L6.63 5.31L6.65 5.33L6.66 5.35L6.68 5.36L6.7 5.38L6.72 5.39L6.74 5.41L6.76 5.42L6.79 5.43L6.81 5.44L6.83 5.45L6.85 5.46L6.88 5.46L6.9 5.47L6.93 5.47L6.95 5.48L6.98 5.48L7 5.48L7.02 5.48L7.05 5.48L7.07 5.47L7.1 5.47L7.12 5.46L7.15 5.46L7.17 5.45L7.19 5.44L7.21 5.43L7.24 5.42L7.26 5.41L7.28 5.39L7.3 5.38L7.32 5.36L7.34 5.35L7.35 5.33L7.37 5.31L7.39 5.3L7.4 5.28L7.42 5.26L7.43 5.24L7.44 5.21L7.45 5.19L7.46 5.17L7.47 5.15L7.48 5.12L7.49 5.1L7.49 5.08L7.49 5.05L7.5 5.03L7.5 5L7.5 4.98L7.5 3.5L20.5 3.5L20.5 16.5L18.98 16.5L18.96 16.5L18.9301 16.5L18.91 16.51L18.88 16.51L18.86 16.51L18.84 16.52L18.8101 16.53L18.79 16.54L18.77 16.55L18.75 16.5601L18.72 16.5699L18.7 16.58L18.6801 16.6L18.66 16.61L18.65 16.63L18.63 16.65L18.61 16.66L18.6 16.6801L18.58 16.7L18.5699 16.72L18.55 16.74L18.54 16.76L18.53 16.79L18.52 16.8101L18.51 16.83L18.5 16.85L18.5 16.88L18.49 16.9L18.49 16.9301L18.48 16.95L18.48 16.98L18.48 17L18.48 17.02L18.48 17.05L18.49 17.0699L18.49 17.1L18.5 17.12L18.5 17.15L18.51 17.17L18.52 17.1899L18.53 17.21L18.54 17.24L18.55 17.26L18.5699 17.28L18.58 17.3L18.6 17.3199L18.61 17.34L18.63 17.35L18.65 17.37L18.66 17.39L18.6801 17.4L18.7 17.42L18.72 17.4301L18.75 17.4399L18.77 17.45L18.79 17.46L18.8101 17.47L18.84 17.48L18.86 17.49L18.88 17.49L18.91 17.49L18.9301 17.5L18.96 17.5L18.98 17.5L20.6 17.5C20.6147 17.5 20.6253 17.5 20.64 17.5C20.6547 17.5 20.6753 17.5 20.6899 17.5C20.7046 17.5 20.7154 17.49 20.73 17.49C20.7446 17.49 20.7656 17.48 20.78 17.48C20.7945 17.48 20.8056 17.47 20.8199 17.47C20.8342 17.47 20.8459 17.46 20.86 17.46C20.8741 17.46 20.8862 17.45 20.9 17.45C20.9139 17.45 20.9263 17.4301 20.9399 17.4301C20.9536 17.4301 20.9667 17.41 20.98 17.41C20.9933 17.41 21.007 17.39 21.02 17.39C21.033 17.39 21.0474 17.37 21.0601 17.37C21.0727 17.37 21.0877 17.35 21.1 17.35C21.1122 17.35 21.1282 17.3199 21.14 17.3199C21.1518 17.3199 21.1587 17.29 21.17 17.29C21.1814 17.29 21.189 17.27 21.2 17.27C21.2109 17.27 21.2296 17.2504 21.24 17.24C21.2504 17.2296 21.27 17.2109 21.27 17.2C21.27 17.189 21.3 17.1814 21.3 17.17C21.3 17.1586 21.3199 17.1418 21.3199 17.13C21.3199 17.1181 21.35 17.1122 21.35 17.1C21.35 17.0877 21.37 17.0727 21.37 17.0601C21.37 17.0474 21.39 17.033 21.39 17.02C21.39 17.007 21.41 16.9933 21.41 16.98C21.41 16.9667 21.4301 16.9536 21.4301 16.9399C21.4301 16.9263 21.45 16.9139 21.45 16.9C21.45 16.8861 21.46 16.8741 21.46 16.86C21.46 16.8459 21.47 16.8342 21.47 16.8199C21.47 16.8056 21.48 16.7845 21.48 16.77C21.48 16.7556 21.49 16.7446 21.49 16.73C21.49 16.7154 21.5 16.7046 21.5 16.6899C21.5 16.6753 21.5 16.6547 21.5 16.64C21.5 16.6253 21.5 16.6147 21.5 16.6L21.5 3.4C21.5 3.38526 21.5 3.37473 21.5 3.36C21.5 3.34528 21.5 3.32467 21.5 3.31C21.5 3.29532 21.49 3.28458 21.49 3.27C21.49 3.25543 21.48 3.24447 21.48 3.23C21.48 3.21554 21.47 3.19429 21.47 3.18C21.47 3.1657 21.46 3.15411 21.46 3.14C21.46 3.1259 21.45 3.11389 21.45 3.1C21.45 3.08612 21.43 3.07363 21.43 3.06C21.43 3.04638 21.41 3.03332 21.41 3.02C21.41 3.00667 21.39 2.99301 21.39 2.98C21.39 2.967 21.37 2.95265 21.37 2.94C21.37 2.92734 21.35 2.91226 21.35 2.9C21.35 2.88774 21.32 2.88185 21.32 2.87C21.32 2.85816 21.3 2.84141 21.3 2.83C21.3 2.81859 21.27 2.81093 21.27 2.8C21.27 2.78906 21.2504 2.77044 21.24 2.76C21.2296 2.74957 21.2109 2.73 21.2 2.73C21.1891 2.73 21.1814 2.71 21.17 2.71C21.1586 2.71 21.1518 2.68 21.14 2.68C21.1282 2.68 21.1122 2.65 21.1 2.65C21.0878 2.65 21.0726 2.63 21.06 2.63C21.0474 2.63 21.033 2.61 21.02 2.61C21.007 2.61 20.9933 2.59 20.98 2.59C20.9667 2.59 20.9536 2.57 20.94 2.57C20.9264 2.57 20.9139 2.55 20.9 2.55C20.8861 2.55 20.8741 2.54 20.86 2.54C20.8459 2.54 20.8343 2.53 20.82 2.53C20.8057 2.53 20.7945 2.52 20.78 2.52C20.7655 2.52 20.7446 2.51 20.73 2.51C20.7154 2.51 20.7047 2.5 20.69 2.5C20.6753 2.5 20.6547 2.5 20.64 2.5C20.6253 2.5 20.6147 2.5 20.6 2.5Z"   fill="#000000" ></path></svg>