<svg xmlns="http://www.w3.org/2000/svg" xmlns:xlink="http://www.w3.org/1999/xlink" width="24" height="24" viewBox="0 0 24 24" fill="none"><path d="M2.57477 13.68C2.59535 13.68 2.61423 13.68 2.63477 13.68L2.66477 13.68L2.68477 13.68L2.71477 13.67L2.73477 13.66L2.75477 13.65L2.77477 13.65L2.80477 13.63L2.82477 13.62L2.84477 13.61L2.86477 13.6L2.88477 13.58L2.90477 13.57L2.92477 13.55L2.93477 13.53L2.95477 13.52L2.97477 13.5L2.98477 13.48L2.99477 13.46L3.01477 13.44L3.02477 13.41L3.03477 13.39L3.04477 13.37L3.05477 13.35L3.05477 13.32L3.06477 13.3L3.06477 13.27L3.07477 13.25L3.07477 13.23L3.07477 13.2L3.07477 13.18L3.07477 13.15L3.07477 13.13C3.05918 13.0065 3.04522 12.884 3.03477 12.76C3.02435 12.6359 3.01477 12.5044 3.01477 12.38C3.01477 12.2556 3.00477 12.1345 3.00477 12.01C3.00477 11.8855 3.01477 11.7644 3.01477 11.64C3.01477 11.5156 3.02438 11.3841 3.03477 11.26C3.04516 11.1359 3.05921 11.0135 3.07477 10.89C3.09033 10.7665 3.10406 10.6427 3.12477 10.52C3.14551 10.3972 3.16895 10.2818 3.19477 10.16C3.22059 10.0382 3.25387 9.9106 3.28477 9.79C3.31567 9.66936 3.34886 9.5492 3.38477 9.43C3.42068 9.3108 3.45391 9.1976 3.49477 9.08C3.53563 8.96243 3.57903 8.84578 3.62477 8.73C3.67052 8.61422 3.72421 8.49379 3.77477 8.38C3.82533 8.26624 3.87948 8.16155 3.93477 8.05C3.99002 7.93842 4.04489 7.81914 4.10477 7.71C4.16468 7.60086 4.23037 7.49653 4.29477 7.39C4.35917 7.28343 4.41597 7.18376 4.48477 7.08C4.55357 6.97623 4.63167 6.87077 4.70477 6.77C4.77787 6.66923 4.84754 6.56764 4.92477 6.47C5.002 6.37235 5.0835 6.27432 5.16477 6.18C5.24601 6.08567 5.32963 6.00084 5.41477 5.91C5.49991 5.81912 5.58592 5.72719 5.67477 5.64C5.76363 5.55277 5.85233 5.46338 5.94477 5.38C6.03721 5.29658 6.13895 5.21949 6.23477 5.14C6.33059 5.06053 6.42569 4.98539 6.52477 4.91C6.62385 4.83459 6.72263 4.76117 6.82477 4.69C6.92691 4.61882 7.02973 4.54685 7.13477 4.48C7.23977 4.41314 7.34703 4.3524 7.45477 4.29C7.56251 4.22761 7.67452 4.15785 7.78477 4.1C7.89502 4.04215 8.00221 3.99316 8.11477 3.94C8.22733 3.88682 8.34006 3.83843 8.45477 3.79C8.56948 3.74159 8.68814 3.69358 8.80477 3.65C8.92137 3.60641 9.03642 3.55866 9.15477 3.52C9.27312 3.48134 9.39492 3.45369 9.51477 3.42C9.63462 3.38631 9.75362 3.34863 9.87477 3.32C9.99592 3.29137 10.1225 3.26355 10.2448 3.24C10.367 3.21645 10.4816 3.19841 10.6048 3.18C10.7279 3.16159 10.851 3.14324 10.9748 3.13C11.0986 3.11674 11.2306 3.1 11.3548 3.1C11.479 3.1 11.6003 3.09 11.7248 3.09C11.8492 3.09 11.9703 3.08 12.0948 3.08C12.2192 3.08 12.3505 3.1 12.4748 3.1C12.599 3.1 12.7209 3.11726 12.8448 3.13C12.9686 3.14276 13.0916 3.16209 13.2148 3.18C13.3379 3.19793 13.4624 3.21695 13.5848 3.24C13.7071 3.26307 13.8235 3.28185 13.9448 3.31C14.0661 3.33815 14.1848 3.37679 14.3048 3.41C14.4248 3.44321 14.5463 3.47182 14.6648 3.51C14.7833 3.5482 14.898 3.59689 15.0148 3.64C15.1316 3.68313 15.2499 3.72203 15.3648 3.77C15.4796 3.81795 15.592 3.86725 15.7048 3.92C15.8176 3.97272 15.9343 4.03261 16.0448 4.09C16.1552 4.14741 16.2668 4.20803 16.3748 4.27C16.4827 4.33197 16.5895 4.39358 16.6948 4.46C16.8001 4.52644 16.9024 4.59924 17.0048 4.67C17.1072 4.74078 17.2054 4.805 17.3048 4.88C17.4041 4.95501 17.4986 5.0409 17.5948 5.12C17.6909 5.19907 17.792 5.27695 17.8848 5.36C17.9775 5.44306 18.0656 5.52316 18.1548 5.61C18.244 5.69683 18.3293 5.78948 18.4148 5.88C18.5002 5.97051 18.5831 6.066 18.6648 6.16C18.7464 6.254 18.8271 6.34268 18.9048 6.44C18.9824 6.53735 19.0613 6.63952 19.1348 6.74C19.2083 6.84051 19.2756 6.94649 19.3448 7.05L19.3648 7.07L19.3748 7.09L19.3948 7.1L19.4048 7.12L19.4248 7.14L19.4448 7.16L19.4648 7.17L19.4848 7.18L19.5048 7.2L19.5248 7.21L19.5448 7.22L19.5748 7.23L19.5948 7.24L19.6148 7.25L19.6448 7.25L19.6648 7.26L19.6948 7.26L19.7148 7.27L19.7348 7.27L19.7648 7.27L19.7848 7.27L19.8148 7.27L19.8348 7.26L19.8648 7.26L19.8848 7.25L19.9048 7.25L19.9348 7.24L19.9548 7.23L19.9748 7.22L19.9948 7.21L20.0248 7.2L20.0448 7.18L20.0648 7.17L20.0848 7.16L20.1048 7.14L20.1148 7.12L20.1348 7.1L20.1548 7.09L20.1648 7.07L20.1848 7.05L20.1948 7.03L20.2048 7L20.2148 6.98L20.2248 6.96L20.2348 6.94L20.2448 6.91L20.2448 6.89L20.2548 6.87L20.2548 6.84L20.2648 6.82L20.2648 6.79L20.2648 6.77L20.2648 6.74L20.2648 6.72L20.2548 6.69L20.2548 6.67L20.2448 6.65L20.2448 6.62L20.2348 6.6L20.2248 6.58L20.2148 6.55L20.2048 6.53L20.1948 6.51L20.1848 6.49C20.1081 6.37451 20.0263 6.26216 19.9448 6.15C19.8633 6.03783 19.7809 5.92865 19.6948 5.82C19.6086 5.71135 19.5154 5.60494 19.4248 5.5C19.3342 5.39506 19.2397 5.29104 19.1448 5.19C19.0499 5.08893 18.9538 4.98696 18.8548 4.89C18.7557 4.79302 18.6578 4.70275 18.5548 4.61C18.4517 4.51727 18.3416 4.41834 18.2348 4.33C18.1279 4.24165 18.0252 4.16376 17.9148 4.08C17.8043 3.99621 17.6886 3.90907 17.5748 3.83C17.4609 3.7509 17.3519 3.67423 17.2348 3.6C17.1177 3.52576 16.9949 3.45926 16.8748 3.39C16.7547 3.32073 16.6377 3.25416 16.5148 3.19C16.3919 3.12584 16.2603 3.05898 16.1348 3C16.0093 2.94105 15.8826 2.88366 15.7548 2.83C15.6269 2.77634 15.5047 2.72825 15.3748 2.68C15.2448 2.63177 15.1066 2.58276 14.9748 2.54C14.8429 2.49724 14.7183 2.45718 14.5848 2.42C14.4512 2.3828 14.3098 2.35156 14.1748 2.32C14.0398 2.28844 13.911 2.25587 13.7748 2.23C13.6386 2.20412 13.5019 2.19014 13.3648 2.17C13.2276 2.14985 13.0827 2.12439 12.9448 2.11C12.8069 2.09563 12.6731 2.08 12.5348 2.08C12.3964 2.08 12.2534 2.06 12.1148 2.06C11.9762 2.06 11.8434 2.06 11.7048 2.06C11.5662 2.06 11.4231 2.08 11.2848 2.08C11.1464 2.08 11.0126 2.10537 10.8748 2.12C10.7369 2.13463 10.5919 2.14959 10.4548 2.17C10.3177 2.1904 10.1809 2.21388 10.0448 2.24C9.90864 2.26613 9.77973 2.2882 9.64477 2.32C9.50981 2.35182 9.37823 2.39255 9.24477 2.43C9.11128 2.46742 8.97657 2.507 8.84477 2.55C8.71297 2.593 8.58465 2.64151 8.45477 2.69C8.32489 2.73849 8.1925 2.78612 8.06477 2.84C7.93704 2.8939 7.81016 2.9508 7.68477 3.01C7.55942 3.06919 7.43755 3.1256 7.31477 3.19C7.19199 3.25438 7.06472 3.3305 6.94477 3.4C6.82479 3.46948 6.71172 3.53555 6.59477 3.61C6.47782 3.68445 6.3585 3.76071 6.24477 3.84C6.13104 3.91929 6.02505 4.00602 5.91477 4.09C5.80446 4.17398 5.69147 4.26146 5.58477 4.35C5.47807 4.43854 5.37766 4.52707 5.27477 4.62C5.17188 4.71292 5.06365 4.80284 4.96477 4.9C4.86589 4.99715 4.76949 5.09878 4.67477 5.2C4.58002 5.30124 4.48519 5.4049 4.39477 5.51C4.30435 5.6151 4.2207 5.72122 4.13477 5.83C4.04885 5.93878 3.96607 6.0477 3.88477 6.16C3.80347 6.27229 3.72128 6.38438 3.64477 6.5C3.56826 6.61562 3.49637 6.74125 3.42477 6.86C3.35317 6.97871 3.28132 7.09839 3.21477 7.22C3.14819 7.34161 3.08618 7.46569 3.02477 7.59C2.96336 7.71428 2.9009 7.83324 2.84477 7.96C2.78864 8.08675 2.73556 8.221 2.68477 8.35C2.63401 8.479 2.59013 8.60898 2.54477 8.74C2.49945 8.87102 2.45456 8.99719 2.41477 9.13C2.37495 9.26281 2.33896 9.39566 2.30477 9.53C2.27058 9.66437 2.24332 9.80432 2.21477 9.94C2.18625 10.0757 2.15759 10.2132 2.13477 10.35C2.11195 10.4867 2.09186 10.6224 2.07477 10.76C2.05771 10.8976 2.04607 11.0318 2.03477 11.17C2.02347 11.3082 2.00477 11.4515 2.00477 11.59C2.00477 11.7285 2.00477 11.8614 2.00477 12C2.00477 12.1386 2.00477 12.2815 2.00477 12.42C2.00477 12.5585 2.02285 12.6919 2.03477 12.83C2.04672 12.9681 2.06706 13.1125 2.08477 13.25L2.08477 13.27L2.08477 13.29L2.09477 13.31L2.10477 13.33L2.10477 13.36L2.11477 13.38L2.12477 13.4L2.13477 13.42L2.14477 13.44L2.15477 13.46L2.17477 13.48L2.18477 13.49L2.19477 13.51L2.21477 13.53L2.22477 13.54L2.24477 13.56L2.26477 13.57L2.28477 13.59L2.29477 13.6L2.31477 13.61L2.33477 13.62L2.35477 13.63L2.37477 13.64L2.39477 13.65L2.42477 13.66L2.44477 13.67L2.46477 13.67L2.48477 13.68L2.50477 13.68L2.53477 13.68L2.55477 13.68L2.57477 13.68Z"   fill="#000000" ></path><path d="M4.25471 21.25L4.15471 21.25L4.12471 21.24L4.10471 21.24L4.08471 21.23L4.05471 21.22L4.03471 21.21L4.01471 21.2L3.99471 21.19L3.96471 21.18L3.94471 21.17L3.92471 21.15L3.90471 21.14L3.89471 21.12L3.87471 21.11L3.85471 21.09L3.84471 21.07L3.82471 21.05L3.81471 21.03L3.79471 21.01L3.78471 20.99L3.77471 20.97L3.76471 20.94L3.74471 20.9L3.74471 20.87L3.73471 20.85L3.73471 20.83L3.72471 20.8L3.72471 17.18L3.73198 17.1654L3.73198 17.1607L3.73471 17.1552L3.73471 17.14L3.7424 17.1169L3.7424 17.1086L3.74471 17.1039L3.74471 17.09L3.75282 17.0738L3.75282 17.0669L3.76159 17.0493L3.76471 17.04L3.76636 17.0367L3.77365 17.0148L3.78407 16.994L3.79449 16.9731L3.81533 16.9523L3.82575 16.9314L3.83617 16.921L3.85221 16.905L3.85471 16.9L3.87471 16.88L3.88035 16.8743L3.88826 16.8585L3.9041 16.8506L3.90471 16.85L3.92471 16.83L3.92971 16.8275L3.92994 16.8273L3.94494 16.8198L3.96471 16.8L3.99471 16.79L4.01471 16.78L4.03471 16.77L4.05471 16.76L4.06924 16.76L4.08622 16.7543L4.10706 16.7439L4.11687 16.7439L4.12471 16.74L4.1605 16.74L4.18 16.7335L4.19421 16.7335L4.20471 16.73L4.25471 16.73L4.26171 16.7335L7.79539 16.7335L7.81623 16.7439L7.86832 16.7439L7.91 16.7647L7.93084 16.7752L7.9621 16.7856L7.98293 16.796L8.02461 16.8168L8.04545 16.8273L8.05587 16.8481L8.0767 16.8585L8.09754 16.8793L8.11838 16.9002L8.1288 16.921L8.14964 16.9314L8.17048 16.9731L8.18089 16.994L8.19131 17.0148L8.20173 17.0461L8.21215 17.0669L8.22257 17.0877L8.23299 17.1086L8.23299 17.1607L8.24341 17.1815L8.24341 17.2857L8.23299 17.3065L8.23299 17.3586L8.22257 17.3795L8.21215 17.4003L8.19131 17.442L8.18089 17.4732L8.17048 17.4941L8.16006 17.5149L8.14964 17.5357L8.1288 17.5462L8.11838 17.567L8.09754 17.5878L8.0767 17.6087L8.05587 17.6191L8.04545 17.6399L8.00377 17.6608L7.98293 17.6712L7.9621 17.6816L7.93084 17.692L7.91 17.7024L7.86832 17.7233L7.81623 17.7233L7.79539 17.7337L4.72471 17.7337L4.72471 20.83L4.71471 20.85L4.71471 20.87L4.70471 20.9L4.68471 20.94L4.67471 20.97L4.66471 20.99L4.64471 21.03L4.62471 21.05L4.61471 21.07L4.59471 21.09L4.58471 21.11L4.56471 21.12L4.54471 21.14L4.52471 21.15L4.50471 21.17L4.48471 21.18L4.46471 21.19L4.44471 21.2L4.41471 21.21L4.39471 21.22L4.37471 21.23L4.34471 21.24L4.32471 21.24L4.30471 21.25L4.25471 21.25Z" fill-rule="evenodd"  fill="#000000" ></path><path d="M12.0707 21.9301C12.2462 21.9301 12.4268 21.9197 12.6021 21.9197C12.7774 21.9197 12.9484 21.8963 13.123 21.878C13.2976 21.8597 13.4706 21.843 13.644 21.8155C13.8173 21.788 13.9933 21.7479 14.1649 21.7113C14.3366 21.6746 14.506 21.6424 14.6754 21.5967C14.8449 21.5509 15.0088 21.4951 15.1755 21.4404C15.3424 21.3857 15.512 21.3267 15.6757 21.2633C15.8393 21.1998 16.0053 21.1374 16.1654 21.0653C16.3254 20.9932 16.4782 20.9166 16.6342 20.8361C16.7902 20.7556 16.9411 20.6643 17.0926 20.5756C17.2442 20.4869 17.3941 20.4013 17.5407 20.3047C17.6873 20.2081 17.837 20.1068 17.9783 20.0026C18.1195 19.8983 18.2595 19.7912 18.395 19.6796C18.5305 19.568 18.6615 19.4544 18.7909 19.3357C18.9203 19.2171 19.0431 19.086 19.166 18.9607C19.289 18.8353 19.4042 18.7069 19.5203 18.5752C19.6364 18.4435 19.7552 18.3169 19.8641 18.1792C19.973 18.0416 20.0752 17.8953 20.1767 17.7521C20.2781 17.6088 20.3747 17.4629 20.4684 17.3145C20.5621 17.166 20.6536 17.0196 20.7393 16.8664C20.825 16.7133 20.912 16.5551 20.9894 16.3976C21.0668 16.2401 21.1392 16.0798 21.2082 15.9183C21.2771 15.7569 21.3354 15.5935 21.3957 15.4286C21.456 15.2637 21.511 15.0963 21.5624 14.9285C21.6138 14.7607 21.6658 14.5987 21.7083 14.4284C21.7507 14.2581 21.7896 14.0798 21.8229 13.9074C21.8562 13.7351 21.8821 13.5604 21.9062 13.3865C21.9303 13.2126 21.9539 13.0404 21.9687 12.8655C21.9836 12.6906 22 12.52 22 12.3446C22 12.1691 22 11.9887 22 11.8132C22 11.6377 21.9819 11.4673 21.9687 11.2923C21.9556 11.1172 21.939 10.935 21.9166 10.7609L21.9166 10.7401L21.9062 10.7192L21.9062 10.688L21.8958 10.6671L21.8854 10.6463L21.875 10.6255L21.8646 10.6046L21.8541 10.5838L21.8437 10.5525L21.8333 10.5421L21.8125 10.5213L21.802 10.5004L21.7812 10.4796L21.7708 10.4588L21.7499 10.4483L21.7291 10.4275L21.7083 10.4171L21.6874 10.4067L21.6666 10.3858L21.6458 10.3754L21.6249 10.365L21.6041 10.3546L21.5728 10.3441L21.552 10.3441L21.5311 10.3337L21.5103 10.3337L21.479 10.3233L21.4582 10.3233L21.427 10.3233L21.4061 10.3233L21.3853 10.3233L21.354 10.3233L21.3332 10.3337L21.3123 10.3337L21.2811 10.3441L21.2603 10.3441L21.2394 10.3546L21.2186 10.365L21.1873 10.3754L21.1665 10.3858L21.1456 10.4067L21.1248 10.4171L21.104 10.4275L21.0935 10.4483L21.0727 10.4588L21.0519 10.4796L21.0415 10.5004L21.0206 10.5213L21.0102 10.5421L20.9894 10.5525L20.9789 10.5838L20.9685 10.6046L20.9581 10.6255L20.9477 10.6463L20.9373 10.6671L20.9373 10.688L20.9268 10.7192L20.9268 10.7401L20.9164 10.7609L20.9164 10.7922L20.9164 10.813L20.9164 10.8443L20.9164 10.8651L20.9164 10.8859C20.9319 11.0094 20.9581 11.137 20.9581 11.261C20.9581 11.385 20.9789 11.5117 20.9789 11.6361C20.9789 11.7605 20.9894 11.8763 20.9894 12.0008C20.9894 12.1252 20.9789 12.2515 20.9789 12.3758C20.9789 12.5002 20.9685 12.6269 20.9581 12.7509C20.9476 12.875 20.9321 13.0026 20.9164 13.126C20.9008 13.2495 20.8851 13.368 20.8643 13.4907C20.8436 13.6134 20.8173 13.7336 20.7914 13.8553C20.7655 13.9771 20.739 14.0995 20.708 14.22C20.6771 14.3405 20.6398 14.4655 20.6039 14.5847C20.5679 14.7038 20.5302 14.8214 20.4892 14.9389C20.4483 15.0565 20.41 15.167 20.3642 15.2828C20.3184 15.3985 20.269 15.5129 20.2183 15.6266C20.1678 15.7403 20.1174 15.8589 20.0621 15.9704C20.0067 16.0819 19.9449 16.1947 19.8849 16.3038C19.825 16.4129 19.7618 16.5203 19.6974 16.6268C19.633 16.7333 19.5683 16.8357 19.4994 16.9394C19.4306 17.0431 19.3642 17.1408 19.2911 17.2415C19.218 17.3422 19.1391 17.4461 19.0618 17.5437C18.9846 17.6413 18.9035 17.7307 18.8222 17.825C18.7409 17.9193 18.6573 18.0155 18.5721 18.1063C18.487 18.1971 18.4006 18.2901 18.3117 18.3772C18.2228 18.4644 18.1332 18.5439 18.0408 18.6273C17.9484 18.7106 17.8553 18.7979 17.7595 18.8773C17.6636 18.9567 17.5668 19.0312 17.4677 19.1065C17.3687 19.1819 17.2677 19.2542 17.1656 19.3253C17.0635 19.3964 16.958 19.4669 16.853 19.5337C16.748 19.6005 16.6377 19.6693 16.53 19.7317C16.4223 19.794 16.3173 19.851 16.207 19.9088C16.0968 19.9666 15.9862 20.0224 15.8736 20.0755C15.7611 20.1286 15.6445 20.173 15.5298 20.2214C15.4151 20.2697 15.3026 20.3237 15.186 20.3672C15.0694 20.4108 14.95 20.4432 14.8317 20.4818C14.7134 20.5205 14.5973 20.5628 14.4775 20.5964C14.3577 20.6301 14.234 20.6616 14.1128 20.6902C13.9917 20.7188 13.8704 20.7396 13.7481 20.7632C13.6259 20.7867 13.5066 20.8073 13.3835 20.8257C13.2604 20.8441 13.1322 20.8645 13.0084 20.8778C12.8846 20.8909 12.7679 20.909 12.6437 20.909C12.5195 20.909 12.3931 20.9299 12.2686 20.9299C12.1442 20.9299 12.018 20.9299 11.8936 20.9299C11.7691 20.9299 11.6427 20.909 11.5185 20.909C11.3943 20.909 11.2672 20.8905 11.1434 20.8778C11.0196 20.865 10.9019 20.854 10.7787 20.8361C10.6556 20.8181 10.5364 20.7967 10.4141 20.7736C10.2918 20.7505 10.1602 20.7288 10.039 20.7006C9.91776 20.6725 9.80468 20.6401 9.68473 20.6069C9.56478 20.5737 9.43852 20.5305 9.32006 20.4923C9.20161 20.4541 9.09299 20.4208 8.97624 20.3776C8.85948 20.3345 8.73686 20.2902 8.62199 20.2422C8.50715 20.1942 8.39092 20.1386 8.27816 20.0859C8.16544 20.0332 8.0552 19.9766 7.94475 19.9192C7.83431 19.8618 7.72973 19.8041 7.62177 19.7421C7.51383 19.6801 7.40404 19.6209 7.29878 19.5545C7.19351 19.4881 7.0886 19.4169 6.98621 19.3462C6.88384 19.2754 6.78343 19.2024 6.68405 19.1274C6.58475 19.0524 6.48847 18.9772 6.39232 18.8981C6.29621 18.8191 6.20374 18.7311 6.11101 18.6481C6.01828 18.5651 5.92929 18.4848 5.84011 18.398C5.75093 18.3112 5.66514 18.2176 5.57964 18.1271C5.4942 18.0367 5.41121 17.9502 5.32958 17.8562C5.24799 17.7623 5.16757 17.6618 5.08995 17.5645C5.01232 17.4672 4.93421 17.3732 4.86073 17.2728C4.78727 17.1723 4.71115 17.0637 4.64193 16.9602L4.63151 16.9498L4.62109 16.929L4.60025 16.9081L4.57941 16.8873L4.56899 16.8769L4.54816 16.856L4.52732 16.8456L4.50648 16.8248L4.48564 16.8143L4.46481 16.8039L4.44397 16.7935L4.42313 16.7831L4.40229 16.7727L4.37103 16.7623L4.3502 16.7623L4.32936 16.7518L4.2981 16.7518L4.27726 16.7414L4.25643 16.7414L4.22517 16.7414L4.20433 16.7414L4.18349 16.7414L4.15224 16.7518L4.1314 16.7518L4.11056 16.7623L4.0793 16.7623L4.05846 16.7727L4.03763 16.7831L4.01679 16.7935L3.99595 16.8039L3.97511 16.8143L3.95427 16.8248L3.93344 16.8456L3.9126 16.856L3.89176 16.8769L3.87092 16.8873L3.8605 16.9081L3.83966 16.929L3.82924 16.9498L3.80841 16.9602L3.79799 16.9811L3.78757 17.0123L3.77715 17.0331L3.76673 17.054L3.75631 17.0748L3.74589 17.0957L3.74589 17.1269L3.73547 17.1478L3.73547 17.1686L3.72506 17.1894L3.72506 17.2207L3.72506 17.2415L3.72506 17.2728L3.72506 17.2936L3.73547 17.3145L3.73547 17.3457L3.74589 17.3666L3.74589 17.3874L3.75631 17.4082L3.76673 17.4395L3.77715 17.4603L3.78757 17.4812L3.79799 17.502L3.80841 17.5228C3.8648 17.6074 3.92657 17.6901 3.98553 17.7729C4.0445 17.8557 4.10118 17.942 4.16265 18.023C4.22416 18.1039 4.28625 18.1836 4.3502 18.2626C4.41414 18.3415 4.48183 18.4148 4.54816 18.4918C4.61451 18.5688 4.68787 18.6461 4.75654 18.721C4.82524 18.7959 4.89397 18.8671 4.96492 18.9398C5.03586 19.0126 5.10017 19.0881 5.1733 19.1586C5.24646 19.2292 5.32724 19.2987 5.40252 19.367C5.47779 19.4352 5.55441 19.499 5.63173 19.565C5.7091 19.6309 5.78164 19.6994 5.86095 19.7629C5.9403 19.8265 6.01935 19.8894 6.10059 19.9505C6.18186 20.0115 6.26755 20.0691 6.35065 20.1276C6.43374 20.1861 6.51585 20.2384 6.6007 20.2943C6.68555 20.3502 6.77467 20.4077 6.86118 20.461C6.94772 20.5143 7.03355 20.5667 7.12165 20.6173C7.20976 20.6679 7.30291 20.7153 7.39255 20.7632C7.48222 20.811 7.57241 20.8639 7.66344 20.909C7.75454 20.9541 7.84193 20.9918 7.93434 21.034C8.02677 21.0763 8.12201 21.1196 8.21565 21.1591C8.30932 21.1985 8.40215 21.2372 8.49696 21.2737C8.59181 21.3102 8.68236 21.3443 8.77828 21.3779C8.8742 21.4114 8.97311 21.441 9.07001 21.4716C9.16694 21.5023 9.26396 21.5378 9.36174 21.5654C9.45955 21.593 9.5653 21.6137 9.66389 21.6383C9.76248 21.663 9.85632 21.6897 9.95562 21.7113C10.055 21.7328 10.1579 21.7553 10.2578 21.7738C10.3577 21.7923 10.4595 21.8 10.5599 21.8155C10.6604 21.8309 10.7612 21.8448 10.8621 21.8571C10.9629 21.8695 11.063 21.8988 11.1642 21.8988C11.2654 21.8988 11.365 21.9197 11.4664 21.9197C11.5678 21.9197 11.667 21.9301 11.7685 21.9301C11.8701 21.9301 11.9691 21.9301 12.0707 21.9301Z"   fill="#000000" ></path><path d="M19.7857 7.28458C19.7817 7.28468 19.7776 7.28472 19.7736 7.28472L19.7614 7.28458L16.2137 7.28458L16.1837 7.27458L16.1337 7.27458L16.1037 7.26458L16.0837 7.25458L16.0637 7.24458L16.0437 7.23458L16.0237 7.22458L16.0037 7.21458L15.9837 7.20458L15.9637 7.19458L15.9437 7.17458L15.9137 7.16458L15.8937 7.13458L15.8837 7.11458L15.8337 7.06458L15.8237 7.04458L15.8137 7.02458L15.8037 7.00458L15.7937 6.97458L15.7837 6.95458L15.7737 6.93458L15.7737 6.91458L15.7637 6.87458L15.7637 6.83458L15.7537 6.80458L15.7537 6.76458L15.7637 6.73458L15.7637 6.69458L15.7737 6.66458L15.7737 6.63458L15.7837 6.61458L15.7937 6.59458L15.8037 6.56458L15.8137 6.54458L15.8237 6.52458L15.8337 6.50458L15.8537 6.48458L15.8637 6.47458L15.8837 6.45458L15.8937 6.43458L15.9137 6.41458L15.9437 6.39458L15.9637 6.37458L16.1037 6.30458L16.1337 6.29458L16.1837 6.29458L16.2137 6.28458L19.2735 6.28458L19.2735 3.26549C19.2735 3.25731 19.2737 3.24913 19.274 3.24094C19.2745 3.23278 19.2751 3.22462 19.2759 3.21646C19.2767 3.20832 19.2777 3.2002 19.2789 3.1921C19.2801 3.18401 19.2815 3.17594 19.2831 3.16791C19.2846 3.1599 19.2864 3.15193 19.2884 3.14398C19.2904 3.13604 19.2926 3.12815 19.295 3.12031C19.2973 3.11247 19.2999 3.1047 19.3027 3.097C19.3055 3.08929 19.3084 3.08166 19.3115 3.07411C19.3146 3.06656 19.318 3.05908 19.3214 3.05168C19.325 3.04427 19.3286 3.03696 19.3325 3.02973C19.3364 3.02252 19.3404 3.0154 19.3446 3.00837C19.3488 3.00136 19.3532 2.99445 19.3577 2.98763C19.3623 2.98084 19.367 2.97415 19.3719 2.96757C19.3767 2.961 19.3818 2.95455 19.387 2.94823C19.3921 2.9419 19.3975 2.9357 19.403 2.92964C19.4085 2.92357 19.4141 2.91764 19.4199 2.91187C19.4257 2.90607 19.4316 2.90043 19.4377 2.89493C19.4438 2.88944 19.45 2.8841 19.4563 2.87892C19.4626 2.87371 19.4691 2.86867 19.4757 2.86381C19.4822 2.85892 19.4889 2.85421 19.4957 2.84968C19.5025 2.84512 19.5094 2.84073 19.5164 2.83652C19.5235 2.83231 19.5306 2.82829 19.5378 2.82444C19.545 2.82058 19.5523 2.8169 19.5597 2.81341C19.5671 2.80989 19.5746 2.80657 19.5822 2.80344C19.5897 2.80032 19.5974 2.79738 19.6051 2.79462C19.6128 2.79186 19.6206 2.78929 19.6284 2.7869C19.6362 2.78454 19.6441 2.78236 19.652 2.78036C19.66 2.77838 19.668 2.77659 19.676 2.77499C19.684 2.7734 19.6921 2.772 19.7002 2.77079C19.7083 2.76959 19.7164 2.76859 19.7245 2.76779C19.7327 2.76699 19.7408 2.76639 19.749 2.766C19.7572 2.76559 19.7654 2.76538 19.7736 2.76538C19.7818 2.76538 19.7899 2.76559 19.7981 2.766C19.8063 2.76639 19.8144 2.76699 19.8226 2.76779C19.8307 2.76859 19.8388 2.76959 19.8469 2.77079C19.855 2.772 19.8631 2.7734 19.8711 2.77499C19.8792 2.77659 19.8871 2.77838 19.8951 2.78036C19.903 2.78236 19.9109 2.78454 19.9187 2.7869C19.9266 2.78929 19.9343 2.79186 19.942 2.79462C19.9497 2.79738 19.9574 2.80032 19.965 2.80344C19.9725 2.80657 19.98 2.80989 19.9874 2.81341C19.9948 2.8169 20.0021 2.82058 20.0093 2.82444C20.0165 2.82829 20.0236 2.83231 20.0307 2.83652C20.0377 2.84073 20.0446 2.84512 20.0514 2.84968C20.0582 2.85421 20.0649 2.85892 20.0715 2.86381C20.078 2.86867 20.0845 2.87371 20.0908 2.87892C20.0971 2.8841 20.1033 2.88944 20.1094 2.89493C20.1155 2.90043 20.1214 2.90607 20.1272 2.91187C20.133 2.91764 20.1386 2.92357 20.1441 2.92964C20.1496 2.9357 20.155 2.9419 20.1601 2.94823C20.1653 2.95455 20.1704 2.961 20.1753 2.96757C20.1801 2.97415 20.1848 2.98084 20.1894 2.98763C20.1939 2.99445 20.1983 3.00136 20.2025 3.00837C20.2067 3.0154 20.2108 3.02252 20.2146 3.02973C20.2185 3.03696 20.2222 3.04427 20.2257 3.05168C20.2292 3.05908 20.2325 3.06656 20.2356 3.07411C20.2387 3.08166 20.2417 3.08929 20.2444 3.097C20.2472 3.1047 20.2498 3.11247 20.2521 3.12031C20.2545 3.12815 20.2567 3.13604 20.2587 3.14398C20.2607 3.15193 20.2625 3.1599 20.264 3.16791C20.2657 3.17594 20.2671 3.18401 20.2682 3.1921C20.2695 3.2002 20.2705 3.20832 20.2713 3.21646C20.2721 3.22462 20.2727 3.23278 20.2731 3.24094C20.2735 3.24913 20.2737 3.25731 20.2737 3.26549L20.2737 6.83458L20.2705 6.84095C20.2698 6.84664 20.2691 6.85232 20.2682 6.858C20.2671 6.86611 20.2657 6.87415 20.264 6.88219L20.2637 6.88401L20.2637 6.91458L20.2537 6.93458L20.2445 6.95293L20.2444 6.95311C20.2417 6.96082 20.2387 6.96844 20.2356 6.976C20.2325 6.9834 20.2293 6.99067 20.2259 6.99789L20.2237 7.00458L20.2137 7.02458L20.2037 7.04458L20.1937 7.06458L20.1837 7.08458L20.1675 7.09265C20.1651 7.09576 20.1626 7.09883 20.1601 7.10187C20.155 7.10822 20.1496 7.11441 20.1441 7.12046C20.1386 7.12655 20.133 7.13248 20.1272 7.13824C20.1218 7.1436 20.1164 7.14882 20.1108 7.15393L20.1037 7.16458L20.0915 7.17068L20.0908 7.17122C20.0878 7.17368 20.0848 7.17611 20.0817 7.17851L20.0737 7.19458L20.0537 7.20458L20.0337 7.21458L20.0137 7.22458L19.9937 7.23458L19.9875 7.23663L19.9874 7.2367C19.98 7.24021 19.9725 7.24354 19.965 7.24666C19.9574 7.24979 19.9497 7.25272 19.942 7.25549L19.9415 7.25569L19.9237 7.26458L19.8937 7.27458L19.8738 7.27458L19.8711 7.27512C19.8631 7.27671 19.855 7.27811 19.8469 7.27932C19.8412 7.28017 19.8355 7.28091 19.8297 7.28155L19.8237 7.28458L19.7857 7.28458Z" fill-rule="evenodd"  fill="#000000" ></path><path fill-rule="evenodd"  fill="rgba(0, 99, 177, 1)"  d="M12 15C13.6569 15 15 13.6569 15 12C15 10.3431 13.6569 9 12 9C10.3431 9 9 10.3431 9 12C9 13.6569 10.3431 15 12 15ZM12 10C13.1046 10 14 10.8954 14 12C14 13.1046 13.1046 14 12 14C10.8954 14 10 13.1046 10 12C10 10.8954 10.8954 10 12 10Z"></path></svg>