<svg xmlns="http://www.w3.org/2000/svg" xmlns:xlink="http://www.w3.org/1999/xlink" width="24" height="24" viewBox="0 0 24 24" fill="none"><path d="M21.251 15.3595L21.251 4.07202L16.481 8.53452L16.481 19.8295L21.251 15.3595Z"   fill="#0082E6" fill-opacity="0.3"></path><path d="M21.5501 2.43005C21.5616 2.43005 21.573 2.43034 21.5844 2.4309C21.5959 2.43146 21.6073 2.4323 21.6187 2.43343C21.6301 2.43455 21.6415 2.43595 21.6528 2.43762C21.6641 2.43931 21.6754 2.44127 21.6867 2.44351C21.6979 2.44574 21.7091 2.44825 21.7202 2.45103C21.7313 2.45381 21.7423 2.45687 21.7533 2.46019C21.7643 2.46352 21.7751 2.46712 21.7859 2.47098C21.7967 2.47483 21.8074 2.47895 21.818 2.48333C21.8285 2.48772 21.839 2.49237 21.8494 2.49727C21.8597 2.50216 21.87 2.50731 21.8801 2.51272C21.8902 2.51811 21.9002 2.52375 21.91 2.52964C21.9198 2.53553 21.9295 2.54166 21.939 2.54801C21.9485 2.55439 21.9579 2.56099 21.9671 2.56782C21.9763 2.57463 21.9853 2.58167 21.9942 2.58894C22.003 2.59622 22.0117 2.6037 22.0202 2.61139C22.0287 2.61908 22.037 2.62698 22.0451 2.63508C22.0532 2.64318 22.0611 2.65147 22.0688 2.65995C22.0765 2.66845 22.0839 2.67712 22.0912 2.68597C22.0985 2.69483 22.1055 2.70386 22.1124 2.71306C22.1192 2.72227 22.1258 2.73163 22.1321 2.74116C22.1385 2.75068 22.1446 2.76035 22.1505 2.77018C22.1564 2.78001 22.162 2.78998 22.1675 2.80009C22.1728 2.81018 22.178 2.82041 22.1829 2.83076C22.1878 2.84112 22.1924 2.85159 22.1968 2.86217C22.2012 2.87276 22.2053 2.88345 22.2092 2.89423C22.213 2.90501 22.2166 2.91589 22.22 2.92686C22.2233 2.93781 22.2263 2.94885 22.2291 2.95998C22.2319 2.97109 22.2344 2.98226 22.2366 2.99349C22.2389 3.00472 22.2408 3.01601 22.2425 3.02733C22.2442 3.03868 22.2456 3.05005 22.2467 3.06144C22.2478 3.07284 22.2487 3.08426 22.2493 3.0957C22.2498 3.10714 22.2501 3.11859 22.2501 3.13006L22.2501 15.4931C22.2501 15.5045 22.2498 15.516 22.2493 15.5274C22.2487 15.5388 22.2478 15.5502 22.2467 15.5617C22.2456 15.5731 22.2442 15.5844 22.2425 15.5958C22.2408 15.6071 22.2389 15.6184 22.2366 15.6296C22.2344 15.6408 22.2319 15.652 22.2291 15.6631C22.2263 15.6743 22.2233 15.6853 22.22 15.6962C22.2166 15.7072 22.213 15.7181 22.2092 15.7289C22.2053 15.7397 22.2012 15.7504 22.1968 15.7609C22.1924 15.7715 22.1878 15.782 22.1829 15.7923C22.178 15.8027 22.1728 15.8129 22.1675 15.823C22.162 15.8331 22.1564 15.8431 22.1505 15.8529C22.1446 15.8627 22.1385 15.8724 22.1321 15.882C22.1258 15.8915 22.1192 15.9008 22.1124 15.91C22.1055 15.9192 22.0985 15.9283 22.0912 15.9371C22.0839 15.946 22.0765 15.9547 22.0688 15.9631C22.0611 15.9716 22.0532 15.9799 22.0451 15.988C22.037 15.9961 22.0287 16.004 22.0202 16.0117C22.0117 16.0194 22.003 16.0269 21.9942 16.0342C21.9853 16.0414 21.9763 16.0485 21.9671 16.0553C21.9579 16.0621 21.9485 16.0687 21.939 16.0751C21.9295 16.0814 21.9198 16.0876 21.91 16.0935C21.9002 16.0993 21.8902 16.105 21.8801 16.1104C21.87 16.1158 21.8597 16.121 21.8494 16.1259C21.839 16.1307 21.8285 16.1354 21.818 16.1398C21.8074 16.1442 21.7967 16.1483 21.7859 16.1521C21.7751 16.156 21.7643 16.1596 21.7533 16.1629C21.7423 16.1662 21.7313 16.1693 21.7202 16.1721C21.7091 16.1749 21.6979 16.1774 21.6867 16.1796C21.6754 16.1818 21.6641 16.1838 21.6528 16.1855C21.6415 16.1872 21.6301 16.1886 21.6187 16.1897C21.6073 16.1908 21.5959 16.1916 21.5844 16.1922C21.573 16.1928 21.5616 16.193 21.5501 16.193L21.3901 16.1911L21.3981 15.2351L21.3621 15.2591C21.3556 15.2642 21.3494 15.2697 21.3434 15.2754C21.3374 15.2811 21.3316 15.287 21.3261 15.2932C21.3206 15.2994 21.3154 15.3058 21.3104 15.3124C21.3054 15.3191 21.3007 15.3259 21.2963 15.3329C21.2919 15.3399 21.2878 15.347 21.284 15.3544C21.2801 15.3617 21.2766 15.3692 21.2734 15.3769C21.2702 15.3845 21.2673 15.3923 21.2648 15.4002C21.2622 15.408 21.26 15.416 21.2581 15.4241L21.2501 15.4931L21.2501 3.43006L8.50611 3.43006L7.5061 3.43205L7.5061 3.13006C7.5061 3.11859 7.50638 3.10714 7.50695 3.0957C7.50751 3.08426 7.50835 3.07284 7.50948 3.06144C7.5106 3.05005 7.512 3.03868 7.51367 3.02733C7.51536 3.01601 7.51732 3.00472 7.51956 2.99349C7.52179 2.98226 7.5243 2.97109 7.52708 2.95998C7.52986 2.94885 7.53292 2.93781 7.53624 2.92686C7.53957 2.91589 7.54317 2.90501 7.54703 2.89423C7.55088 2.88345 7.555 2.87276 7.55938 2.86217C7.56377 2.85159 7.56842 2.84112 7.57332 2.83076C7.57821 2.82041 7.58336 2.81018 7.58877 2.80009C7.59416 2.78998 7.5998 2.78001 7.60569 2.77018C7.61158 2.76035 7.6177 2.75068 7.62406 2.74116C7.63044 2.73163 7.63704 2.72227 7.64387 2.71306C7.65068 2.70386 7.65772 2.69483 7.66499 2.68597C7.67227 2.67712 7.67975 2.66845 7.68744 2.65995C7.69513 2.65147 7.70302 2.64318 7.71113 2.63508C7.71923 2.62698 7.72752 2.61908 7.736 2.61139C7.7445 2.6037 7.75317 2.59622 7.76202 2.58894C7.77088 2.58167 7.77991 2.57463 7.78911 2.56782C7.79832 2.56099 7.80768 2.55439 7.81721 2.54801C7.82673 2.54166 7.8364 2.53553 7.84623 2.52964C7.85606 2.52375 7.86603 2.51811 7.87613 2.51272C7.88623 2.50731 7.89645 2.50216 7.90681 2.49727C7.91717 2.49237 7.92764 2.48772 7.93822 2.48333C7.94881 2.47895 7.9595 2.47483 7.97028 2.47098C7.98106 2.46712 7.99194 2.46352 8.00291 2.46019C8.01386 2.45687 8.0249 2.45381 8.03603 2.45103C8.04713 2.44825 8.05831 2.44574 8.06954 2.44351C8.08077 2.44127 8.09206 2.43931 8.10338 2.43762C8.11473 2.43595 8.1261 2.43455 8.13749 2.43343C8.14889 2.4323 8.16031 2.43146 8.17175 2.4309C8.1832 2.43034 8.19466 2.43005 8.20611 2.43005L21.5501 2.43005Z"   fill="#000000" ></path><path d="M15.793 7.80997C15.8045 7.80997 15.8159 7.81025 15.8273 7.81081C15.8388 7.81137 15.8502 7.81221 15.8616 7.81332C15.873 7.81444 15.8844 7.81585 15.8957 7.81754C15.907 7.81921 15.9183 7.82116 15.9295 7.8234C15.9408 7.82563 15.952 7.82815 15.9631 7.83095C15.9742 7.83373 15.9852 7.83678 15.9962 7.84011C16.0071 7.84342 16.018 7.84702 16.0288 7.85089C16.0396 7.85473 16.0503 7.85885 16.0609 7.86324C16.0715 7.86763 16.0819 7.87227 16.0923 7.87716C16.1026 7.88207 16.1129 7.88722 16.123 7.89261C16.1331 7.89802 16.143 7.90366 16.1529 7.90955C16.1627 7.91544 16.1724 7.92157 16.1819 7.92793C16.1914 7.93429 16.2008 7.94088 16.21 7.94771C16.2192 7.95454 16.2282 7.96159 16.2371 7.96885C16.2459 7.97612 16.2546 7.9836 16.2631 7.9913C16.2716 7.99899 16.2799 8.00688 16.288 8.01498C16.2961 8.02309 16.304 8.03138 16.3116 8.03987C16.3194 8.04835 16.3268 8.05702 16.3341 8.06588C16.3414 8.07474 16.3484 8.08377 16.3552 8.09298C16.3621 8.10218 16.3686 8.11154 16.375 8.12105C16.3814 8.13059 16.3875 8.14027 16.3934 8.15009C16.3993 8.15992 16.405 8.16988 16.4103 8.17998C16.4157 8.19009 16.4209 8.20032 16.4258 8.21068C16.4307 8.22102 16.4353 8.23149 16.4397 8.24208C16.4441 8.25266 16.4482 8.26334 16.4521 8.27412C16.4559 8.28492 16.4595 8.2958 16.4628 8.30675C16.4662 8.31772 16.4692 8.32876 16.472 8.33987C16.4748 8.35098 16.4773 8.36215 16.4795 8.37341C16.4818 8.38464 16.4837 8.39592 16.4854 8.40725C16.4871 8.41858 16.4885 8.42994 16.4896 8.44135C16.4907 8.45276 16.4916 8.46418 16.4921 8.47562C16.4927 8.48705 16.493 8.4985 16.493 8.50995L16.493 20.874C16.493 20.8854 16.4927 20.8969 16.4921 20.9083C16.4916 20.9198 16.4908 20.9312 16.4896 20.9426C16.4885 20.954 16.4871 20.9653 16.4854 20.9767C16.4837 20.988 16.4818 20.9993 16.4795 21.0105C16.4773 21.0218 16.4748 21.0329 16.472 21.044C16.4692 21.0552 16.4662 21.0662 16.4628 21.0772C16.4595 21.0881 16.456 21.099 16.4521 21.1098C16.4482 21.1206 16.4441 21.1313 16.4397 21.1418C16.4353 21.1524 16.4307 21.1629 16.4258 21.1733C16.4209 21.1836 16.4157 21.1938 16.4103 21.2039C16.405 21.214 16.3993 21.224 16.3934 21.2338C16.3875 21.2436 16.3814 21.2533 16.375 21.2629C16.3686 21.2724 16.3621 21.2817 16.3552 21.2909C16.3484 21.3001 16.3414 21.3092 16.3341 21.318C16.3268 21.3269 16.3194 21.3356 16.3116 21.344C16.304 21.3525 16.2961 21.3608 16.288 21.3689C16.2799 21.377 16.2716 21.3849 16.2631 21.3926C16.2546 21.4003 16.2459 21.4078 16.2371 21.4151C16.2282 21.4223 16.2192 21.4294 16.21 21.4362C16.2008 21.443 16.1914 21.4496 16.1819 21.456C16.1724 21.4623 16.1627 21.4685 16.1529 21.4744C16.143 21.4802 16.1331 21.4859 16.123 21.4913C16.1129 21.4967 16.1026 21.5019 16.0923 21.5067C16.0819 21.5116 16.0715 21.5163 16.0609 21.5207C16.0503 21.5251 16.0396 21.5292 16.0288 21.533C16.018 21.5369 16.0072 21.5405 15.9962 21.5438C15.9852 21.5471 15.9742 21.5502 15.9631 21.553C15.952 21.5558 15.9408 21.5583 15.9295 21.5605C15.9183 21.5627 15.907 21.5647 15.8957 21.5664C15.8844 21.5681 15.873 21.5695 15.8616 21.5706C15.8502 21.5717 15.8388 21.5726 15.8273 21.5731C15.8159 21.5737 15.8045 21.574 15.793 21.574L2.44999 21.574C2.43854 21.574 2.42709 21.5737 2.41566 21.5731C2.40422 21.5726 2.3928 21.5717 2.38139 21.5706C2.36998 21.5695 2.35862 21.5681 2.34729 21.5664C2.33596 21.5647 2.32467 21.5627 2.31344 21.5605C2.3022 21.5583 2.29102 21.5558 2.27991 21.553C2.2688 21.5502 2.25776 21.5471 2.2468 21.5438C2.23584 21.5405 2.22496 21.5369 2.21418 21.533C2.20339 21.5292 2.1927 21.5251 2.18212 21.5207C2.17154 21.5163 2.16107 21.5116 2.15071 21.5067C2.14035 21.5019 2.13013 21.4967 2.12002 21.4913C2.10992 21.4859 2.09995 21.4802 2.09013 21.4744C2.0803 21.4685 2.07063 21.4623 2.0611 21.456C2.05157 21.4496 2.04221 21.443 2.03301 21.4362C2.02381 21.4294 2.01478 21.4223 2.00592 21.4151C1.99707 21.4078 1.9884 21.4003 1.97991 21.3926C1.97142 21.3849 1.96312 21.377 1.95502 21.3689C1.94692 21.3608 1.93903 21.3525 1.93133 21.344C1.92364 21.3356 1.91616 21.3269 1.90889 21.318C1.90162 21.3092 1.89458 21.3001 1.88775 21.2909C1.88093 21.2817 1.87433 21.2724 1.86797 21.2629C1.86161 21.2533 1.85548 21.2436 1.84959 21.2338C1.8437 21.224 1.83805 21.214 1.83265 21.2039C1.82725 21.1938 1.82211 21.1836 1.81721 21.1732C1.81231 21.1629 1.80767 21.1524 1.80328 21.1418C1.7989 21.1313 1.79478 21.1206 1.79092 21.1098C1.78706 21.099 1.78347 21.0881 1.78014 21.0772C1.77682 21.0662 1.77376 21.0552 1.77098 21.044C1.76819 21.0329 1.76568 21.0218 1.76345 21.0105C1.76121 20.9993 1.75926 20.988 1.75757 20.9767C1.75589 20.9653 1.75449 20.954 1.75337 20.9426C1.75225 20.9312 1.7514 20.9198 1.75084 20.9083C1.75028 20.8969 1.75 20.8854 1.75 20.874L1.75 8.50897C1.75 8.4975 1.75028 8.48605 1.75084 8.47461C1.7514 8.46317 1.75225 8.45175 1.75337 8.44034C1.75449 8.42895 1.75589 8.41759 1.75757 8.40624C1.75926 8.39491 1.76121 8.38363 1.76345 8.3724C1.76568 8.36116 1.76819 8.34999 1.77098 8.33888C1.77376 8.32776 1.77682 8.31672 1.78014 8.30576C1.78347 8.2948 1.78706 8.28392 1.79092 8.27314C1.79478 8.26236 1.7989 8.25167 1.80328 8.24108C1.80767 8.2305 1.81231 8.22003 1.81721 8.20967C1.82211 8.19931 1.82725 8.18909 1.83265 8.17899C1.83805 8.16888 1.8437 8.15891 1.84959 8.14909C1.85548 8.13926 1.86161 8.12959 1.86797 8.12007C1.87433 8.11054 1.88093 8.10117 1.88775 8.09197C1.89458 8.08276 1.90162 8.07373 1.90889 8.06487C1.91616 8.05603 1.92364 8.04736 1.93133 8.03886C1.93903 8.03037 1.94692 8.02209 1.95502 8.01399C1.96312 8.00588 1.97142 7.99798 1.97991 7.9903C1.9884 7.98261 1.99707 7.97512 2.00592 7.96784C2.01478 7.96058 2.02381 7.95354 2.03301 7.94673C2.04221 7.9399 2.05157 7.9333 2.0611 7.92692C2.07063 7.92056 2.0803 7.91444 2.09013 7.90855C2.09995 7.90266 2.10992 7.89702 2.12002 7.89162C2.13013 7.88622 2.14035 7.88107 2.15071 7.87618C2.16107 7.87127 2.17154 7.86662 2.18212 7.86223C2.1927 7.85786 2.20339 7.85374 2.21418 7.84988C2.22496 7.84602 2.23584 7.84243 2.2468 7.8391C2.25776 7.83577 2.2688 7.83272 2.27991 7.82994C2.29102 7.82716 2.3022 7.82465 2.31344 7.82241C2.32467 7.82018 2.33596 7.81822 2.34729 7.81653C2.35862 7.81486 2.36998 7.81346 2.38139 7.81234C2.3928 7.81121 2.40422 7.81037 2.41566 7.8098C2.42709 7.80924 2.43854 7.80896 2.44999 7.80896L15.793 7.80896L15.793 7.80997ZM15.492 8.80995L2.74999 8.80995L2.74999 20.573L15.492 20.573L15.492 8.80995Z"   fill="#000000" ></path><path d="M21.4081 15.2099L22.0921 15.9399L16.3341 21.3249L15.6511 20.5949L21.4081 15.2099ZM21.4091 2.56494L22.0911 3.29495L16.3341 8.67493L15.6511 7.94495L21.4091 2.56494ZM7.77112 2.58995L8.45411 3.31993L2.66812 8.72694L1.98511 7.99693L7.77112 2.58995Z"   fill="#000000" ></path><path d="M10.5431 15.075L10.5431 16.075L8.54308 16.075L8.54308 15.075L10.5431 15.075ZM13.7431 15.075L13.7431 16.075L11.7431 16.075L11.7431 15.075L13.7431 15.075ZM16.9431 15.075L16.9431 16.075L14.9431 16.075L14.9431 15.075L16.9431 15.075ZM20.1431 15.075L20.1431 16.075L18.1431 16.075L18.1431 15.075L20.1431 15.075ZM21.5401 15.075L21.5401 16.075L21.3431 16.075L21.3431 15.075L21.5401 15.075ZM8.58908 12.802L8.60608 14.802L7.60609 14.81L7.58908 12.81L8.58908 12.802ZM8.56208 9.60201L8.57908 11.602L7.57909 11.61L7.56208 9.61003L8.56208 9.60201ZM8.53408 6.40202L8.55109 8.40201L7.55108 8.41003L7.53508 6.41001L8.53508 6.40202L8.53408 6.40202ZM8.50708 3.20203L8.52409 5.20202L7.52408 5.21001L7.50709 3.21002L8.50708 3.20203ZM3.45008 19.231L4.13108 19.963L2.66708 21.326L1.98608 20.594L3.45008 19.23L3.45008 19.231ZM5.79208 17.051L6.47408 17.783L5.01008 19.146L4.32808 18.414L5.79208 17.051ZM7.77208 15.209L8.45308 15.942L7.35308 16.966L6.67108 16.234L7.77109 15.209L7.77208 15.209Z"   fill="#000000" ></path></svg>