<svg xmlns="http://www.w3.org/2000/svg" xmlns:xlink="http://www.w3.org/1999/xlink" width="24" height="24" viewBox="0 0 24 24" fill="none"><path d="M21.08 10.4599C20.804 10.4599 20.56 10.2343 20.56 9.94988L3.40001 9.94988L3.40001 19.0799C3.40001 19.6403 3.84956 20.0899 4.41001 20.0899L10.47 20.0899C10.7461 20.0899 10.98 20.3155 10.98 20.5999L10.98 21.1099L3.91001 21.1099C3.07351 21.1099 2.39001 20.4348 2.39001 19.5899L2.39001 5.40988C2.39001 4.57338 3.06514 3.88988 3.91001 3.88988L8.45001 3.88988L8.45001 3.38988C8.45001 3.11384 8.6756 2.87988 8.96001 2.87988C9.23606 2.87988 9.47001 3.10547 9.47001 3.38988L9.47001 3.89988L14.52 3.89988L14.52 3.38988C14.52 3.11384 14.7456 2.87988 15.03 2.87988C15.3061 2.87988 15.55 3.10547 15.55 3.38988L15.55 3.89988L20.08 3.89988C20.9165 3.89988 21.6 4.57501 21.6 5.41988L21.6 9.95988C21.5833 10.2359 21.3644 10.4599 21.08 10.4599ZM20.56 5.91988C20.56 5.35942 20.1105 4.90988 19.55 4.90988L15.53 4.90988L15.53 5.41988C15.53 5.69593 15.3044 5.92988 15.02 5.92988C14.744 5.92988 14.51 5.7043 14.51 5.41988L14.51 4.91988L9.46001 4.91988L9.46001 5.42988C9.46001 5.70593 9.23443 5.93988 8.95001 5.93988C8.67397 5.93988 8.44001 5.7143 8.44001 5.42988L8.44001 4.91988L4.41001 4.91988C3.84956 4.91988 3.40001 5.36942 3.40001 5.92988L3.40001 8.94988L20.56 8.94988L20.56 5.91988ZM4.92001 16.0299L8.47001 16.0299C8.74606 16.0299 8.98001 16.2555 8.98001 16.5399C8.98001 16.8159 8.75443 17.0499 8.47001 17.0499L4.92001 17.0499C4.64397 17.0499 4.41001 16.8243 4.41001 16.5399C4.41001 16.2638 4.64397 16.0299 4.92001 16.0299ZM8.47001 14.0099L4.92001 14.0099C4.64397 14.0099 4.41001 13.7843 4.41001 13.4999C4.41001 13.2238 4.6356 12.9899 4.92001 12.9899L8.98001 12.9899C9.25606 12.9899 9.49002 13.2155 9.49002 13.4999C9.49002 13.7759 9.26443 14.0099 8.98001 14.0099L8.47001 14.0099Z"   fill="#000000" ></path><path d="M16.6 21.1099C13.8 21.1099 11.6 18.9099 11.6 16.1099C11.6 13.3099 13.8 11.1099 16.6 11.1099C19.4 11.1099 21.6 13.3099 21.6 16.1099C21.6 18.9099 19.4 21.1099 16.6 21.1099ZM16.6 12.1099C14.4 12.1099 12.6 13.9099 12.6 16.1099C12.6 18.3099 14.4 20.1099 16.6 20.1099C18.8 20.1099 20.6 18.3099 20.6 16.1099C20.6 13.9099 18.8 12.1099 16.6 12.1099Z"   fill="#0063B1" ></path><path d="M18.1 17.1099L16.1 17.1099C15.8 17.1099 15.6 16.9099 15.6 16.6099C15.6 16.3099 15.8 16.1099 16.1 16.1099L18.1 16.1099C18.4 16.1099 18.6 16.3099 18.6 16.6099C18.6 16.9099 18.4 17.1099 18.1 17.1099Z"   fill="#0063B1" ></path><path d="M16.1 17.1099C15.8 17.1099 15.6 16.9098 15.6 16.6098L15.6 14.6099C15.6 14.3099 15.8 14.1099 16.1 14.1099C16.4 14.1099 16.6 14.3099 16.6 14.6099L16.6 16.6098C16.6 16.9098 16.4 17.1099 16.1 17.1099Z"   fill="#0063B1" ></path></svg>