<svg xmlns="http://www.w3.org/2000/svg" xmlns:xlink="http://www.w3.org/1999/xlink" width="24" height="24" viewBox="0 0 24 24" fill="none"><path fill-rule="evenodd"  fill="rgba(0, 99, 177, 1)"  d="M11 14.5C13.2091 14.5 15 12.7091 15 10.5C15 8.29086 13.2091 6.5 11 6.5C8.79086 6.5 7 8.29086 7 10.5C7 12.7091 8.79086 14.5 11 14.5ZM11 7.5C12.6569 7.5 14 8.84315 14 10.5C14 12.1569 12.6569 13.5 11 13.5C9.34315 13.5 8 12.1569 8 10.5C8 8.84315 9.34315 7.5 11 7.5Z"></path><path d="M5.5 16.5L5.5 19.5L20.5 19.5L20.5 7.5L18.5 7.5L18.5 6.5L20.86 6.5C21.0829 6.5 21.1589 6.52544 21.24 6.57C21.32 6.6123 21.3877 6.67886 21.43 6.76C21.4734 6.84 21.5 6.91714 21.5 7.14L21.5 19.86C21.5 20.0829 21.4746 20.1589 21.43 20.24C21.43 20.25 21.42 20.27 21.42 20.27L21.4 20.3L21.38 20.33L21.35 20.35L21.33 20.38L21.3 20.4L21.27 20.42L21.24 20.43C21.16 20.4734 21.0829 20.5 20.86 20.5L5.14 20.5C4.91714 20.5 4.84114 20.4746 4.76 20.43C4.74998 20.43 4.73 20.42 4.73 20.42L4.7 20.4L4.67 20.38L4.65 20.35L4.62 20.33L4.6 20.3L4.58 20.27L4.57 20.24C4.52772 20.16 4.5 20.0817 4.5 19.86L4.5 16.5L5.5 16.5ZM18.5 4.5L3.5 4.5L3.5 16.5L18.5 16.5L18.5 4.5ZM19.5 4.14L19.5 16.86C19.5 17.0829 19.4746 17.1589 19.43 17.24C19.43 17.25 19.42 17.27 19.42 17.27L19.4 17.3L19.38 17.33L19.35 17.35L19.33 17.38L19.3 17.4L19.27 17.42L19.24 17.43C19.16 17.4734 19.0829 17.5 18.86 17.5L3.14 17.5C2.91715 17.5 2.84114 17.4746 2.76 17.43C2.74998 17.43 2.73 17.42 2.73 17.42L2.7 17.4L2.67 17.38L2.65 17.35L2.62 17.33L2.6 17.3L2.58 17.27L2.57 17.24C2.52771 17.16 2.5 17.0817 2.5 16.86L2.5 4.14C2.5 3.91714 2.52543 3.84114 2.57 3.76C2.57 3.74998 2.58 3.73 2.58 3.73L2.6 3.7L2.62 3.67L2.65 3.65L2.67 3.62L2.7 3.6L2.73 3.58L2.76 3.57C2.84 3.52772 2.91829 3.5 3.14 3.5L18.86 3.5C19.0829 3.5 19.1589 3.52544 19.24 3.57C19.32 3.6123 19.3877 3.67886 19.43 3.76C19.4734 3.84 19.5 3.91714 19.5 4.14Z"   fill="#000000" ></path></svg>