<svg xmlns="http://www.w3.org/2000/svg" xmlns:xlink="http://www.w3.org/1999/xlink" width="24" height="24" viewBox="0 0 24 24" fill="none"><path d="M21.8199 5.64C21.8199 5.58652 21.8199 5.5334 21.8199 5.47999C21.8199 5.42659 21.8099 5.37321 21.8099 5.31999C21.8099 5.26678 21.7899 5.21289 21.7899 5.16C21.7899 5.1071 21.7703 5.05243 21.7599 5C21.7495 4.94754 21.733 4.89185 21.7199 4.84C21.7069 4.78811 21.6955 4.74116 21.6799 4.68999C21.6644 4.63882 21.6479 4.59033 21.6299 4.54C21.6119 4.48964 21.5904 4.43939 21.5699 4.39C21.5494 4.34059 21.5329 4.28831 21.5099 4.24C21.487 4.19164 21.4652 4.14714 21.4399 4.1C21.4148 4.05283 21.3874 4.00586 21.3599 3.96C21.3324 3.91413 21.2996 3.86445 21.2699 3.82C21.2402 3.77553 21.2118 3.73294 21.1799 3.69C21.1481 3.64705 21.1139 3.60133 21.0799 3.56C21.046 3.51866 21.0059 3.47961 20.9699 3.44C20.934 3.40038 20.8978 3.3678 20.8599 3.33C20.8221 3.29219 20.7896 3.2559 20.7499 3.22C20.7103 3.18409 20.6713 3.14392 20.6299 3.11C20.5886 3.07607 20.5429 3.04185 20.4999 3.00999C20.457 2.97814 20.4144 2.94971 20.3699 2.92C20.3255 2.89029 20.2758 2.86749 20.2299 2.84C20.1841 2.8125 20.1371 2.78521 20.0899 2.75999C20.0428 2.73479 19.9983 2.70286 19.9499 2.68C19.9016 2.65713 19.8493 2.64046 19.7999 2.62C19.7505 2.59953 19.7003 2.57802 19.6499 2.56C19.5996 2.54198 19.5511 2.52552 19.4999 2.51C19.4488 2.49447 19.4018 2.483 19.3499 2.47C19.2981 2.45699 19.2424 2.44044 19.1899 2.43C19.1375 2.41955 19.0828 2.41 19.0299 2.41C18.977 2.41 18.9232 2.39 18.8699 2.39C18.8167 2.39 18.7633 2.37 18.7099 2.37C18.6565 2.37 18.6034 2.37 18.5499 2.37L5.95993 2.37C5.92068 2.37 5.87915 2.37 5.83993 2.37C5.80072 2.37 5.75898 2.38 5.71993 2.38C5.68088 2.38 5.64872 2.4 5.60993 2.4C5.57115 2.4 5.52837 2.42 5.48993 2.42C5.45151 2.42 5.40789 2.45 5.36993 2.45C5.33197 2.45 5.29733 2.46806 5.25993 2.48C5.22254 2.49193 5.18667 2.50614 5.14993 2.52C5.1132 2.53385 5.07591 2.54427 5.03993 2.56C5.00396 2.57572 4.96505 2.59243 4.92993 2.61C4.89482 2.62756 4.86409 2.65065 4.82993 2.67C4.79577 2.68935 4.76305 2.70891 4.72993 2.73C4.69682 2.75108 4.66191 2.76723 4.62993 2.79C4.59796 2.81276 4.57068 2.83561 4.53993 2.86C4.50916 2.88438 4.4794 2.91406 4.44993 2.94C4.42047 2.96593 4.38802 2.99257 4.35993 3.02C4.33184 3.04742 4.30657 3.07116 4.27993 3.1C4.25329 3.12883 4.22503 3.15982 4.19993 3.19C4.17481 3.22017 4.15346 3.24857 4.12993 3.28C4.10642 3.31142 4.08179 3.3474 4.05993 3.38C4.03805 3.41259 4.02009 3.44631 3.99993 3.48C3.97977 3.51368 3.95832 3.54532 3.93993 3.58C3.92154 3.61467 3.90652 3.65442 3.88993 3.69C3.87336 3.72558 3.85466 3.76361 3.83993 3.79999C3.82521 3.83638 3.81277 3.87289 3.79993 3.91C3.78709 3.9471 3.77082 3.98229 3.75993 4.02C3.74902 4.05771 3.72993 4.09176 3.72993 4.13C3.72993 4.16822 3.70993 4.21136 3.70993 4.25C3.70993 4.28861 3.68993 4.32105 3.68993 4.35999C3.68993 4.39893 3.67993 4.44083 3.67993 4.47999C3.67993 4.51913 3.66993 4.56075 3.66993 4.6C3.66993 4.63924 3.66993 4.68075 3.66993 4.72C3.66993 4.75923 3.67993 4.79086 3.67993 4.83L4.80993 17.37L2.19993 17.37L2.17993 18.45C2.17993 18.5002 2.17993 18.5499 2.17993 18.6C2.17993 18.6501 2.18993 18.7 2.18993 18.75C2.18993 18.7999 2.20993 18.8503 2.20993 18.9C2.20993 18.9497 2.23993 19.0007 2.23993 19.05C2.23993 19.0993 2.25813 19.1512 2.26993 19.2C2.28173 19.2488 2.29583 19.2918 2.30993 19.34C2.32404 19.3881 2.33356 19.4426 2.34993 19.49C2.36631 19.5374 2.39132 19.5834 2.40993 19.63C2.42854 19.6766 2.43913 19.7243 2.45993 19.77C2.48074 19.8157 2.50698 19.8554 2.52993 19.9C2.55288 19.9446 2.57489 19.9865 2.59993 20.03C2.62497 20.0735 2.65285 20.1177 2.67993 20.16C2.70701 20.2022 2.73088 20.2491 2.75993 20.29C2.78899 20.3309 2.82897 20.3705 2.85993 20.41C2.8909 20.4495 2.91713 20.482 2.94993 20.52C2.98274 20.558 3.01536 20.6036 3.04993 20.64C3.08451 20.6764 3.12367 20.7053 3.15993 20.74C3.19619 20.7747 3.23206 20.8071 3.26993 20.84C3.3078 20.8729 3.35054 20.9089 3.38993 20.94C3.42932 20.9711 3.46911 21.0008 3.50993 21.03C3.55075 21.0592 3.58777 21.0828 3.62993 21.11C3.67209 21.1372 3.71653 21.1648 3.75993 21.19C3.80334 21.2152 3.84538 21.2469 3.88993 21.27C3.93448 21.2931 3.98434 21.309 4.02993 21.33C4.07554 21.3509 4.1134 21.3712 4.15993 21.39C4.20648 21.4088 4.25255 21.4235 4.29993 21.44C4.34731 21.4565 4.40181 21.4757 4.44993 21.49C4.49804 21.5042 4.5412 21.518 4.58993 21.53C4.63866 21.542 4.69069 21.56 4.73993 21.56C4.78919 21.56 4.84029 21.59 4.88993 21.59C4.93959 21.59 4.98998 21.61 5.03993 21.61C5.08987 21.61 5.13981 21.62 5.18993 21.62L16.6899 21.62C16.7482 21.62 16.8117 21.62 16.8699 21.62C16.9282 21.62 16.9819 21.6 17.0399 21.6C17.0979 21.6 17.1623 21.58 17.2199 21.58C17.2776 21.58 17.3327 21.5613 17.3899 21.55C17.4471 21.5386 17.5034 21.5241 17.5599 21.51C17.6165 21.4958 17.6741 21.4869 17.7299 21.47C17.7857 21.4531 17.835 21.4296 17.8899 21.41C17.9448 21.3904 18.0061 21.3723 18.0599 21.35C18.1138 21.3277 18.1672 21.3049 18.2199 21.28C18.2726 21.2551 18.3185 21.2275 18.3699 21.2C18.4214 21.1725 18.4799 21.14 18.5299 21.11C18.58 21.08 18.6215 21.0524 18.6699 21.02C18.7184 20.9876 18.7731 20.9547 18.8199 20.92C18.8668 20.8853 18.9049 20.847 18.9499 20.81C18.995 20.773 19.0467 20.7391 19.0899 20.7C19.1331 20.6608 19.1687 20.6212 19.2099 20.58C19.2512 20.5388 19.2908 20.4932 19.3299 20.45C19.3691 20.4068 19.4129 20.3651 19.4499 20.32C19.4869 20.2749 19.5252 20.2268 19.5599 20.18C19.5947 20.1332 19.6275 20.0885 19.6599 20.04C19.6923 19.9915 19.72 19.94 19.7499 19.89C19.7799 19.84 19.8124 19.7914 19.8399 19.74C19.8674 19.6886 19.885 19.6327 19.9099 19.58C19.9349 19.5273 19.9676 19.4739 19.9899 19.42C20.0123 19.3661 20.0303 19.3149 20.0499 19.26C20.0696 19.2051 20.083 19.1458 20.0999 19.09C20.1169 19.0342 20.1358 18.9765 20.1499 18.92C20.1641 18.8634 20.1785 18.8072 20.1899 18.75C20.2013 18.6928 20.2199 18.6377 20.2199 18.58C20.2199 18.5223 20.2399 18.468 20.2399 18.41C20.2399 18.352 20.2499 18.2882 20.2499 18.23C20.2499 18.1718 20.2599 18.1183 20.2599 18.06L19.0499 6.77999L21.8199 6.77999L21.8199 5.64ZM3.81993 19.98C3.80743 19.9676 3.79212 19.9627 3.77993 19.95C3.76774 19.9372 3.7518 19.923 3.73993 19.91C3.72806 19.897 3.72148 19.8833 3.70993 19.87C3.69838 19.8567 3.68115 19.8436 3.66993 19.83C3.65872 19.8164 3.65081 19.8039 3.63993 19.79C3.62905 19.7761 3.62047 19.7541 3.60993 19.74C3.5994 19.7258 3.59011 19.7144 3.57993 19.7C3.56975 19.6856 3.54993 19.6746 3.54993 19.66C3.54993 19.6454 3.51993 19.6249 3.51993 19.61C3.51993 19.5951 3.48993 19.5851 3.48993 19.57C3.48993 19.5549 3.45993 19.5353 3.45993 19.52C3.45993 19.5047 3.43993 19.4955 3.43993 19.48C3.43993 19.4644 3.40993 19.4457 3.40993 19.43C3.40993 19.4142 3.38993 19.3959 3.38993 19.38C3.38993 19.3641 3.36993 19.3461 3.36993 19.33C3.36993 19.3139 3.34993 19.3063 3.34993 19.29C3.34993 19.2737 3.32993 19.2564 3.32993 19.24C3.32993 19.2236 3.30993 19.2066 3.30993 19.19C3.30993 19.1734 3.28993 19.1567 3.28993 19.14C3.28993 19.1233 3.27993 19.1069 3.27993 19.09C3.27993 19.0731 3.25993 19.057 3.25993 19.04C3.25993 19.023 3.24993 18.9971 3.24993 18.98C3.24993 18.9629 3.23993 18.9472 3.23993 18.93C3.23993 18.9128 3.22993 18.8973 3.22993 18.88C3.22993 18.8627 3.21993 18.8474 3.21993 18.83C3.21993 18.8126 3.20993 18.7974 3.20993 18.78C3.20993 18.7625 3.19993 18.7375 3.19993 18.72C3.19993 18.7025 3.18993 18.6875 3.18993 18.67C3.18993 18.6524 3.18993 18.6376 3.18993 18.62C3.18993 18.6024 3.18993 18.5876 3.18993 18.57C3.18993 18.5524 3.17993 18.5276 3.17993 18.51C3.17993 18.4924 3.17993 18.4776 3.17993 18.46L3.18993 18.37L4.89993 18.37L5.09993 20.6C5.06997 20.6 5.03973 20.59 5.00993 20.59C4.98014 20.59 4.94949 20.58 4.91993 20.58C4.89037 20.58 4.85921 20.56 4.82993 20.56C4.80065 20.56 4.7689 20.53 4.73993 20.53C4.71098 20.53 4.6885 20.5 4.65993 20.5C4.63136 20.5 4.59807 20.4808 4.56993 20.47C4.54179 20.4591 4.51759 20.452 4.48993 20.44C4.46225 20.428 4.42708 20.4131 4.39993 20.4C4.3728 20.3868 4.3465 20.3743 4.31993 20.36C4.29336 20.3457 4.26588 20.3354 4.23993 20.32C4.21399 20.3046 4.19521 20.2865 4.16993 20.27C4.14466 20.2535 4.1145 20.2375 4.08993 20.22C4.06536 20.2025 4.04374 20.1785 4.01993 20.16C3.99612 20.1415 3.97295 20.1295 3.94993 20.11C3.92691 20.0905 3.90212 20.0704 3.87993 20.05C3.85774 20.0295 3.84123 20.0013 3.81993 19.98ZM19.2499 18.11C19.2499 18.1304 19.2499 18.1496 19.2499 18.17C19.2499 18.1904 19.2499 18.2096 19.2499 18.23C19.2499 18.2504 19.2399 18.2697 19.2399 18.29C19.2399 18.3103 19.2399 18.3297 19.2399 18.35C19.2399 18.3703 19.2299 18.3898 19.2299 18.41C19.2299 18.4302 19.2199 18.4598 19.2199 18.48C19.2199 18.5001 19.2099 18.5199 19.2099 18.54C19.2099 18.5601 19.1999 18.58 19.1999 18.6C19.1999 18.62 19.1899 18.6401 19.1899 18.66C19.1899 18.6798 19.1699 18.6903 19.1699 18.71C19.1699 18.7297 19.1499 18.7504 19.1499 18.77C19.1499 18.7896 19.1399 18.8105 19.1399 18.83C19.1399 18.8494 19.1199 18.8707 19.1199 18.89C19.1199 18.9093 19.0999 18.9308 19.0999 18.95C19.0999 18.9691 19.0699 18.991 19.0699 19.01C19.0699 19.029 19.0499 19.0412 19.0499 19.06C19.0499 19.0788 19.0299 19.1014 19.0299 19.12C19.0299 19.1386 18.9999 19.1516 18.9999 19.17C18.9999 19.1884 18.9699 19.2118 18.9699 19.23C18.9699 19.2481 18.9399 19.2621 18.9399 19.28C18.9399 19.2979 18.9201 19.3223 18.9099 19.34C18.8997 19.3577 18.8906 19.3726 18.8799 19.39C18.8693 19.4074 18.861 19.4228 18.8499 19.44C18.8389 19.4571 18.8314 19.4731 18.8199 19.49C18.8085 19.5069 18.7918 19.5234 18.7799 19.54C18.7681 19.5566 18.7622 19.5737 18.7499 19.59C18.7377 19.6063 18.7226 19.624 18.7099 19.64C18.6973 19.656 18.683 19.6743 18.6699 19.69C18.6569 19.7057 18.6433 19.7146 18.6299 19.73C18.6165 19.7454 18.6037 19.7649 18.5899 19.78C18.5762 19.7951 18.5641 19.8053 18.5499 19.82C18.5358 19.8347 18.5144 19.8556 18.4999 19.87C18.4852 19.8848 18.4751 19.8955 18.4599 19.91C18.4448 19.9245 18.4254 19.9359 18.4099 19.95C18.3944 19.9641 18.3858 19.9863 18.3699 20C18.3541 20.0137 18.3361 20.0267 18.3199 20.04C18.3038 20.0533 18.2864 20.0671 18.2699 20.08C18.2534 20.0929 18.2367 20.0975 18.2199 20.11C18.2031 20.1225 18.187 20.1379 18.1699 20.15C18.1528 20.1621 18.1373 20.1783 18.1199 20.19C18.1025 20.2017 18.0776 20.2088 18.0599 20.22C18.0422 20.2312 18.0279 20.2392 18.0099 20.25C17.992 20.2608 17.9782 20.2796 17.9599 20.29C17.9417 20.3003 17.9184 20.32 17.8999 20.32C17.8815 20.32 17.8686 20.35 17.8499 20.35C17.8312 20.35 17.8089 20.37 17.7899 20.37C17.771 20.37 17.7491 20.4 17.7299 20.4C17.7108 20.4 17.6893 20.42 17.6699 20.42C17.6506 20.42 17.6395 20.45 17.6199 20.45C17.6004 20.45 17.5797 20.47 17.5599 20.47C17.5402 20.47 17.5198 20.49 17.4999 20.49C17.48 20.49 17.46 20.51 17.4399 20.51C17.4199 20.51 17.4001 20.53 17.3799 20.53C17.3597 20.53 17.3402 20.54 17.3199 20.54C17.2996 20.54 17.2804 20.56 17.2599 20.56C17.2395 20.56 17.2105 20.57 17.1899 20.57C17.1694 20.57 17.1506 20.58 17.1299 20.58C17.1093 20.58 17.0907 20.59 17.0699 20.59C17.0492 20.59 17.0307 20.6 17.0099 20.6C16.9891 20.6 16.9708 20.61 16.9499 20.61C16.9291 20.61 16.9008 20.61 16.8799 20.61C16.859 20.61 16.8409 20.62 16.8199 20.62C16.799 20.62 16.7809 20.62 16.7599 20.62C16.739 20.62 16.7109 20.62 16.6899 20.62L6.10993 20.62L4.67993 4.75C4.65116 4.39464 4.77627 4.0406 5.01993 3.77999L5.03993 3.75999L5.05993 3.73L5.08993 3.71L5.10993 3.69L5.12993 3.67L5.15993 3.65L5.18993 3.63L5.20993 3.61L5.23993 3.59L5.26993 3.57L5.29993 3.54999L5.31993 3.54L5.34993 3.52L5.37993 3.50999L5.40993 3.49C5.40993 3.49 5.42985 3.48 5.43993 3.48C5.45001 3.48 5.45974 3.46 5.46993 3.46C5.48013 3.46 5.48964 3.45 5.49993 3.45C5.51023 3.45 5.51954 3.44 5.52993 3.44C5.54033 3.44 5.55945 3.43 5.56993 3.43C5.58042 3.43 5.58937 3.42 5.59993 3.42C5.61049 3.42 5.61929 3.41 5.62993 3.41C5.64057 3.41 5.64922 3.41 5.65993 3.41C5.67064 3.41 5.67916 3.4 5.68993 3.4C5.70071 3.4 5.71911 3.39 5.72993 3.39C5.74076 3.39 5.74906 3.39 5.75993 3.39C5.7708 3.39 5.77901 3.38 5.78993 3.38C5.80084 3.38 5.80899 3.38 5.81993 3.38C5.83089 3.38 5.84896 3.38 5.85993 3.38C5.87089 3.38 5.87894 3.37 5.88993 3.37C5.90092 3.37 5.90894 3.37 5.91993 3.37C5.93092 3.37 5.94893 3.37 5.95993 3.37L6.33993 3.37C6.80951 3.89711 7.08993 4.59936 7.08993 5.35999C7.08993 5.87611 6.96092 6.35695 6.72993 6.77999L18.0399 6.77999L19.2499 18.11ZM20.8199 5.77999L8.06993 5.77999C8.06993 5.75412 8.07993 5.72591 8.07993 5.7C8.07993 5.67408 8.08993 5.64596 8.08993 5.62C8.08993 5.59403 8.08993 5.57597 8.08993 5.55C8.08993 5.524 8.09993 5.49601 8.09993 5.47C8.09993 5.44398 8.09993 5.41601 8.09993 5.39C8.09993 5.36397 8.09993 5.33601 8.09993 5.31C8.09993 5.28397 8.09993 5.25599 8.09993 5.22999C8.09993 5.20398 8.08993 5.18597 8.08993 5.16C8.08993 5.134 8.08993 5.10596 8.08993 5.08C8.08993 5.05403 8.07993 5.02591 8.07993 5C8.07993 4.97407 8.06993 4.94586 8.06993 4.92C8.06993 4.89412 8.05993 4.87581 8.05993 4.85C8.05993 4.82418 8.04993 4.79574 8.04993 4.77C8.04993 4.74425 8.03993 4.71564 8.03993 4.68999C8.03993 4.66432 8.02993 4.63556 8.02993 4.60999C8.02993 4.58441 8.00993 4.56548 8.00993 4.54C8.00993 4.51451 7.99993 4.48536 7.99993 4.46C7.99993 4.43461 7.97993 4.41525 7.97993 4.39C7.97993 4.36474 7.95993 4.33511 7.95993 4.31C7.95993 4.28488 7.93993 4.25498 7.93993 4.23C7.93993 4.20501 7.91993 4.18483 7.91993 4.16C7.91993 4.13514 7.88993 4.11467 7.88993 4.09C7.88993 4.06531 7.86993 4.03452 7.86993 4.00999C7.86993 3.98547 7.83993 3.96434 7.83993 3.94C7.83993 3.91565 7.80993 3.89415 7.80993 3.87C7.80993 3.84584 7.79006 3.81397 7.77993 3.79C7.7698 3.76602 7.76052 3.74376 7.74993 3.72C7.73934 3.69622 7.73099 3.67355 7.71993 3.65C7.70888 3.62644 7.69143 3.60333 7.67993 3.58C7.66841 3.55666 7.66188 3.5331 7.64993 3.50999C7.63797 3.48689 7.62234 3.46287 7.60993 3.44C7.59752 3.41712 7.58279 3.39262 7.56993 3.37L18.5499 3.37C19.1557 3.37 19.7327 3.61357 20.1599 4.04C20.5864 4.46727 20.8199 5.0342 20.8199 5.64L20.8199 5.77999Z"   fill="#000000" ></path><path d="M9.58559 14.9387L8.00559 13.3387L9.58559 11.7587C9.78085 11.5634 9.78085 11.2539 9.58559 11.0587C9.39031 10.8634 9.07085 10.8634 8.87559 11.0587L6.94559 12.9787C6.75103 13.1732 6.75205 13.4931 6.94559 13.6887L8.87559 15.6387L8.88559 15.6587L8.90559 15.6787L8.92559 15.6887L8.94559 15.7087L8.96559 15.7187L8.99559 15.7287L9.01559 15.7487L9.03559 15.7587L9.05559 15.7587L9.08559 15.7687L9.10559 15.7787L9.13559 15.7787L9.15559 15.7887L9.18559 15.7887L9.20559 15.7887L9.23559 15.7887L9.25559 15.7887L9.28559 15.7887L9.30559 15.7887L9.32559 15.7887L9.35559 15.7787L9.37559 15.7687L9.40559 15.7687L9.42559 15.7587L9.44559 15.7487L9.46559 15.7387L9.48559 15.7187L9.50559 15.7087L9.52559 15.6987L9.54559 15.6787L9.56559 15.6687L9.57559 15.6487C9.77181 15.4544 9.77983 15.1349 9.58559 14.9387ZM15.2556 11.0587C15.0603 10.8634 14.7408 10.8634 14.5456 11.0587C14.3503 11.2539 14.3503 11.5634 14.5456 11.7587L16.1256 13.3387L14.5456 14.9387C14.3513 15.1349 14.3593 15.4544 14.5556 15.6487L14.5656 15.6587L14.5856 15.6787L14.6056 15.6987L14.6256 15.7087L14.6456 15.7187L14.6656 15.7387L14.6856 15.7487L14.7056 15.7587L14.7256 15.7687L14.7556 15.7687L14.7756 15.7787L14.8056 15.7887L14.8256 15.7887L14.8456 15.7887L14.8756 15.7887L14.8956 15.7887L14.9256 15.7887L14.9456 15.7887L14.9756 15.7887L14.9956 15.7787L15.0256 15.7787L15.0456 15.7687L15.0756 15.7587L15.0956 15.7587L15.1156 15.7487L15.1356 15.7287L15.1656 15.7187L15.1856 15.7087L15.2056 15.6887L15.2256 15.6787L15.2456 15.6587L15.2556 15.6387L17.1856 13.6887C17.3791 13.4931 17.3801 13.1732 17.1856 12.9787L15.2556 11.0587ZM14.2356 9.87868C14.0013 9.73254 13.6917 9.79436 13.5456 10.0287L9.73559 16.1387C9.58947 16.373 9.66127 16.6826 9.89559 16.8287C9.89559 16.8287 9.91535 16.8487 9.92559 16.8487C9.93583 16.8487 9.94499 16.8587 9.95559 16.8587C9.96619 16.8587 9.98469 16.8687 9.99559 16.8687C10.0065 16.8687 10.0144 16.8887 10.0256 16.8887C10.0367 16.8887 10.0442 16.8887 10.0556 16.8887C10.0669 16.8887 10.0841 16.8987 10.0956 16.8987C10.1071 16.8987 10.114 16.8987 10.1256 16.8987C10.1372 16.8987 10.154 16.8987 10.1656 16.8987C10.3324 16.8987 10.4908 16.8207 10.5856 16.6687L14.3956 10.5587C14.5417 10.3243 14.4699 10.0248 14.2356 9.87868Z"   fill="#0063B1" ></path></svg>