<svg xmlns="http://www.w3.org/2000/svg" xmlns:xlink="http://www.w3.org/1999/xlink" width="24" height="24" viewBox="0 0 24 24" fill="none"><path d="M3.70003 7.60011L3.20001 6.70011L11.7 1.8001C11.9 1.7001 12 1.7001 12.2 1.8001L20.7 6.70011L20.2 7.60011L12 2.80011L3.70003 7.60011Z"   fill="#000000" ></path><path d="M16.3 9.60011L12 12.0001L7.70001 9.60011L12 7.1001L16.3 9.60011Z"   fill="#0082E6" fill-opacity="0.3"></path><path d="M7.99999 10L7.5 9.1L11.8 6.70001C12 6.6 12.1 6.6 12.3 6.70001L16.6 9.1L16 10L12 7.69999L7.99999 10Z"   fill="#0063B1" ></path><path d="M16.3 9.6001L16.3 14.4001L12 16.9001L12 12.0001L16.3 9.6001Z"   fill="#0082E6" fill-opacity="0.3"></path><path d="M12.3 17.2999L11.8 16.3999L15.8 14.0999L15.8 10.3999L12.3 12.3999L11.8 11.4999L16 9.09991C16.2 8.9999 16.3 8.9999 16.5 9.09991C16.7 9.19989 16.7 9.39991 16.7 9.49989L16.7 14.3999C16.7 14.5999 16.6 14.6999 16.4 14.7999L12.3 17.2999Z"   fill="#0063B1" ></path><path d="M11.6 17.2001L9.90001 16.2001L10.4 15.3001L12.1 16.3001L11.6 17.2001ZM8.20002 15.3001L7.50001 14.9001C7.30002 14.8001 7.20001 14.6001 7.20001 14.5001L7.20001 13.3001L8.20002 13.3001L8.20002 14.2001L8.6 14.4001L8.20002 15.3001ZM12.5 15.0001L11.5 15.0001L11.5 12.3001L10.4 11.7001L10.9 10.8001L12.3 11.6001C12.5 11.7001 12.6 11.9001 12.6 12.0001L12.6 15.0001L12.5 15.0001ZM8.20002 11.2001L7.20001 11.2001L7.20001 9.60011C7.20001 9.40011 7.30002 9.30011 7.4 9.2001C7.60002 9.00011 7.80001 9.00011 8 9.10012L9.2 9.8001L8.70001 10.7001L8.3 10.5001L8.3 11.2001L8.20002 11.2001Z"   fill="#0063B1" ></path><path d="M12 22.2C11.9 22.2 11.8 22.2 11.8 22.1L3.3 17.2C3.10001 17.2 3 17.1 3 16.9L3 7.09999C3 7 3.10001 6.79999 3.19999 6.70001C3.40001 6.6 3.49999 6.6 3.70001 6.70001L12.2 11.6C12.4 11.7 12.5 11.9 12.5 12L12.5 21.7C12.5 21.9 12.4 22 12.3 22.1C12.2 22.2 12.1 22.2 12 22.2ZM4.00001 16.6L11.5 20.9L11.5 12.3L4.00001 7.99999L4.00001 16.6Z"   fill="#000000" ></path><path d="M12.3 22.1999L11.8 21.2999L20.1 16.5999L20.1 7.9999L12.3 12.3999L11.8 11.4999L20.3 6.59991C20.5 6.4999 20.6 6.4999 20.8 6.59991C21 6.69992 21 6.99991 21 7.0999L21 16.7999C21 16.9999 20.9 17.0999 20.7 17.1999L12.3 22.1999Z"   fill="#000000" ></path></svg>