<svg xmlns="http://www.w3.org/2000/svg" xmlns:xlink="http://www.w3.org/1999/xlink" width="24" height="24" viewBox="0 0 24 24" fill="none"><path d="M5.89998 8.50002C5.8 8.50002 5.69999 8.50002 5.59998 8.40001C4.6 7.80001 4 6.70002 4 5.50002C4 3.6 5.59998 2 7.49999 2C9.4 2 10.9 3.49999 11 5.3C11 5.6 10.8 5.80002 10.5 5.80002C10.2 5.80002 10 5.6 10 5.3C9.89999 4.00001 8.8 3 7.49999 3C6.1 3 4.99998 4.09999 4.99998 5.50002C4.99998 6.40002 5.39999 7.1 6.1 7.60002C6.29999 7.80001 6.4 8.10001 6.19998 8.3C6.19998 8.40001 5.99999 8.50002 5.89998 8.50002Z"   fill="#0063B1" ></path><path d="M6 5.5C6 5.52455 6.0006 5.54908 6.0018 5.57359C6.00301 5.59811 6.00481 5.62259 6.00722 5.64702C6.00962 5.67145 6.01263 5.6958 6.01624 5.72008C6.01984 5.74438 6.02403 5.76855 6.02883 5.79262C6.03361 5.81669 6.03898 5.84064 6.04495 5.86445C6.05092 5.88827 6.05747 5.91192 6.06459 5.93542C6.07172 5.95891 6.07941 5.98221 6.08768 6.00534C6.09595 6.02845 6.10478 6.05134 6.11419 6.07401C6.12358 6.0967 6.13352 6.11913 6.14402 6.14132C6.15451 6.16351 6.16554 6.18543 6.17712 6.20709C6.18869 6.22874 6.20079 6.25009 6.2134 6.27114C6.22602 6.2922 6.23916 6.31294 6.2528 6.33334C6.26644 6.35376 6.28057 6.37382 6.2952 6.39353C6.30982 6.41324 6.32491 6.4326 6.34048 6.45159C6.35606 6.47055 6.37209 6.48913 6.38857 6.50732C6.40505 6.52553 6.42198 6.5433 6.43934 6.56066C6.4567 6.57801 6.47447 6.59493 6.49266 6.61143C6.51084 6.62791 6.52943 6.64394 6.54841 6.6595C6.56738 6.67509 6.58673 6.69018 6.60645 6.7048C6.62616 6.71943 6.64623 6.73356 6.66663 6.7472C6.68705 6.76084 6.70779 6.77397 6.72884 6.78658C6.7499 6.79921 6.77126 6.8113 6.79291 6.82288C6.81455 6.83444 6.83647 6.84548 6.85866 6.85598C6.88086 6.86648 6.9033 6.87641 6.92597 6.88581C6.94866 6.89521 6.97155 6.90402 6.99466 6.9123C7.01777 6.92057 7.04108 6.92828 7.06458 6.93541C7.08806 6.94253 7.11171 6.94907 7.13552 6.95505C7.15934 6.961 7.18328 6.96637 7.20736 6.97117C7.23144 6.97595 7.25562 6.98015 7.2799 6.98376C7.30418 6.98737 7.32854 6.99037 7.35298 6.99278C7.3774 6.9952 7.40187 6.997 7.42641 6.9982C7.45092 6.99939 7.47545 7 7.5 7C7.52455 7 7.54908 6.99939 7.57359 6.9982C7.59813 6.997 7.6226 6.9952 7.64702 6.99278C7.67146 6.99037 7.69582 6.98737 7.7201 6.98376C7.74438 6.98015 7.76856 6.97595 7.79264 6.97117C7.81672 6.96637 7.84066 6.961 7.86448 6.95505C7.88829 6.94907 7.91194 6.94253 7.93542 6.93541C7.95892 6.92828 7.98223 6.92057 8.00534 6.9123C8.02845 6.90402 8.05134 6.89521 8.07403 6.88581C8.0967 6.87641 8.11913 6.86648 8.14132 6.85598C8.16352 6.84548 8.18545 6.83444 8.20709 6.82288C8.22874 6.8113 8.2501 6.79921 8.27116 6.78658C8.29221 6.77397 8.31294 6.76084 8.33334 6.7472C8.35376 6.73356 8.37384 6.71943 8.39355 6.7048C8.41327 6.69018 8.43262 6.67509 8.45159 6.6595C8.47057 6.64394 8.48916 6.62791 8.50734 6.61143C8.52553 6.59493 8.5433 6.57801 8.56066 6.56066C8.57803 6.5433 8.59495 6.52553 8.61143 6.50732C8.62791 6.48913 8.64394 6.47055 8.65952 6.45159C8.67509 6.4326 8.69018 6.41324 8.7048 6.39353C8.71943 6.37382 8.73356 6.35376 8.7472 6.33334C8.76084 6.31294 8.77397 6.2922 8.7866 6.27114C8.79921 6.25009 8.8113 6.22874 8.82288 6.20709C8.83446 6.18543 8.8455 6.16351 8.85598 6.14132C8.86648 6.11913 8.87641 6.0967 8.88581 6.07401C8.89521 6.05134 8.90405 6.02845 8.91232 6.00534C8.92059 5.98221 8.92828 5.95891 8.93541 5.93542C8.94253 5.91192 8.94907 5.88827 8.95505 5.86445C8.96102 5.84064 8.96639 5.81669 8.97117 5.79262C8.97598 5.76855 8.98017 5.74438 8.98376 5.72008C8.98737 5.6958 8.99037 5.67145 8.99278 5.64702C8.9952 5.62259 8.997 5.59811 8.9982 5.57359C8.99939 5.54908 9 5.52455 9 5.5C9 5.47545 8.99939 5.45091 8.9982 5.42638C8.997 5.40187 8.9952 5.3774 8.99278 5.35298C8.99037 5.32854 8.98737 5.30418 8.98376 5.2799C8.98017 5.25562 8.97598 5.23144 8.97117 5.20736C8.96639 5.18328 8.96102 5.15934 8.95505 5.13552C8.94907 5.11171 8.94253 5.08806 8.93541 5.06455C8.92828 5.04107 8.92059 5.01777 8.91232 4.99466C8.90405 4.97154 8.89521 4.94864 8.88581 4.92597C8.87641 4.90328 8.86648 4.88084 8.85598 4.85866C8.8455 4.83647 8.83446 4.81455 8.82288 4.79289C8.8113 4.77125 8.79921 4.7499 8.7866 4.72884C8.77397 4.70777 8.76084 4.68704 8.7472 4.66663C8.73356 4.64623 8.71943 4.62616 8.7048 4.60645C8.69018 4.58673 8.67509 4.56738 8.65952 4.54839C8.64394 4.52942 8.62791 4.51084 8.61143 4.49266C8.59495 4.47447 8.57803 4.4567 8.56066 4.43934C8.5433 4.42198 8.52553 4.40505 8.50734 4.38857C8.48916 4.37209 8.47057 4.35606 8.45159 4.34048C8.43262 4.3249 8.41327 4.3098 8.39355 4.29517C8.37384 4.28055 8.35376 4.26642 8.33334 4.2528C8.31294 4.23916 8.29221 4.22602 8.27116 4.2134C8.2501 4.20077 8.22874 4.18868 8.20709 4.17712C8.18545 4.16554 8.16352 4.1545 8.14132 4.144C8.11913 4.13352 8.0967 4.12357 8.07403 4.11416C8.05134 4.10477 8.02845 4.09595 8.00534 4.08768C7.98223 4.07941 7.95892 4.07171 7.93542 4.06457C7.91194 4.05745 7.88829 4.05091 7.86448 4.04495C7.84066 4.03898 7.81672 4.0336 7.79264 4.0288C7.76856 4.02402 7.74438 4.01983 7.7201 4.01622C7.69582 4.01263 7.67146 4.00962 7.64702 4.00722C7.6226 4.00481 7.59813 4.00301 7.57359 4.0018C7.54908 4.0006 7.52455 4 7.5 4C7.47545 4 7.45092 4.0006 7.42641 4.0018C7.40187 4.00301 7.3774 4.00481 7.35298 4.00722C7.32854 4.00962 7.30418 4.01263 7.2799 4.01622C7.25562 4.01983 7.23144 4.02402 7.20736 4.0288C7.18328 4.0336 7.15934 4.03898 7.13552 4.04495C7.11171 4.05091 7.08806 4.05745 7.06458 4.06457C7.04108 4.07171 7.01777 4.07941 6.99466 4.08768C6.97155 4.09595 6.94866 4.10477 6.92597 4.11416C6.9033 4.12357 6.88086 4.13352 6.85866 4.144C6.83647 4.1545 6.81455 4.16554 6.79291 4.17712C6.77126 4.18868 6.7499 4.20077 6.72884 4.2134C6.70779 4.22602 6.68705 4.23916 6.66663 4.2528C6.64623 4.26642 6.62616 4.28055 6.60645 4.29517C6.58673 4.3098 6.56738 4.3249 6.54841 4.34048C6.52943 4.35606 6.51084 4.37209 6.49266 4.38857C6.47447 4.40505 6.4567 4.42198 6.43934 4.43934C6.42198 4.4567 6.40505 4.47447 6.38857 4.49266C6.37209 4.51084 6.35606 4.52942 6.34048 4.54839C6.32491 4.56738 6.30982 4.58673 6.2952 4.60645C6.28057 4.62616 6.26644 4.64623 6.2528 4.66663C6.23916 4.68704 6.22602 4.70777 6.2134 4.72884C6.20079 4.7499 6.18869 4.77125 6.17712 4.79289C6.16554 4.81455 6.15451 4.83647 6.14402 4.85866C6.13352 4.88084 6.12358 4.90328 6.11419 4.92597C6.10478 4.94864 6.09595 4.97154 6.08768 4.99466C6.07941 5.01777 6.07172 5.04107 6.06459 5.06455C6.05747 5.08806 6.05092 5.11171 6.04495 5.13552C6.03898 5.15934 6.03361 5.18328 6.02883 5.20736C6.02403 5.23144 6.01984 5.25562 6.01624 5.2799C6.01263 5.30418 6.00962 5.32854 6.00722 5.35298C6.00481 5.3774 6.00301 5.40187 6.0018 5.42638C6.0006 5.45091 6 5.47545 6 5.5Z"   fill="#0063B1" ></path><path d="M8.99999 21L8.89998 21C8.69999 20.9 8.59998 20.8 8.5 20.6L7 5.50002C7 5.3 7.09998 5.10001 7.19999 5C7.39998 5 7.6 5 7.79999 5.10001L20.8 13.8C21 13.9 21.1 14.1 21 14.3C20.9 14.5 20.8 14.7 20.6 14.7L13.6 15.3L9.49998 20.7C9.29999 20.9 9.19998 21 8.99999 21ZM8.09999 6.5L9.4 19.2L12.9 14.6C13 14.5 13.1 14.4 13.3 14.4L19.2 13.9L8.09999 6.5Z"   fill="#000000" ></path></svg>