<svg xmlns="http://www.w3.org/2000/svg" xmlns:xlink="http://www.w3.org/1999/xlink" width="24" height="24" viewBox="0 0 24 24" fill="none"><path   fill="rgba(0, 99, 177, 1)"  d="M15.5 8L15.5 13.5L14.5 13.5L14.5 8L15.5 8ZM14.5 13.5C14.5 13.2239 14.7239 13 15 13C15.2761 13 15.5 13.2239 15.5 13.5C15.5 13.7761 15.2761 14 15 14C14.7239 14 14.5 13.7761 14.5 13.5Z"></path><path   fill="rgba(0, 99, 177, 1)"  d="M15.5 17.5L15.5 21.5L14.5 21.5L14.5 17.5L15.5 17.5ZM14.5 17.5C14.5 17.2239 14.7239 17 15 17C15.2761 17 15.5 17.2239 15.5 17.5C15.5 17.7761 15.2761 18 15 18C14.7239 18 14.5 17.7761 14.5 17.5Z"></path><path   fill="rgba(0, 99, 177, 1)"  d="M10.9987 11.5024L14.9987 11.4924L15.0012 12.4924L11.0013 12.5024L10.9987 11.5024ZM11 12.5024C10.7239 12.5024 10.5 12.2786 10.5 12.0024C10.5 11.7263 10.7239 11.5024 11 11.5024C11.2761 11.5024 11.5 11.7263 11.5 12.0024C11.5 12.2786 11.2761 12.5024 11 12.5024Z"></path><path   fill="rgba(0, 99, 177, 1)"  d="M3.50017 11.5002L7.00017 11.4998L7.00031 12.4998L3.50031 12.5002L3.50017 11.5002ZM7.00032 12.4998C6.72418 12.4998 6.50029 12.276 6.50024 11.9998C6.5002 11.7237 6.72402 11.4998 7.00017 11.4998C7.27631 11.4997 7.5002 11.7235 7.50024 11.9997C7.50029 12.2758 7.27646 12.4997 7.00032 12.4998Z"></path><path d="M3.5 3.5L7 3.5C7.27614 3.5 7.5 3.27614 7.5 3C7.5 2.72386 7.27614 2.5 7 2.5L3.5 2.5C2.94772 2.5 2.5 2.94772 2.5 3.5L2.5 20.5C2.5 21.0523 2.94772 21.5 3.5 21.5L20.5 21.5C21.0523 21.5 21.5 21.0523 21.5 20.5L21.5 9.5C21.5 8.94772 21.0523 8.5 20.5 8.5L15.5 8.5L15.5 3.5C15.5 2.94772 15.0523 2.5 14.5 2.5L11 2.5C10.7239 2.5 10.5 2.72386 10.5 3C10.5 3.27614 10.7239 3.5 11 3.5L14.5 3.5L14.5 9.5L20.5 9.5L20.5 20.5L3.5 20.5L3.5 3.5Z" fill-rule="evenodd"  fill="#000000" ></path></svg>