<svg xmlns="http://www.w3.org/2000/svg" xmlns:xlink="http://www.w3.org/1999/xlink" width="24" height="24" viewBox="0 0 24 24" fill="none"><path d="M6.92 5.55L10.46 2L14 5.55L13.28 6.25L10.95 3.92L10.95 11.01C10.976 11.01 11.0142 11.03 11.04 11.03C11.0658 11.03 11.0845 11.05 11.11 11.05C11.1355 11.05 11.1648 11.07 11.19 11.07C11.2152 11.07 11.2352 11.11 11.26 11.11C11.2848 11.11 11.3155 11.1294 11.34 11.14C11.3645 11.1506 11.3859 11.1585 11.41 11.17C11.4341 11.1815 11.4564 11.1976 11.48 11.21C11.5036 11.2224 11.5268 11.2268 11.55 11.24C11.5732 11.2532 11.5973 11.266 11.62 11.28C11.6427 11.294 11.6678 11.3051 11.69 11.32C11.7122 11.3349 11.7284 11.3544 11.75 11.37C11.7716 11.3856 11.799 11.4136 11.82 11.43C11.841 11.4464 11.8596 11.4528 11.88 11.47C11.9004 11.4872 11.9102 11.5121 11.93 11.53C11.9498 11.5479 11.9809 11.5614 12 11.58C12.0191 11.5986 12.0416 11.6107 12.06 11.63C12.0785 11.6493 12.0923 11.6701 12.11 11.69C12.1277 11.7099 12.143 11.7394 12.16 11.76C12.177 11.7806 12.1937 11.7988 12.21 11.82C12.2262 11.8412 12.2345 11.8583 12.25 11.88C12.2655 11.9017 12.2953 11.9277 12.31 11.95C12.3247 11.9723 12.3361 11.9872 12.35 12.01C12.3639 12.0328 12.377 12.0667 12.39 12.09C12.403 12.1133 12.4078 12.1363 12.42 12.16C12.4322 12.1837 12.4487 12.2058 12.46 12.23C12.4713 12.2542 12.4796 12.2754 12.49 12.3C12.5004 12.3246 12.52 12.3451 12.52 12.37C12.52 12.3949 12.55 12.4247 12.55 12.45C12.55 12.4752 12.57 12.5045 12.57 12.53C12.57 12.5556 12.59 12.5742 12.59 12.6C12.59 12.6258 12.61 12.654 12.61 12.68C12.61 12.706 12.63 12.7338 12.63 12.76L19.79 12.76L17.37 10.44L18.17 9.72L21.71 13.26L18.17 16.8L17.46 16.09L19.79 13.76L12.58 13.76C12.568 13.8028 12.5546 13.848 12.54 13.89C12.5254 13.932 12.5171 13.9689 12.5 14.01C12.4829 14.0511 12.4595 14.09 12.44 14.13C12.4205 14.17 12.4019 14.2113 12.38 14.25C12.3581 14.2887 12.3442 14.3227 12.32 14.36C12.2958 14.3973 12.2564 14.4442 12.23 14.48C12.2036 14.5158 12.1785 14.5459 12.15 14.58C12.1215 14.6141 12.1005 14.6377 12.07 14.67C12.0395 14.7023 12.0024 14.7495 11.97 14.78C11.9376 14.8104 11.9042 14.8316 11.87 14.86C11.8358 14.8884 11.8058 14.9137 11.77 14.94C11.7342 14.9663 11.6974 14.9859 11.66 15.01C11.6226 15.0341 11.5788 15.0682 11.54 15.09C11.5013 15.1118 11.46 15.1306 11.42 15.15C11.38 15.1694 11.3511 15.183 11.31 15.2C11.2689 15.217 11.2221 15.2355 11.18 15.25C11.138 15.2645 11.0929 15.2781 11.05 15.29C11.0072 15.3019 10.9635 15.32 10.92 15.32C10.8765 15.32 10.834 15.34 10.79 15.34C10.746 15.34 10.7043 15.36 10.66 15.36C10.6157 15.36 10.5645 15.38 10.52 15.38C10.4755 15.38 10.4345 15.38 10.39 15.38C10.3455 15.38 10.2943 15.36 10.25 15.36C10.2057 15.36 10.164 15.34 10.12 15.34C10.076 15.34 10.0435 15.32 10 15.32C9.95652 15.32 9.90284 15.3019 9.86 15.29C9.81716 15.2781 9.78203 15.2645 9.74 15.25C9.69798 15.2355 9.6511 15.217 9.61 15.2C9.56891 15.183 9.52999 15.1695 9.49 15.15C9.45002 15.1305 9.40874 15.1119 9.37 15.09C9.33125 15.0681 9.28736 15.0342 9.25 15.01C9.21265 14.9859 9.18583 14.9664 9.15 14.94L4.59 19.5L7.88 19.5L7.88 20.49L2.88 20.5L2.89 15.5L3.89 15.5L3.88 18.79L8.5 14.18C8.48071 14.1428 8.45716 14.1082 8.44 14.07C8.42286 14.0317 8.41495 13.9892 8.4 13.95C8.38506 13.9108 8.37271 13.8699 8.36 13.83C8.3473 13.7901 8.32041 13.7506 8.31 13.71C8.2996 13.6694 8.29 13.6311 8.29 13.59C8.29 13.5489 8.27 13.5115 8.27 13.47C8.27 13.4285 8.25 13.3818 8.25 13.34C8.25 13.2982 8.25 13.2519 8.25 13.21C8.25 13.1681 8.25 13.1319 8.25 13.09C8.25 13.0481 8.25 13.0018 8.25 12.96C8.25 12.9182 8.27 12.8815 8.27 12.84C8.27 12.7985 8.29 12.751 8.29 12.71C8.29 12.6689 8.30918 12.6305 8.32 12.59C8.33083 12.5495 8.34688 12.5098 8.36 12.47C8.37311 12.4302 8.38465 12.389 8.4 12.35C8.41536 12.311 8.43246 12.2781 8.45 12.24C8.46755 12.2019 8.49032 12.167 8.51 12.13C8.52968 12.093 8.54826 12.0458 8.57 12.01C8.59176 11.9742 8.60624 11.9445 8.63 11.91C8.65377 11.8755 8.68432 11.8431 8.71 11.81C8.73569 11.7769 8.76248 11.7416 8.79 11.71C8.81753 11.6784 8.84071 11.65 8.87 11.62C8.89929 11.59 8.92906 11.5583 8.96 11.53C8.99093 11.5017 9.02751 11.4765 9.06 11.45C9.0925 11.4235 9.12606 11.3946 9.16 11.37C9.19397 11.3454 9.22471 11.3226 9.26 11.3C9.2953 11.2774 9.34348 11.2606 9.38 11.24C9.41653 11.2194 9.44238 11.1985 9.48 11.18C9.51765 11.1615 9.55138 11.1463 9.59 11.13C9.62863 11.1137 9.68052 11.0941 9.72001 11.08C9.75949 11.0659 9.78978 11.0518 9.83 11.04C9.87023 11.0282 9.90917 11.01 9.95 11.01L9.95 3.92L7.63 6.25L6.92 5.55ZM11.34 13.16C11.34 13.1455 11.34 13.1345 11.34 13.12C11.34 13.1055 11.34 13.0944 11.34 13.08C11.34 13.0656 11.34 13.0443 11.34 13.03C11.34 13.0157 11.33 13.0042 11.33 12.99C11.33 12.9758 11.32 12.964 11.32 12.95C11.32 12.936 11.31 12.9238 11.31 12.91C11.31 12.8962 11.28 12.8836 11.28 12.87C11.28 12.8564 11.27 12.8434 11.27 12.83C11.27 12.8166 11.25 12.8031 11.25 12.79C11.25 12.7769 11.23 12.7628 11.23 12.75C11.23 12.7372 11.21 12.7124 11.21 12.7C11.21 12.6876 11.19 12.682 11.19 12.67C11.19 12.658 11.17 12.6416 11.17 12.63C11.17 12.6184 11.14 12.6112 11.14 12.6C11.14 12.5888 11.11 12.5807 11.11 12.57C11.11 12.5593 11.08 12.54 11.08 12.54C11.08 12.54 11.0607 12.51 11.05 12.51C11.0393 12.51 11.0312 12.48 11.02 12.48C11.0088 12.48 11.0016 12.46 10.99 12.46C10.9784 12.46 10.952 12.43 10.94 12.43C10.928 12.43 10.9224 12.4 10.91 12.4C10.8976 12.4 10.8828 12.38 10.87 12.38C10.8572 12.38 10.8431 12.36 10.83 12.36C10.8169 12.36 10.8134 12.34 10.8 12.34C10.7867 12.34 10.7736 12.33 10.76 12.33C10.7464 12.33 10.7338 12.31 10.72 12.31C10.7062 12.31 10.694 12.3 10.68 12.3C10.666 12.3 10.6342 12.29 10.62 12.29C10.6058 12.29 10.5943 12.29 10.58 12.29C10.5657 12.29 10.5544 12.28 10.54 12.28C10.5256 12.28 10.5145 12.28 10.5 12.28C10.4856 12.28 10.4745 12.28 10.46 12.28C10.4455 12.28 10.4345 12.28 10.42 12.28C10.4056 12.28 10.3844 12.28 10.37 12.28C10.3556 12.28 10.3443 12.29 10.33 12.29C10.3157 12.29 10.2942 12.29 10.28 12.29C10.2658 12.29 10.254 12.3 10.24 12.3C10.226 12.3 10.2138 12.31 10.2 12.31C10.1862 12.31 10.1736 12.33 10.16 12.33C10.1464 12.33 10.1334 12.34 10.12 12.34C10.1066 12.34 10.0931 12.36 10.08 12.36C10.0669 12.36 10.0528 12.38 10.04 12.38C10.0272 12.38 10.0224 12.4 10.01 12.4C9.9976 12.4 9.97203 12.43 9.96 12.43C9.94798 12.43 9.94162 12.46 9.93 12.46C9.91839 12.46 9.90118 12.48 9.89001 12.48C9.87883 12.48 9.87072 12.51 9.86 12.51C9.84929 12.51 9.83 12.54 9.83 12.54C9.83 12.54 9.8 12.5593 9.8 12.57C9.8 12.5807 9.78 12.5888 9.78 12.6C9.78 12.6112 9.75 12.6184 9.75 12.63C9.75 12.6416 9.73 12.658 9.73 12.67C9.73 12.682 9.7 12.6876 9.7 12.7C9.7 12.7124 9.68 12.7372 9.68 12.75C9.68 12.7628 9.66 12.7769 9.66 12.79C9.66 12.8031 9.64001 12.8166 9.64001 12.83C9.64001 12.8434 9.62 12.8564 9.62 12.87C9.62 12.8836 9.61 12.8962 9.61 12.91C9.61 12.9238 9.6 12.936 9.6 12.95C9.6 12.964 9.59 12.9758 9.59 12.99C9.59 13.0042 9.58 13.0157 9.58 13.03C9.58 13.0443 9.57 13.0656 9.57 13.08C9.57 13.0944 9.57 13.1055 9.57 13.12C9.57 13.1345 9.57 13.1455 9.57 13.16C9.57 13.1745 9.57 13.1955 9.57 13.21C9.57 13.2245 9.57 13.2356 9.57 13.25C9.57 13.2644 9.58 13.2757 9.58 13.29C9.58 13.3043 9.59 13.3158 9.59 13.33C9.59 13.3442 9.6 13.356 9.6 13.37C9.6 13.384 9.61 13.4062 9.61 13.42C9.61 13.4338 9.62 13.4464 9.62 13.46C9.62 13.4736 9.64001 13.4866 9.64001 13.5C9.64001 13.5133 9.66 13.5269 9.66 13.54C9.66 13.5531 9.68 13.5672 9.68 13.58C9.68 13.5928 9.7 13.5976 9.7 13.61C9.7 13.6224 9.73 13.638 9.73 13.65C9.73 13.662 9.75 13.6684 9.75 13.68C9.75 13.6916 9.78 13.7188 9.78 13.73C9.78 13.7412 9.8 13.7493 9.8 13.76C9.8 13.7707 9.83 13.79 9.83 13.79C9.83 13.79 9.84929 13.82 9.86 13.82C9.87072 13.82 9.87883 13.85 9.89001 13.85C9.90118 13.85 9.91839 13.87 9.93 13.87C9.94162 13.87 9.94798 13.9 9.96 13.9C9.97203 13.9 9.9976 13.92 10.01 13.92C10.0224 13.92 10.0272 13.94 10.04 13.94C10.0528 13.94 10.0669 13.96 10.08 13.96C10.0931 13.96 10.1066 13.98 10.12 13.98C10.1334 13.98 10.1464 13.99 10.16 13.99C10.1736 13.99 10.1862 14 10.2 14C10.2138 14 10.226 14.02 10.24 14.02C10.254 14.02 10.2658 14.02 10.28 14.02C10.2942 14.02 10.3157 14.03 10.33 14.03C10.3443 14.03 10.3556 14.04 10.37 14.04C10.3844 14.04 10.4056 14.04 10.42 14.04C10.4345 14.04 10.4455 14.04 10.46 14.04C10.4745 14.04 10.4856 14.04 10.5 14.04C10.5145 14.04 10.5256 14.04 10.54 14.04C10.5544 14.04 10.5657 14.03 10.58 14.03C10.5943 14.03 10.6058 14.02 10.62 14.02C10.6342 14.02 10.666 14.02 10.68 14.02C10.694 14.02 10.7062 14 10.72 14C10.7338 14 10.7464 13.99 10.76 13.99C10.7736 13.99 10.7867 13.98 10.8 13.98C10.8134 13.98 10.8169 13.96 10.83 13.96C10.8431 13.96 10.8572 13.94 10.87 13.94C10.8828 13.94 10.8976 13.92 10.91 13.92C10.9224 13.92 10.928 13.9 10.94 13.9C10.952 13.9 10.9784 13.87 10.99 13.87C11.0016 13.87 11.0088 13.85 11.02 13.85C11.0312 13.85 11.0393 13.82 11.05 13.82C11.0607 13.82 11.08 13.79 11.08 13.79C11.08 13.79 11.11 13.7707 11.11 13.76C11.11 13.7493 11.14 13.7412 11.14 13.73C11.14 13.7188 11.17 13.6916 11.17 13.68C11.17 13.6684 11.19 13.662 11.19 13.65C11.19 13.638 11.21 13.6224 11.21 13.61C11.21 13.5976 11.23 13.5928 11.23 13.58C11.23 13.5672 11.25 13.5531 11.25 13.54C11.25 13.5269 11.27 13.5133 11.27 13.5C11.27 13.4866 11.28 13.4736 11.28 13.46C11.28 13.4464 11.31 13.4338 11.31 13.42C11.31 13.4062 11.32 13.384 11.32 13.37C11.32 13.356 11.33 13.3442 11.33 13.33C11.33 13.3158 11.34 13.3043 11.34 13.29C11.34 13.2757 11.34 13.2644 11.34 13.25C11.34 13.2356 11.34 13.2245 11.34 13.21C11.34 13.1955 11.34 13.1745 11.34 13.16Z"   fill="#000000" ></path></svg>