<svg xmlns="http://www.w3.org/2000/svg" xmlns:xlink="http://www.w3.org/1999/xlink" width="24" height="24" viewBox="0 0 24 24" fill="none"><path d="M11.1263 16.2526C8.86668 16.2526 7 14.386 7 12.1263C7 9.86668 8.86668 8 11.1263 8C13.386 8 15.2526 9.86668 15.2526 12.1263C15.2526 14.386 13.386 16.2526 11.1263 16.2526ZM11.1263 8.98246C9.35791 8.98246 7.98246 10.3579 7.98246 12.1263C7.98246 13.8947 9.35791 15.2702 11.1263 15.2702C12.8947 15.2702 14.2702 13.8947 14.2702 12.1263C14.2702 10.3579 12.8947 8.98246 11.1263 8.98246Z"   fill="#000000" ></path><path d="M15.2632 19.2105L3.37545 19.2105C2.58948 19.2105 2 18.621 2 17.8351L2 6.63508C2 5.84911 2.58948 5.25966 3.37545 5.25966L5.43861 5.25966L5.43861 4.37544C5.43861 3.68772 6.02809 3 6.81403 3L15.4597 3C16.2456 3 16.8351 3.58948 16.8351 4.37544L16.8351 5.25966L18.8982 5.25966C19.6842 5.25966 20.2737 5.84911 20.2737 6.63508L20.2737 13.1193C20.2737 13.414 20.0772 13.6105 19.7825 13.6105C19.4877 13.6105 19.2912 13.414 19.2912 13.1193L19.2912 6.63508C19.2912 6.43859 19.0947 6.24209 18.8982 6.24209L16.3439 6.24209C16.0491 6.24209 15.8526 6.0456 15.8526 5.75086L15.8526 4.37544C15.8526 4.17895 15.6561 3.98246 15.4597 3.98246L6.81403 3.98246C6.61754 3.98246 6.42105 4.17895 6.42105 4.37544L6.42105 5.75086C6.42105 6.0456 6.22455 6.24209 5.92984 6.24209L3.37545 6.24209C3.17895 6.24209 2.98246 6.43859 2.98246 6.63508L2.98246 17.9333C2.98246 18.1298 3.17895 18.3263 3.37545 18.3263L15.2632 18.3263C15.5579 18.3263 15.7544 18.5228 15.7544 18.8175C15.7544 19.1123 15.5579 19.2105 15.2632 19.2105Z"   fill="#000000" ></path><path d="M17.4737 7.98246L16.4912 7.98246C16.1965 7.98246 16 7.78597 16 7.49123C16 7.19649 16.1965 7 16.4912 7L17.4737 7C17.7684 7 17.9649 7.19649 17.9649 7.49123C17.9649 7.78597 17.7684 7.98246 17.4737 7.98246Z"   fill="#000000" ></path><path d="M18.3228 20.6456C15.9649 20.6456 14 18.6807 14 16.3228C14 13.9649 15.9649 12 18.3228 12C20.6807 12 22.6456 13.9649 22.6456 16.3228C22.6456 18.6807 20.6807 20.6456 18.3228 20.6456ZM18.3228 13.0807C16.4562 13.0807 14.9825 14.5544 14.9825 16.4211C14.9825 18.2877 16.4562 19.7614 18.3228 19.7614C20.1895 19.7614 21.6632 18.2877 21.6632 16.4211C21.6632 14.5544 20.0912 13.0807 18.3228 13.0807Z"   fill="#0063B1" ></path><path d="M19.7333 15.786L16.393 15.786C16.1965 15.786 16 15.5895 16 15.393C16 15.1965 16.1965 15 16.393 15L19.7333 15C19.9298 15 20.1263 15.1965 20.1263 15.393C20.1263 15.5895 20.0281 15.786 19.7333 15.786Z"   fill="#0063B1" ></path><path d="M19.4912 16.6702C19.1965 16.6702 19 16.4737 19 16.179L19 15.4912C19 15.1965 19.1965 15 19.4912 15C19.786 15 19.9825 15.1965 19.9825 15.4912L19.9825 16.179C19.9825 16.4737 19.786 16.6702 19.4912 16.6702Z"   fill="#0063B1" ></path><path d="M19.7333 17.786L16.393 17.786C16.1965 17.786 16 17.5895 16 17.393C16 17.1965 16.1965 17 16.393 17L19.7333 17C19.9298 17 20.1263 17.1965 20.1263 17.393C20.1263 17.5895 20.0281 17.786 19.7333 17.786Z"   fill="#0063B1" ></path><path d="M17.4912 18.6702C17.1965 18.6702 17 18.4737 17 18.179L17 17.4912C17 17.1965 17.1965 17 17.4912 17C17.786 17 17.9825 17.1965 17.9825 17.4912L17.9825 18.179C17.9825 18.4737 17.786 18.6702 17.4912 18.6702Z"   fill="#0063B1" ></path></svg>