<svg xmlns="http://www.w3.org/2000/svg" xmlns:xlink="http://www.w3.org/1999/xlink" width="24" height="24" viewBox="0 0 24 24" fill="none"><path d="M11.1352 17.8641C11.2289 17.7797 11.2735 17.6742 11.2664 17.557C11.2594 17.4398 11.2008 17.3297 11.1094 17.2594C10.9078 17.0789 10.5867 17.1117 10.4344 17.2781L7.26799 20.4188C7.1344 20.5828 6.89768 20.7 6.57659 20.7586C6.20862 20.7445 5.96018 20.6789 5.77034 20.5078C5.56643 20.3484 5.43284 20.1 5.41409 19.8352C5.39299 19.5703 5.4844 19.3195 5.6719 19.1273L9.15002 15.5438C9.31174 15.3656 9.30237 15.0703 9.12659 14.9391C9.03518 14.8711 8.91096 14.8313 8.78205 14.8313C8.64377 14.8313 8.52424 14.8758 8.44924 14.9578L4.96643 18.5461C4.22346 19.3266 4.29377 20.4727 5.13049 21.1523C5.50315 21.45 5.94846 21.5953 6.48987 21.5953L6.61877 21.5953C7.1508 21.5555 7.64768 21.3305 8.01799 20.9602L11.1352 17.8641ZM19.5235 12.3867C19.4649 12.007 19.2399 11.6719 18.886 11.4422L15.7688 9.40547C15.5602 9.27188 15.2508 9.31875 15.0844 9.49922C14.918 9.71016 15.0141 9.97266 15.1946 10.1086L18.3 12.1383C18.5672 12.3188 18.6305 12.7172 18.4313 12.9563C18.2414 13.1836 17.7821 13.2445 17.5266 13.0734L16.0852 12.1383C16.0008 12.0844 15.9047 12.0563 15.8039 12.0563C15.6516 12.0563 15.5016 12.1219 15.3985 12.2297C15.2321 12.4406 15.3281 12.7031 15.5086 12.8391L16.9453 13.8117C17.2406 14.0016 17.5594 14.1023 17.8688 14.1023C18.3703 14.1023 18.886 13.8703 19.1555 13.5258C19.4578 13.1813 19.5844 12.7805 19.5235 12.3867Z"   fill="#0063B1" ></path><path d="M15.4172 14.0179L14.4258 12.8695L14.4258 9.06091C14.4258 8.64138 14.2406 8.23123 13.8891 7.87263L13.0055 7.0781L13.2024 6.96091C13.9688 6.49919 14.3203 5.73044 14.3203 4.90544C14.3203 3.49685 13.1133 2.39294 11.5758 2.39294C10.0641 2.39294 8.94143 3.50154 8.94143 4.8656C8.94143 5.24294 9.02581 5.58748 9.19221 5.88748L9.25784 6.00701L6.39377 8.29685C5.72815 8.82419 5.32971 9.62576 5.32971 10.4461L5.32971 12.8086C5.32971 13.6101 6.05393 14.264 6.94221 14.264C7.83049 14.264 8.55471 13.6125 8.55471 12.8086L8.55471 11.1797C8.55471 10.9219 8.67424 10.7039 8.90393 10.5515L9.39377 10.2211L9.39377 13.0148C9.39377 13.1414 9.42659 13.2164 9.51799 13.2984L12.0563 15.9562C12.9633 17.0742 13.4578 18.4125 13.4578 19.7367C13.4578 20.7797 14.3649 21.5976 15.5227 21.5976C16.6805 21.5976 17.5875 20.7797 17.5875 19.7367C17.5875 17.625 16.8164 15.5953 15.4172 14.0179ZM11.5781 3.26716C12.5391 3.26716 13.3547 4.00076 13.3547 4.86794C13.3547 5.73513 12.6469 6.46873 11.686 6.46873C10.725 6.46873 9.91174 5.73513 9.91174 4.86794C9.9094 3.99841 10.6149 3.26716 11.5781 3.26716ZM15.5227 20.7211C14.918 20.7211 14.4258 20.2781 14.4258 19.732C14.4258 18.2203 13.8703 16.7062 12.8625 15.4687L12.8602 15.4687L10.3617 12.832L10.3617 9.34685C10.3617 9.17107 10.2727 9.03279 10.1227 8.97888C9.93987 8.91091 9.72659 8.92263 9.5719 9.00701L8.32268 9.8531C7.87502 10.1461 7.58674 10.6664 7.58674 11.1797L7.58674 12.8086C7.58674 13.1508 7.3219 13.3922 6.94221 13.3922C6.56252 13.3922 6.29768 13.1531 6.29768 12.8086L6.29768 10.4461C6.29768 9.89997 6.55784 9.3656 7.03127 8.93904L9.82737 6.67263L9.95627 6.76873C10.4274 7.1156 11.025 7.30076 11.686 7.30076L11.9461 7.30076L13.2235 8.45154C13.3805 8.59451 13.4602 8.78669 13.4602 9.02341L13.4602 13.0148C13.4602 13.1156 13.5024 13.2234 13.5399 13.2586L14.6391 14.5359C15.9188 16.0195 16.6219 17.8664 16.6219 19.7344C16.6196 20.2781 16.1274 20.7211 15.5227 20.7211Z"   fill="#000000" ></path></svg>